<svg width="320" height="64" viewBox="0 0 320 64" fill="none" xmlns="http://www.w3.org/2000/svg">
<g clip-path="url(#clip0_303_97)">
<path d="M10.2457 0.0399669C8.26301 0.273042 6.24355 1.21652 4.22729 2.84645L4.19057 2.87359H4.15385C3.90655 2.83749 3.65656 2.82307 3.40674 2.83049C2.54745 2.90424 1.75011 3.30785 1.18193 3.95669C0.613755 4.60552 0.318895 5.44916 0.359192 6.31066C0.432586 7.17212 0.837671 7.97141 1.48902 8.53996C2.14036 9.10851 2.98706 9.40188 3.85054 9.3582C4.58021 9.30513 5.27154 9.01096 5.81572 8.52197C6.3599 8.03299 6.72606 7.37695 6.85657 6.65708V6.62675L6.88052 6.60599C8.16722 5.43104 9.48426 4.84994 10.8907 4.84994C11.0503 4.84994 11.2196 4.84994 11.3856 4.87229C13.2709 5.0926 15.2665 6.30906 17.4918 8.57436C19.6757 10.8125 21.9107 13.8234 24.002 16.7448L27.0591 21.0726C28.349 22.8973 29.682 24.7843 31.0342 26.5515C32.2283 28.0537 33.8263 29.9503 35.5855 31.2833C37.4549 32.6961 39.2812 33.2484 41.1618 32.9675L41.7652 32.8605L41.4204 32.4471C37.8668 28.7146 34.9965 24.465 32.9004 21.3712L29.3212 16.1733C26.767 12.4888 24.3628 9.00859 21.8421 6.23882C18.0793 2.02271 14.7476 0.0399669 11.3361 5.66637e-05C10.9722 -0.00625391 10.6082 0.00706884 10.2457 0.0399669V0.0399669Z" fill="#A933FB"/>
<path d="M6.99227 18.3716V18.4035C6.93212 19.1925 6.59164 19.9339 6.0324 20.4938C5.47316 21.0536 4.73208 21.3948 3.94313 21.4558C3.88886 21.4558 3.83458 21.4558 3.78349 21.4558C2.91554 21.4931 2.06833 21.184 1.42824 20.5966C0.788158 20.0092 0.407631 19.1916 0.370372 18.3237C0.333114 17.4557 0.642176 16.6085 1.22957 15.9684C1.81696 15.3283 2.63457 14.9478 3.50252 14.9106H3.75955L9.07399 9.46999C9.45355 9.07654 9.9109 8.76645 10.4169 8.55949C10.9229 8.35252 11.4665 8.25322 12.013 8.2679C12.5351 8.2779 13.0494 8.39746 13.5224 8.61884C13.9954 8.84022 14.4166 9.15848 14.7588 9.55301L14.9392 9.80524L6.99227 18.3716Z" fill="#1EACFC"/>
<path d="M3.78827 26.7495H3.71963C2.85294 26.7495 2.02175 27.0938 1.40891 27.7066C0.796072 28.3195 0.451782 29.1507 0.451782 30.0174C0.451782 30.884 0.796072 31.7152 1.40891 32.3281C2.02175 32.9409 2.85294 33.2852 3.71963 33.2852C3.86843 33.2818 4.01677 33.2674 4.16343 33.2421L4.22729 33.2325C4.95493 33.121 5.62274 32.7646 6.12029 32.222C6.61783 31.6795 6.91531 30.9834 6.96353 30.2488V30.2169L20.4468 15.6257L17.5158 12.0945L3.78827 26.7495Z" fill="#FFB600"/>
<path d="M53.0183 35.3046C55.5103 35.0252 57.9672 33.6555 60.555 31.114L60.5821 31.0885H60.978C61.8308 31.0153 62.6201 30.6078 63.1736 29.9549C63.7272 29.3021 64.0002 28.4568 63.933 27.6035C63.86 26.7421 63.4556 25.9426 62.805 25.3733C62.1544 24.8039 61.3083 24.5092 60.4448 24.5512C59.6576 24.6037 58.917 24.943 58.3633 25.505C57.8096 26.0669 57.4812 26.8125 57.4404 27.6003V27.6323L57.4196 27.6562C55.5917 29.7315 53.7606 30.6591 51.8322 30.4659C49.9484 30.2456 47.9513 29.0291 45.7275 26.7638C43.5388 24.5288 41.3071 21.5196 39.2222 18.5998L36.1507 14.256C34.8735 12.4345 33.5341 10.5523 32.1868 8.78986C30.9927 7.28764 29.3947 5.39111 27.6338 4.05811C25.766 2.64529 23.9397 2.09293 22.0592 2.3739L21.4829 2.44095L21.8852 2.84484C25.4404 6.57884 28.3123 10.8269 30.41 13.9239L33.3665 18.2246C36.3614 22.6674 38.8773 26.2178 41.4236 29.1042C45.1784 33.3219 48.5164 35.3046 51.9296 35.3445C52.2929 35.3497 52.6563 35.3364 53.0183 35.3046V35.3046Z" fill="#0074E8"/>
<path d="M60.7162 19.663H60.8886C61.3176 19.6464 61.7387 19.543 62.1267 19.3592C62.5146 19.1753 62.8613 18.9148 63.1458 18.5933C63.4303 18.2718 63.6467 17.896 63.782 17.4886C63.9173 17.0812 63.9686 16.6506 63.933 16.2228C63.8622 15.3895 63.4812 14.6132 62.8654 14.0473C62.2496 13.4815 61.4439 13.1674 60.6076 13.1672C60.5534 13.1672 60.5007 13.1672 60.448 13.1672C59.6427 13.2242 58.8866 13.5756 58.3239 14.1545C57.7612 14.7334 57.4313 15.4992 57.3973 16.3058V16.3409L48.3744 26.0215L48.5484 26.2306C48.8959 26.6298 49.3239 26.9509 49.8043 27.1729C50.2846 27.3949 50.8065 27.5129 51.3357 27.5189H51.4155C51.9428 27.5202 52.4648 27.4141 52.9497 27.2072C53.4347 27.0002 53.8724 26.6968 54.2364 26.3153L60.7162 19.663Z" fill="#FB24A9"/>
<path d="M42.8237 20.1627L45.7962 23.6988L60.9812 7.48085H61.0131C61.8605 7.39898 62.6417 6.9871 63.188 6.33417C63.7343 5.68124 64.0019 4.83964 63.933 3.9911C63.8604 3.12965 63.4561 2.33005 62.8053 1.76092C62.1546 1.19178 61.3083 0.897586 60.4448 0.940369C59.5861 0.998697 58.7849 1.39262 58.2143 2.03699C57.6437 2.68135 57.3496 3.52438 57.3957 4.38382V4.42214L42.8237 20.1627Z" fill="#FF8500"/>
<path d="M77.1464 29.5001L80.7144 25.6384C83.0659 28.1144 86.3401 29.5416 89.9927 29.5416C94.485 29.5416 96.5013 27.7856 96.5013 25.0493C96.5013 22.0688 93.6868 21.2722 88.8593 20.1372C83.4858 18.8361 78.2799 16.989 78.2799 10.7343C78.2863 5.15008 82.5742 1.11755 90.2098 1.11755C95.205 1.11755 99.0252 2.75387 101.923 5.60825L98.6053 9.51626C96.3799 7.24936 93.5687 5.86368 90.1252 5.86368C86.2204 5.86368 84.2903 7.71072 84.2903 10.1468C84.2903 13.0842 86.9771 13.7148 91.72 14.8898C97.3889 16.317 102.469 18.0826 102.469 24.4682C102.469 30.2616 98.0179 34.2925 89.9576 34.2925C84.4165 34.2861 80.2594 32.6067 77.1464 29.5001Z" fill="#250144"/>
<path d="M124.477 11.2803L115.283 35.3349C113.527 39.9534 111.42 41.968 107.264 41.968C106.211 41.9843 105.161 41.8285 104.158 41.5067V37.3927C104.803 37.555 105.465 37.6397 106.131 37.645C108.145 37.645 109.324 36.8899 110.122 34.3707L101.303 11.2803H107.306L112.973 27.9468H113.066L118.733 11.2803H124.477Z" fill="#250144"/>
<path d="M132.116 14.3022C133.543 12.0768 135.725 10.8173 138.706 10.8173C141.771 10.8173 144.164 12.1614 145.339 14.4283C146.935 11.9938 149.411 10.8173 152.435 10.8173C157.051 10.8173 160.117 13.7147 160.117 18.0809V33.8247H154.449V18.9973C154.449 16.8996 153.231 15.2617 150.671 15.2617C147.901 15.2617 146.178 17.1933 146.178 19.7955V33.8183H140.511V18.9973C140.511 16.8996 139.251 15.2617 136.775 15.2617C134.004 15.2617 132.24 17.1933 132.24 19.7955V33.8183H126.573V11.2802H131.903L132.029 14.3022H132.116Z" fill="#250144"/>
<path d="M168.831 30.9272H168.748V41.5066H163.081V11.2802H168.411L168.538 14.6327H168.622C170.343 12.2381 172.947 10.8125 175.927 10.8125C182.014 10.8125 185.626 15.8508 185.626 22.4423C185.626 29.0339 181.847 34.2813 175.76 34.2813C172.821 34.2861 170.511 33.068 168.831 30.9272ZM179.874 22.5301C179.874 18.7099 178.153 15.2681 174.205 15.2681C170.469 15.2681 168.581 18.5423 168.581 22.6578C168.581 26.8085 170.554 29.8417 174.168 29.8417C177.984 29.8353 179.874 26.6026 179.874 22.5301Z" fill="#250144"/>
<path d="M188.588 1.58215H194.256V14.3438H194.34C195.768 12.12 198.117 10.8174 201.141 10.8174C205.801 10.8174 208.823 13.8825 208.823 18.5009V33.8264H203.156V19.4268C203.156 17.1168 201.813 15.2761 199.126 15.2761C196.103 15.2761 194.256 17.4169 194.256 20.2713V33.8328H188.588V1.58215Z" fill="#250144"/>
<path d="M211.843 22.5732C211.843 15.8555 215.957 10.8173 223.43 10.8173C230.946 10.8173 235.017 15.8555 235.017 22.5732C235.017 29.2478 230.903 34.2861 223.43 34.2861C215.916 34.2861 211.843 29.2478 211.843 22.5732ZM217.59 22.5732C217.59 26.7239 219.522 29.9167 223.425 29.9167C227.329 29.9167 229.262 26.7239 229.262 22.5732C229.262 18.3747 227.33 15.1834 223.425 15.1834C219.52 15.1834 217.595 18.3747 217.595 22.5732H217.59Z" fill="#250144"/>
<path d="M237.981 11.2803H243.313L243.438 14.4731H243.522C244.908 12.2062 247.343 10.8206 250.408 10.8206C255.152 10.8206 258.216 13.9288 258.216 18.5887V33.828H252.549V19.4284C252.549 17.1184 251.163 15.2777 248.519 15.2777C245.496 15.2777 243.649 17.4185 243.649 20.2729V33.8344H237.981V11.2803Z" fill="#250144"/>
<path d="M282.492 11.2803L273.299 35.3349C271.543 39.9534 269.435 41.968 265.28 41.968C264.225 41.9847 263.175 41.8288 262.17 41.5067V37.3927C262.815 37.555 263.478 37.6397 264.143 37.645C266.158 37.645 267.336 36.8899 268.134 34.3707L259.319 11.2803H265.321L270.99 27.9468H271.073L276.741 11.2803H282.492Z" fill="#250144"/>
<path d="M302.642 25.9321H289.207L286.396 33.8247H280.307L292.44 1.57727H299.623L311.756 33.8247H305.458L302.642 25.9321ZM300.921 21.1429L295.972 7.28762H295.888L290.939 21.1429H300.921Z" fill="#FFB600"/>
<path d="M319.641 1.58215H313.68V33.8248H319.641V1.58215Z" fill="#FFB600"/>
<path d="M78.2863 63.783V48.6698H81.7505V63.783H78.2863Z" fill="#250144"/>
<path d="M98.3212 48.6698V63.783H94.9559L88.3835 53.6282H88.3436V63.783H84.9784V48.6698H88.8002L94.916 58.4286H94.9559V48.6698H98.3212Z" fill="#250144"/>
<path d="M101.549 48.6698H107.218C112.689 48.6698 115.01 52.1723 115.01 56.1873C115.01 60.5551 112.354 63.783 107.296 63.783H101.549V48.6698ZM106.923 61.1074C109.854 61.1074 111.488 59.4934 111.488 56.2464C111.488 52.9194 109.732 51.3454 106.843 51.3454H105.013V61.1074H106.923Z" fill="#250144"/>
<path d="M127.274 48.6698H130.658V58.4494C130.658 61.9918 128.238 64.0001 124.086 64.0001C120.326 64.0001 117.63 62.0844 117.63 58.4494V48.6698H121.094V58.4286C121.094 60.1607 122.294 61.3405 124.164 61.3405C126.092 61.3405 127.274 60.223 127.274 58.4286V48.6698Z" fill="#250144"/>
<path d="M132.724 61.8544L134.553 59.6195C135.771 60.755 137.376 61.3831 139.041 61.3755C140.813 61.3755 141.678 60.7066 141.678 59.6035C141.678 58.403 140.458 58.1077 138.254 57.616C135.699 57.0253 133.294 56.0611 133.294 53.0902C133.294 50.4928 135.302 48.4606 139.081 48.4606C141.6 48.4606 143.391 49.2284 144.807 50.389L143.193 52.6815C141.954 51.6582 140.556 51.0851 139.042 51.0851C137.529 51.0851 136.74 51.8322 136.74 52.7581C136.74 53.9187 137.858 54.1741 140.046 54.6658C142.722 55.2772 145.123 56.1824 145.123 59.2523C145.123 62.0268 142.958 63.9952 138.983 63.9952C136.167 64 134.239 63.1922 132.724 61.8544Z" fill="#250144"/>
<path d="M151.126 63.783V51.3853H146.324V48.6714H159.39V51.3853H154.588V63.783H151.126Z" fill="#250144"/>
<path d="M167.794 57.9178H165.099V63.783H161.635V48.6698H168.72C171.671 48.6698 173.796 50.2662 173.796 53.0775C173.796 55.065 172.695 56.4619 171.042 57.1308L174.235 63.783H170.436L167.794 57.9178ZM165.099 55.2821H168.325C169.408 55.2821 170.313 54.6436 170.313 53.3138C170.313 51.9839 169.408 51.3454 168.325 51.3454H165.099V55.2821Z" fill="#250144"/>
<path d="M176.395 63.783V48.6698H179.859V63.783H176.395Z" fill="#250144"/>
<path d="M192.297 60.4768H186.413L185.295 63.783H181.807L187.318 48.6698H191.489L197.019 63.783H193.418L192.297 60.4768ZM191.411 57.8587L189.383 51.8179H189.345L187.299 57.8587H191.411Z" fill="#250144"/>
<path d="M198.968 48.6698H202.433V61.0675H209.477V63.7814H198.968V48.6698Z" fill="#250144"/>
</g>
<defs>
<clipPath id="clip0_303_97">
<rect width="319.282" height="64" fill="white" transform="translate(0.359192)"/>
</clipPath>
</defs>
</svg>