<?xml version="1.0" encoding="UTF-8"?>
<!DOCTYPE svg PUBLIC "-//W3C//DTD SVG 1.1//EN" "http://www.w3.org/Graphics/SVG/1.1/DTD/svg11.dtd">
<svg xmlns="http://www.w3.org/2000/svg" version="1.1" width="270px" height="164px" style="shape-rendering:geometricPrecision; text-rendering:geometricPrecision; image-rendering:optimizeQuality; fill-rule:evenodd; clip-rule:evenodd" xmlns:xlink="http://www.w3.org/1999/xlink">
<g><path style="opacity:1" fill="#fdfefd" d="M -0.5,-0.5 C 89.5,-0.5 179.5,-0.5 269.5,-0.5C 269.5,54.1667 269.5,108.833 269.5,163.5C 179.5,163.5 89.5,163.5 -0.5,163.5C -0.5,108.833 -0.5,54.1667 -0.5,-0.5 Z"/></g>
<g><path style="opacity:1" fill="#858b93" d="M 210.5,10.5 C 208.5,10.5 206.5,10.5 204.5,10.5C 201.5,10.5 198.5,10.5 195.5,10.5C 193.167,10.5 190.833,10.5 188.5,10.5C 154.167,10.5 119.833,10.5 85.5,10.5C 83.1667,10.5 80.8333,10.5 78.5,10.5C 65.1667,10.5 51.8333,10.5 38.5,10.5C 36.1667,10.5 33.8333,10.5 31.5,10.5C 31.5,9.5 31.5,8.5 31.5,7.5C 91.1667,7.5 150.833,7.5 210.5,7.5C 210.5,8.5 210.5,9.5 210.5,10.5 Z"/></g>
<g><path style="opacity:1" fill="#737d98" d="M 31.5,10.5 C 33.8333,10.5 36.1667,10.5 38.5,10.5C 38.5,11.8333 38.5,13.1667 38.5,14.5C 36.1667,14.5 33.8333,14.5 31.5,14.5C 31.5,15.5 31.5,16.5 31.5,17.5C 30.5,17.5 29.5,17.5 28.5,17.5C 28.5,18.5 28.5,19.5 28.5,20.5C 27.5,20.5 26.5,20.5 25.5,20.5C 25.5,21.5 25.5,22.5 25.5,23.5C 24.5,23.5 23.5,23.5 22.5,23.5C 21.5,23.5 20.5,23.5 19.5,23.5C 19.5,22.5 19.5,21.5 19.5,20.5C 20.5,20.5 21.5,20.5 22.5,20.5C 22.5,19.5 22.5,18.5 22.5,17.5C 23.5,17.5 24.5,17.5 25.5,17.5C 25.5,16.5 25.5,15.5 25.5,14.5C 25.5,13.1667 25.5,11.8333 25.5,10.5C 27.5,10.5 29.5,10.5 31.5,10.5 Z"/></g>
<g><path style="opacity:1" fill="#8798b5" d="M 38.5,10.5 C 51.8333,10.5 65.1667,10.5 78.5,10.5C 78.5,11.8333 78.5,13.1667 78.5,14.5C 65.1667,14.5 51.8333,14.5 38.5,14.5C 38.5,13.1667 38.5,11.8333 38.5,10.5 Z"/></g>
<g><path style="opacity:1" fill="#8596b2" d="M 85.5,10.5 C 119.833,10.5 154.167,10.5 188.5,10.5C 188.5,11.8333 188.5,13.1667 188.5,14.5C 154.167,14.5 119.833,14.5 85.5,14.5C 85.5,13.1667 85.5,11.8333 85.5,10.5 Z"/></g>
<g><path style="opacity:1" fill="#8693b4" d="M 195.5,10.5 C 198.5,10.5 201.5,10.5 204.5,10.5C 204.5,11.8333 204.5,13.1667 204.5,14.5C 201.5,14.5 198.5,14.5 195.5,14.5C 195.5,13.1667 195.5,11.8333 195.5,10.5 Z"/></g>
<g><path style="opacity:1" fill="#586378" d="M 204.5,10.5 C 206.5,10.5 208.5,10.5 210.5,10.5C 210.5,11.8333 210.5,13.1667 210.5,14.5C 208.5,14.5 206.5,14.5 204.5,14.5C 204.5,13.1667 204.5,11.8333 204.5,10.5 Z"/></g>
<g><path style="opacity:1" fill="#818c92" d="M 210.5,10.5 C 211.833,10.5 213.167,10.5 214.5,10.5C 214.5,11.8333 214.5,13.1667 214.5,14.5C 215.5,14.5 216.5,14.5 217.5,14.5C 217.5,15.5 217.5,16.5 217.5,17.5C 216.5,17.5 215.5,17.5 214.5,17.5C 213.167,17.5 211.833,17.5 210.5,17.5C 210.5,16.5 210.5,15.5 210.5,14.5C 210.5,13.1667 210.5,11.8333 210.5,10.5 Z"/></g>
<g><path style="opacity:1" fill="#a19fb0" d="M 25.5,14.5 C 25.5,15.5 25.5,16.5 25.5,17.5C 24.5,17.5 23.5,17.5 22.5,17.5C 22.5,16.5 22.5,15.5 22.5,14.5C 23.5,14.5 24.5,14.5 25.5,14.5 Z"/></g>
<g><path style="opacity:1" fill="#e3fbff" d="M 85.5,14.5 C 119.833,14.5 154.167,14.5 188.5,14.5C 188.5,15.5 188.5,16.5 188.5,17.5C 154.167,17.5 119.833,17.5 85.5,17.5C 85.5,16.5 85.5,15.5 85.5,14.5 Z"/></g>
<g><path style="opacity:1" fill="#345184" d="M 78.5,10.5 C 80.8333,10.5 83.1667,10.5 85.5,10.5C 85.5,11.8333 85.5,13.1667 85.5,14.5C 85.5,15.5 85.5,16.5 85.5,17.5C 85.5,18.5 85.5,19.5 85.5,20.5C 85.5,21.5 85.5,22.5 85.5,23.5C 85.5,24.5 85.5,25.5 85.5,26.5C 87.5,26.5 89.5,26.5 91.5,26.5C 91.5,27.5 91.5,28.5 91.5,29.5C 89.5,29.5 87.5,29.5 85.5,29.5C 85.5,30.5 85.5,31.5 85.5,32.5C 85.5,33.8333 85.5,35.1667 85.5,36.5C 85.5,37.5 85.5,38.5 85.5,39.5C 85.5,40.5 85.5,41.5 85.5,42.5C 86.5,42.5 87.5,42.5 88.5,42.5C 88.5,43.5 88.5,44.5 88.5,45.5C 87.5,45.5 86.5,45.5 85.5,45.5C 85.5,46.5 85.5,47.5 85.5,48.5C 85.5,50.5 85.5,52.5 85.5,54.5C 84.5,54.5 83.5,54.5 82.5,54.5C 82.5,41.1667 82.5,27.8333 82.5,14.5C 81.1667,14.5 79.8333,14.5 78.5,14.5C 78.5,13.1667 78.5,11.8333 78.5,10.5 Z"/></g>
<g><path style="opacity:1" fill="#8ca3bf" d="M 85.5,17.5 C 119.833,17.5 154.167,17.5 188.5,17.5C 188.5,18.5 188.5,19.5 188.5,20.5C 154.167,20.5 119.833,20.5 85.5,20.5C 85.5,19.5 85.5,18.5 85.5,17.5 Z"/></g>
<g><path style="opacity:1" fill="#69829d" d="M 85.5,20.5 C 119.833,20.5 154.167,20.5 188.5,20.5C 188.5,21.5 188.5,22.5 188.5,23.5C 154.167,23.5 119.833,23.5 85.5,23.5C 85.5,22.5 85.5,21.5 85.5,20.5 Z"/></g>
<g><path style="opacity:1" fill="#e3f0ff" d="M 19.5,20.5 C 19.5,21.5 19.5,22.5 19.5,23.5C 19.5,56.8333 19.5,90.1667 19.5,123.5C 18.5,123.5 17.5,123.5 16.5,123.5C 16.5,122.5 16.5,121.5 16.5,120.5C 16.5,87.1667 16.5,53.8333 16.5,20.5C 17.5,20.5 18.5,20.5 19.5,20.5 Z"/></g>
<g><path style="opacity:1" fill="#fefefd" d="M 75.5,123.5 C 75.5,124.833 75.5,126.167 75.5,127.5C 75.5,128.5 75.5,129.5 75.5,130.5C 74.5,130.5 73.5,130.5 72.5,130.5C 58.8333,130.5 45.1667,130.5 31.5,130.5C 30.5,130.5 29.5,130.5 28.5,130.5C 28.5,129.5 28.5,128.5 28.5,127.5C 27.5,127.5 26.5,127.5 25.5,127.5C 25.5,125.167 25.5,122.833 25.5,120.5C 25.5,92.5 25.5,64.5 25.5,36.5C 26.5,36.5 27.5,36.5 28.5,36.5C 28.5,32.1667 28.5,27.8333 28.5,23.5C 44.1667,23.5 59.8333,23.5 75.5,23.5C 75.5,56.8333 75.5,90.1667 75.5,123.5 Z"/></g>
<g><path style="opacity:1" fill="#f1feff" d="M 38.5,14.5 C 51.8333,14.5 65.1667,14.5 78.5,14.5C 78.5,27.8333 78.5,41.1667 78.5,54.5C 78.5,71.5 78.5,88.5 78.5,105.5C 78.5,111.5 78.5,117.5 78.5,123.5C 77.5,123.5 76.5,123.5 75.5,123.5C 75.5,90.1667 75.5,56.8333 75.5,23.5C 59.8333,23.5 44.1667,23.5 28.5,23.5C 28.5,27.8333 28.5,32.1667 28.5,36.5C 27.5,36.5 26.5,36.5 25.5,36.5C 25.5,32.1667 25.5,27.8333 25.5,23.5C 25.5,22.5 25.5,21.5 25.5,20.5C 26.5,20.5 27.5,20.5 28.5,20.5C 28.5,19.5 28.5,18.5 28.5,17.5C 29.5,17.5 30.5,17.5 31.5,17.5C 31.5,16.5 31.5,15.5 31.5,14.5C 33.8333,14.5 36.1667,14.5 38.5,14.5 Z"/></g>
<g><path style="opacity:1" fill="#708dc2" d="M 78.5,14.5 C 79.8333,14.5 81.1667,14.5 82.5,14.5C 82.5,27.8333 82.5,41.1667 82.5,54.5C 81.1667,54.5 79.8333,54.5 78.5,54.5C 78.5,41.1667 78.5,27.8333 78.5,14.5 Z"/></g>
<g><path style="opacity:1" fill="#bcd9fb" d="M 85.5,23.5 C 119.833,23.5 154.167,23.5 188.5,23.5C 188.5,24.5 188.5,25.5 188.5,26.5C 186.5,26.5 184.5,26.5 182.5,26.5C 152.167,26.5 121.833,26.5 91.5,26.5C 89.5,26.5 87.5,26.5 85.5,26.5C 85.5,25.5 85.5,24.5 85.5,23.5 Z"/></g>
<g><path style="opacity:1" fill="#f9fefd" d="M 195.5,14.5 C 198.5,14.5 201.5,14.5 204.5,14.5C 206.5,14.5 208.5,14.5 210.5,14.5C 210.5,15.5 210.5,16.5 210.5,17.5C 210.5,54.1667 210.5,90.8333 210.5,127.5C 210.5,128.5 210.5,129.5 210.5,130.5C 209.5,130.5 208.5,130.5 207.5,130.5C 205.5,130.5 203.5,130.5 201.5,130.5C 201.5,129.5 201.5,128.5 201.5,127.5C 200.5,127.5 199.5,127.5 198.5,127.5C 198.5,126.167 198.5,124.833 198.5,123.5C 197.5,123.5 196.5,123.5 195.5,123.5C 195.5,87.1667 195.5,50.8333 195.5,14.5 Z"/></g>
<g><path style="opacity:1" fill="#3e5d83" d="M 91.5,26.5 C 121.833,26.5 152.167,26.5 182.5,26.5C 182.5,27.5 182.5,28.5 182.5,29.5C 152.167,29.5 121.833,29.5 91.5,29.5C 91.5,28.5 91.5,27.5 91.5,26.5 Z"/></g>
<g><path style="opacity:1" fill="#e2eefb" d="M 22.5,23.5 C 23.5,23.5 24.5,23.5 25.5,23.5C 25.5,27.8333 25.5,32.1667 25.5,36.5C 25.5,64.5 25.5,92.5 25.5,120.5C 24.5,120.5 23.5,120.5 22.5,120.5C 22.5,88.1667 22.5,55.8333 22.5,23.5 Z"/></g>
<g><path style="opacity:1" fill="#a1c1e7" d="M 91.5,29.5 C 121.833,29.5 152.167,29.5 182.5,29.5C 184.5,29.5 186.5,29.5 188.5,29.5C 188.5,30.5 188.5,31.5 188.5,32.5C 186.5,32.5 184.5,32.5 182.5,32.5C 150.167,32.5 117.833,32.5 85.5,32.5C 85.5,31.5 85.5,30.5 85.5,29.5C 87.5,29.5 89.5,29.5 91.5,29.5 Z"/></g>
<g><path style="opacity:1" fill="#7896bd" d="M 85.5,32.5 C 117.833,32.5 150.167,32.5 182.5,32.5C 182.5,33.8333 182.5,35.1667 182.5,36.5C 150.167,36.5 117.833,36.5 85.5,36.5C 85.5,35.1667 85.5,33.8333 85.5,32.5 Z"/></g>
<g><path style="opacity:1" fill="#35588c" d="M 182.5,26.5 C 184.5,26.5 186.5,26.5 188.5,26.5C 189.833,26.5 191.167,26.5 192.5,26.5C 192.5,30.8333 192.5,35.1667 192.5,39.5C 191.167,39.5 189.833,39.5 188.5,39.5C 188.5,37.1667 188.5,34.8333 188.5,32.5C 188.5,31.5 188.5,30.5 188.5,29.5C 186.5,29.5 184.5,29.5 182.5,29.5C 182.5,28.5 182.5,27.5 182.5,26.5 Z"/></g>
<g><path style="opacity:1" fill="#8eaddb" d="M 182.5,32.5 C 184.5,32.5 186.5,32.5 188.5,32.5C 188.5,34.8333 188.5,37.1667 188.5,39.5C 154.167,39.5 119.833,39.5 85.5,39.5C 85.5,38.5 85.5,37.5 85.5,36.5C 117.833,36.5 150.167,36.5 182.5,36.5C 182.5,35.1667 182.5,33.8333 182.5,32.5 Z"/></g>
<g><path style="opacity:1" fill="#c2e0ff" d="M 85.5,39.5 C 119.833,39.5 154.167,39.5 188.5,39.5C 188.5,40.5 188.5,41.5 188.5,42.5C 186.5,42.5 184.5,42.5 182.5,42.5C 151.167,42.5 119.833,42.5 88.5,42.5C 87.5,42.5 86.5,42.5 85.5,42.5C 85.5,41.5 85.5,40.5 85.5,39.5 Z"/></g>
<g><path style="opacity:1" fill="#234267" d="M 88.5,42.5 C 119.833,42.5 151.167,42.5 182.5,42.5C 182.5,43.5 182.5,44.5 182.5,45.5C 151.167,45.5 119.833,45.5 88.5,45.5C 88.5,44.5 88.5,43.5 88.5,42.5 Z"/></g>
<g><path style="opacity:1" fill="#1a3d75" d="M 182.5,42.5 C 184.5,42.5 186.5,42.5 188.5,42.5C 189.833,42.5 191.167,42.5 192.5,42.5C 192.5,43.5 192.5,44.5 192.5,45.5C 191.167,45.5 189.833,45.5 188.5,45.5C 186.5,45.5 184.5,45.5 182.5,45.5C 182.5,44.5 182.5,43.5 182.5,42.5 Z"/></g>
<g><path style="opacity:1" fill="#98b8d8" d="M 88.5,45.5 C 119.833,45.5 151.167,45.5 182.5,45.5C 184.5,45.5 186.5,45.5 188.5,45.5C 188.5,46.5 188.5,47.5 188.5,48.5C 154.167,48.5 119.833,48.5 85.5,48.5C 85.5,47.5 85.5,46.5 85.5,45.5C 86.5,45.5 87.5,45.5 88.5,45.5 Z"/></g>
<g><path style="opacity:1" fill="#eafcfe" d="M 85.5,48.5 C 119.833,48.5 154.167,48.5 188.5,48.5C 188.5,65.1667 188.5,81.8333 188.5,98.5C 186.5,98.5 184.5,98.5 182.5,98.5C 182.5,97.5 182.5,96.5 182.5,95.5C 183.5,95.5 184.5,95.5 185.5,95.5C 185.5,82.8333 185.5,70.1667 185.5,57.5C 184.5,57.5 183.5,57.5 182.5,57.5C 182.5,56.5 182.5,55.5 182.5,54.5C 166.833,54.5 151.167,54.5 135.5,54.5C 135.5,55.5 135.5,56.5 135.5,57.5C 134.5,57.5 133.5,57.5 132.5,57.5C 132.5,56.5 132.5,55.5 132.5,54.5C 130.5,54.5 128.5,54.5 126.5,54.5C 126.5,55.5 126.5,56.5 126.5,57.5C 125.167,57.5 123.833,57.5 122.5,57.5C 122.5,56.5 122.5,55.5 122.5,54.5C 116.5,54.5 110.5,54.5 104.5,54.5C 104.5,53.5 104.5,52.5 104.5,51.5C 102.167,51.5 99.8333,51.5 97.5,51.5C 97.5,52.5 97.5,53.5 97.5,54.5C 94.5,54.5 91.5,54.5 88.5,54.5C 88.5,68.1667 88.5,81.8333 88.5,95.5C 89.5,95.5 90.5,95.5 91.5,95.5C 91.5,96.5 91.5,97.5 91.5,98.5C 89.5,98.5 87.5,98.5 85.5,98.5C 85.5,83.8333 85.5,69.1667 85.5,54.5C 85.5,52.5 85.5,50.5 85.5,48.5 Z"/></g>
<g><path style="opacity:1" fill="#fbfdfc" d="M 122.5,57.5 C 122.5,58.8333 122.5,60.1667 122.5,61.5C 121.5,61.5 120.5,61.5 119.5,61.5C 119.5,62.5 119.5,63.5 119.5,64.5C 118.5,64.5 117.5,64.5 116.5,64.5C 116.5,65.5 116.5,66.5 116.5,67.5C 115.5,67.5 114.5,67.5 113.5,67.5C 112.5,67.5 111.5,67.5 110.5,67.5C 110.5,68.5 110.5,69.5 110.5,70.5C 109.5,70.5 108.5,70.5 107.5,70.5C 107.5,74.8333 107.5,79.1667 107.5,83.5C 111.5,83.5 115.5,83.5 119.5,83.5C 119.5,81.1667 119.5,78.8333 119.5,76.5C 123.833,76.5 128.167,76.5 132.5,76.5C 132.5,77.5 132.5,78.5 132.5,79.5C 133.5,79.5 134.5,79.5 135.5,79.5C 135.5,80.8333 135.5,82.1667 135.5,83.5C 136.5,83.5 137.5,83.5 138.5,83.5C 138.5,84.5 138.5,85.5 138.5,86.5C 139.5,86.5 140.5,86.5 141.5,86.5C 141.5,87.5 141.5,88.5 141.5,89.5C 144.833,89.5 148.167,89.5 151.5,89.5C 151.5,88.5 151.5,87.5 151.5,86.5C 152.5,86.5 153.5,86.5 154.5,86.5C 154.5,85.5 154.5,84.5 154.5,83.5C 155.5,83.5 156.5,83.5 157.5,83.5C 157.5,82.1667 157.5,80.8333 157.5,79.5C 158.5,79.5 159.5,79.5 160.5,79.5C 160.5,78.5 160.5,77.5 160.5,76.5C 162.5,76.5 164.5,76.5 166.5,76.5C 166.5,73.5 166.5,70.5 166.5,67.5C 164.5,67.5 162.5,67.5 160.5,67.5C 160.5,68.5 160.5,69.5 160.5,70.5C 159.5,70.5 158.5,70.5 157.5,70.5C 157.5,71.5 157.5,72.5 157.5,73.5C 156.5,73.5 155.5,73.5 154.5,73.5C 154.5,74.5 154.5,75.5 154.5,76.5C 153.5,76.5 152.5,76.5 151.5,76.5C 151.5,77.5 151.5,78.5 151.5,79.5C 151.5,80.8333 151.5,82.1667 151.5,83.5C 149.167,83.5 146.833,83.5 144.5,83.5C 144.5,82.1667 144.5,80.8333 144.5,79.5C 143.5,79.5 142.5,79.5 141.5,79.5C 141.5,78.5 141.5,77.5 141.5,76.5C 141.5,73.5 141.5,70.5 141.5,67.5C 140.5,67.5 139.5,67.5 138.5,67.5C 138.5,65.5 138.5,63.5 138.5,61.5C 137.5,61.5 136.5,61.5 135.5,61.5C 135.5,60.1667 135.5,58.8333 135.5,57.5C 135.5,56.5 135.5,55.5 135.5,54.5C 151.167,54.5 166.833,54.5 182.5,54.5C 182.5,55.5 182.5,56.5 182.5,57.5C 183.5,57.5 184.5,57.5 185.5,57.5C 185.5,70.1667 185.5,82.8333 185.5,95.5C 184.5,95.5 183.5,95.5 182.5,95.5C 152.167,95.5 121.833,95.5 91.5,95.5C 90.5,95.5 89.5,95.5 88.5,95.5C 88.5,81.8333 88.5,68.1667 88.5,54.5C 91.5,54.5 94.5,54.5 97.5,54.5C 97.5,53.5 97.5,52.5 97.5,51.5C 99.8333,51.5 102.167,51.5 104.5,51.5C 104.5,52.5 104.5,53.5 104.5,54.5C 110.5,54.5 116.5,54.5 122.5,54.5C 122.5,55.5 122.5,56.5 122.5,57.5 Z"/></g>
<g><path style="opacity:1" fill="#617184" d="M 135.5,57.5 C 135.5,58.8333 135.5,60.1667 135.5,61.5C 136.5,61.5 137.5,61.5 138.5,61.5C 138.5,63.5 138.5,65.5 138.5,67.5C 138.5,69.5 138.5,71.5 138.5,73.5C 137.5,73.5 136.5,73.5 135.5,73.5C 135.5,71.5 135.5,69.5 135.5,67.5C 134.5,67.5 133.5,67.5 132.5,67.5C 132.5,65.5 132.5,63.5 132.5,61.5C 130.5,61.5 128.5,61.5 126.5,61.5C 126.5,62.5 126.5,63.5 126.5,64.5C 125.167,64.5 123.833,64.5 122.5,64.5C 122.5,65.5 122.5,66.5 122.5,67.5C 121.5,67.5 120.5,67.5 119.5,67.5C 119.5,68.5 119.5,69.5 119.5,70.5C 117.5,70.5 115.5,70.5 113.5,70.5C 113.5,69.5 113.5,68.5 113.5,67.5C 114.5,67.5 115.5,67.5 116.5,67.5C 116.5,66.5 116.5,65.5 116.5,64.5C 117.5,64.5 118.5,64.5 119.5,64.5C 119.5,63.5 119.5,62.5 119.5,61.5C 120.5,61.5 121.5,61.5 122.5,61.5C 122.5,60.1667 122.5,58.8333 122.5,57.5C 123.833,57.5 125.167,57.5 126.5,57.5C 126.5,56.5 126.5,55.5 126.5,54.5C 128.5,54.5 130.5,54.5 132.5,54.5C 132.5,55.5 132.5,56.5 132.5,57.5C 133.5,57.5 134.5,57.5 135.5,57.5 Z"/></g>
<g><path style="opacity:1" fill="#536e92" d="M 188.5,10.5 C 190.833,10.5 193.167,10.5 195.5,10.5C 195.5,11.8333 195.5,13.1667 195.5,14.5C 195.5,50.8333 195.5,87.1667 195.5,123.5C 195.5,124.833 195.5,126.167 195.5,127.5C 196.5,127.5 197.5,127.5 198.5,127.5C 198.5,128.5 198.5,129.5 198.5,130.5C 197.5,130.5 196.5,130.5 195.5,130.5C 194.5,130.5 193.5,130.5 192.5,130.5C 192.5,129.5 192.5,128.5 192.5,127.5C 192.5,126.167 192.5,124.833 192.5,123.5C 192.5,122.5 192.5,121.5 192.5,120.5C 191.167,120.5 189.833,120.5 188.5,120.5C 188.5,119.5 188.5,118.5 188.5,117.5C 189.833,117.5 191.167,117.5 192.5,117.5C 192.5,113.5 192.5,109.5 192.5,105.5C 191.167,105.5 189.833,105.5 188.5,105.5C 188.5,104.167 188.5,102.833 188.5,101.5C 188.5,100.5 188.5,99.5 188.5,98.5C 188.5,81.8333 188.5,65.1667 188.5,48.5C 188.5,47.5 188.5,46.5 188.5,45.5C 189.833,45.5 191.167,45.5 192.5,45.5C 192.5,44.5 192.5,43.5 192.5,42.5C 191.167,42.5 189.833,42.5 188.5,42.5C 188.5,41.5 188.5,40.5 188.5,39.5C 189.833,39.5 191.167,39.5 192.5,39.5C 192.5,35.1667 192.5,30.8333 192.5,26.5C 191.167,26.5 189.833,26.5 188.5,26.5C 188.5,25.5 188.5,24.5 188.5,23.5C 188.5,22.5 188.5,21.5 188.5,20.5C 188.5,19.5 188.5,18.5 188.5,17.5C 188.5,16.5 188.5,15.5 188.5,14.5C 188.5,13.1667 188.5,11.8333 188.5,10.5 Z"/></g>
<g><path style="opacity:1" fill="#dbdfe2" d="M 217.5,61.5 C 227.833,61.5 238.167,61.5 248.5,61.5C 248.5,62.5 248.5,63.5 248.5,64.5C 238.167,64.5 227.833,64.5 217.5,64.5C 217.5,63.5 217.5,62.5 217.5,61.5 Z"/></g>
<g><path style="opacity:1" fill="#767c80" d="M 217.5,64.5 C 227.833,64.5 238.167,64.5 248.5,64.5C 248.5,65.5 248.5,66.5 248.5,67.5C 238.167,67.5 227.833,67.5 217.5,67.5C 217.5,66.5 217.5,65.5 217.5,64.5 Z"/></g>
<g><path style="opacity:1" fill="#9cb8d1" d="M 122.5,67.5 C 122.5,68.5 122.5,69.5 122.5,70.5C 121.5,70.5 120.5,70.5 119.5,70.5C 119.5,69.5 119.5,68.5 119.5,67.5C 120.5,67.5 121.5,67.5 122.5,67.5 Z"/></g>
<g><path style="opacity:1" fill="#9baece" d="M 210.5,17.5 C 211.833,17.5 213.167,17.5 214.5,17.5C 214.5,54.1667 214.5,90.8333 214.5,127.5C 213.167,127.5 211.833,127.5 210.5,127.5C 210.5,90.8333 210.5,54.1667 210.5,17.5 Z"/></g>
<g><path style="opacity:1" fill="#8898ba" d="M 113.5,67.5 C 113.5,68.5 113.5,69.5 113.5,70.5C 115.5,70.5 117.5,70.5 119.5,70.5C 119.5,71.5 119.5,72.5 119.5,73.5C 116.5,73.5 113.5,73.5 110.5,73.5C 110.5,72.5 110.5,71.5 110.5,70.5C 110.5,69.5 110.5,68.5 110.5,67.5C 111.5,67.5 112.5,67.5 113.5,67.5 Z"/></g>
<g><path style="opacity:1" fill="#979ba4" d="M 160.5,70.5 C 160.5,71.5 160.5,72.5 160.5,73.5C 159.5,73.5 158.5,73.5 157.5,73.5C 157.5,72.5 157.5,71.5 157.5,70.5C 158.5,70.5 159.5,70.5 160.5,70.5 Z"/></g>
<g><path style="opacity:1" fill="#53565d" d="M 160.5,70.5 C 161.5,70.5 162.5,70.5 163.5,70.5C 163.5,71.5 163.5,72.5 163.5,73.5C 162.5,73.5 161.5,73.5 160.5,73.5C 160.5,72.5 160.5,71.5 160.5,70.5 Z"/></g>
<g><path style="opacity:1" fill="#4e5d74" d="M 19.5,23.5 C 20.5,23.5 21.5,23.5 22.5,23.5C 22.5,55.8333 22.5,88.1667 22.5,120.5C 22.5,121.5 22.5,122.5 22.5,123.5C 21.5,123.5 20.5,123.5 19.5,123.5C 19.5,90.1667 19.5,56.8333 19.5,23.5 Z"/></g>
<g><path style="opacity:1" fill="#8196a9" d="M 138.5,67.5 C 139.5,67.5 140.5,67.5 141.5,67.5C 141.5,70.5 141.5,73.5 141.5,76.5C 140.5,76.5 139.5,76.5 138.5,76.5C 137.5,76.5 136.5,76.5 135.5,76.5C 135.5,75.5 135.5,74.5 135.5,73.5C 136.5,73.5 137.5,73.5 138.5,73.5C 138.5,71.5 138.5,69.5 138.5,67.5 Z"/></g>
<g><path style="opacity:1" fill="#4e5e76" d="M 157.5,73.5 C 158.5,73.5 159.5,73.5 160.5,73.5C 160.5,74.5 160.5,75.5 160.5,76.5C 159.5,76.5 158.5,76.5 157.5,76.5C 157.5,77.5 157.5,78.5 157.5,79.5C 156.5,79.5 155.5,79.5 154.5,79.5C 154.5,78.5 154.5,77.5 154.5,76.5C 154.5,75.5 154.5,74.5 154.5,73.5C 155.5,73.5 156.5,73.5 157.5,73.5 Z"/></g>
<g><path style="opacity:1" fill="#cfd1db" d="M 160.5,76.5 C 160.5,75.5 160.5,74.5 160.5,73.5C 161.5,73.5 162.5,73.5 163.5,73.5C 163.5,72.5 163.5,71.5 163.5,70.5C 162.5,70.5 161.5,70.5 160.5,70.5C 160.5,69.5 160.5,68.5 160.5,67.5C 162.5,67.5 164.5,67.5 166.5,67.5C 166.5,70.5 166.5,73.5 166.5,76.5C 164.5,76.5 162.5,76.5 160.5,76.5 Z"/></g>
<g><path style="opacity:1" fill="#485d7a" d="M 82.5,54.5 C 83.5,54.5 84.5,54.5 85.5,54.5C 85.5,69.1667 85.5,83.8333 85.5,98.5C 85.5,99.5 85.5,100.5 85.5,101.5C 85.5,102.833 85.5,104.167 85.5,105.5C 84.5,105.5 83.5,105.5 82.5,105.5C 82.5,88.5 82.5,71.5 82.5,54.5 Z"/></g>
<g><path style="opacity:1" fill="#93a1af" d="M 154.5,76.5 C 154.5,77.5 154.5,78.5 154.5,79.5C 153.5,79.5 152.5,79.5 151.5,79.5C 151.5,78.5 151.5,77.5 151.5,76.5C 152.5,76.5 153.5,76.5 154.5,76.5 Z"/></g>
<g><path style="opacity:1" fill="#a2b8d2" d="M 160.5,76.5 C 160.5,77.5 160.5,78.5 160.5,79.5C 159.5,79.5 158.5,79.5 157.5,79.5C 157.5,78.5 157.5,77.5 157.5,76.5C 158.5,76.5 159.5,76.5 160.5,76.5 Z"/></g>
<g><path style="opacity:1" fill="#768eaf" d="M 78.5,54.5 C 79.8333,54.5 81.1667,54.5 82.5,54.5C 82.5,71.5 82.5,88.5 82.5,105.5C 81.1667,105.5 79.8333,105.5 78.5,105.5C 78.5,88.5 78.5,71.5 78.5,54.5 Z"/></g>
<g><path style="opacity:1" fill="#ecfafe" d="M 135.5,73.5 C 135.5,74.5 135.5,75.5 135.5,76.5C 136.5,76.5 137.5,76.5 138.5,76.5C 138.5,78.8333 138.5,81.1667 138.5,83.5C 137.5,83.5 136.5,83.5 135.5,83.5C 135.5,82.1667 135.5,80.8333 135.5,79.5C 134.5,79.5 133.5,79.5 132.5,79.5C 132.5,78.5 132.5,77.5 132.5,76.5C 128.167,76.5 123.833,76.5 119.5,76.5C 119.5,78.8333 119.5,81.1667 119.5,83.5C 115.5,83.5 111.5,83.5 107.5,83.5C 107.5,79.1667 107.5,74.8333 107.5,70.5C 108.5,70.5 109.5,70.5 110.5,70.5C 110.5,71.5 110.5,72.5 110.5,73.5C 113.5,73.5 116.5,73.5 119.5,73.5C 119.5,72.5 119.5,71.5 119.5,70.5C 120.5,70.5 121.5,70.5 122.5,70.5C 122.5,69.5 122.5,68.5 122.5,67.5C 122.5,66.5 122.5,65.5 122.5,64.5C 123.833,64.5 125.167,64.5 126.5,64.5C 126.5,63.5 126.5,62.5 126.5,61.5C 128.5,61.5 130.5,61.5 132.5,61.5C 132.5,63.5 132.5,65.5 132.5,67.5C 133.5,67.5 134.5,67.5 135.5,67.5C 135.5,69.5 135.5,71.5 135.5,73.5 Z"/></g>
<g><path style="opacity:1" fill="#6b7ea0" d="M 138.5,76.5 C 139.5,76.5 140.5,76.5 141.5,76.5C 141.5,77.5 141.5,78.5 141.5,79.5C 142.5,79.5 143.5,79.5 144.5,79.5C 144.5,80.8333 144.5,82.1667 144.5,83.5C 146.833,83.5 149.167,83.5 151.5,83.5C 151.5,82.1667 151.5,80.8333 151.5,79.5C 152.5,79.5 153.5,79.5 154.5,79.5C 155.5,79.5 156.5,79.5 157.5,79.5C 157.5,80.8333 157.5,82.1667 157.5,83.5C 156.5,83.5 155.5,83.5 154.5,83.5C 154.5,84.5 154.5,85.5 154.5,86.5C 153.5,86.5 152.5,86.5 151.5,86.5C 151.5,87.5 151.5,88.5 151.5,89.5C 148.167,89.5 144.833,89.5 141.5,89.5C 141.5,88.5 141.5,87.5 141.5,86.5C 140.5,86.5 139.5,86.5 138.5,86.5C 138.5,85.5 138.5,84.5 138.5,83.5C 138.5,81.1667 138.5,78.8333 138.5,76.5 Z"/></g>
<g><path style="opacity:1" fill="#adb6c0" d="M 217.5,83.5 C 217.5,81.1667 217.5,78.8333 217.5,76.5C 225.833,76.5 234.167,76.5 242.5,76.5C 242.5,74.5 242.5,72.5 242.5,70.5C 244.5,70.5 246.5,70.5 248.5,70.5C 248.5,74.8333 248.5,79.1667 248.5,83.5C 238.167,83.5 227.833,83.5 217.5,83.5 Z"/></g>
<g><path style="opacity:1" fill="#b1c5e7" d="M 138.5,83.5 C 139.5,83.5 140.5,83.5 141.5,83.5C 141.5,84.5 141.5,85.5 141.5,86.5C 141.5,85.5 141.5,84.5 141.5,83.5C 140.5,83.5 139.5,83.5 138.5,83.5 Z"/></g>
<g><path style="opacity:1" fill="#f3fcfd" d="M 248.5,64.5 C 249.5,64.5 250.5,64.5 251.5,64.5C 251.5,72.8333 251.5,81.1667 251.5,89.5C 243.167,89.5 234.833,89.5 226.5,89.5C 226.5,90.5 226.5,91.5 226.5,92.5C 225.5,92.5 224.5,92.5 223.5,92.5C 223.5,107.167 223.5,121.833 223.5,136.5C 222.5,136.5 221.5,136.5 220.5,136.5C 220.5,137.5 220.5,138.5 220.5,139.5C 219.5,139.5 218.5,139.5 217.5,139.5C 217.5,140.5 217.5,141.5 217.5,142.5C 214.167,142.5 210.833,142.5 207.5,142.5C 207.5,141.5 207.5,140.5 207.5,139.5C 206.5,139.5 205.5,139.5 204.5,139.5C 204.5,138.5 204.5,137.5 204.5,136.5C 206.5,136.5 208.5,136.5 210.5,136.5C 210.5,135.5 210.5,134.5 210.5,133.5C 211.833,133.5 213.167,133.5 214.5,133.5C 214.5,132.5 214.5,131.5 214.5,130.5C 215.5,130.5 216.5,130.5 217.5,130.5C 217.5,114.833 217.5,99.1667 217.5,83.5C 227.833,83.5 238.167,83.5 248.5,83.5C 248.5,79.1667 248.5,74.8333 248.5,70.5C 246.5,70.5 244.5,70.5 242.5,70.5C 242.5,72.5 242.5,74.5 242.5,76.5C 234.167,76.5 225.833,76.5 217.5,76.5C 217.5,73.5 217.5,70.5 217.5,67.5C 227.833,67.5 238.167,67.5 248.5,67.5C 248.5,66.5 248.5,65.5 248.5,64.5 Z"/></g>
<g><path style="opacity:1" fill="#e9ebeb" d="M 91.5,95.5 C 121.833,95.5 152.167,95.5 182.5,95.5C 182.5,96.5 182.5,97.5 182.5,98.5C 152.167,98.5 121.833,98.5 91.5,98.5C 91.5,97.5 91.5,96.5 91.5,95.5 Z"/></g>
<g><path style="opacity:1" fill="#787e81" d="M 85.5,98.5 C 87.5,98.5 89.5,98.5 91.5,98.5C 121.833,98.5 152.167,98.5 182.5,98.5C 184.5,98.5 186.5,98.5 188.5,98.5C 188.5,99.5 188.5,100.5 188.5,101.5C 154.167,101.5 119.833,101.5 85.5,101.5C 85.5,100.5 85.5,99.5 85.5,98.5 Z"/></g>
<g><path style="opacity:1" fill="#566783" d="M 214.5,17.5 C 215.5,17.5 216.5,17.5 217.5,17.5C 217.5,32.1667 217.5,46.8333 217.5,61.5C 217.5,62.5 217.5,63.5 217.5,64.5C 217.5,65.5 217.5,66.5 217.5,67.5C 217.5,70.5 217.5,73.5 217.5,76.5C 217.5,78.8333 217.5,81.1667 217.5,83.5C 217.5,99.1667 217.5,114.833 217.5,130.5C 216.5,130.5 215.5,130.5 214.5,130.5C 214.5,131.5 214.5,132.5 214.5,133.5C 213.167,133.5 211.833,133.5 210.5,133.5C 210.5,134.5 210.5,135.5 210.5,136.5C 208.5,136.5 206.5,136.5 204.5,136.5C 203.5,136.5 202.5,136.5 201.5,136.5C 200.5,136.5 199.5,136.5 198.5,136.5C 198.5,134.5 198.5,132.5 198.5,130.5C 199.5,130.5 200.5,130.5 201.5,130.5C 201.5,131.5 201.5,132.5 201.5,133.5C 203.5,133.5 205.5,133.5 207.5,133.5C 207.5,132.5 207.5,131.5 207.5,130.5C 208.5,130.5 209.5,130.5 210.5,130.5C 210.5,129.5 210.5,128.5 210.5,127.5C 211.833,127.5 213.167,127.5 214.5,127.5C 214.5,90.8333 214.5,54.1667 214.5,17.5 Z"/></g>
<g><path style="opacity:1" fill="#c9d6e8" d="M 85.5,101.5 C 119.833,101.5 154.167,101.5 188.5,101.5C 188.5,102.833 188.5,104.167 188.5,105.5C 154.167,105.5 119.833,105.5 85.5,105.5C 85.5,104.167 85.5,102.833 85.5,101.5 Z"/></g>
<g><path style="opacity:1" fill="#354e78" d="M 82.5,105.5 C 83.5,105.5 84.5,105.5 85.5,105.5C 119.833,105.5 154.167,105.5 188.5,105.5C 189.833,105.5 191.167,105.5 192.5,105.5C 192.5,109.5 192.5,113.5 192.5,117.5C 191.167,117.5 189.833,117.5 188.5,117.5C 188.5,116.5 188.5,115.5 188.5,114.5C 188.5,113.5 188.5,112.5 188.5,111.5C 188.5,110.5 188.5,109.5 188.5,108.5C 154.167,108.5 119.833,108.5 85.5,108.5C 85.5,109.5 85.5,110.5 85.5,111.5C 85.5,112.5 85.5,113.5 85.5,114.5C 85.5,115.5 85.5,116.5 85.5,117.5C 85.5,118.5 85.5,119.5 85.5,120.5C 86.5,120.5 87.5,120.5 88.5,120.5C 88.5,121.5 88.5,122.5 88.5,123.5C 86.5,123.5 84.5,123.5 82.5,123.5C 82.5,117.5 82.5,111.5 82.5,105.5 Z"/></g>
<g><path style="opacity:1" fill="#718fc8" d="M 188.5,111.5 C 154.167,111.5 119.833,111.5 85.5,111.5C 85.5,110.5 85.5,109.5 85.5,108.5C 119.833,108.5 154.167,108.5 188.5,108.5C 188.5,109.5 188.5,110.5 188.5,111.5 Z"/></g>
<g><path style="opacity:1" fill="#a5c9ff" d="M 85.5,111.5 C 119.833,111.5 154.167,111.5 188.5,111.5C 188.5,112.5 188.5,113.5 188.5,114.5C 154.167,114.5 119.833,114.5 85.5,114.5C 85.5,113.5 85.5,112.5 85.5,111.5 Z"/></g>
<g><path style="opacity:1" fill="#688dbe" d="M 78.5,105.5 C 79.8333,105.5 81.1667,105.5 82.5,105.5C 82.5,111.5 82.5,117.5 82.5,123.5C 81.1667,123.5 79.8333,123.5 78.5,123.5C 78.5,117.5 78.5,111.5 78.5,105.5 Z"/></g>
<g><path style="opacity:1" fill="#7999c8" d="M 85.5,114.5 C 119.833,114.5 154.167,114.5 188.5,114.5C 188.5,115.5 188.5,116.5 188.5,117.5C 154.167,117.5 119.833,117.5 85.5,117.5C 85.5,116.5 85.5,115.5 85.5,114.5 Z"/></g>
<g><path style="opacity:1" fill="#d1ebfe" d="M 85.5,117.5 C 119.833,117.5 154.167,117.5 188.5,117.5C 188.5,118.5 188.5,119.5 188.5,120.5C 155.167,120.5 121.833,120.5 88.5,120.5C 87.5,120.5 86.5,120.5 85.5,120.5C 85.5,119.5 85.5,118.5 85.5,117.5 Z"/></g>
<g><path style="opacity:1" fill="#385273" d="M 88.5,120.5 C 121.833,120.5 155.167,120.5 188.5,120.5C 189.833,120.5 191.167,120.5 192.5,120.5C 192.5,121.5 192.5,122.5 192.5,123.5C 157.833,123.5 123.167,123.5 88.5,123.5C 88.5,122.5 88.5,121.5 88.5,120.5 Z"/></g>
<g><path style="opacity:1" fill="#a5beda" d="M 75.5,123.5 C 76.5,123.5 77.5,123.5 78.5,123.5C 78.5,124.833 78.5,126.167 78.5,127.5C 77.5,127.5 76.5,127.5 75.5,127.5C 75.5,126.167 75.5,124.833 75.5,123.5 Z"/></g>
<g><path style="opacity:1" fill="#0e3274" d="M 82.5,123.5 C 84.5,123.5 86.5,123.5 88.5,123.5C 123.167,123.5 157.833,123.5 192.5,123.5C 192.5,124.833 192.5,126.167 192.5,127.5C 155.833,127.5 119.167,127.5 82.5,127.5C 82.5,126.167 82.5,124.833 82.5,123.5 Z"/></g>
<g><path style="opacity:1" fill="#acbbcb" d="M 195.5,123.5 C 196.5,123.5 197.5,123.5 198.5,123.5C 198.5,124.833 198.5,126.167 198.5,127.5C 197.5,127.5 196.5,127.5 195.5,127.5C 195.5,126.167 195.5,124.833 195.5,123.5 Z"/></g>
<g><path style="opacity:1" fill="#4d7acd" d="M 82.5,127.5 C 119.167,127.5 155.833,127.5 192.5,127.5C 192.5,128.5 192.5,129.5 192.5,130.5C 155.833,130.5 119.167,130.5 82.5,130.5C 82.5,129.5 82.5,128.5 82.5,127.5 Z"/></g>
<g><path style="opacity:1" fill="#a4acb2" d="M 198.5,127.5 C 199.5,127.5 200.5,127.5 201.5,127.5C 201.5,128.5 201.5,129.5 201.5,130.5C 200.5,130.5 199.5,130.5 198.5,130.5C 198.5,129.5 198.5,128.5 198.5,127.5 Z"/></g>
<g><path style="opacity:1" fill="#bdc1c0" d="M 31.5,130.5 C 45.1667,130.5 58.8333,130.5 72.5,130.5C 72.5,131.5 72.5,132.5 72.5,133.5C 58.8333,133.5 45.1667,133.5 31.5,133.5C 31.5,132.5 31.5,131.5 31.5,130.5 Z"/></g>
<g><path style="opacity:1" fill="#dcfeff" d="M 82.5,130.5 C 119.167,130.5 155.833,130.5 192.5,130.5C 193.5,130.5 194.5,130.5 195.5,130.5C 195.5,132.5 195.5,134.5 195.5,136.5C 187.167,136.5 178.833,136.5 170.5,136.5C 170.5,135.5 170.5,134.5 170.5,133.5C 149.5,133.5 128.5,133.5 107.5,133.5C 107.5,134.5 107.5,135.5 107.5,136.5C 106.5,136.5 105.5,136.5 104.5,136.5C 95.8333,136.5 87.1667,136.5 78.5,136.5C 78.5,135.5 78.5,134.5 78.5,133.5C 78.5,132.5 78.5,131.5 78.5,130.5C 79.8333,130.5 81.1667,130.5 82.5,130.5 Z"/></g>
<g><path style="opacity:1" fill="#a4b2b4" d="M 201.5,130.5 C 203.5,130.5 205.5,130.5 207.5,130.5C 207.5,131.5 207.5,132.5 207.5,133.5C 205.5,133.5 203.5,133.5 201.5,133.5C 201.5,132.5 201.5,131.5 201.5,130.5 Z"/></g>
<g><path style="opacity:1" fill="#f2fdfe" d="M 16.5,120.5 C 16.5,121.5 16.5,122.5 16.5,123.5C 17.5,123.5 18.5,123.5 19.5,123.5C 20.5,123.5 21.5,123.5 22.5,123.5C 22.5,125.833 22.5,128.167 22.5,130.5C 23.5,130.5 24.5,130.5 25.5,130.5C 25.5,131.5 25.5,132.5 25.5,133.5C 26.5,133.5 27.5,133.5 28.5,133.5C 28.5,134.5 28.5,135.5 28.5,136.5C 30.8333,136.5 33.1667,136.5 35.5,136.5C 35.5,137.5 35.5,138.5 35.5,139.5C 47.8333,139.5 60.1667,139.5 72.5,139.5C 72.5,140.5 72.5,141.5 72.5,142.5C 72.5,143.5 72.5,144.5 72.5,145.5C 68.5,145.5 64.5,145.5 60.5,145.5C 60.5,144.5 60.5,143.5 60.5,142.5C 57.1667,142.5 53.8333,142.5 50.5,142.5C 50.5,143.5 50.5,144.5 50.5,145.5C 40.1667,145.5 29.8333,145.5 19.5,145.5C 19.5,144.5 19.5,143.5 19.5,142.5C 18.5,142.5 17.5,142.5 16.5,142.5C 16.5,140.5 16.5,138.5 16.5,136.5C 15.5,136.5 14.5,136.5 13.5,136.5C 13.5,131.167 13.5,125.833 13.5,120.5C 14.5,120.5 15.5,120.5 16.5,120.5 Z"/></g>
<g><path style="opacity:1" fill="#6f7c8d" d="M 22.5,120.5 C 23.5,120.5 24.5,120.5 25.5,120.5C 25.5,122.833 25.5,125.167 25.5,127.5C 26.5,127.5 27.5,127.5 28.5,127.5C 28.5,128.5 28.5,129.5 28.5,130.5C 29.5,130.5 30.5,130.5 31.5,130.5C 31.5,131.5 31.5,132.5 31.5,133.5C 45.1667,133.5 58.8333,133.5 72.5,133.5C 72.5,134.5 72.5,135.5 72.5,136.5C 60.1667,136.5 47.8333,136.5 35.5,136.5C 33.1667,136.5 30.8333,136.5 28.5,136.5C 28.5,135.5 28.5,134.5 28.5,133.5C 27.5,133.5 26.5,133.5 25.5,133.5C 25.5,132.5 25.5,131.5 25.5,130.5C 24.5,130.5 23.5,130.5 22.5,130.5C 22.5,128.167 22.5,125.833 22.5,123.5C 22.5,122.5 22.5,121.5 22.5,120.5 Z"/></g>
<g><path style="opacity:1" fill="#b7deff" d="M 170.5,136.5 C 149.5,136.5 128.5,136.5 107.5,136.5C 107.5,135.5 107.5,134.5 107.5,133.5C 128.5,133.5 149.5,133.5 170.5,133.5C 170.5,134.5 170.5,135.5 170.5,136.5 Z"/></g>
<g><path style="opacity:1" fill="#99b3df" d="M 195.5,130.5 C 196.5,130.5 197.5,130.5 198.5,130.5C 198.5,132.5 198.5,134.5 198.5,136.5C 198.5,137.5 198.5,138.5 198.5,139.5C 197.5,139.5 196.5,139.5 195.5,139.5C 195.5,138.5 195.5,137.5 195.5,136.5C 195.5,134.5 195.5,132.5 195.5,130.5 Z"/></g>
<g><path style="opacity:1" fill="#cfe4ff" d="M 35.5,136.5 C 47.8333,136.5 60.1667,136.5 72.5,136.5C 72.5,137.5 72.5,138.5 72.5,139.5C 60.1667,139.5 47.8333,139.5 35.5,139.5C 35.5,138.5 35.5,137.5 35.5,136.5 Z"/></g>
<g><path style="opacity:1" fill="#3f6092" d="M 78.5,123.5 C 79.8333,123.5 81.1667,123.5 82.5,123.5C 82.5,124.833 82.5,126.167 82.5,127.5C 82.5,128.5 82.5,129.5 82.5,130.5C 81.1667,130.5 79.8333,130.5 78.5,130.5C 78.5,131.5 78.5,132.5 78.5,133.5C 77.5,133.5 76.5,133.5 75.5,133.5C 75.5,135.5 75.5,137.5 75.5,139.5C 76.5,139.5 77.5,139.5 78.5,139.5C 78.5,140.5 78.5,141.5 78.5,142.5C 76.5,142.5 74.5,142.5 72.5,142.5C 72.5,141.5 72.5,140.5 72.5,139.5C 72.5,138.5 72.5,137.5 72.5,136.5C 72.5,135.5 72.5,134.5 72.5,133.5C 72.5,132.5 72.5,131.5 72.5,130.5C 73.5,130.5 74.5,130.5 75.5,130.5C 75.5,129.5 75.5,128.5 75.5,127.5C 76.5,127.5 77.5,127.5 78.5,127.5C 78.5,126.167 78.5,124.833 78.5,123.5 Z"/></g>
<g><path style="opacity:1" fill="#8ea9d2" d="M 78.5,133.5 C 78.5,134.5 78.5,135.5 78.5,136.5C 78.5,137.5 78.5,138.5 78.5,139.5C 77.5,139.5 76.5,139.5 75.5,139.5C 75.5,137.5 75.5,135.5 75.5,133.5C 76.5,133.5 77.5,133.5 78.5,133.5 Z"/></g>
<g><path style="opacity:1" fill="#f9fffe" d="M 78.5,136.5 C 87.1667,136.5 95.8333,136.5 104.5,136.5C 104.5,137.5 104.5,138.5 104.5,139.5C 95.8333,139.5 87.1667,139.5 78.5,139.5C 78.5,138.5 78.5,137.5 78.5,136.5 Z"/></g>
<g><path style="opacity:1" fill="#4b5b6f" d="M 104.5,136.5 C 105.5,136.5 106.5,136.5 107.5,136.5C 128.5,136.5 149.5,136.5 170.5,136.5C 170.5,137.5 170.5,138.5 170.5,139.5C 178.833,139.5 187.167,139.5 195.5,139.5C 195.5,140.5 195.5,141.5 195.5,142.5C 194.5,142.5 193.5,142.5 192.5,142.5C 183.833,142.5 175.167,142.5 166.5,142.5C 166.5,141.5 166.5,140.5 166.5,139.5C 146.833,139.5 127.167,139.5 107.5,139.5C 107.5,140.5 107.5,141.5 107.5,142.5C 97.8333,142.5 88.1667,142.5 78.5,142.5C 78.5,141.5 78.5,140.5 78.5,139.5C 87.1667,139.5 95.8333,139.5 104.5,139.5C 104.5,138.5 104.5,137.5 104.5,136.5 Z"/></g>
<g><path style="opacity:1" fill="#f7fffe" d="M 170.5,136.5 C 178.833,136.5 187.167,136.5 195.5,136.5C 195.5,137.5 195.5,138.5 195.5,139.5C 187.167,139.5 178.833,139.5 170.5,139.5C 170.5,138.5 170.5,137.5 170.5,136.5 Z"/></g>
<g><path style="opacity:1" fill="#c1cee1" d="M 166.5,142.5 C 146.833,142.5 127.167,142.5 107.5,142.5C 107.5,141.5 107.5,140.5 107.5,139.5C 127.167,139.5 146.833,139.5 166.5,139.5C 166.5,140.5 166.5,141.5 166.5,142.5 Z"/></g>
<g><path style="opacity:1" fill="#b8d1fb" d="M 201.5,136.5 C 202.5,136.5 203.5,136.5 204.5,136.5C 204.5,137.5 204.5,138.5 204.5,139.5C 204.5,140.5 204.5,141.5 204.5,142.5C 203.5,142.5 202.5,142.5 201.5,142.5C 201.5,140.5 201.5,138.5 201.5,136.5 Z"/></g>
<g><path style="opacity:1" fill="#657da5" d="M 72.5,142.5 C 74.5,142.5 76.5,142.5 78.5,142.5C 88.1667,142.5 97.8333,142.5 107.5,142.5C 107.5,143.5 107.5,144.5 107.5,145.5C 95.8333,145.5 84.1667,145.5 72.5,145.5C 72.5,144.5 72.5,143.5 72.5,142.5 Z"/></g>
<g><path style="opacity:1" fill="#edfeff" d="M 107.5,142.5 C 127.167,142.5 146.833,142.5 166.5,142.5C 166.5,143.5 166.5,144.5 166.5,145.5C 175.167,145.5 183.833,145.5 192.5,145.5C 195.5,145.5 198.5,145.5 201.5,145.5C 201.5,144.5 201.5,143.5 201.5,142.5C 202.5,142.5 203.5,142.5 204.5,142.5C 204.5,145.833 204.5,149.167 204.5,152.5C 197.167,152.5 189.833,152.5 182.5,152.5C 182.5,153.5 182.5,154.5 182.5,155.5C 180.5,155.5 178.5,155.5 176.5,155.5C 176.5,156.5 176.5,157.5 176.5,158.5C 174.5,158.5 172.5,158.5 170.5,158.5C 170.5,157.5 170.5,156.5 170.5,155.5C 169.167,155.5 167.833,155.5 166.5,155.5C 166.5,154.5 166.5,153.5 166.5,152.5C 161.5,152.5 156.5,152.5 151.5,152.5C 151.5,151.167 151.5,149.833 151.5,148.5C 135.833,148.5 120.167,148.5 104.5,148.5C 104.5,149.833 104.5,151.167 104.5,152.5C 94.8333,152.5 85.1667,152.5 75.5,152.5C 75.5,151.167 75.5,149.833 75.5,148.5C 74.5,148.5 73.5,148.5 72.5,148.5C 72.5,147.5 72.5,146.5 72.5,145.5C 84.1667,145.5 95.8333,145.5 107.5,145.5C 107.5,144.5 107.5,143.5 107.5,142.5 Z"/></g>
<g><path style="opacity:1" fill="#61799b" d="M 166.5,142.5 C 175.167,142.5 183.833,142.5 192.5,142.5C 192.5,143.5 192.5,144.5 192.5,145.5C 183.833,145.5 175.167,145.5 166.5,145.5C 166.5,144.5 166.5,143.5 166.5,142.5 Z"/></g>
<g><path style="opacity:1" fill="#567bb4" d="M 198.5,136.5 C 199.5,136.5 200.5,136.5 201.5,136.5C 201.5,138.5 201.5,140.5 201.5,142.5C 201.5,143.5 201.5,144.5 201.5,145.5C 198.5,145.5 195.5,145.5 192.5,145.5C 192.5,144.5 192.5,143.5 192.5,142.5C 193.5,142.5 194.5,142.5 195.5,142.5C 195.5,141.5 195.5,140.5 195.5,139.5C 196.5,139.5 197.5,139.5 198.5,139.5C 198.5,138.5 198.5,137.5 198.5,136.5 Z"/></g>
</svg>
