<svg id="Layer_4" data-name="Layer 4" xmlns="http://www.w3.org/2000/svg" xmlns:xlink="http://www.w3.org/1999/xlink" viewBox="0 0 45.57 44.97"><defs><style>.cls-1,.cls-5,.cls-6,.cls-7,.cls-8{fill:none;}.cls-2{isolation:isolate;}.cls-3{clip-path:url(#clip-path);}.cls-4{fill:#003ab5;}.cls-5,.cls-6{stroke:#fff;}.cls-5,.cls-6,.cls-7,.cls-8{stroke-linecap:round;stroke-linejoin:round;}.cls-5,.cls-8{stroke-width:1.03px;}.cls-6{stroke-width:1.03px;}.cls-7,.cls-8{stroke:#003ab5;}.cls-7{stroke-width:1.03px;}</style><clipPath id="clip-path"><rect class="cls-1" x="0.26" y="0.25" width="45.06" height="44.46"/></clipPath></defs><g class="cls-2"><g class="cls-3"><rect class="cls-4" x="15.43" y="0.99" width="18.31" height="14.12"/><rect class="cls-5" x="15.43" y="0.99" width="18.31" height="14.12"/><line class="cls-6" x1="33.17" y1="0.98" x2="16.01" y2="3.34"/><line class="cls-6" x1="33.17" y1="3.34" x2="16.01" y2="5.69"/><line class="cls-6" x1="33.17" y1="5.69" x2="16.01" y2="8.04"/><line class="cls-6" x1="33.17" y1="8.04" x2="16.01" y2="10.4"/><line class="cls-6" x1="33.17" y1="10.4" x2="16.01" y2="12.75"/><line class="cls-6" x1="33.17" y1="12.75" x2="16.01" y2="15.1"/><line class="cls-7" x1="16.01" y1="15.74" x2="33.17" y2="18.09"/><line class="cls-7" x1="16.01" y1="18.09" x2="33.17" y2="20.44"/><line class="cls-7" x1="16.01" y1="20.44" x2="33.17" y2="22.8"/><line class="cls-7" x1="16.01" y1="22.8" x2="33.17" y2="25.15"/><line class="cls-7" x1="16.01" y1="25.15" x2="33.17" y2="27.5"/><line class="cls-7" x1="16.01" y1="27.5" x2="33.17" y2="29.85"/><line class="cls-7" x1="16.01" y1="29.86" x2="33.17" y2="32.21"/><line class="cls-7" x1="16.01" y1="32.21" x2="33.17" y2="34.56"/><line class="cls-7" x1="16.01" y1="34.56" x2="33.17" y2="36.91"/><line class="cls-7" x1="16.01" y1="36.91" x2="33.17" y2="39.26"/><line class="cls-7" x1="16.01" y1="39.27" x2="33.17" y2="41.62"/><line class="cls-7" x1="16.01" y1="41.62" x2="33.17" y2="43.97"/><rect class="cls-8" x="33.75" y="27.5" width="10.98" height="4.71"/><rect class="cls-8" x="11.28" y="27.5" width="4.34" height="4.71"/><rect class="cls-8" x="0.85" y="5.7" width="15.5" height="4.7"/><rect class="cls-8" x="32.71" y="5.46" width="4.34" height="5.18"/><rect class="cls-8" x="15.43" y="15.74" width="18.31" height="28.24"/></g></g></svg>