<svg xmlns="http://www.w3.org/2000/svg" xmlns:android="http://schemas.android.com/apk/res/android" width="66.21dp" height="44.97dp" viewportWidth="66.21" viewportHeight="44.97">
	<group>
		<clip-path d="M-38.34,-2.01h142.94v70.88h-142.94z"/>
		<path d="M27.41,0.82h11.3v21.4h-11.3z" strokeLineJoin="round" stroke-width="0.74" fill="#00000000" stroke="#003ab5" strokeLineCap="round"/>
		<path d="M27.76,0.82L38.36,2.6" strokeLineJoin="round" stroke-width="0.74" fill="#00000000" stroke="#003ab5" strokeLineCap="round"/>
		<path d="M27.76,2.6L38.36,4.39" strokeLineJoin="round" stroke-width="0.74" fill="#00000000" stroke="#003ab5" strokeLineCap="round"/>
		<path d="M27.76,4.39L38.36,6.17" strokeLineJoin="round" stroke-width="0.74" fill="#00000000" stroke="#003ab5" strokeLineCap="round"/>
		<path d="M27.76,6.17L38.36,7.95" strokeLineJoin="round" stroke-width="0.74" fill="#00000000" stroke="#003ab5" strokeLineCap="round"/>
		<path d="M27.76,7.95L38.36,9.74" strokeLineJoin="round" stroke-width="0.74" fill="#00000000" stroke="#003ab5" strokeLineCap="round"/>
		<path d="M27.76,9.74L38.36,11.52" strokeLineJoin="round" stroke-width="0.74" fill="#00000000" stroke="#003ab5" strokeLineCap="round"/>
		<path d="M27.76,11.52L38.36,13.3" strokeLineJoin="round" stroke-width="0.74" fill="#00000000" stroke="#003ab5" strokeLineCap="round"/>
		<path d="M27.76,13.3L38.36,15.09" strokeLineJoin="round" stroke-width="0.74" fill="#00000000" stroke="#003ab5" strokeLineCap="round"/>
		<path d="M27.76,15.09L38.36,16.87" strokeLineJoin="round" stroke-width="0.74" fill="#00000000" stroke="#003ab5" strokeLineCap="round"/>
		<path d="M27.76,16.87L38.36,18.65" strokeLineJoin="round" stroke-width="0.74" fill="#00000000" stroke="#003ab5" strokeLineCap="round"/>
		<path d="M27.76,18.65L38.36,20.44" strokeLineJoin="round" stroke-width="0.74" fill="#00000000" stroke="#003ab5" strokeLineCap="round"/>
		<path d="M27.76,20.44L38.36,22.22" strokeLineJoin="round" stroke-width="0.74" fill="#00000000" stroke="#003ab5" strokeLineCap="round"/>
		<path d="M27.41,22.61h11.3v10.7h-11.3z" fill="#003ab5"/>
		<path d="M27.41,22.61h11.3v10.7h-11.3z" strokeLineJoin="round" stroke-width="0.74" fill="#00000000" stroke="#fff" strokeLineCap="round"/>
		<path d="M38.36,22.61L27.76,24.39" strokeLineJoin="round" stroke-width="0.74" fill="#00000000" stroke="#fff" strokeLineCap="round"/>
		<path d="M38.36,24.4L27.76,26.18" strokeLineJoin="round" stroke-width="0.74" fill="#00000000" stroke="#fff" strokeLineCap="round"/>
		<path d="M38.36,26.18L27.76,27.96" strokeLineJoin="round" stroke-width="0.74" fill="#00000000" stroke="#fff" strokeLineCap="round"/>
		<path d="M38.36,27.96L27.76,29.75" strokeLineJoin="round" stroke-width="0.74" fill="#00000000" stroke="#fff" strokeLineCap="round"/>
		<path d="M38.36,29.75L27.76,31.53" strokeLineJoin="round" stroke-width="0.74" fill="#00000000" stroke="#fff" strokeLineCap="round"/>
		<path d="M38.36,31.53L27.76,33.31" strokeLineJoin="round" stroke-width="0.74" fill="#00000000" stroke="#fff" strokeLineCap="round"/>
		<path d="M9.77,4.25h11.45v11.66h-11.45z" fill="#003ab5"/>
		<path d="M9.77,4.25h11.45v11.66h-11.45z" strokeLineJoin="round" stroke-width="0.74" fill="#00000000" stroke="#fff" strokeLineCap="round"/>
		<path d="M20.86,4.25L10.13,6.2" strokeLineJoin="round" stroke-width="0.74" fill="#00000000" stroke="#fff" strokeLineCap="round"/>
		<path d="M20.86,6.2L10.13,8.14" strokeLineJoin="round" stroke-width="0.74" fill="#00000000" stroke="#fff" strokeLineCap="round"/>
		<path d="M20.86,8.14L10.13,10.08" strokeLineJoin="round" stroke-width="0.74" fill="#00000000" stroke="#fff" strokeLineCap="round"/>
		<path d="M20.86,10.08L10.13,12.03" strokeLineJoin="round" stroke-width="0.74" fill="#00000000" stroke="#fff" strokeLineCap="round"/>
		<path d="M20.86,12.03L10.13,13.97" strokeLineJoin="round" stroke-width="0.74" fill="#00000000" stroke="#fff" strokeLineCap="round"/>
		<path d="M20.86,13.97L10.13,15.91" strokeLineJoin="round" stroke-width="0.74" fill="#00000000" stroke="#fff" strokeLineCap="round"/>
		<path d="M10.12,16.44L20.86,18.38" strokeLineJoin="round" stroke-width="0.74" fill="#00000000" stroke="#003ab5" strokeLineCap="round"/>
		<path d="M10.12,18.38L20.86,20.33" strokeLineJoin="round" stroke-width="0.74" fill="#00000000" stroke="#003ab5" strokeLineCap="round"/>
		<path d="M10.12,20.32L20.86,22.27" strokeLineJoin="round" stroke-width="0.74" fill="#00000000" stroke="#003ab5" strokeLineCap="round"/>
		<path d="M10.12,22.27L20.86,24.21" strokeLineJoin="round" stroke-width="0.74" fill="#00000000" stroke="#003ab5" strokeLineCap="round"/>
		<path d="M10.12,24.21L20.86,26.15" strokeLineJoin="round" stroke-width="0.74" fill="#00000000" stroke="#003ab5" strokeLineCap="round"/>
		<path d="M10.12,26.16L20.86,28.1" strokeLineJoin="round" stroke-width="0.74" fill="#00000000" stroke="#003ab5" strokeLineCap="round"/>
		<path d="M10.12,28.1L20.86,30.04" strokeLineJoin="round" stroke-width="0.74" fill="#00000000" stroke="#003ab5" strokeLineCap="round"/>
		<path d="M10.12,30.04L20.86,31.98" strokeLineJoin="round" stroke-width="0.74" fill="#00000000" stroke="#003ab5" strokeLineCap="round"/>
		<path d="M10.12,31.99L20.86,33.93" strokeLineJoin="round" stroke-width="0.74" fill="#00000000" stroke="#003ab5" strokeLineCap="round"/>
		<path d="M10.12,33.93L20.86,35.87" strokeLineJoin="round" stroke-width="0.74" fill="#00000000" stroke="#003ab5" strokeLineCap="round"/>
		<path d="M10.12,35.87L20.86,37.82" strokeLineJoin="round" stroke-width="0.74" fill="#00000000" stroke="#003ab5" strokeLineCap="round"/>
		<path d="M10.12,37.82L20.86,39.76" strokeLineJoin="round" stroke-width="0.74" fill="#00000000" stroke="#003ab5" strokeLineCap="round"/>
		<path d="M21.22,26.16h6.86v3.89h-6.86z" strokeLineJoin="round" stroke-width="0.74" fill="#00000000" stroke="#003ab5" strokeLineCap="round"/>
		<path d="M7.17,26.16h2.71v3.89h-2.71z" strokeLineJoin="round" stroke-width="0.74" fill="#00000000" stroke="#003ab5" strokeLineCap="round"/>
		<path d="M0.65,8.14h9.69v3.89h-9.69z" strokeLineJoin="round" stroke-width="0.74" fill="#00000000" stroke="#003ab5" strokeLineCap="round"/>
		<path d="M42.68,29.55h2.19v3.89h-2.19z" strokeLineJoin="round" stroke-width="0.74" fill="#00000000" stroke="#003ab5" strokeLineCap="round"/>
		<path d="M44.86,18.66h11.58v25.68h-11.58z" strokeLineJoin="round" stroke-width="0.74" fill="#00000000" stroke="#003ab5" strokeLineCap="round"/>
		<path d="M44.87,5.1h11.58v12.84h-11.58z" fill="#003ab5"/>
		<path d="M44.87,5.1h11.58v12.84h-11.58z" strokeLineJoin="round" stroke-width="0.74" fill="#00000000" stroke="#fff" strokeLineCap="round"/>
		<path d="M56.09,5.1L45.24,7.24" strokeLineJoin="round" stroke-width="0.74" fill="#00000000" stroke="#fff" strokeLineCap="round"/>
		<path d="M56.09,7.24L45.24,9.38" strokeLineJoin="round" stroke-width="0.74" fill="#00000000" stroke="#fff" strokeLineCap="round"/>
		<path d="M56.09,9.38L45.24,11.52" strokeLineJoin="round" stroke-width="0.74" fill="#00000000" stroke="#fff" strokeLineCap="round"/>
		<path d="M56.09,11.52L45.24,13.66" strokeLineJoin="round" stroke-width="0.74" fill="#00000000" stroke="#fff" strokeLineCap="round"/>
		<path d="M56.09,13.66L45.24,15.8" strokeLineJoin="round" stroke-width="0.74" fill="#00000000" stroke="#fff" strokeLineCap="round"/>
		<path d="M56.09,15.8L45.24,17.94" strokeLineJoin="round" stroke-width="0.74" fill="#00000000" stroke="#fff" strokeLineCap="round"/>
		<path d="M45.23,18.66L56.08,20.8" strokeLineJoin="round" stroke-width="0.74" fill="#00000000" stroke="#003ab5" strokeLineCap="round"/>
		<path d="M45.23,20.8L56.08,22.94" strokeLineJoin="round" stroke-width="0.74" fill="#00000000" stroke="#003ab5" strokeLineCap="round"/>
		<path d="M45.23,22.94L56.08,25.08" strokeLineJoin="round" stroke-width="0.74" fill="#00000000" stroke="#003ab5" strokeLineCap="round"/>
		<path d="M45.23,25.08L56.08,27.22" strokeLineJoin="round" stroke-width="0.74" fill="#00000000" stroke="#003ab5" strokeLineCap="round"/>
		<path d="M45.22,27.22L56.08,29.36" strokeLineJoin="round" stroke-width="0.74" fill="#00000000" stroke="#003ab5" strokeLineCap="round"/>
		<path d="M45.22,29.36L56.08,31.5" strokeLineJoin="round" stroke-width="0.74" fill="#00000000" stroke="#003ab5" strokeLineCap="round"/>
		<path d="M45.22,31.5L56.08,33.64" strokeLineJoin="round" stroke-width="0.74" fill="#00000000" stroke="#003ab5" strokeLineCap="round"/>
		<path d="M45.22,33.64L56.08,35.78" strokeLineJoin="round" stroke-width="0.74" fill="#00000000" stroke="#003ab5" strokeLineCap="round"/>
		<path d="M45.23,35.78L56.08,37.92" strokeLineJoin="round" stroke-width="0.74" fill="#00000000" stroke="#003ab5" strokeLineCap="round"/>
		<path d="M45.22,37.92L56.08,40.06" strokeLineJoin="round" stroke-width="0.74" fill="#00000000" stroke="#003ab5" strokeLineCap="round"/>
		<path d="M45.23,40.06L56.08,42.2" strokeLineJoin="round" stroke-width="0.74" fill="#00000000" stroke="#003ab5" strokeLineCap="round"/>
		<path d="M45.23,42.2L56.08,44.34" strokeLineJoin="round" stroke-width="0.74" fill="#00000000" stroke="#003ab5" strokeLineCap="round"/>
		<path d="M56.38,29.36h9.23v4.28h-9.23z" strokeLineJoin="round" stroke-width="0.74" fill="#00000000" stroke="#003ab5" strokeLineCap="round"/>
		<path d="M20.57,7.95h2.71v4.28h-2.71z" strokeLineJoin="round" stroke-width="0.74" fill="#00000000" stroke="#003ab5" strokeLineCap="round"/>
		<path d="M55.84,9.38h3.34v4.28h-3.34z" strokeLineJoin="round" stroke-width="0.74" fill="#00000000" stroke="#003ab5" strokeLineCap="round"/>
		<path d="M38.71,9.58h6.86v3.89h-6.86z" strokeLineJoin="round" stroke-width="0.74" fill="#00000000" stroke="#003ab5" strokeLineCap="round"/>
		<path d="M38.08,26.02h2.71v3.89h-2.71z" strokeLineJoin="round" stroke-width="0.74" fill="#00000000" stroke="#003ab5" strokeLineCap="round"/>
		<path d="M25.54,9.38h1.86v4.28h-1.86z" strokeLineJoin="round" stroke-width="0.74" fill="#00000000" stroke="#003ab5" strokeLineCap="round"/>
		<path d="M9.77,16.44h11.45v23.32h-11.45z" strokeLineJoin="round" stroke-width="0.74" fill="#00000000" stroke="#003ab5" strokeLineCap="round"/>
	</group>
</svg>
