<svg id="Layer_6" data-name="Layer 6" xmlns="http://www.w3.org/2000/svg" xmlns:xlink="http://www.w3.org/1999/xlink" viewBox="0 0 66.21 44.97"><defs><style>.cls-1,.cls-10,.cls-11,.cls-4,.cls-5,.cls-7,.cls-8,.cls-9{fill:none;}.cls-2{isolation:isolate;}.cls-3{clip-path:url(#clip-path);}.cls-11,.cls-4,.cls-5{stroke:#003ab5;}.cls-10,.cls-11,.cls-4,.cls-5,.cls-7,.cls-8,.cls-9{stroke-linecap:round;stroke-linejoin:round;}.cls-4,.cls-7{stroke-width:0.74px;}.cls-10,.cls-5{stroke-width:0.74px;}.cls-6{fill:#003ab5;}.cls-10,.cls-7,.cls-8,.cls-9{stroke:#fff;}.cls-8{stroke-width:0.74px;}.cls-9{stroke-width:0.74px;}.cls-11{stroke-width:0.74px;}</style><clipPath id="clip-path"><rect class="cls-1" x="-38.34" y="-2.01" width="142.94" height="70.88"/></clipPath></defs><g class="cls-2"><g class="cls-3"><rect class="cls-4" x="27.41" y="0.82" width="11.3" height="21.4"/><line class="cls-5" x1="27.76" y1="0.82" x2="38.36" y2="2.6"/><line class="cls-5" x1="27.76" y1="2.6" x2="38.36" y2="4.39"/><line class="cls-5" x1="27.76" y1="4.39" x2="38.36" y2="6.17"/><line class="cls-5" x1="27.76" y1="6.17" x2="38.36" y2="7.95"/><line class="cls-5" x1="27.76" y1="7.95" x2="38.36" y2="9.74"/><line class="cls-5" x1="27.76" y1="9.74" x2="38.36" y2="11.52"/><line class="cls-5" x1="27.76" y1="11.52" x2="38.36" y2="13.3"/><line class="cls-5" x1="27.76" y1="13.3" x2="38.36" y2="15.09"/><line class="cls-5" x1="27.76" y1="15.09" x2="38.36" y2="16.87"/><line class="cls-5" x1="27.76" y1="16.87" x2="38.36" y2="18.65"/><line class="cls-5" x1="27.76" y1="18.65" x2="38.36" y2="20.44"/><line class="cls-5" x1="27.76" y1="20.44" x2="38.36" y2="22.22"/><rect class="cls-6" x="27.41" y="22.61" width="11.3" height="10.7"/><rect class="cls-7" x="27.41" y="22.61" width="11.3" height="10.7"/><line class="cls-8" x1="38.36" y1="22.61" x2="27.76" y2="24.39"/><line class="cls-8" x1="38.36" y1="24.4" x2="27.76" y2="26.18"/><line class="cls-8" x1="38.36" y1="26.18" x2="27.76" y2="27.96"/><line class="cls-8" x1="38.36" y1="27.96" x2="27.76" y2="29.75"/><line class="cls-8" x1="38.36" y1="29.75" x2="27.76" y2="31.53"/><line class="cls-8" x1="38.36" y1="31.53" x2="27.76" y2="33.31"/><rect class="cls-6" x="9.77" y="4.25" width="11.45" height="11.66"/><rect class="cls-7" x="9.77" y="4.25" width="11.45" height="11.66"/><line class="cls-9" x1="20.86" y1="4.25" x2="10.13" y2="6.2"/><line class="cls-9" x1="20.86" y1="6.2" x2="10.13" y2="8.14"/><line class="cls-9" x1="20.86" y1="8.14" x2="10.13" y2="10.08"/><line class="cls-9" x1="20.86" y1="10.08" x2="10.13" y2="12.03"/><line class="cls-9" x1="20.86" y1="12.03" x2="10.13" y2="13.97"/><line class="cls-9" x1="20.86" y1="13.97" x2="10.13" y2="15.91"/><line class="cls-5" x1="10.12" y1="16.44" x2="20.86" y2="18.38"/><line class="cls-5" x1="10.12" y1="18.38" x2="20.86" y2="20.33"/><line class="cls-5" x1="10.12" y1="20.32" x2="20.86" y2="22.27"/><line class="cls-5" x1="10.12" y1="22.27" x2="20.86" y2="24.21"/><line class="cls-5" x1="10.12" y1="24.21" x2="20.86" y2="26.15"/><line class="cls-5" x1="10.12" y1="26.16" x2="20.86" y2="28.1"/><line class="cls-5" x1="10.12" y1="28.1" x2="20.86" y2="30.04"/><line class="cls-5" x1="10.12" y1="30.04" x2="20.86" y2="31.98"/><line class="cls-5" x1="10.12" y1="31.99" x2="20.86" y2="33.93"/><line class="cls-5" x1="10.12" y1="33.93" x2="20.86" y2="35.87"/><line class="cls-5" x1="10.12" y1="35.87" x2="20.86" y2="37.82"/><line class="cls-5" x1="10.12" y1="37.82" x2="20.86" y2="39.76"/><rect class="cls-4" x="21.22" y="26.16" width="6.86" height="3.89"/><rect class="cls-4" x="7.17" y="26.16" width="2.71" height="3.89"/><rect class="cls-4" x="0.65" y="8.14" width="9.69" height="3.89"/><rect class="cls-4" x="42.68" y="29.55" width="2.19" height="3.89"/><rect class="cls-4" x="44.86" y="18.66" width="11.58" height="25.68"/><rect class="cls-6" x="44.87" y="5.1" width="11.58" height="12.84"/><rect class="cls-7" x="44.87" y="5.1" width="11.58" height="12.84"/><line class="cls-10" x1="56.09" y1="5.1" x2="45.24" y2="7.24"/><line class="cls-10" x1="56.09" y1="7.24" x2="45.24" y2="9.38"/><line class="cls-10" x1="56.09" y1="9.38" x2="45.24" y2="11.52"/><line class="cls-10" x1="56.09" y1="11.52" x2="45.24" y2="13.66"/><line class="cls-10" x1="56.09" y1="13.66" x2="45.24" y2="15.8"/><line class="cls-10" x1="56.09" y1="15.8" x2="45.24" y2="17.94"/><line class="cls-11" x1="45.23" y1="18.66" x2="56.08" y2="20.8"/><line class="cls-11" x1="45.23" y1="20.8" x2="56.08" y2="22.94"/><line class="cls-11" x1="45.23" y1="22.94" x2="56.08" y2="25.08"/><line class="cls-11" x1="45.23" y1="25.08" x2="56.08" y2="27.22"/><line class="cls-11" x1="45.22" y1="27.22" x2="56.08" y2="29.36"/><line class="cls-11" x1="45.22" y1="29.36" x2="56.08" y2="31.5"/><line class="cls-11" x1="45.22" y1="31.5" x2="56.08" y2="33.64"/><line class="cls-11" x1="45.22" y1="33.64" x2="56.08" y2="35.78"/><line class="cls-11" x1="45.23" y1="35.78" x2="56.08" y2="37.92"/><line class="cls-11" x1="45.22" y1="37.92" x2="56.08" y2="40.06"/><line class="cls-11" x1="45.23" y1="40.06" x2="56.08" y2="42.2"/><line class="cls-11" x1="45.23" y1="42.2" x2="56.08" y2="44.34"/><rect class="cls-4" x="56.38" y="29.36" width="9.23" height="4.28"/><rect class="cls-4" x="20.57" y="7.95" width="2.71" height="4.28"/><rect class="cls-4" x="55.84" y="9.38" width="3.34" height="4.28"/><rect class="cls-4" x="38.71" y="9.58" width="6.86" height="3.89"/><rect class="cls-4" x="38.08" y="26.02" width="2.71" height="3.89"/><rect class="cls-4" x="25.54" y="9.38" width="1.86" height="4.28"/><rect class="cls-4" x="9.77" y="16.44" width="11.45" height="23.32"/></g></g></svg>