<svg xmlns="http://www.w3.org/2000/svg" height="48dp" viewportHeight="44.97" viewportWidth="45.57" width="48.640427dp" xmlns:android="http://schemas.android.com/apk/res/android">
	<group>
		<clip-path d="M0.26,0.25h45.06v44.46h-45.06z"/>
		<path fill="#003ab5" d="M15.43,0.99h18.31v14.12h-18.31z"/>
		<path fill="#00000000" d="M15.43,0.99h18.31v14.12h-18.31z" stroke="#fff" strokeLineCap="round" strokeLineJoin="round" stroke-width="1.03"/>
		<path fill="#00000000" d="M33.17,0.98L16.01,3.34" stroke="#fff" strokeLineCap="round" strokeLineJoin="round" stroke-width="1.03"/>
		<path fill="#00000000" d="M33.17,3.34L16.01,5.69" stroke="#fff" strokeLineCap="round" strokeLineJoin="round" stroke-width="1.03"/>
		<path fill="#00000000" d="M33.17,5.69L16.01,8.04" stroke="#fff" strokeLineCap="round" strokeLineJoin="round" stroke-width="1.03"/>
		<path fill="#00000000" d="M33.17,8.04L16.01,10.4" stroke="#fff" strokeLineCap="round" strokeLineJoin="round" stroke-width="1.03"/>
		<path fill="#00000000" d="M33.17,10.4L16.01,12.75" stroke="#fff" strokeLineCap="round" strokeLineJoin="round" stroke-width="1.03"/>
		<path fill="#00000000" d="M33.17,12.75L16.01,15.1" stroke="#fff" strokeLineCap="round" strokeLineJoin="round" stroke-width="1.03"/>
		<path fill="#00000000" d="M16.01,15.74L33.17,18.09" stroke="#003ab5" strokeLineCap="round" strokeLineJoin="round" stroke-width="1.03"/>
		<path fill="#00000000" d="M16.01,18.09L33.17,20.44" stroke="#003ab5" strokeLineCap="round" strokeLineJoin="round" stroke-width="1.03"/>
		<path fill="#00000000" d="M16.01,20.44L33.17,22.8" stroke="#003ab5" strokeLineCap="round" strokeLineJoin="round" stroke-width="1.03"/>
		<path fill="#00000000" d="M16.01,22.8L33.17,25.15" stroke="#003ab5" strokeLineCap="round" strokeLineJoin="round" stroke-width="1.03"/>
		<path fill="#00000000" d="M16.01,25.15L33.17,27.5" stroke="#003ab5" strokeLineCap="round" strokeLineJoin="round" stroke-width="1.03"/>
		<path fill="#00000000" d="M16.01,27.5L33.17,29.85" stroke="#003ab5" strokeLineCap="round" strokeLineJoin="round" stroke-width="1.03"/>
		<path fill="#00000000" d="M16.01,29.86L33.17,32.21" stroke="#003ab5" strokeLineCap="round" strokeLineJoin="round" stroke-width="1.03"/>
		<path fill="#00000000" d="M16.01,32.21L33.17,34.56" stroke="#003ab5" strokeLineCap="round" strokeLineJoin="round" stroke-width="1.03"/>
		<path fill="#00000000" d="M16.01,34.56L33.17,36.91" stroke="#003ab5" strokeLineCap="round" strokeLineJoin="round" stroke-width="1.03"/>
		<path fill="#00000000" d="M16.01,36.91L33.17,39.26" stroke="#003ab5" strokeLineCap="round" strokeLineJoin="round" stroke-width="1.03"/>
		<path fill="#00000000" d="M16.01,39.27L33.17,41.62" stroke="#003ab5" strokeLineCap="round" strokeLineJoin="round" stroke-width="1.03"/>
		<path fill="#00000000" d="M16.01,41.62L33.17,43.97" stroke="#003ab5" strokeLineCap="round" strokeLineJoin="round" stroke-width="1.03"/>
		<path fill="#00000000" d="M33.75,27.5h10.98v4.71h-10.98z" stroke="#003ab5" strokeLineCap="round" strokeLineJoin="round" stroke-width="1.03"/>
		<path fill="#00000000" d="M11.28,27.5h4.34v4.71h-4.34z" stroke="#003ab5" strokeLineCap="round" strokeLineJoin="round" stroke-width="1.03"/>
		<path fill="#00000000" d="M0.85,5.7h15.5v4.7h-15.5z" stroke="#003ab5" strokeLineCap="round" strokeLineJoin="round" stroke-width="1.03"/>
		<path fill="#00000000" d="M32.71,5.46h4.34v5.18h-4.34z" stroke="#003ab5" strokeLineCap="round" strokeLineJoin="round" stroke-width="1.03"/>
		<path fill="#00000000" d="M15.43,15.74h18.31v28.24h-18.31z" stroke="#003ab5" strokeLineCap="round" strokeLineJoin="round" stroke-width="1.03"/>
	</group>
</svg>
