<svg id="Layer_5" data-name="Layer 5" xmlns="http://www.w3.org/2000/svg" xmlns:xlink="http://www.w3.org/1999/xlink" viewBox="0 0 51.23 44.97"><defs><style>.cls-1,.cls-10,.cls-4,.cls-5,.cls-7,.cls-8,.cls-9{fill:none;}.cls-2{isolation:isolate;}.cls-3{clip-path:url(#clip-path);}.cls-10,.cls-4,.cls-5{stroke:#003ab5;}.cls-10,.cls-4,.cls-5,.cls-7,.cls-8,.cls-9{stroke-linecap:round;stroke-linejoin:round;}.cls-4,.cls-7{stroke-width:0.83px;}.cls-5{stroke-width:0.83px;}.cls-6{fill:#003ab5;}.cls-7,.cls-8,.cls-9{stroke:#fff;}.cls-8{stroke-width:0.83px;}.cls-9{stroke-width:0.83px;}.cls-10{stroke-width:0.83px;}</style><clipPath id="clip-path"><rect class="cls-1" x="-0.17" y="0.25" width="51.57" height="44.46"/></clipPath></defs><g class="cls-2"><g class="cls-3"><rect class="cls-4" x="30.39" y="0.67" width="12.56" height="23.98"/><line class="cls-5" x1="30.79" y1="0.66" x2="42.56" y2="2.66"/><line class="cls-5" x1="30.79" y1="2.66" x2="42.56" y2="4.66"/><line class="cls-5" x1="30.79" y1="4.66" x2="42.56" y2="6.66"/><line class="cls-5" x1="30.79" y1="6.66" x2="42.56" y2="8.66"/><line class="cls-5" x1="30.79" y1="8.66" x2="42.56" y2="10.66"/><line class="cls-5" x1="30.79" y1="10.66" x2="42.56" y2="12.65"/><line class="cls-5" x1="30.79" y1="12.65" x2="42.56" y2="14.65"/><line class="cls-5" x1="30.79" y1="14.65" x2="42.56" y2="16.65"/><line class="cls-5" x1="30.79" y1="16.65" x2="42.56" y2="18.65"/><line class="cls-5" x1="30.79" y1="18.65" x2="42.56" y2="20.65"/><line class="cls-5" x1="30.79" y1="20.64" x2="42.56" y2="22.65"/><line class="cls-5" x1="30.79" y1="22.65" x2="42.56" y2="24.64"/><rect class="cls-6" x="30.39" y="25.08" width="12.56" height="11.99"/><rect class="cls-7" x="30.39" y="25.08" width="12.56" height="11.99"/><line class="cls-8" x1="42.56" y1="25.08" x2="30.78" y2="27.08"/><line class="cls-8" x1="42.56" y1="27.08" x2="30.78" y2="29.08"/><line class="cls-8" x1="42.56" y1="29.08" x2="30.78" y2="31.08"/><line class="cls-8" x1="42.56" y1="31.08" x2="30.78" y2="33.08"/><line class="cls-8" x1="42.56" y1="33.08" x2="30.78" y2="35.07"/><line class="cls-8" x1="42.56" y1="35.07" x2="30.78" y2="37.07"/><rect class="cls-6" x="10.78" y="4.51" width="12.73" height="13.07"/><rect class="cls-7" x="10.78" y="4.51" width="12.73" height="13.07"/><line class="cls-9" x1="23.11" y1="4.51" x2="11.19" y2="6.69"/><line class="cls-9" x1="23.11" y1="6.69" x2="11.19" y2="8.87"/><line class="cls-9" x1="23.11" y1="8.87" x2="11.19" y2="11.04"/><line class="cls-9" x1="23.11" y1="11.04" x2="11.19" y2="13.22"/><line class="cls-9" x1="23.11" y1="13.22" x2="11.19" y2="15.4"/><line class="cls-9" x1="23.11" y1="15.4" x2="11.19" y2="17.58"/><line class="cls-10" x1="11.18" y1="18.16" x2="23.11" y2="20.34"/><line class="cls-10" x1="11.18" y1="20.34" x2="23.11" y2="22.52"/><line class="cls-10" x1="11.19" y1="22.52" x2="23.11" y2="24.7"/><line class="cls-10" x1="11.18" y1="24.7" x2="23.11" y2="26.87"/><line class="cls-10" x1="11.18" y1="26.88" x2="23.11" y2="29.05"/><line class="cls-10" x1="11.18" y1="29.05" x2="23.11" y2="31.23"/><line class="cls-10" x1="11.18" y1="31.23" x2="23.11" y2="33.41"/><line class="cls-10" x1="11.18" y1="33.41" x2="23.11" y2="35.58"/><line class="cls-10" x1="11.18" y1="35.59" x2="23.11" y2="37.76"/><line class="cls-10" x1="11.18" y1="37.76" x2="23.11" y2="39.94"/><line class="cls-10" x1="11.18" y1="39.94" x2="23.11" y2="42.12"/><line class="cls-10" x1="11.19" y1="42.12" x2="23.11" y2="44.3"/><rect class="cls-4" x="23.51" y="29.05" width="7.62" height="4.36"/><rect class="cls-4" x="7.9" y="29.05" width="3.02" height="4.36"/><rect class="cls-4" x="0.66" y="8.87" width="10.76" height="4.36"/><rect class="cls-4" x="22.79" y="8.65" width="3.02" height="4.79"/><rect class="cls-4" x="42.95" y="10.48" width="7.62" height="4.36"/><rect class="cls-4" x="42.25" y="28.9" width="3.02" height="4.36"/><rect class="cls-4" x="28.32" y="10.26" width="2.07" height="4.79"/><rect class="cls-4" x="10.78" y="18.17" width="12.73" height="26.13"/></g></g></svg>