<svg xmlns="http://www.w3.org/2000/svg" height="48dp" viewportHeight="44.97" viewportWidth="75.49" width="80.576385dp" xmlns:android="http://schemas.android.com/apk/res/android">
	<group>
		<clip-path d="M0.28,0.22h74.98v44.52h-74.98z"/>
		<path fill="#00000000" d="M21.16,0.99h35.4v37.93h-35.4z" stroke="#003ab5" strokeLineCap="round" strokeLineJoin="round" stroke-width="1.22"/>
		<path fill="#00000000" d="M21.11,1H7.2A6.33,6.33 0,0 0,0.88 7.31V35.12A6.33,6.33 0,0 0,7.2 41.44H18.59a2.53,2.53 0,0 1,2.52 -2.53Z" stroke="#003ab5" strokeLineCap="round" strokeLineJoin="round" stroke-width="1.22"/>
		<path fill="#00000000" d="M59,41.44H60.3a3.79,3.79 0,0 0,3.79 -3.79V4.78A3.79,3.79 0,0 0,60.3 1H56.51V38.91A2.54,2.54 0,0 1,59 41.44Z" stroke="#003ab5" strokeLineCap="round" strokeLineJoin="round" stroke-width="1.22"/>
		<path fill="#00000000" d="M59,41.44a2.54,2.54 0,0 0,-2.53 -2.53H21.11a2.54,2.54 0,0 0,-2.53 2.53V44H28.7V43.4a0.6,0.6 0,0 1,0.16 -0.41,0.58 0.58,0 0,1 0.41,-0.17l12.07,0h7.09a0.5,0.5 0,0 1,0.5 0.5v0.3A1.67,1.67 0,0 1,49 44H59Z" stroke="#003ab5" strokeLineCap="round" strokeLineJoin="round" stroke-width="1.22"/>
		<path fill="#00000000" d="M73.62,22.48h0c0,-0.69 0.29,-1.25 0.63,-1.25s0.64,-0.57 0.64,-1.27 -0.29,-1.26 -0.64,-1.26H64.11v5H74.25C73.9,23.74 73.62,23.18 73.62,22.48Z" stroke="#003ab5" strokeLineCap="round" strokeLineJoin="round" stroke-width="0.49"/>
		<path fill="#00000000" d="M73.94,22.48c0,0.7 0.28,1.26 0.64,1.26s0.62,-0.56 0.62,-1.26 -0.28,-1.26 -0.62,-1.27 -0.63,0.57 -0.64,1.26Z" stroke="#003ab5" strokeLineCap="round" strokeLineJoin="round" stroke-width="0.1"/>
		<path fill="#00000000" d="M74.7,21.25L74.01,21.94" stroke="#003ab5" strokeLineCap="round" strokeLineJoin="round" stroke-width="0.1"/>
		<path fill="#00000000" d="M74.88,21.38L73.96,22.31" stroke="#003ab5" strokeLineCap="round" strokeLineJoin="round" stroke-width="0.1"/>
		<path fill="#00000000" d="M75.01,21.56L73.96,22.61" stroke="#003ab5" strokeLineCap="round" strokeLineJoin="round" stroke-width="0.1"/>
		<path fill="#00000000" d="M75.1,21.78L73.98,22.9" stroke="#003ab5" strokeLineCap="round" strokeLineJoin="round" stroke-width="0.1"/>
		<path fill="#00000000" d="M75.16,22.03L74.06,23.14" stroke="#003ab5" strokeLineCap="round" strokeLineJoin="round" stroke-width="0.1"/>
		<path fill="#00000000" d="M75.2,22.33L74.14,23.39" stroke="#003ab5" strokeLineCap="round" strokeLineJoin="round" stroke-width="0.1"/>
		<path fill="#00000000" d="M75.2,22.64L74.26,23.57" stroke="#003ab5" strokeLineCap="round" strokeLineJoin="round" stroke-width="0.1"/>
		<path fill="#00000000" d="M75.15,23L74.45,23.7" stroke="#003ab5" strokeLineCap="round" strokeLineJoin="round" stroke-width="0.1"/>
		<path fill="#00000000" d="M21.16,4.33L56.55,4.33" stroke="#003ab5" strokeLineCap="round" strokeLineJoin="round" stroke-width="1.22"/>
		<path fill="#00000000" d="M21.16,6.83L56.55,6.83" stroke="#003ab5" strokeLineCap="round" strokeLineJoin="round" stroke-width="1.22"/>
		<path fill="#00000000" d="M21.16,9.34L56.55,9.34" stroke="#003ab5" strokeLineCap="round" strokeLineJoin="round" stroke-width="1.22"/>
		<path fill="#00000000" d="M21.16,11.84L56.55,11.84" stroke="#003ab5" strokeLineCap="round" strokeLineJoin="round" stroke-width="1.22"/>
		<path fill="#00000000" d="M21.11,37.72L56.51,37.72" stroke="#003ab5" strokeLineCap="round" strokeLineJoin="round" stroke-width="1.22"/>
		<path fill="#00000000" d="M21.11,35.21L56.51,35.21" stroke="#003ab5" strokeLineCap="round" strokeLineJoin="round" stroke-width="1.22"/>
		<path fill="#00000000" d="M21.16,32.71L56.55,32.71" stroke="#003ab5" strokeLineCap="round" strokeLineJoin="round" stroke-width="1.22"/>
		<path fill="#00000000" d="M21.11,30.2L56.51,30.2" stroke="#003ab5" strokeLineCap="round" strokeLineJoin="round" stroke-width="1.22"/>
		<path fill="#00000000" d="M30.1,21C32.88,21 34,18 35,16.8c2.68,-3.19 4.36,6.9 6.12,8.85S44.87,21 47.63,21" stroke="#003ab5" strokeLineCap="round" strokeLineJoin="round" stroke-width="1.22"/>
	</group>
</svg>
