<svg id="Layer_9" data-name="Layer 9" xmlns="http://www.w3.org/2000/svg" xmlns:xlink="http://www.w3.org/1999/xlink" viewBox="0 0 75.49 44.97"><defs><style>.cls-1,.cls-4,.cls-5,.cls-6,.cls-7{fill:none;}.cls-2{isolation:isolate;}.cls-3{clip-path:url(#clip-path);}.cls-4,.cls-5,.cls-6,.cls-7{stroke:#003ab5;stroke-linecap:round;stroke-linejoin:round;}.cls-4{stroke-width:1.22px;}.cls-5{stroke-width:0.49px;}.cls-6{stroke-width:0.1px;}.cls-7{stroke-width:0.1px;}</style><clipPath id="clip-path"><rect class="cls-1" x="0.28" y="0.22" width="74.98" height="44.52"/></clipPath></defs><g class="cls-2"><g class="cls-3"><rect class="cls-4" x="21.16" y="0.99" width="35.4" height="37.93"/><path class="cls-4" d="M21.11,1H7.2A6.33,6.33,0,0,0,.88,7.31V35.12A6.33,6.33,0,0,0,7.2,41.44H18.59a2.53,2.53,0,0,1,2.52-2.53Z"/><path class="cls-4" d="M59,41.44H60.3a3.79,3.79,0,0,0,3.79-3.79V4.78A3.79,3.79,0,0,0,60.3,1H56.51V38.91A2.54,2.54,0,0,1,59,41.44Z"/><path class="cls-4" d="M59,41.44a2.54,2.54,0,0,0-2.53-2.53H21.11a2.54,2.54,0,0,0-2.53,2.53V44H28.7V43.4a.6.6,0,0,1,.16-.41.58.58,0,0,1,.41-.17l12.07,0h7.09a.5.5,0,0,1,.5.5v.3A1.67,1.67,0,0,1,49,44H59Z"/><path class="cls-5" d="M73.62,22.48h0c0-.69.29-1.25.63-1.25s.64-.57.64-1.27-.29-1.26-.64-1.26H64.11v5H74.25C73.9,23.74,73.62,23.18,73.62,22.48Z"/><path class="cls-6" d="M73.94,22.48c0,.7.28,1.26.64,1.26s.62-.56.62-1.26-.28-1.26-.62-1.27-.63.57-.64,1.26Z"/><line class="cls-7" x1="74.7" y1="21.25" x2="74.01" y2="21.94"/><line class="cls-7" x1="74.88" y1="21.38" x2="73.96" y2="22.31"/><line class="cls-7" x1="75.01" y1="21.56" x2="73.96" y2="22.61"/><line class="cls-7" x1="75.1" y1="21.78" x2="73.98" y2="22.9"/><line class="cls-7" x1="75.16" y1="22.03" x2="74.06" y2="23.14"/><line class="cls-7" x1="75.2" y1="22.33" x2="74.14" y2="23.39"/><line class="cls-7" x1="75.2" y1="22.64" x2="74.26" y2="23.57"/><line class="cls-7" x1="75.15" y1="23" x2="74.45" y2="23.7"/><line class="cls-4" x1="21.16" y1="4.33" x2="56.55" y2="4.33"/><line class="cls-4" x1="21.16" y1="6.83" x2="56.55" y2="6.83"/><line class="cls-4" x1="21.16" y1="9.34" x2="56.55" y2="9.34"/><line class="cls-4" x1="21.16" y1="11.84" x2="56.55" y2="11.84"/><line class="cls-4" x1="21.11" y1="37.72" x2="56.51" y2="37.72"/><line class="cls-4" x1="21.11" y1="35.21" x2="56.51" y2="35.21"/><line class="cls-4" x1="21.16" y1="32.71" x2="56.55" y2="32.71"/><line class="cls-4" x1="21.11" y1="30.2" x2="56.51" y2="30.2"/><path class="cls-4" d="M30.1,21C32.88,21,34,18,35,16.8c2.68-3.19,4.36,6.9,6.12,8.85S44.87,21,47.63,21"/></g></g></svg>