<svg id="Layer_9" data-name="Layer 9" xmlns="http://www.w3.org/2000/svg" xmlns:xlink="http://www.w3.org/1999/xlink" viewBox="0 0 74.81 44.97"><defs><style>.cls-1,.cls-4,.cls-5{fill:none;}.cls-2{isolation:isolate;}.cls-3{clip-path:url(#clip-path);}.cls-4,.cls-5{stroke:#003ab5;stroke-linecap:round;stroke-linejoin:round;}.cls-4{stroke-width:0.98px;}.cls-5{stroke-width:0.74px;}</style><clipPath id="clip-path"><rect class="cls-1" x="-33" y="-3.75" width="141.19" height="70.6"/></clipPath></defs><g class="cls-2"><g class="cls-3"><rect class="cls-4" x="40.59" y="7.71" width="22.79" height="10.1"/><rect class="cls-4" x="27.48" y="27.38" width="22.79" height="10.1"/><circle class="cls-4" cx="28.87" cy="12.76" r="3.28"/><path class="cls-4" d="M12.48,32.43a3.28,3.28,0,1,0,3.28-3.28A3.28,3.28,0,0,0,12.48,32.43Z"/><path class="cls-4" d="M19,22.59a3.28,3.28,0,1,0,3.28-3.28A3.28,3.28,0,0,0,19,22.59Z"/><rect class="cls-5" x="6.41" y="0.88" width="67.39" height="43.4" rx="4.41"/><path class="cls-4" d="M31.89,14.4h8.7V11.12h-8.7A3.36,3.36,0,0,1,31.89,14.4Z"/><path class="cls-4" d="M25.3,21.07a3.29,3.29,0,0,1-.06,3.16h44.7V21H25.37Z"/><path class="cls-4" d="M25.3,21.06l.07-.1h-.13Z"/><path class="cls-4" d="M19.21,23.83A3.29,3.29,0,0,1,19.4,21H1.08v3.27H18.92Z"/><path class="cls-4" d="M22.52,19.32A3.29,3.29,0,0,1,25.24,21h.13L28.82,16a3.25,3.25,0,0,1-2.88-1.6Z"/><path class="cls-4" d="M18.76,30.8a3.34,3.34,0,0,1,0,3.27h8.72V30.8Z"/><path class="cls-4" d="M18.47,30.64l3.4-4.8a3.27,3.27,0,0,1-2.39-1.57H19l-3.43,4.84A3.29,3.29,0,0,1,18.47,30.64Z"/><polygon class="cls-4" points="41.97 17.81 41.97 19.32 68.19 19.32 68.19 6.2 41.97 6.2 41.97 7.71 63.47 7.71 63.47 17.81 41.97 17.81"/><polygon class="cls-4" points="41.97 27.38 50.26 27.38 50.26 37.48 41.97 37.48 41.97 38.99 68.19 38.99 68.19 25.87 41.97 25.87 41.97 27.38"/></g></g></svg>