<svg xmlns="http://www.w3.org/2000/svg" height="48dp" viewportHeight="44.01" viewportWidth="45.31" width="48dp" xmlns:android="http://schemas.android.com/apk/res/android">
	<group>
		<clip-path d="M-13.86,-4.66h73.02v70.76h-73.02z"/>
		<path fill="#fff" fill-rule="evenOdd" d="M22.7,22c0,12 -5,21.74 -11.22,21.74S0.26,34.01 0.26,22 5.28,0.26 11.48,0.26 22.7,10 22.7,22Z"/>
		<path fill="#00000000" d="M22.7,22c0,12 -5,21.74 -11.22,21.74S0.26,34.01 0.26,22 5.28,0.26 11.48,0.26 22.7,10 22.7,22Z" stroke="#003ab5" strokeLineCap="round" strokeLineJoin="round" stroke-width="0.53"/>
		<path fill="#fff" fill-rule="evenOdd" d="M20.61,22c0,9.77 -4.09,17.69 -9.13,17.69S2.35,31.77 2.35,22 6.44,4.31 11.48,4.31 20.61,12.23 20.61,22Z"/>
		<path fill="#00000000" d="M20.61,22c0,9.77 -4.09,17.69 -9.13,17.69S2.35,31.77 2.35,22 6.44,4.31 11.48,4.31 20.61,12.23 20.61,22Z" stroke="#003ab5" strokeLineCap="round" strokeLineJoin="round" stroke-width="0.53"/>
		<path fill="#fff" fill-rule="evenOdd" d="M11.3,26.75c-1.32,-0.18 -2.33,-2.35 -2.28,-4.92s1.13,-4.6 2.46,-4.6 2.41,2 2.46,4.6 -1,4.74 -2.29,4.92v0.68h-0.35ZM14.99,22a9.35,9.35 0,0 0,-1.73 -6,2.16 2.16,0 0,0 -3.57,0 9.41,9.41 0,0 0,-1.73 6,9.43 9.43,0 0,0 1.73,6 2.16,2.16 0,0 0,3.57 0A9.37,9.37 0,0 0,14.99 22Z"/>
		<path fill="#00000000" d="M11.3,26.75c-1.32,-0.18 -2.33,-2.35 -2.28,-4.92s1.13,-4.6 2.46,-4.6 2.41,2 2.46,4.6 -1,4.74 -2.29,4.92v0.68h-0.35ZM14.99,22a9.35,9.35 0,0 0,-1.73 -6,2.16 2.16,0 0,0 -3.57,0 9.41,9.41 0,0 0,-1.73 6,9.43 9.43,0 0,0 1.73,6 2.16,2.16 0,0 0,3.57 0A9.37,9.37 0,0 0,14.99 22Z" stroke="#003ab5" strokeLineCap="round" strokeLineJoin="round" stroke-width="0.35"/>
		<path fill="#fff" fill-rule="evenOdd" d="M11.31,26.76v0.68h0.35v-0.68c1.32,-0.18 2.33,-2.36 2.28,-4.93s-1.13,-4.59 -2.46,-4.59 -2.41,2 -2.46,4.59S9.98,26.58 11.31,26.76Z"/>
		<path fill="#00000000" d="M11.31,26.76v0.68h0.35v-0.68c1.32,-0.18 2.33,-2.36 2.28,-4.93s-1.13,-4.59 -2.46,-4.59 -2.41,2 -2.46,4.59S9.98,26.58 11.31,26.76Z" stroke="#003ab5" strokeLineCap="round" strokeLineJoin="round" stroke-width="0.88"/>
		<path fill="#fff" fill-rule="evenOdd" d="M31.02,22c0,-7.5 3.14,-13.59 7,-13.59s7,6.09 7,13.59 -3.14,13.59 -7,13.59S31.02,29.52 31.02,22Z"/>
		<path fill="#00000000" d="M31.02,22c0,-7.5 3.14,-13.59 7,-13.59s7,6.09 7,13.59 -3.14,13.59 -7,13.59S31.02,29.52 31.02,22Z" stroke="#003ab5" strokeLineCap="round" strokeLineJoin="round" stroke-width="0.53"/>
		<path fill="#fff" fill-rule="evenOdd" d="M32.33,22c0,-6.1 2.55,-11 5.7,-11s5.71,4.95 5.71,11.05S41.17,33.06 38.03,33.06 32.33,28.11 32.33,22Z"/>
		<path fill="#00000000" d="M32.33,22c0,-6.1 2.55,-11 5.7,-11s5.71,4.95 5.71,11.05S41.17,33.06 38.03,33.06 32.33,28.11 32.33,22Z" stroke="#003ab5" strokeLineCap="round" strokeLineJoin="round" stroke-width="0.53"/>
		<path fill="#fff" fill-rule="evenOdd" d="M38.17,18.62c0.93,0.13 1.65,1.68 1.62,3.5s-0.81,3.27 -1.75,3.27 -1.71,-1.45 -1.75,-3.27 0.69,-3.37 1.63,-3.5v-0.48L38.17,18.14ZM35.54,22c0,2.68 1.12,4.85 2.5,4.85s2.5,-2.17 2.5,-4.85 -1.12,-4.85 -2.5,-4.85S35.53,19.32 35.53,22Z"/>
		<path fill="#00000000" d="M38.17,18.62c0.93,0.13 1.65,1.68 1.62,3.5s-0.81,3.27 -1.75,3.27 -1.71,-1.45 -1.75,-3.27 0.69,-3.37 1.63,-3.5v-0.48L38.17,18.14ZM35.54,22c0,2.68 1.12,4.85 2.5,4.85s2.5,-2.17 2.5,-4.85 -1.12,-4.85 -2.5,-4.85S35.53,19.32 35.53,22Z" stroke="#003ab5" strokeLineCap="round" strokeLineJoin="round" stroke-width="0.35"/>
		<path fill="#fff" fill-rule="evenOdd" d="M38.17,19.03v-0.43h-0.22v0.43c-0.82,0.11 -1.45,1.47 -1.43,3.07s0.71,2.88 1.54,2.88 1.51,-1.27 1.54,-2.88S38.97,19.14 38.17,19.03Z"/>
		<path fill="#00000000" d="M38.17,19.03v-0.43h-0.22v0.43c-0.82,0.11 -1.45,1.47 -1.43,3.07s0.71,2.88 1.54,2.88 1.51,-1.27 1.54,-2.88S38.97,19.14 38.17,19.03Z" stroke="#003ab5" strokeLineCap="round" strokeLineJoin="round" stroke-width="0.71"/>
		<path fill="#003ab5" fill-rule="evenOdd" d="M34.89,9.68l-16.64,-5.15l-4.34,-3.91l25.38,7.86l-4.4,1.2z"/>
		<path fill="#00000000" d="M34.89,9.68l-16.64,-5.15l-4.34,-3.91l25.38,7.86l-4.4,1.2z" stroke="#003ab5" strokeLineCap="round" strokeLineJoin="round" stroke-width="0.53"/>
		<path fill="#003ab5" fill-rule="evenOdd" d="M34.96,34.49l-16.65,5.16l-4.34,3.9l25.38,-7.86l-4.39,-1.2z"/>
		<path fill="#00000000" d="M34.96,34.49l-16.65,5.16l-4.34,3.9l25.38,-7.86l-4.39,-1.2z" stroke="#003ab5" strokeLineCap="round" strokeLineJoin="round" stroke-width="0.53"/>
	</group>
</svg>
