<svg id="Layer_5" data-name="Layer 5" xmlns="http://www.w3.org/2000/svg" xmlns:xlink="http://www.w3.org/1999/xlink" viewBox="0 0 45.31 44.01"><defs><style>.cls-1,.cls-5,.cls-6,.cls-7,.cls-8{fill:none;}.cls-2{isolation:isolate;}.cls-3{clip-path:url(#clip-path);}.cls-4{fill:#fff;}.cls-4,.cls-9{fill-rule:evenodd;}.cls-5,.cls-6,.cls-7,.cls-8{stroke:#003ab5;stroke-linecap:round;stroke-linejoin:round;}.cls-5{stroke-width:0.53px;}.cls-6{stroke-width:0.35px;}.cls-7{stroke-width:0.88px;}.cls-8{stroke-width:0.71px;}.cls-9{fill:#003ab5;}</style><clipPath id="clip-path" transform="translate(0.17 -0.48)"><rect class="cls-1" x="-14.03" y="-4.18" width="73.02" height="70.76"/></clipPath></defs><g class="cls-2"><g class="cls-3"><path class="cls-4" d="M22.53,22.48c0,12-5,21.74-11.22,21.74S.09,34.49.09,22.48,5.11.74,11.31.74,22.53,10.48,22.53,22.48Z" transform="translate(0.17 -0.48)"/><path class="cls-5" d="M22.53,22.48c0,12-5,21.74-11.22,21.74S.09,34.49.09,22.48,5.11.74,11.31.74,22.53,10.48,22.53,22.48Z" transform="translate(0.17 -0.48)"/><path class="cls-4" d="M20.44,22.48c0,9.77-4.09,17.69-9.13,17.69S2.18,32.25,2.18,22.48,6.27,4.79,11.31,4.79,20.44,12.71,20.44,22.48Z" transform="translate(0.17 -0.48)"/><path class="cls-5" d="M20.44,22.48c0,9.77-4.09,17.69-9.13,17.69S2.18,32.25,2.18,22.48,6.27,4.79,11.31,4.79,20.44,12.71,20.44,22.48Z" transform="translate(0.17 -0.48)"/><path class="cls-4" d="M11.13,27.23c-1.32-.18-2.33-2.35-2.28-4.92s1.13-4.6,2.46-4.6,2.41,2,2.46,4.6-1,4.74-2.29,4.92v.68h-.35Zm3.69-4.75a9.35,9.35,0,0,0-1.73-6,2.16,2.16,0,0,0-3.57,0,9.41,9.41,0,0,0-1.73,6,9.43,9.43,0,0,0,1.73,6,2.16,2.16,0,0,0,3.57,0A9.37,9.37,0,0,0,14.82,22.48Z" transform="translate(0.17 -0.48)"/><path class="cls-6" d="M11.13,27.23c-1.32-.18-2.33-2.35-2.28-4.92s1.13-4.6,2.46-4.6,2.41,2,2.46,4.6-1,4.74-2.29,4.92v.68h-.35Zm3.69-4.75a9.35,9.35,0,0,0-1.73-6,2.16,2.16,0,0,0-3.57,0,9.41,9.41,0,0,0-1.73,6,9.43,9.43,0,0,0,1.73,6,2.16,2.16,0,0,0,3.57,0A9.37,9.37,0,0,0,14.82,22.48Z" transform="translate(0.17 -0.48)"/><path class="cls-4" d="M11.14,27.24v.68h.35v-.68c1.32-.18,2.33-2.36,2.28-4.93s-1.13-4.59-2.46-4.59-2.41,2-2.46,4.59S9.81,27.06,11.14,27.24Z" transform="translate(0.17 -0.48)"/><path class="cls-7" d="M11.14,27.24v.68h.35v-.68c1.32-.18,2.33-2.36,2.28-4.93s-1.13-4.59-2.46-4.59-2.41,2-2.46,4.59S9.81,27.06,11.14,27.24Z" transform="translate(0.17 -0.48)"/><path class="cls-4" d="M30.85,22.48c0-7.5,3.14-13.59,7-13.59s7,6.09,7,13.59-3.14,13.59-7,13.59S30.85,30,30.85,22.48Z" transform="translate(0.17 -0.48)"/><path class="cls-5" d="M30.85,22.48c0-7.5,3.14-13.59,7-13.59s7,6.09,7,13.59-3.14,13.59-7,13.59S30.85,30,30.85,22.48Z" transform="translate(0.17 -0.48)"/><path class="cls-4" d="M32.16,22.48c0-6.1,2.55-11,5.7-11s5.71,4.95,5.71,11.05S41,33.54,37.86,33.54,32.16,28.59,32.16,22.48Z" transform="translate(0.17 -0.48)"/><path class="cls-5" d="M32.16,22.48c0-6.1,2.55-11,5.7-11s5.71,4.95,5.71,11.05S41,33.54,37.86,33.54,32.16,28.59,32.16,22.48Z" transform="translate(0.17 -0.48)"/><path class="cls-4" d="M38,19.1c.93.13,1.65,1.68,1.62,3.5s-.81,3.27-1.75,3.27-1.71-1.45-1.75-3.27.69-3.37,1.63-3.5v-.48H38Zm-2.63,3.38c0,2.68,1.12,4.85,2.5,4.85s2.5-2.17,2.5-4.85-1.12-4.85-2.5-4.85S35.36,19.8,35.36,22.48Z" transform="translate(0.17 -0.48)"/><path class="cls-6" d="M38,19.1c.93.13,1.65,1.68,1.62,3.5s-.81,3.27-1.75,3.27-1.71-1.45-1.75-3.27.69-3.37,1.63-3.5v-.48H38Zm-2.63,3.38c0,2.68,1.12,4.85,2.5,4.85s2.5-2.17,2.5-4.85-1.12-4.85-2.5-4.85S35.36,19.8,35.36,22.48Z" transform="translate(0.17 -0.48)"/><path class="cls-4" d="M38,19.51v-.43h-.22v.43c-.82.11-1.45,1.47-1.43,3.07s.71,2.88,1.54,2.88,1.51-1.27,1.54-2.88S38.8,19.62,38,19.51Z" transform="translate(0.17 -0.48)"/><path class="cls-8" d="M38,19.51v-.43h-.22v.43c-.82.11-1.45,1.47-1.43,3.07s.71,2.88,1.54,2.88,1.51-1.27,1.54-2.88S38.8,19.62,38,19.51Z" transform="translate(0.17 -0.48)"/><polygon class="cls-9" points="34.89 9.68 18.25 4.53 13.91 0.62 39.29 8.48 34.89 9.68"/><polygon class="cls-5" points="34.89 9.68 18.25 4.53 13.91 0.62 39.29 8.48 34.89 9.68"/><polygon class="cls-9" points="34.96 34.49 18.31 39.65 13.97 43.55 39.35 35.69 34.96 34.49"/><polygon class="cls-5" points="34.96 34.49 18.31 39.65 13.97 43.55 39.35 35.69 34.96 34.49"/></g></g></svg>