<svg xmlns="http://www.w3.org/2000/svg" height="48dp" viewportHeight="44.97" viewportWidth="79.66" width="85.02735dp" xmlns:android="http://schemas.android.com/apk/res/android">
	<group>
		<clip-path d="M-30.89,-4.66h140.94v71.49h-140.94z"/>
		<path fill="#003ab5" fill-rule="evenOdd" d="M38.41,27.09a3.41,3.41 0,0 1,0.05 -6.78c0,-0.13 -0.05,-0.27 -0.08,-0.41A3.31,3.31 0,0 1,34.3 18a3.42,3.42 0,0 1,1.51 -4.32l-0.24,-0.34a3.29,3.29 0,0 1,-4.42 0,14.61 14.61,0 0,1 0.31,20.37 14.1,14.1 0,0 1,-20.07 0.42,14.59 14.59,0 0,1 -0.52,-20.36 14.08,14.08 0,0 1,20.06 -0.63,3.44 3.44,0 0,1 -0.15,-4.48l-0.23,-0.15A3.3,3.3 0,0 1,26.38 10a3.42,3.42 0,0 1,-2 -4l-0.2,0A3.33,3.33 0,0 1,17.62 6L17.5,6a3.41,3.41 0,0 1,-1.9 4.16,3.31 3.31,0 0,1 -4.24,-1.56l-0.28,0.18a3.45,3.45 0,0 1,-0.26 4.48,3.3 3.3,0 0,1 -4.4,0.31l-0.07,0.12A3.44,3.44 0,0 1,7.75 18a3.33,3.33 0,0 1,-3.94 2c0,0.06 0,0.13 0,0.2a3.41,3.41 0,0 1,0.52 6.54,3.34 3.34,0 0,1 3.5,2.42 3.42,3.42 0,0 1,-1.64 4l0.19,0.27a3.3,3.3 0,0 1,4.44 0.33A3.45,3.45 0,0 1,11 38.23l0.13,0.1a3.32,3.32 0,0 1,4.29 -1.52A3.42,3.42 0,0 1,17.2 41l0.25,0.05a3.33,3.33 0,0 1,6.65 0.13l0.21,0a3.42,3.42 0,0 1,2 -4,3.32 3.32,0 0,1 4.14,1.53l0.28,-0.16a3.45,3.45 0,0 1,0.34 -4.5,3.3 3.3,0 0,1 4.43,-0.19l0.13,-0.18a3.43,3.43 0,0 1,-1.4 -4.32,3.32 3.32,0 0,1 4.06,-1.88Z"/>
		<path fill="#00000000" d="M38.41,27.09a3.41,3.41 0,0 1,0.05 -6.78c0,-0.13 -0.05,-0.27 -0.08,-0.41A3.31,3.31 0,0 1,34.3 18a3.42,3.42 0,0 1,1.51 -4.32l-0.24,-0.34a3.29,3.29 0,0 1,-4.42 0,14.61 14.61,0 0,1 0.31,20.37 14.1,14.1 0,0 1,-20.07 0.42,14.59 14.59,0 0,1 -0.52,-20.36 14.08,14.08 0,0 1,20.06 -0.63,3.44 3.44,0 0,1 -0.15,-4.48l-0.23,-0.15A3.3,3.3 0,0 1,26.38 10a3.42,3.42 0,0 1,-2 -4l-0.2,0A3.33,3.33 0,0 1,17.62 6L17.5,6a3.41,3.41 0,0 1,-1.9 4.16,3.31 3.31,0 0,1 -4.24,-1.56l-0.28,0.18a3.45,3.45 0,0 1,-0.26 4.48,3.3 3.3,0 0,1 -4.4,0.31l-0.07,0.12A3.44,3.44 0,0 1,7.75 18a3.33,3.33 0,0 1,-3.94 2c0,0.06 0,0.13 0,0.2a3.41,3.41 0,0 1,0.52 6.54,3.34 3.34,0 0,1 3.5,2.42 3.42,3.42 0,0 1,-1.64 4l0.19,0.27a3.3,3.3 0,0 1,4.44 0.33A3.45,3.45 0,0 1,11 38.23l0.13,0.1a3.32,3.32 0,0 1,4.29 -1.52A3.42,3.42 0,0 1,17.2 41l0.25,0.05a3.33,3.33 0,0 1,6.65 0.13l0.21,0a3.42,3.42 0,0 1,2 -4,3.32 3.32,0 0,1 4.14,1.53l0.28,-0.16a3.45,3.45 0,0 1,0.34 -4.5,3.3 3.3,0 0,1 4.43,-0.19l0.13,-0.18a3.43,3.43 0,0 1,-1.4 -4.32,3.32 3.32,0 0,1 4.06,-1.88Z" stroke="#003ab5" strokeLineCap="round" strokeLineJoin="round" stroke-width="1.97"/>
		<path fill="#00000000" d="M24.29,19.84a4.93,4.93 0,0 0,-7 0.53,5.1 5.1,0 0,0 0.48,7.11 4.93,4.93 0,0 0,7 -0.45,5.1 5.1,0 0,0 -0.41,-7.12A0.46,0.46 0,0 0,24.29 19.84Z" stroke="#003ab5" strokeLineCap="round" strokeLineJoin="round" stroke-width="0.74"/>
		<path fill="#003ab5" fill-rule="evenOdd" d="M74.6,26.82a2.58,2.58 0,0 1,-1.7 -3,2.51 2.51,0 0,1 2.78,-2c0,-0.11 0,-0.22 0,-0.32A2.52,2.52 0,0 1,73 19.46a2.56,2.56 0,0 1,1.8 -2.95l-0.12,-0.3a2.49,2.49 0,0 1,-3.25 -0.72,11 11,0 0,1 -3.26,15 10.63,10.63 0,0 1,-14.78 -3.23,11 11,0 0,1 3.1,-15A10.63,10.63 0,0 1,71.26 15.3,2.6 2.6,0 0,1 71.84,12l-0.15,-0.15a2.49,2.49 0,0 1,-3.3 0.47A2.59,2.59 0,0 1,67.52 9L67.37,9a2.52,2.52 0,0 1,-2.81 1.52,2.56 2.56,0 0,1 -2,-2.51h-0.08a2.57,2.57 0,0 1,-2.05 2.75,2.51 2.51,0 0,1 -2.88,-1.82L57.29,9a2.6,2.6 0,0 1,-0.88 3.28,2.49 2.49,0 0,1 -3.3,-0.48l-0.07,0.07a2.6,2.6 0,0 1,0.36 3.34,2.48 2.48,0 0,1 -3.19,0.85l-0.06,0.14a2.57,2.57 0,0 1,-0.63 4.91,2.52 2.52,0 0,1 2.2,2.34 2.56,2.56 0,0 1,-1.82 2.66l0.09,0.23a2.5,2.5 0,0 1,3.23 0.95,2.59 2.59,0 0,1 -0.57,3.36l0.09,0.09a2.5,2.5 0,0 1,3.4 -0.43,2.58 2.58,0 0,1 0.68,3.41l0.17,0.07a2.52,2.52 0,0 1,3 -1.74A2.56,2.56 0,0 1,61.88 35H62a2.54,2.54 0,0 1,2.11 -2.62A2.5,2.5 0,0 1,67 34.14l0.23,-0.08a2.59,2.59 0,0 1,0.94 -3.28,2.48 2.48,0 0,1 3.3,0.58l0.12,-0.1a2.6,2.6 0,0 1,-0.4 -3.44,2.5 2.5,0 0,1 3.32,-0.72Z"/>
		<path fill="#00000000" d="M74.6,26.82a2.58,2.58 0,0 1,-1.7 -3,2.51 2.51,0 0,1 2.78,-2c0,-0.11 0,-0.22 0,-0.32A2.52,2.52 0,0 1,73 19.46a2.56,2.56 0,0 1,1.8 -2.95l-0.12,-0.3a2.49,2.49 0,0 1,-3.25 -0.72,11 11,0 0,1 -3.26,15 10.63,10.63 0,0 1,-14.78 -3.23,11 11,0 0,1 3.1,-15A10.63,10.63 0,0 1,71.26 15.3,2.6 2.6,0 0,1 71.84,12l-0.15,-0.15a2.5,2.5 0,0 1,-3.3 0.47A2.59,2.59 0,0 1,67.52 9L67.37,9a2.52,2.52 0,0 1,-2.81 1.52,2.56 2.56,0 0,1 -2,-2.51h-0.08a2.57,2.57 0,0 1,-2.05 2.75,2.51 2.51,0 0,1 -2.88,-1.82L57.29,9a2.6,2.6 0,0 1,-0.88 3.28,2.49 2.49,0 0,1 -3.3,-0.48l-0.07,0.07a2.6,2.6 0,0 1,0.36 3.34,2.48 2.48,0 0,1 -3.19,0.85l-0.06,0.14a2.57,2.57 0,0 1,-0.63 4.91,2.52 2.52,0 0,1 2.2,2.34 2.56,2.56 0,0 1,-1.82 2.66l0.09,0.23a2.5,2.5 0,0 1,3.23 0.95,2.59 2.59,0 0,1 -0.57,3.36l0.09,0.09a2.5,2.5 0,0 1,3.4 -0.43,2.58 2.58,0 0,1 0.68,3.41l0.17,0.07a2.52,2.52 0,0 1,3 -1.74A2.56,2.56 0,0 1,61.88 35H62a2.54,2.54 0,0 1,2.11 -2.62A2.5,2.5 0,0 1,67 34.14l0.23,-0.08a2.59,2.59 0,0 1,0.94 -3.28,2.48 2.48,0 0,1 3.3,0.58l0.12,-0.1a2.6,2.6 0,0 1,-0.4 -3.44,2.5 2.5,0 0,1 3.32,-0.72Z" stroke="#003ab5" strokeLineCap="round" strokeLineJoin="round" stroke-width="0.99"/>
		<path fill="#00000000" d="M65.32,19.23a3.74,3.74 0,0 0,-5.08 -1.55,3.84 3.84,0 0,0 -1.55,5.14 3.73,3.73 0,0 0,5.06 1.6,3.83 3.83,0 0,0 1.6,-5.12l0,-0.07Z" stroke="#003ab5" strokeLineCap="round" strokeLineJoin="round" stroke-width="0.99"/>
		<path fill="#00000000" d="M14.16,3.9l5.76,-1.56a2.7,2.7 0,0 1,3.31 1.93,2.74 2.74,0 0,1 -1.91,3.35L15.56,9.19a2.69,2.69 0,0 1,-3.3 -1.93A2.74,2.74 0,0 1,14.16 3.9Z" stroke="#003ab5" strokeLineCap="round" strokeLineJoin="round" stroke-width="0.74"/>
		<path fill="#00000000" d="M15.89,6.27a1.13,1.13 0,0 1,-0.73 1.39,1.12 1.12,0 0,1 -1.33,-0.84 1.13,1.13 0,0 1,0.74 -1.39A1.1,1.1 0,0 1,15.89 6.27Z" stroke="#003ab5" strokeLineCap="round" strokeLineJoin="round" stroke-width="0.74"/>
		<path fill="#00000000" d="M21.72,4.68A1.12,1.12 0,0 1,21 6.07a1.09,1.09 0,0 1,-1.32 -0.83,1.12 1.12,0 0,1 0.73,-1.39A1.1,1.1 0,0 1,21.72 4.68Z" stroke="#003ab5" strokeLineCap="round" strokeLineJoin="round" stroke-width="0.74"/>
		<path fill="#00000000" d="M2.2,14.16l3.34,-5a2.66,2.66 0,0 1,3.74 -0.73A2.75,2.75 0,0 1,10 12.2l-3.34,5A2.68,2.68 0,0 1,2.93 18,2.76 2.76,0 0,1 2.2,14.16Z" stroke="#003ab5" strokeLineCap="round" strokeLineJoin="round" stroke-width="0.74"/>
		<path fill="#00000000" d="M5,14.8a1.12,1.12 0,0 1,0.35 1.53,1.1 1.1,0 0,1 -1.54,0.26 1.13,1.13 0,0 1,-0.34 -1.54A1.07,1.07 0,0 1,5 14.8Z" stroke="#003ab5" strokeLineCap="round" strokeLineJoin="round" stroke-width="0.74"/>
		<path fill="#00000000" d="M8.4,9.72a1.13,1.13 0,0 1,0.35 1.54,1.08 1.08,0 0,1 -1.53,0.25A1.13,1.13 0,0 1,6.87 10,1.09 1.09,0 0,1 8.4,9.72Z" stroke="#003ab5" strokeLineCap="round" strokeLineJoin="round" stroke-width="0.74"/>
		<path fill="#00000000" d="M50.58,34.76l5.87,-1a2.69,2.69 0,0 1,3.12 2.22,2.73 2.73,0 0,1 -2.19,3.17l-5.87,1a2.74,2.74 0,0 1,-0.93 -5.39Z" stroke="#003ab5" strokeLineCap="round" strokeLineJoin="round" stroke-width="0.74"/>
		<path fill="#00000000" d="M52.09,37.34a1.07,1.07 0,1 1,-2.1 0.37,1.13 1.13,0 0,1 0.86,-1.32A1.1,1.1 0,0 1,52.09 37.34Z" stroke="#003ab5" strokeLineCap="round" strokeLineJoin="round" stroke-width="0.74"/>
		<path fill="#00000000" d="M58.24,36.27a1.11,1.11 0,0 1,-0.85 1.32,1.09 1.09,0 0,1 -1.24,-0.94A1.11,1.11 0,0 1,57 35.33,1.09 1.09,0 0,1 58.24,36.27Z" stroke="#003ab5" strokeLineCap="round" strokeLineJoin="round" stroke-width="0.74"/>
		<path fill="#00000000" d="M21.3,39l5.95,-0.42a2.74,2.74 0,0 1,0.37 5.46l-5.94,0.42A2.74,2.74 0,0 1,21.3 39Z" stroke="#003ab5" strokeLineCap="round" strokeLineJoin="round" stroke-width="0.74"/>
		<path fill="#00000000" d="M22.55,41.68a1.12,1.12 0,0 1,-1 1.22,1.16 1.16,0 1,1 1,-1.22Z" stroke="#003ab5" strokeLineCap="round" strokeLineJoin="round" stroke-width="0.74"/>
		<path fill="#00000000" d="M28.57,41.25a1.07,1.07 0,1 1,-1.14 -1.07A1.12,1.12 0,0 1,28.57 41.25Z" stroke="#003ab5" strokeLineCap="round" strokeLineJoin="round" stroke-width="0.74"/>
		<path fill="#00000000" d="M36.39,37.26l5.87,-1a2.71,2.71 0,0 1,3.13 2.22A2.74,2.74 0,0 1,43.2 41.6l-5.87,1a2.7,2.7 0,0 1,-3.13 -2.22A2.73,2.73 0,0 1,36.39 37.26Z" stroke="#003ab5" strokeLineCap="round" strokeLineJoin="round" stroke-width="0.74"/>
		<path fill="#00000000" d="M37.9,39.77a1.07,1.07 0,1 1,-2.09 0.38,1.12 1.12,0 0,1 0.85,-1.33A1.1,1.1 0,0 1,37.9 39.77Z" stroke="#003ab5" strokeLineCap="round" strokeLineJoin="round" stroke-width="0.74"/>
		<path fill="#00000000" d="M43.85,38.71a1.07,1.07 0,1 1,-1.25 -1A1.11,1.11 0,0 1,43.85 38.71Z" stroke="#003ab5" strokeLineCap="round" strokeLineJoin="round" stroke-width="0.74"/>
		<path fill="#00000000" d="M39,6.36l5.94,0.42a2.72,2.72 0,0 0,2.88 -2.54,2.71 2.71,0 0,0 -2.5,-2.92l-6,-0.43A2.74,2.74 0,0 0,39 6.36Z" stroke="#003ab5" strokeLineCap="round" strokeLineJoin="round" stroke-width="0.74"/>
		<path fill="#00000000" d="M40.31,3.79a1.12,1.12 0,0 0,-1 -1.22,1.09 1.09,0 0,0 -1.14,1.07 1.12,1.12 0,0 0,1 1.23A1.11,1.11 0,0 0,40.31 3.79Z" stroke="#003ab5" strokeLineCap="round" strokeLineJoin="round" stroke-width="0.74"/>
		<path fill="#00000000" d="M46.33,4.22a1.13,1.13 0,0 0,-1 -1.23,1.11 1.11,0 0,0 -1.14,1.08 1.1,1.1 0,0 0,1 1.22A1.12,1.12 0,0 0,46.33 4.22Z" stroke="#003ab5" strokeLineCap="round" strokeLineJoin="round" stroke-width="0.74"/>
		<path fill="#00000000" d="M51.4,7.37l5.87,1A2.74,2.74 0,0 0,58.21 3L52.34,2A2.7,2.7 0,0 0,49.21 4.2,2.75 2.75,0 0,0 51.4,7.37Z" stroke="#003ab5" strokeLineCap="round" strokeLineJoin="round" stroke-width="0.74"/>
		<path fill="#00000000" d="M52.92,4.86a1.07,1.07 0,1 0,-2.1 -0.38,1.13 1.13,0 0,0 0.85,1.33A1.11,1.11 0,0 0,52.92 4.86Z" stroke="#003ab5" strokeLineCap="round" strokeLineJoin="round" stroke-width="0.74"/>
		<path fill="#00000000" d="M58.86,5.92a1.07,1.07 0,1 0,-2.1 -0.37,1.13 1.13,0 0,0 0.86,1.32A1.11,1.11 0,0 0,58.86 5.92Z" stroke="#003ab5" strokeLineCap="round" strokeLineJoin="round" stroke-width="0.74"/>
		<path fill="#00000000" d="M26.73,0.53l6,0.22a2.74,2.74 0,0 1,-0.2 5.47l-6,-0.22a2.73,2.73 0,0 1,-2.6 -2.84A2.71,2.71 0,0 1,26.73 0.53Z" stroke="#003ab5" strokeLineCap="round" strokeLineJoin="round" stroke-width="0.74"/>
		<path fill="#00000000" d="M27.7,3.3a1.1,1.1 0,0 1,-1.11 1.11,1.11 1.11,0 0,1 -1,-1.19 1.07,1.07 0,1 1,2.13 0.08Z" stroke="#003ab5" strokeLineCap="round" strokeLineJoin="round" stroke-width="0.74"/>
		<path fill="#00000000" d="M33.73,3.53a1.11,1.11 0,0 1,-1.11 1.11,1.13 1.13,0 0,1 -1,-1.19 1.12,1.12 0,0 1,1.11 -1.12A1.13,1.13 0,0 1,33.73 3.53Z" stroke="#003ab5" strokeLineCap="round" strokeLineJoin="round" stroke-width="0.74"/>
		<path fill="#00000000" d="M1.56,30.39l-1,-6a2.74,2.74 0,0 1,2.19 -3.17,2.7 2.7,0 0,1 3.12,2.22l1,6a2.74,2.74 0,0 1,-2.19 3.17A2.71,2.71 0,0 1,1.56 30.39Z" stroke="#003ab5" strokeLineCap="round" strokeLineJoin="round" stroke-width="0.74"/>
		<path fill="#00000000" d="M4,28.85A1.08,1.08 0,1 1,4.4 31a1.11,1.11 0,0 1,-1.3 -0.86A1.12,1.12 0,0 1,4 28.85Z" stroke="#003ab5" strokeLineCap="round" strokeLineJoin="round" stroke-width="0.74"/>
		<path fill="#00000000" d="M3,22.83a1.09,1.09 0,0 1,1.3 0.86A1.12,1.12 0,0 1,3.36 25,1.08 1.08,0 1,1 3,22.83Z" stroke="#003ab5" strokeLineCap="round" strokeLineJoin="round" stroke-width="0.74"/>
		<path fill="#00000000" d="M12.12,42.42 L7.24,39a2.77,2.77 0,0 1,-0.67 -3.81,2.67 2.67,0 0,1 3.76,-0.67l4.88,3.47a2.77,2.77 0,0 1,0.67 3.81A2.67,2.67 0,0 1,12.12 42.42Z" stroke="#003ab5" strokeLineCap="round" strokeLineJoin="round" stroke-width="0.74"/>
		<path fill="#00000000" d="M12.79,39.56a1.1,1.1 0,0 1,1.53 -0.32,1.13 1.13,0 0,1 0.22,1.56 1.09,1.09 0,0 1,-1.53 0.32A1.13,1.13 0,0 1,12.79 39.56Z" stroke="#003ab5" strokeLineCap="round" strokeLineJoin="round" stroke-width="0.74"/>
		<path fill="#00000000" d="M7.85,36.05a1.08,1.08 0,0 1,1.52 -0.32,1.12 1.12,0 0,1 0.23,1.56 1.1,1.1 0,0 1,-1.53 0.32A1.13,1.13 0,0 1,7.85 36.05Z" stroke="#003ab5" strokeLineCap="round" strokeLineJoin="round" stroke-width="0.74"/>
		<path fill="#00000000" d="M63.47,32.69l5.61,-2.06a2.68,2.68 0,0 1,3.45 1.64,2.75 2.75,0 0,1 -1.61,3.51l-5.61,2a2.69,2.69 0,0 1,-3.46 -1.64A2.74,2.74 0,0 1,63.47 32.69Z" stroke="#003ab5" strokeLineCap="round" strokeLineJoin="round" stroke-width="0.74"/>
		<path fill="#00000000" d="M65.4,35a1.12,1.12 0,0 1,-0.61 1.45,1.1 1.1,0 0,1 -1.39,-0.72A1.12,1.12 0,0 1,64 34.25,1.1 1.1,0 0,1 65.4,35Z" stroke="#003ab5" strokeLineCap="round" strokeLineJoin="round" stroke-width="0.74"/>
		<path fill="#00000000" d="M71.28,32.83a1.13,1.13 0,0 1,-0.62 1.45,1.09 1.09,0 0,1 -1.39,-0.71 1.12,1.12 0,0 1,0.62 -1.45A1.1,1.1 0,0 1,71.28 32.83Z" stroke="#003ab5" strokeLineCap="round" strokeLineJoin="round" stroke-width="0.74"/>
		<path fill="#00000000" d="M79.2,18.7l-0.53,6a2.7,2.7 0,1 1,-5.37 -0.49l0.53,-6a2.7,2.7 0,1 1,5.37 0.48Z" stroke="#003ab5" strokeLineCap="round" strokeLineJoin="round" stroke-width="0.74"/>
		<path fill="#00000000" d="M76.35,19.52a1.09,1.09 0,1 1,1.23 -1A1.11,1.11 0,0 1,76.35 19.52Z" stroke="#003ab5" strokeLineCap="round" strokeLineJoin="round" stroke-width="0.74"/>
		<path fill="#00000000" d="M75.77,25.82a1.12,1.12 0,0 1,-1 -1.18,1.14 1.14,0 1,1 1,1.18Z" stroke="#003ab5" strokeLineCap="round" strokeLineJoin="round" stroke-width="0.74"/>
		<path fill="#00000000" d="M65.77,5.17l5.4,2.56a2.76,2.76 0,0 1,1.3 3.64,2.68 2.68,0 0,1 -3.59,1.32l-5.39,-2.57a2.76,2.76 0,0 1,-1.3 -3.64A2.66,2.66 0,0 1,65.77 5.17Z" stroke="#003ab5" strokeLineCap="round" strokeLineJoin="round" stroke-width="0.74"/>
		<path fill="#00000000" d="M65.55,8.16a1.1,1.1 0,0 1,-1.45 0.59,1.13 1.13,0 0,1 -0.48,-1.5 1.09,1.09 0,0 1,1.45 -0.59A1.12,1.12 0,0 1,65.55 8.16Z" stroke="#003ab5" strokeLineCap="round" strokeLineJoin="round" stroke-width="0.74"/>
		<path fill="#00000000" d="M71.19,10.87a1.1,1.1 0,0 1,-1.45 0.58,1.13 1.13,0 0,1 -0.48,-1.5 1.1,1.1 0,0 1,1.45 -0.59A1.13,1.13 0,0 1,71.19 10.87Z" stroke="#003ab5" strokeLineCap="round" strokeLineJoin="round" stroke-width="0.74"/>
		<path fill="#00000000" d="M6.26,8.41L13.1,4.47" stroke="#003ab5" strokeLineCap="round" strokeLineJoin="round" stroke-width="0.74"/>
		<path fill="#00000000" d="M20.39,2.25L25.83,0.65" stroke="#003ab5" strokeLineCap="round" strokeLineJoin="round" stroke-width="0.74"/>
		<path fill="#00000000" d="M33.23,0.83L38.08,0.83" stroke="#003ab5" strokeLineCap="round" strokeLineJoin="round" stroke-width="0.74"/>
		<path fill="#00000000" d="M33.14,6.16L38.38,6.25" stroke="#003ab5" strokeLineCap="round" strokeLineJoin="round" stroke-width="0.74"/>
		<path fill="#00000000" d="M45.83,6.67L51.29,7.34" stroke="#003ab5" strokeLineCap="round" strokeLineJoin="round" stroke-width="0.74"/>
		<path fill="#00000000" d="M45.38,1.33L52.13,1.95" stroke="#003ab5" strokeLineCap="round" strokeLineJoin="round" stroke-width="0.74"/>
		<path fill="#00000000" d="M57.52,8.92L62.81,9.14" stroke="#003ab5" strokeLineCap="round" strokeLineJoin="round" stroke-width="0.74"/>
		<path fill="#00000000" d="M58.69,3.16L64.7,4.67" stroke="#003ab5" strokeLineCap="round" strokeLineJoin="round" stroke-width="0.74"/>
		<path fill="#00000000" d="M71.78,8.13L78.84,17.08" stroke="#003ab5" strokeLineCap="round" strokeLineJoin="round" stroke-width="0.74"/>
		<path fill="#00000000" d="M78.57,25.28L72.28,34.65" stroke="#003ab5" strokeLineCap="round" strokeLineJoin="round" stroke-width="0.74"/>
		<path fill="#00000000" d="M64.44,38L57.97,38.94" stroke="#003ab5" strokeLineCap="round" strokeLineJoin="round" stroke-width="0.74"/>
		<path fill="#00000000" d="M51.11,40.19L44.19,41.21" stroke="#003ab5" strokeLineCap="round" strokeLineJoin="round" stroke-width="0.74"/>
		<path fill="#00000000" d="M49.55,35.17L43.01,36.19" stroke="#003ab5" strokeLineCap="round" strokeLineJoin="round" stroke-width="0.74"/>
		<path fill="#00000000" d="M28.53,43.83L37.28,42.66" stroke="#003ab5" strokeLineCap="round" strokeLineJoin="round" stroke-width="0.74"/>
		<path fill="#00000000" d="M35.52,37.58L28.22,38.71" stroke="#003ab5" strokeLineCap="round" strokeLineJoin="round" stroke-width="0.74"/>
		<path fill="#00000000" d="M21.46,44.49L12.78,42.76" stroke="#003ab5" strokeLineCap="round" strokeLineJoin="round" stroke-width="0.74"/>
		<path fill="#00000000" d="M6.59,38.31L2.02,31.49" stroke="#003ab5" strokeLineCap="round" strokeLineJoin="round" stroke-width="0.74"/>
		<path fill="#00000000" d="M0.5,23.69L1.83,14.98" stroke="#003ab5" strokeLineCap="round" strokeLineJoin="round" stroke-width="0.74"/>
	</group>
</svg>
