<svg xmlns="http://www.w3.org/2000/svg" height="48dp" viewportHeight="44.6" viewportWidth="44.92" width="48.344395dp" xmlns:android="http://schemas.android.com/apk/res/android">
	<group>
		<clip-path d="M-59.99,-4.52h163.98v70.47h-163.98z"/>
		<path fill="#00000000" d="M23.17,19.6a12,12 0,0 0,7.07 -0.58,8 8,0 0,0 -3.71,-7.52 8.62,8.62 0,0 1,-3 5.84A2.19,2.19 0,0 1,23.17 19.6Z" stroke="#003ab5" strokeLineCap="round" strokeLineJoin="round" stroke-width="1.32"/>
		<path fill="#00000000" d="M21.41,15.84a2.58,2.58 0,0 1,2.1 1.49,8.58 8.58,0 0,0 3,-5.84A10.07,10.07 0,0 0,16.99 10.76C19.36,12.23 21,14.11 21.41,15.84Z" stroke="#003ab5" strokeLineCap="round" strokeLineJoin="round" stroke-width="1.32"/>
		<path fill="#00000000" d="M18.95,16.76a2.78,2.78 0,0 1,2.46 -0.94c-0.41,-1.72 -2,-3.6 -4.42,-5.1a8.36,8.36 0,0 0,-5.11 6.61A12,12 0,0 1,18.95 16.76Z" stroke="#003ab5" strokeLineCap="round" strokeLineJoin="round" stroke-width="1.32"/>
		<path fill="#00000000" d="M25.13,25.64a8.39,8.39 0,0 0,5.11 -6.62,12 12,0 0,1 -7.08,0.58 2.76,2.76 0,0 1,-2.45 0.93C21.12,22.25 22.75,24.14 25.13,25.64Z" stroke="#003ab5" strokeLineCap="round" strokeLineJoin="round" stroke-width="1.32"/>
		<path fill="#00000000" d="M18.61,19.03A2.15,2.15 0,0 1,18.95 16.76a12,12 0,0 0,-7.08 0.58,8 8,0 0,0 3.72,7.52A8.58,8.58 0,0 1,18.61 19.03Z" stroke="#003ab5" strokeLineCap="round" strokeLineJoin="round" stroke-width="1.32"/>
		<path fill="#00000000" d="M18.6,19.03a8.62,8.62 0,0 0,-3 5.85,10.1 10.1,0 0,0 9.54,0.76c-2.38,-1.5 -4,-3.39 -4.41,-5.11A2.59,2.59 0,0 1,18.6 19.03Z" stroke="#003ab5" strokeLineCap="round" strokeLineJoin="round" stroke-width="1.32"/>
		<path fill="#00000000" d="M19.86,18.18a1.21,1.21 0,0 1,2.39 0,1.21 1.21,0 0,1 -2.39,0Z" stroke="#003ab5" strokeLineCap="round" strokeLineJoin="round" stroke-width="1.32"/>
		<path fill="#00000000" d="M5.49,18.19a15.56,13.37 0,1 0,31.12 0a15.56,13.37 0,1 0,-31.12 0z" stroke="#003ab5" strokeLineCap="round" strokeLineJoin="round" stroke-width="1.32"/>
		<path fill="#00000000" d="M26.31,27.91a1.29,1.29 0,1 1,1.27 1.1A1.19,1.19 0,0 1,26.31 27.91Z" stroke="#003ab5" strokeLineCap="round" strokeLineJoin="round" stroke-width="1.32"/>
		<path fill="#00000000" d="M13.25,27.91a1.19,1.19 0,0 1,1.27 -1.1,1.11 1.11,0 1,1 0,2.2A1.2,1.2 0,0 1,13.25 27.91Z" stroke="#003ab5" strokeLineCap="round" strokeLineJoin="round" stroke-width="1.32"/>
		<path fill="#00000000" d="M26.31,8.46a1.29,1.29 0,0 1,2.55 0A1.29,1.29 0,0 1,26.31 8.46Z" stroke="#003ab5" strokeLineCap="round" strokeLineJoin="round" stroke-width="1.32"/>
		<path fill="#00000000" d="M13.19,8.46a1.2,1.2 0,0 1,1.28 -1.09A1.19,1.19 0,0 1,15.74 8.46a1.19,1.19 0,0 1,-1.27 1.1A1.2,1.2 0,0 1,13.19 8.46Z" stroke="#003ab5" strokeLineCap="round" strokeLineJoin="round" stroke-width="1.32"/>
		<path fill="#00000000" d="M32.79,18.18a1.29,1.29 0,0 1,2.55 0,1.29 1.29,0 0,1 -2.55,0Z" stroke="#003ab5" strokeLineCap="round" strokeLineJoin="round" stroke-width="1.32"/>
		<path fill="#00000000" d="M6.81,18.18a1.19,1.19 0,0 1,1.27 -1.09,1.2 1.2,0 0,1 1.28,1.09 1.2,1.2 0,0 1,-1.28 1.1A1.19,1.19 0,0 1,6.81 18.18Z" stroke="#003ab5" strokeLineCap="round" strokeLineJoin="round" stroke-width="1.32"/>
		<path fill="#00000000" d="M43,43.94L44.31,43.94L44.31,41.59L43,41.59v0L41.46,41.59L41.46,18.18h0c0,-8 -6.24,-14.92 -15.2,-17S7.87,2.63 3.31,9.56 0.19,25.19 6.83,30.76s16.8,6.57 24.74,2.47v8.36L30.31,41.59v0L28.97,41.59v2.35Z" stroke="#003ab5" strokeLineCap="round" strokeLineJoin="round" stroke-width="1.32"/>
		<path fill="#00000000" d="M36.62,27.35L36.62,33.73" stroke="#003ab5" strokeLineCap="round" strokeLineJoin="round" stroke-width="1.32"/>
		<path fill="#003ab5" fill-rule="evenOdd" d="M40.09,33.73l-3.47,8.95l-3.47,-8.95l6.94,0"/>
	</group>
</svg>
