<svg id="Layer_7" data-name="Layer 7" xmlns="http://www.w3.org/2000/svg" xmlns:xlink="http://www.w3.org/1999/xlink" viewBox="0 0 44.92 44.6"><defs><style>.cls-1,.cls-4{fill:none;}.cls-2{isolation:isolate;}.cls-3{clip-path:url(#clip-path);}.cls-4{stroke:#003ab5;stroke-linecap:round;stroke-linejoin:round;stroke-width:1.32px;}.cls-5{fill:#003ab5;fill-rule:evenodd;}</style><clipPath id="clip-path" transform="translate(-0.69 -0.24)"><rect class="cls-1" x="-59.3" y="-4.28" width="163.98" height="70.47"/></clipPath></defs><g class="cls-2"><g class="cls-3"><path class="cls-4" d="M23.86,19.84a12,12,0,0,0,7.07-.58,8,8,0,0,0-3.71-7.52,8.62,8.62,0,0,1-3,5.84A2.19,2.19,0,0,1,23.86,19.84Z" transform="translate(-0.69 -0.24)"/><path class="cls-4" d="M22.1,16.08a2.58,2.58,0,0,1,2.1,1.49,8.58,8.58,0,0,0,3-5.84A10.07,10.07,0,0,0,17.68,11C20.05,12.47,21.69,14.35,22.1,16.08Z" transform="translate(-0.69 -0.24)"/><path class="cls-4" d="M19.64,17a2.78,2.78,0,0,1,2.46-.94c-.41-1.72-2-3.6-4.42-5.1a8.36,8.36,0,0,0-5.11,6.61A12,12,0,0,1,19.64,17Z" transform="translate(-0.69 -0.24)"/><path class="cls-4" d="M25.82,25.88a8.39,8.39,0,0,0,5.11-6.62,12,12,0,0,1-7.08.58,2.76,2.76,0,0,1-2.45.93C21.81,22.49,23.44,24.38,25.82,25.88Z" transform="translate(-0.69 -0.24)"/><path class="cls-4" d="M19.3,19.27A2.15,2.15,0,0,1,19.64,17a12,12,0,0,0-7.08.58,8,8,0,0,0,3.72,7.52A8.58,8.58,0,0,1,19.3,19.27Z" transform="translate(-0.69 -0.24)"/><path class="cls-4" d="M19.29,19.27a8.62,8.62,0,0,0-3,5.85,10.1,10.1,0,0,0,9.54.76c-2.38-1.5-4-3.39-4.41-5.11A2.59,2.59,0,0,1,19.29,19.27Z" transform="translate(-0.69 -0.24)"/><path class="cls-4" d="M20.55,18.42a1.21,1.21,0,0,1,2.39,0,1.21,1.21,0,0,1-2.39,0Z" transform="translate(-0.69 -0.24)"/><ellipse class="cls-4" cx="21.05" cy="18.19" rx="15.56" ry="13.37"/><path class="cls-4" d="M27,28.15a1.29,1.29,0,1,1,1.27,1.1A1.19,1.19,0,0,1,27,28.15Z" transform="translate(-0.69 -0.24)"/><path class="cls-4" d="M13.94,28.15a1.19,1.19,0,0,1,1.27-1.1,1.11,1.11,0,1,1,0,2.2A1.2,1.2,0,0,1,13.94,28.15Z" transform="translate(-0.69 -0.24)"/><path class="cls-4" d="M27,8.7a1.29,1.29,0,0,1,2.55,0A1.29,1.29,0,0,1,27,8.7Z" transform="translate(-0.69 -0.24)"/><path class="cls-4" d="M13.88,8.7a1.2,1.2,0,0,1,1.28-1.09A1.19,1.19,0,0,1,16.43,8.7a1.19,1.19,0,0,1-1.27,1.1A1.2,1.2,0,0,1,13.88,8.7Z" transform="translate(-0.69 -0.24)"/><path class="cls-4" d="M33.48,18.42a1.29,1.29,0,0,1,2.55,0,1.29,1.29,0,0,1-2.55,0Z" transform="translate(-0.69 -0.24)"/><path class="cls-4" d="M7.5,18.42a1.19,1.19,0,0,1,1.27-1.09,1.2,1.2,0,0,1,1.28,1.09,1.2,1.2,0,0,1-1.28,1.1A1.19,1.19,0,0,1,7.5,18.42Z" transform="translate(-0.69 -0.24)"/><path class="cls-4" d="M43.69,44.18H45V41.83H43.69v0H42.15V18.42h0c0-8-6.24-14.92-15.2-17S8.56,2.87,4,9.8.88,25.43,7.52,31s16.8,6.57,24.74,2.47v8.36H31v0H29.66v2.35Z" transform="translate(-0.69 -0.24)"/><line class="cls-4" x1="36.62" y1="27.35" x2="36.62" y2="33.73"/><polyline class="cls-5" points="40.09 33.73 36.62 42.68 33.15 33.73 40.09 33.73"/></g></g></svg>