<svg id="Layer_5" data-name="Layer 5" xmlns="http://www.w3.org/2000/svg" xmlns:xlink="http://www.w3.org/1999/xlink" viewBox="0 0 44.56 44.36"><defs><style>.cls-1,.cls-4{fill:none;}.cls-2{isolation:isolate;}.cls-3{clip-path:url(#clip-path);}.cls-4{stroke:#003ab5;stroke-linecap:round;stroke-linejoin:round;stroke-width:1.31px;}.cls-5{fill:#003ab5;fill-rule:evenodd;}</style><clipPath id="clip-path" transform="translate(-0.65 -0.25)"><rect class="cls-1" x="-58.85" y="-4.23" width="162.64" height="70.09"/></clipPath></defs><g class="cls-2"><g class="cls-3"><path class="cls-4" d="M23.63,19.75a11.84,11.84,0,0,0,7-.57A8,8,0,0,0,27,11.69a8.57,8.57,0,0,1-3,5.81A2.15,2.15,0,0,1,23.63,19.75Z" transform="translate(-0.65 -0.25)"/><path class="cls-4" d="M21.88,16A2.56,2.56,0,0,1,24,17.5a8.57,8.57,0,0,0,3-5.81,10,10,0,0,0-9.46-.76C19.85,12.42,21.47,14.29,21.88,16Z" transform="translate(-0.65 -0.25)"/><path class="cls-4" d="M19.44,16.94A2.72,2.72,0,0,1,21.88,16c-.4-1.72-2-3.59-4.38-5.08a8.31,8.31,0,0,0-5.07,6.58A11.83,11.83,0,0,1,19.44,16.94Z" transform="translate(-0.65 -0.25)"/><path class="cls-4" d="M25.57,25.76a8.35,8.35,0,0,0,5.07-6.58,11.86,11.86,0,0,1-7,.57,2.74,2.74,0,0,1-2.44.93C21.59,22.39,23.21,24.27,25.57,25.76Z" transform="translate(-0.65 -0.25)"/><path class="cls-4" d="M19.1,19.18a2.18,2.18,0,0,1,.34-2.25,12,12,0,0,0-7,.58A8,8,0,0,0,16.11,25,8.55,8.55,0,0,1,19.1,19.18Z" transform="translate(-0.65 -0.25)"/><path class="cls-4" d="M19.09,19.19a8.56,8.56,0,0,0-3,5.81,10,10,0,0,0,9.46.76c-2.35-1.49-4-3.37-4.38-5.08A2.62,2.62,0,0,1,19.09,19.19Z" transform="translate(-0.65 -0.25)"/><path class="cls-4" d="M20.34,18.34a1.2,1.2,0,1,1,1.19,1A1.12,1.12,0,0,1,20.34,18.34Z" transform="translate(-0.65 -0.25)"/><ellipse class="cls-4" cx="20.88" cy="18.09" rx="15.43" ry="13.3"/><path class="cls-4" d="M26.75,28A1.28,1.28,0,1,1,28,29.11,1.18,1.18,0,0,1,26.75,28Z" transform="translate(-0.65 -0.25)"/><path class="cls-4" d="M13.79,28a1.18,1.18,0,0,1,1.26-1.09,1.11,1.11,0,1,1,0,2.19A1.18,1.18,0,0,1,13.79,28Z" transform="translate(-0.65 -0.25)"/><path class="cls-4" d="M26.69,8.67a1.28,1.28,0,0,1,2.53,0,1.28,1.28,0,0,1-2.53,0Z" transform="translate(-0.65 -0.25)"/><path class="cls-4" d="M13.73,8.67A1.19,1.19,0,0,1,15,7.58a1.18,1.18,0,0,1,1.26,1.09A1.18,1.18,0,0,1,15,9.77,1.19,1.19,0,0,1,13.73,8.67Z" transform="translate(-0.65 -0.25)"/><path class="cls-4" d="M33.17,18.34a1.28,1.28,0,1,1,1.26,1.09A1.18,1.18,0,0,1,33.17,18.34Z" transform="translate(-0.65 -0.25)"/><path class="cls-4" d="M7.4,18.34a1.19,1.19,0,0,1,1.26-1.09,1.19,1.19,0,0,1,1.27,1.09,1.19,1.19,0,0,1-1.27,1.09A1.18,1.18,0,0,1,7.4,18.34Z" transform="translate(-0.65 -0.25)"/><path class="cls-4" d="M43.3,44h1.25V41.62H43.3v0H41.77V18.34h0c0-7.92-6.19-14.84-15.08-16.86S8.45,2.87,3.92,9.77.84,25.31,7.42,30.84,24.08,37.37,32,33.28V41.6h-1.3v0H29.38V44Z" transform="translate(-0.65 -0.25)"/><line class="cls-4" x1="36.32" y1="27.2" x2="36.32" y2="33.54"/><polyline class="cls-5" points="39.77 33.54 36.32 42.45 32.88 33.54 39.77 33.54"/></g></g></svg>