<svg id="Layer_8" data-name="Layer 8" xmlns="http://www.w3.org/2000/svg" xmlns:xlink="http://www.w3.org/1999/xlink" viewBox="0 0 52.19 44.63"><defs><style>.cls-1,.cls-4{fill:none;}.cls-2{isolation:isolate;}.cls-3{clip-path:url(#clip-path);}.cls-4{stroke:#003ab5;stroke-linecap:round;stroke-linejoin:round;stroke-width:1.24px;}.cls-5{fill:#003ab5;fill-rule:evenodd;}</style><clipPath id="clip-path" transform="translate(-0.27 -0.34)"><rect class="cls-1" y="-3.13" width="62.55" height="48.09"/></clipPath></defs><g class="cls-2"><g class="cls-3"><path class="cls-4" d="M23.2,22a10.16,10.16,0,0,0-.68-7,10,10,0,0,0-8.86,3.69c3,.33,5.53,1.44,6.87,3A3,3,0,0,1,23.2,22Z" transform="translate(-0.27 -0.34)"/><path class="cls-4" d="M18.77,23.71a2.66,2.66,0,0,1,1.76-2.1c-1.34-1.55-3.88-2.66-6.88-3a8.72,8.72,0,0,0-.89,9.49A10.89,10.89,0,0,1,18.77,23.71Z" transform="translate(-0.27 -0.34)"/><path class="cls-4" d="M19.87,26.16a2.53,2.53,0,0,1-1.1-2.45,10.94,10.94,0,0,0-6,4.39,9.79,9.79,0,0,0,7.8,5.09A10.19,10.19,0,0,1,19.87,26.16Z" transform="translate(-0.27 -0.34)"/><path class="cls-4" d="M30.31,20a9.76,9.76,0,0,0-7.79-5.09,10.18,10.18,0,0,1,.68,7,2.56,2.56,0,0,1,1.1,2.45A10.89,10.89,0,0,0,30.31,20Z" transform="translate(-0.27 -0.34)"/><path class="cls-4" d="M22.53,26.5a2.93,2.93,0,0,1-2.65-.34,10.17,10.17,0,0,0,.66,7,10.06,10.06,0,0,0,8.87-3.68C26.42,29.17,23.87,28.06,22.53,26.5Z" transform="translate(-0.27 -0.34)"/><path class="cls-4" d="M22.53,26.5c1.34,1.55,3.89,2.67,6.88,3A8.73,8.73,0,0,0,30.32,20a10.91,10.91,0,0,1-6,4.4A2.66,2.66,0,0,1,22.53,26.5Z" transform="translate(-0.27 -0.34)"/><path class="cls-4" d="M21.54,25.25a1.19,1.19,0,1,1,1.21-1.19A1.21,1.21,0,0,1,21.54,25.25Z" transform="translate(-0.27 -0.34)"/><path class="cls-4" d="M21.54,39.54A15.62,15.62,0,0,1,5.79,24.06,15.62,15.62,0,0,1,21.54,8.58,15.61,15.61,0,0,1,37.28,24.06,15.61,15.61,0,0,1,21.54,39.54Z" transform="translate(-0.27 -0.34)"/><path class="cls-4" d="M33,18.83a1.27,1.27,0,1,1,1.29-1.27A1.28,1.28,0,0,1,33,18.83Z" transform="translate(-0.27 -0.34)"/><path class="cls-4" d="M33,31.83a1.27,1.27,0,1,1,1.29-1.27A1.28,1.28,0,0,1,33,31.83Z" transform="translate(-0.27 -0.34)"/><path class="cls-4" d="M10.09,18.88a1.27,1.27,0,1,1,1.28-1.26A1.27,1.27,0,0,1,10.09,18.88Z" transform="translate(-0.27 -0.34)"/><path class="cls-4" d="M10.09,31.89a1.27,1.27,0,1,1,1.28-1.27A1.28,1.28,0,0,1,10.09,31.89Z" transform="translate(-0.27 -0.34)"/><path class="cls-4" d="M21.54,12.39a1.27,1.27,0,1,1,1.28-1.27A1.28,1.28,0,0,1,21.54,12.39Z" transform="translate(-0.27 -0.34)"/><path class="cls-4" d="M21.54,38.24A1.27,1.27,0,1,1,22.82,37,1.28,1.28,0,0,1,21.54,38.24Z" transform="translate(-0.27 -0.34)"/><path class="cls-4" d="M51.85,2.22V1H49.09V2.22h0V3.76H21.54a20.6,20.6,0,0,0-20,15.14,20.17,20.17,0,0,0,9.8,22.83,20.91,20.91,0,0,0,25-3.52,20,20,0,0,0,2.9-24.61h9.84v1.3h0v1.28h2.76Z" transform="translate(-0.27 -0.34)"/><line class="cls-4" x1="32.04" y1="8.23" x2="38.81" y2="8.23"/><polyline class="cls-5" points="38.81 4.53 50.1 8.23 38.81 11.93 38.81 4.53"/></g></g></svg>