<svg xmlns="http://www.w3.org/2000/svg" xmlns:android="http://schemas.android.com/apk/res/android" width="44.56dp" height="48dp" viewportWidth="44.56" viewportHeight="44.36">
	<group>
		<clip-path d="M-59.5,-4.48h162.64v70.09h-162.64z"/>
		<path d="M22.98,19.5a11.84,11.84 0,0 0,7 -0.57A8,8 0,0 0,26.35 11.44a8.57,8.57 0,0 1,-3 5.81A2.15,2.15 0,0 1,22.98 19.5Z" strokeLineJoin="round" stroke-width="1.31" fill="#00000000" stroke="#003ab5" strokeLineCap="round"/>
		<path d="M21.23,15.75A2.56,2.56 0,0 1,23.35 17.25a8.57,8.57 0,0 0,3 -5.81,10 10,0 0,0 -9.46,-0.76C19.2,12.17 20.82,14.04 21.23,15.75Z" strokeLineJoin="round" stroke-width="1.31" fill="#00000000" stroke="#003ab5" strokeLineCap="round"/>
		<path d="M18.79,16.69A2.72,2.72 0,0 1,21.23 15.75c-0.4,-1.72 -2,-3.59 -4.38,-5.08a8.31,8.31 0,0 0,-5.07 6.58A11.83,11.83 0,0 1,18.79 16.69Z" strokeLineJoin="round" stroke-width="1.31" fill="#00000000" stroke="#003ab5" strokeLineCap="round"/>
		<path d="M24.92,25.51a8.35,8.35 0,0 0,5.07 -6.58,11.86 11.86,0 0,1 -7,0.57 2.74,2.74 0,0 1,-2.44 0.93C20.94,22.14 22.56,24.02 24.92,25.51Z" strokeLineJoin="round" stroke-width="1.31" fill="#00000000" stroke="#003ab5" strokeLineCap="round"/>
		<path d="M18.45,18.93a2.18,2.18 0,0 1,0.34 -2.25,12 12,0 0,0 -7,0.58A8,8 0,0 0,15.46 24.75,8.55 8.55,0 0,1 18.45,18.93Z" strokeLineJoin="round" stroke-width="1.31" fill="#00000000" stroke="#003ab5" strokeLineCap="round"/>
		<path d="M18.44,18.94a8.56,8.56 0,0 0,-3 5.81,10 10,0 0,0 9.46,0.76c-2.35,-1.49 -4,-3.37 -4.38,-5.08A2.62,2.62 0,0 1,18.44 18.94Z" strokeLineJoin="round" stroke-width="1.31" fill="#00000000" stroke="#003ab5" strokeLineCap="round"/>
		<path d="M19.69,18.09a1.2,1.2 0,1 1,1.19 1A1.12,1.12 0,0 1,19.69 18.09Z" strokeLineJoin="round" stroke-width="1.31" fill="#00000000" stroke="#003ab5" strokeLineCap="round"/>
		<path d="M5.45,18.09a15.43,13.3 0,1 0,30.86 0a15.43,13.3 0,1 0,-30.86 0z" strokeLineJoin="round" stroke-width="1.31" fill="#00000000" stroke="#003ab5" strokeLineCap="round"/>
		<path d="M26.1,27.75A1.28,1.28 0,1 1,27.35 28.86,1.18 1.18,0 0,1 26.1,27.75Z" strokeLineJoin="round" stroke-width="1.31" fill="#00000000" stroke="#003ab5" strokeLineCap="round"/>
		<path d="M13.14,27.75a1.18,1.18 0,0 1,1.26 -1.09,1.11 1.11,0 1,1 0,2.19A1.18,1.18 0,0 1,13.14 27.75Z" strokeLineJoin="round" stroke-width="1.31" fill="#00000000" stroke="#003ab5" strokeLineCap="round"/>
		<path d="M26.04,8.42a1.28,1.28 0,0 1,2.53 0,1.28 1.28,0 0,1 -2.53,0Z" strokeLineJoin="round" stroke-width="1.31" fill="#00000000" stroke="#003ab5" strokeLineCap="round"/>
		<path d="M13.08,8.42A1.19,1.19 0,0 1,14.35 7.33a1.18,1.18 0,0 1,1.26 1.09A1.18,1.18 0,0 1,14.35 9.52,1.19 1.19,0 0,1 13.08,8.42Z" strokeLineJoin="round" stroke-width="1.31" fill="#00000000" stroke="#003ab5" strokeLineCap="round"/>
		<path d="M32.52,18.09a1.28,1.28 0,1 1,1.26 1.09A1.18,1.18 0,0 1,32.52 18.09Z" strokeLineJoin="round" stroke-width="1.31" fill="#00000000" stroke="#003ab5" strokeLineCap="round"/>
		<path d="M6.75,18.09a1.19,1.19 0,0 1,1.26 -1.09,1.19 1.19,0 0,1 1.27,1.09 1.19,1.19 0,0 1,-1.27 1.09A1.18,1.18 0,0 1,6.75 18.09Z" strokeLineJoin="round" stroke-width="1.31" fill="#00000000" stroke="#003ab5" strokeLineCap="round"/>
		<path d="M42.65,43.75h1.25L43.9,41.37L42.65,41.37v0L41.12,41.37L41.12,18.09h0c0,-7.92 -6.19,-14.84 -15.08,-16.86S7.8,2.62 3.27,9.52 0.19,25.06 6.77,30.59 23.43,37.12 31.35,33.03L31.35,41.35h-1.3v0L28.73,41.35L28.73,43.75Z" strokeLineJoin="round" stroke-width="1.31" fill="#00000000" stroke="#003ab5" strokeLineCap="round"/>
		<path d="M36.32,27.2L36.32,33.54" strokeLineJoin="round" stroke-width="1.31" fill="#00000000" stroke="#003ab5" strokeLineCap="round"/>
		<path d="M39.77,33.54l-3.45,8.91l-3.44,-8.91l6.89,0" fill="#003ab5" fill-rule="evenOdd"/>
	</group>
</svg>
