<svg id="Layer_8" data-name="Layer 8" xmlns="http://www.w3.org/2000/svg" xmlns:xlink="http://www.w3.org/1999/xlink" viewBox="0 0 75.49 44.97"><defs><style>.cls-1,.cls-4,.cls-5,.cls-6,.cls-7{fill:none;}.cls-2{isolation:isolate;}.cls-3{clip-path:url(#clip-path);}.cls-4,.cls-5,.cls-6,.cls-7{stroke:#003ab5;stroke-linecap:round;stroke-linejoin:round;}.cls-4{stroke-width:1.22px;}.cls-5{stroke-width:0.49px;}.cls-6{stroke-width:0.1px;}.cls-7{stroke-width:0.1px;}</style><clipPath id="clip-path"><rect class="cls-1" x="0.3" y="0.32" width="74.94" height="44.65"/></clipPath></defs><g class="cls-2"><g class="cls-3"><rect class="cls-4" x="21.18" y="1.08" width="35.4" height="38.06"/><path class="cls-4" d="M21.14,1.07H7.23A6.35,6.35,0,0,0,.9,7.42V35.33a6.34,6.34,0,0,0,6.33,6.34H18.61a2.54,2.54,0,0,1,2.53-2.54Z"/><path class="cls-4" d="M59.06,41.67h1.26a3.8,3.8,0,0,0,3.79-3.81v-33a3.8,3.8,0,0,0-3.79-3.81H56.53V39.13A2.54,2.54,0,0,1,59.06,41.67Z"/><path class="cls-4" d="M59.06,41.67a2.55,2.55,0,0,0-2.53-2.54H21.13a2.54,2.54,0,0,0-2.53,2.54V44.2H28.72v-.57a.62.62,0,0,1,.16-.41.59.59,0,0,1,.42-.17l12.06,0h7.09a.5.5,0,0,1,.5.5v.3a1.67,1.67,0,0,1,0,.31H59.06Z"/><path class="cls-5" d="M73.64,22.64h0c0-.7.29-1.26.63-1.26s.64-.57.64-1.27-.29-1.27-.64-1.27H64.13v5.08H74.27C73.93,23.91,73.64,23.34,73.64,22.64Z"/><path class="cls-6" d="M73.92,22.64c0,.7.28,1.27.63,1.27s.63-.57.63-1.27-.28-1.27-.63-1.27-.63.56-.63,1.26Z"/><line class="cls-7" x1="74.68" y1="21.4" x2="73.99" y2="22.1"/><line class="cls-7" x1="74.87" y1="21.53" x2="73.94" y2="22.47"/><line class="cls-7" x1="74.98" y1="21.72" x2="73.93" y2="22.77"/><line class="cls-7" x1="75.08" y1="21.94" x2="73.96" y2="23.06"/><line class="cls-7" x1="75.14" y1="22.19" x2="74.04" y2="23.3"/><line class="cls-7" x1="75.18" y1="22.49" x2="74.11" y2="23.56"/><line class="cls-7" x1="75.18" y1="22.8" x2="74.24" y2="23.73"/><line class="cls-7" x1="75.13" y1="23.17" x2="74.43" y2="23.87"/><line class="cls-4" x1="21.18" y1="4.42" x2="56.57" y2="4.42"/><line class="cls-4" x1="21.18" y1="6.94" x2="56.57" y2="6.94"/><line class="cls-4" x1="21.18" y1="9.45" x2="56.57" y2="9.45"/><line class="cls-4" x1="21.18" y1="11.96" x2="56.57" y2="11.96"/><line class="cls-4" x1="21.13" y1="37.93" x2="56.53" y2="37.93"/><line class="cls-4" x1="21.13" y1="35.42" x2="56.53" y2="35.42"/><line class="cls-4" x1="21.18" y1="32.9" x2="56.57" y2="32.9"/><line class="cls-4" x1="21.13" y1="30.39" x2="56.53" y2="30.39"/><line class="cls-4" x1="29.29" y1="22.85" x2="47.65" y2="22.85"/><line class="cls-4" x1="29.29" y1="19.5" x2="35.73" y2="19.5"/><line class="cls-4" x1="41.29" y1="19.38" x2="47.73" y2="19.38"/></g></g></svg>