<svg id="Layer_9" data-name="Layer 9" xmlns="http://www.w3.org/2000/svg" xmlns:xlink="http://www.w3.org/1999/xlink" viewBox="0 0 75.49 44.97"><defs><style>.cls-1,.cls-4,.cls-5,.cls-6{fill:none;}.cls-2{isolation:isolate;}.cls-3{clip-path:url(#clip-path);}.cls-4,.cls-5,.cls-6{stroke:#003ab5;stroke-linecap:round;stroke-linejoin:round;}.cls-4{stroke-width:1.22px;}.cls-5{stroke-width:0.49px;}.cls-6{stroke-width:0.24px;}</style><clipPath id="clip-path"><rect class="cls-1" x="0.19" y="0.13" width="75.03" height="44.65"/></clipPath></defs><g class="cls-2"><g class="cls-3"><path class="cls-4" d="M67.29,8.92a1.45,1.45,0,0,0-1.42-1.48c-1.92,0-3.48,3.66-3.48,8.16,0,4.3,1.56,7.79,3.48,7.79,2.36,0,4.28-2.26,4.28-5.05"/><path class="cls-4" d="M60.2,5.65c0-1.22-.64-2.2-1.43-2.2S57,4.72,56.31,7a32.59,32.59,0,0,0-1,8.54,29.77,29.77,0,0,0,1,8.16c.65,2.16,1.54,3.37,2.46,3.37C61.13,27,63,23.69,63,19.56"/><path class="cls-4" d="M52.8,3.79c0-1.47-.64-2.66-1.42-2.67-.93,0-1.81,1.54-2.46,4.28a46.71,46.71,0,0,0-1,10.35,42.69,42.69,0,0,0,1,9.88c.65,2.62,1.53,4.09,2.46,4.08,2.36,0,4.27-4.06,4.27-9.07"/><path class="cls-4" d="M45.29,3.79a4,4,0,0,0-.41-1.89,1.24,1.24,0,0,0-1-.78C42,1.13,40.4,7.68,40.4,15.75c0,7.7,1.55,14,3.47,14,1.13,0,2.22-.95,3-2.65a15.6,15.6,0,0,0,1.25-6.42"/><path class="cls-4" d="M37.85,3.79a4,4,0,0,0-.41-1.89,1.24,1.24,0,0,0-1-.78C34.51,1.13,33,7.68,33,15.75c0,7.7,1.55,14,3.47,14,1.13,0,2.22-.95,3-2.65a15.6,15.6,0,0,0,1.25-6.42"/><path class="cls-4" d="M30.42,4.11c0-1.47-.64-2.66-1.43-2.66-1.92,0-3.47,6.56-3.47,14.63,0,7.71,1.55,14,3.47,14,1.13,0,2.22-1,3-2.66A15.6,15.6,0,0,0,33.27,21"/><polyline class="cls-4" points="35.85 9.86 59.13 9.86 73.19 14.03 73.19 16.81 59.13 20.97 23.38 20.97 23.38 9.86 35.85 9.86"/><polyline class="cls-4" points="21.95 30.05 21.95 0.79 54.84 0.79 74.62 11.76 74.62 19.07 54.84 30.05 21.95 30.05"/><rect class="cls-5" x="6.53" y="3.7" width="10.65" height="22.37"/><path class="cls-5" d="M6.52,3.7H2.33C1.28,3.7.44,5.37.44,7.42v16.4c0,2.06.84,3.73,1.89,3.74H5.75c0-.83.35-1.49.76-1.49Z"/><path class="cls-5" d="M17.93,27.56h.38c.63,0,1.13-1,1.13-2.25V5.93c0-1.23-.51-2.23-1.13-2.23H17.16V26.06c.42,0,.76.67.76,1.49Z"/><path class="cls-5" d="M17.92,27.55c0-.82-.34-1.49-.76-1.49H6.52c-.42,0-.76.67-.76,1.49v1.5h3v-.34a.62.62,0,0,1,0-.25.16.16,0,0,1,.12-.1l3.63,0h2.13c.09,0,.15.14.15.3v.17a1.15,1.15,0,0,1,0,.19h3Z"/><path class="cls-6" d="M21.47,16.22c0-.38.06-.68.13-.68s.13-.31.13-.69-.06-.68-.13-.68H19.45v2.76H21.6c-.07,0-.13-.31-.13-.69Z"/><line class="cls-5" x1="6.53" y1="5.67" x2="17.18" y2="5.67"/><line class="cls-5" x1="6.53" y1="7.15" x2="17.18" y2="7.15"/><line class="cls-5" x1="6.53" y1="8.63" x2="17.18" y2="8.63"/><line class="cls-5" x1="6.53" y1="10.1" x2="17.18" y2="10.1"/><line class="cls-5" x1="6.52" y1="25.36" x2="17.17" y2="25.36"/><line class="cls-5" x1="6.52" y1="23.88" x2="17.17" y2="23.88"/><line class="cls-5" x1="6.53" y1="22.41" x2="17.18" y2="22.41"/><line class="cls-5" x1="6.52" y1="20.93" x2="17.17" y2="20.93"/><polyline class="cls-4" points="54.84 30.04 64.6 44.12 74.61 44.12 74.61 19.07"/><polyline class="cls-4" points="4.67 30.04 4.67 43.95 11.81 43.95 11.81 38.63 54.83 30.04"/><line class="cls-4" x1="21.95" y1="30.04" x2="4.66" y2="30.04"/></g></g></svg>