<svg xmlns="http://www.w3.org/2000/svg" height="48dp" viewportHeight="44.97" viewportWidth="75.49" width="80.576385dp" xmlns:android="http://schemas.android.com/apk/res/android">
	<group>
		<clip-path d="M0.3,0.32h74.94v44.65h-74.94z"/>
		<path fill="#00000000" d="M21.18,1.08h35.4v38.06h-35.4z" stroke="#003ab5" strokeLineCap="round" strokeLineJoin="round" stroke-width="1.22"/>
		<path fill="#00000000" d="M21.14,1.07H7.23A6.35,6.35 0,0 0,0.9 7.42V35.33a6.34,6.34 0,0 0,6.33 6.34H18.61a2.54,2.54 0,0 1,2.53 -2.54Z" stroke="#003ab5" strokeLineCap="round" strokeLineJoin="round" stroke-width="1.22"/>
		<path fill="#00000000" d="M59.06,41.67h1.26a3.8,3.8 0,0 0,3.79 -3.81v-33a3.8,3.8 0,0 0,-3.79 -3.81H56.53V39.13A2.54,2.54 0,0 1,59.06 41.67Z" stroke="#003ab5" strokeLineCap="round" strokeLineJoin="round" stroke-width="1.22"/>
		<path fill="#00000000" d="M59.06,41.67a2.55,2.55 0,0 0,-2.53 -2.54H21.13a2.54,2.54 0,0 0,-2.53 2.54V44.2H28.72v-0.57a0.62,0.62 0,0 1,0.16 -0.41,0.59 0.59,0 0,1 0.42,-0.17l12.06,0h7.09a0.5,0.5 0,0 1,0.5 0.5v0.3a1.67,1.67 0,0 1,0 0.31H59.06Z" stroke="#003ab5" strokeLineCap="round" strokeLineJoin="round" stroke-width="1.22"/>
		<path fill="#00000000" d="M73.64,22.64h0c0,-0.7 0.29,-1.26 0.63,-1.26s0.64,-0.57 0.64,-1.27 -0.29,-1.27 -0.64,-1.27H64.13v5.08H74.27C73.93,23.91 73.64,23.34 73.64,22.64Z" stroke="#003ab5" strokeLineCap="round" strokeLineJoin="round" stroke-width="0.49"/>
		<path fill="#00000000" d="M73.92,22.64c0,0.7 0.28,1.27 0.63,1.27s0.63,-0.57 0.63,-1.27 -0.28,-1.27 -0.63,-1.27 -0.63,0.56 -0.63,1.26Z" stroke="#003ab5" strokeLineCap="round" strokeLineJoin="round" stroke-width="0.1"/>
		<path fill="#00000000" d="M74.68,21.4L73.99,22.1" stroke="#003ab5" strokeLineCap="round" strokeLineJoin="round" stroke-width="0.1"/>
		<path fill="#00000000" d="M74.87,21.53L73.94,22.47" stroke="#003ab5" strokeLineCap="round" strokeLineJoin="round" stroke-width="0.1"/>
		<path fill="#00000000" d="M74.98,21.72L73.93,22.77" stroke="#003ab5" strokeLineCap="round" strokeLineJoin="round" stroke-width="0.1"/>
		<path fill="#00000000" d="M75.08,21.94L73.96,23.06" stroke="#003ab5" strokeLineCap="round" strokeLineJoin="round" stroke-width="0.1"/>
		<path fill="#00000000" d="M75.14,22.19L74.04,23.3" stroke="#003ab5" strokeLineCap="round" strokeLineJoin="round" stroke-width="0.1"/>
		<path fill="#00000000" d="M75.18,22.49L74.11,23.56" stroke="#003ab5" strokeLineCap="round" strokeLineJoin="round" stroke-width="0.1"/>
		<path fill="#00000000" d="M75.18,22.8L74.24,23.73" stroke="#003ab5" strokeLineCap="round" strokeLineJoin="round" stroke-width="0.1"/>
		<path fill="#00000000" d="M75.13,23.17L74.43,23.87" stroke="#003ab5" strokeLineCap="round" strokeLineJoin="round" stroke-width="0.1"/>
		<path fill="#00000000" d="M21.18,4.42L56.57,4.42" stroke="#003ab5" strokeLineCap="round" strokeLineJoin="round" stroke-width="1.22"/>
		<path fill="#00000000" d="M21.18,6.94L56.57,6.94" stroke="#003ab5" strokeLineCap="round" strokeLineJoin="round" stroke-width="1.22"/>
		<path fill="#00000000" d="M21.18,9.45L56.57,9.45" stroke="#003ab5" strokeLineCap="round" strokeLineJoin="round" stroke-width="1.22"/>
		<path fill="#00000000" d="M21.18,11.96L56.57,11.96" stroke="#003ab5" strokeLineCap="round" strokeLineJoin="round" stroke-width="1.22"/>
		<path fill="#00000000" d="M21.13,37.93L56.53,37.93" stroke="#003ab5" strokeLineCap="round" strokeLineJoin="round" stroke-width="1.22"/>
		<path fill="#00000000" d="M21.13,35.42L56.53,35.42" stroke="#003ab5" strokeLineCap="round" strokeLineJoin="round" stroke-width="1.22"/>
		<path fill="#00000000" d="M21.18,32.9L56.57,32.9" stroke="#003ab5" strokeLineCap="round" strokeLineJoin="round" stroke-width="1.22"/>
		<path fill="#00000000" d="M21.13,30.39L56.53,30.39" stroke="#003ab5" strokeLineCap="round" strokeLineJoin="round" stroke-width="1.22"/>
		<path fill="#00000000" d="M29.29,22.85L47.65,22.85" stroke="#003ab5" strokeLineCap="round" strokeLineJoin="round" stroke-width="1.22"/>
		<path fill="#00000000" d="M29.29,19.5L35.73,19.5" stroke="#003ab5" strokeLineCap="round" strokeLineJoin="round" stroke-width="1.22"/>
		<path fill="#00000000" d="M41.29,19.38L47.73,19.38" stroke="#003ab5" strokeLineCap="round" strokeLineJoin="round" stroke-width="1.22"/>
	</group>
</svg>
