<svg xmlns="http://www.w3.org/2000/svg" height="48dp" viewportHeight="44.97" viewportWidth="75.49" width="80.576385dp" xmlns:android="http://schemas.android.com/apk/res/android">
	<group>
		<clip-path d="M0.19,0.13h75.03v44.65h-75.03z"/>
		<path fill="#00000000" d="M67.29,8.92a1.45,1.45 0,0 0,-1.42 -1.48c-1.92,0 -3.48,3.66 -3.48,8.16 0,4.3 1.56,7.79 3.48,7.79 2.36,0 4.28,-2.26 4.28,-5.05" stroke="#003ab5" strokeLineCap="round" strokeLineJoin="round" stroke-width="1.22"/>
		<path fill="#00000000" d="M60.2,5.65c0,-1.22 -0.64,-2.2 -1.43,-2.2S57,4.72 56.31,7a32.59,32.59 0,0 0,-1 8.54,29.77 29.77,0 0,0 1,8.16c0.65,2.16 1.54,3.37 2.46,3.37C61.13,27 63,23.69 63,19.56" stroke="#003ab5" strokeLineCap="round" strokeLineJoin="round" stroke-width="1.22"/>
		<path fill="#00000000" d="M52.8,3.79c0,-1.47 -0.64,-2.66 -1.42,-2.67 -0.93,0 -1.81,1.54 -2.46,4.28a46.71,46.71 0,0 0,-1 10.35,42.69 42.69,0 0,0 1,9.88c0.65,2.62 1.53,4.09 2.46,4.08 2.36,0 4.27,-4.06 4.27,-9.07" stroke="#003ab5" strokeLineCap="round" strokeLineJoin="round" stroke-width="1.22"/>
		<path fill="#00000000" d="M45.29,3.79a4,4 0,0 0,-0.41 -1.89,1.24 1.24,0 0,0 -1,-0.78C42,1.13 40.4,7.68 40.4,15.75c0,7.7 1.55,14 3.47,14 1.13,0 2.22,-0.95 3,-2.65a15.6,15.6 0,0 0,1.25 -6.42" stroke="#003ab5" strokeLineCap="round" strokeLineJoin="round" stroke-width="1.22"/>
		<path fill="#00000000" d="M37.85,3.79a4,4 0,0 0,-0.41 -1.89,1.24 1.24,0 0,0 -1,-0.78C34.51,1.13 33,7.68 33,15.75c0,7.7 1.55,14 3.47,14 1.13,0 2.22,-0.95 3,-2.65a15.6,15.6 0,0 0,1.25 -6.42" stroke="#003ab5" strokeLineCap="round" strokeLineJoin="round" stroke-width="1.22"/>
		<path fill="#00000000" d="M30.42,4.11c0,-1.47 -0.64,-2.66 -1.43,-2.66 -1.92,0 -3.47,6.56 -3.47,14.63 0,7.71 1.55,14 3.47,14 1.13,0 2.22,-1 3,-2.66A15.6,15.6 0,0 0,33.27 21" stroke="#003ab5" strokeLineCap="round" strokeLineJoin="round" stroke-width="1.22"/>
		<path fill="#00000000" d="M35.85,9.86l23.28,0l14.06,4.17l0,2.78l-14.06,4.16l-35.75,0l0,-11.11l12.47,0" stroke="#003ab5" strokeLineCap="round" strokeLineJoin="round" stroke-width="1.22"/>
		<path fill="#00000000" d="M21.95,30.05l0,-29.26l32.89,0l19.78,10.97l0,7.31l-19.78,10.98l-32.89,0" stroke="#003ab5" strokeLineCap="round" strokeLineJoin="round" stroke-width="1.22"/>
		<path fill="#00000000" d="M6.53,3.7h10.65v22.37h-10.65z" stroke="#003ab5" strokeLineCap="round" strokeLineJoin="round" stroke-width="0.49"/>
		<path fill="#00000000" d="M6.52,3.7H2.33C1.28,3.7 0.44,5.37 0.44,7.42v16.4c0,2.06 0.84,3.73 1.89,3.74H5.75c0,-0.83 0.35,-1.49 0.76,-1.49Z" stroke="#003ab5" strokeLineCap="round" strokeLineJoin="round" stroke-width="0.49"/>
		<path fill="#00000000" d="M17.93,27.56h0.38c0.63,0 1.13,-1 1.13,-2.25V5.93c0,-1.23 -0.51,-2.23 -1.13,-2.23H17.16V26.06c0.42,0 0.76,0.67 0.76,1.49Z" stroke="#003ab5" strokeLineCap="round" strokeLineJoin="round" stroke-width="0.49"/>
		<path fill="#00000000" d="M17.92,27.55c0,-0.82 -0.34,-1.49 -0.76,-1.49H6.52c-0.42,0 -0.76,0.67 -0.76,1.49v1.5h3v-0.34a0.62,0.62 0,0 1,0 -0.25,0.16 0.16,0 0,1 0.12,-0.1l3.63,0h2.13c0.09,0 0.15,0.14 0.15,0.3v0.17a1.15,1.15 0,0 1,0 0.19h3Z" stroke="#003ab5" strokeLineCap="round" strokeLineJoin="round" stroke-width="0.49"/>
		<path fill="#00000000" d="M21.47,16.22c0,-0.38 0.06,-0.68 0.13,-0.68s0.13,-0.31 0.13,-0.69 -0.06,-0.68 -0.13,-0.68H19.45v2.76H21.6c-0.07,0 -0.13,-0.31 -0.13,-0.69Z" stroke="#003ab5" strokeLineCap="round" strokeLineJoin="round" stroke-width="0.24"/>
		<path fill="#00000000" d="M6.53,5.67L17.18,5.67" stroke="#003ab5" strokeLineCap="round" strokeLineJoin="round" stroke-width="0.49"/>
		<path fill="#00000000" d="M6.53,7.15L17.18,7.15" stroke="#003ab5" strokeLineCap="round" strokeLineJoin="round" stroke-width="0.49"/>
		<path fill="#00000000" d="M6.53,8.63L17.18,8.63" stroke="#003ab5" strokeLineCap="round" strokeLineJoin="round" stroke-width="0.49"/>
		<path fill="#00000000" d="M6.53,10.1L17.18,10.1" stroke="#003ab5" strokeLineCap="round" strokeLineJoin="round" stroke-width="0.49"/>
		<path fill="#00000000" d="M6.52,25.36L17.17,25.36" stroke="#003ab5" strokeLineCap="round" strokeLineJoin="round" stroke-width="0.49"/>
		<path fill="#00000000" d="M6.52,23.88L17.17,23.88" stroke="#003ab5" strokeLineCap="round" strokeLineJoin="round" stroke-width="0.49"/>
		<path fill="#00000000" d="M6.53,22.41L17.18,22.41" stroke="#003ab5" strokeLineCap="round" strokeLineJoin="round" stroke-width="0.49"/>
		<path fill="#00000000" d="M6.52,20.93L17.17,20.93" stroke="#003ab5" strokeLineCap="round" strokeLineJoin="round" stroke-width="0.49"/>
		<path fill="#00000000" d="M54.84,30.04l9.76,14.08l10.01,0l0,-25.05" stroke="#003ab5" strokeLineCap="round" strokeLineJoin="round" stroke-width="1.22"/>
		<path fill="#00000000" d="M4.67,30.04l0,13.91l7.14,0l0,-5.32l43.02,-8.59" stroke="#003ab5" strokeLineCap="round" strokeLineJoin="round" stroke-width="1.22"/>
		<path fill="#00000000" d="M21.95,30.04L4.66,30.04" stroke="#003ab5" strokeLineCap="round" strokeLineJoin="round" stroke-width="1.22"/>
	</group>
</svg>
