<svg xmlns="http://www.w3.org/2000/svg" height="48dp" viewportHeight="44.97" viewportWidth="75.49" width="80.576385dp" xmlns:android="http://schemas.android.com/apk/res/android">
	<group>
		<clip-path d="M-32.19,-3.34h140.6v70.3h-140.6z"/>
		<path fill="#00000000" d="M21.17,1.05h35.55v38.09h-35.55z" stroke="#003ab5" strokeLineCap="round" strokeLineJoin="round" stroke-width="1.22"/>
		<path fill="#00000000" d="M21.12,1.06h-14A6.34,6.34 0,0 0,0.81 7.4V35.34a6.34,6.34 0,0 0,6.34 6.34H18.59a2.54,2.54 0,0 1,2.53 -2.54Z" stroke="#003ab5" strokeLineCap="round" strokeLineJoin="round" stroke-width="1.22"/>
		<path fill="#00000000" d="M59.21,41.68h1.27a3.81,3.81 0,0 0,3.81 -3.81v-33a3.81,3.81 0,0 0,-3.81 -3.8H56.67V39.14A2.54,2.54 0,0 1,59.21 41.68Z" stroke="#003ab5" strokeLineCap="round" strokeLineJoin="round" stroke-width="1.22"/>
		<path fill="#00000000" d="M59.21,41.69a2.54,2.54 0,0 0,-2.54 -2.54H21.12a2.54,2.54 0,0 0,-2.54 2.54v2.53H28.74v-0.58a0.57,0.57 0,0 1,0.17 -0.41,0.58 0.58,0 0,1 0.41,-0.18l12.12,0H48l0.2,0h0.39a0.51,0.51 0,0 1,0.5 0.5v0.3a1.12,1.12 0,0 1,0.05 0.31H59.21Z" stroke="#003ab5" strokeLineCap="round" strokeLineJoin="round" stroke-width="1.22"/>
		<path fill="#00000000" d="M73.86,22.64h0c0,-0.7 0.28,-1.26 0.63,-1.26s0.64,-0.57 0.64,-1.27 -0.29,-1.27 -0.64,-1.27H64.31v5.08H74.49C74.14,23.91 73.86,23.34 73.86,22.64Z" stroke="#003ab5" strokeLineCap="round" strokeLineJoin="round" stroke-width="0.49"/>
		<path fill="#00000000" d="M74.14,22.64c0,0.7 0.28,1.27 0.63,1.27s0.63,-0.57 0.63,-1.27 -0.28,-1.27 -0.63,-1.27 -0.63,0.56 -0.63,1.26Z" stroke="#003ab5" strokeLineCap="round" strokeLineJoin="round" stroke-width="0.1"/>
		<path fill="#00000000" d="M74.9,21.39L74.2,22.09" stroke="#003ab5" strokeLineCap="round" strokeLineJoin="round" stroke-width="0.1"/>
		<path fill="#00000000" d="M75.08,21.53L74.15,22.46" stroke="#003ab5" strokeLineCap="round" strokeLineJoin="round" stroke-width="0.1"/>
		<path fill="#00000000" d="M75.2,21.71L74.15,22.77" stroke="#003ab5" strokeLineCap="round" strokeLineJoin="round" stroke-width="0.1"/>
		<path fill="#00000000" d="M75.3,21.93L74.17,23.05" stroke="#003ab5" strokeLineCap="round" strokeLineJoin="round" stroke-width="0.1"/>
		<path fill="#00000000" d="M75.36,22.19L74.25,23.3" stroke="#003ab5" strokeLineCap="round" strokeLineJoin="round" stroke-width="0.1"/>
		<path fill="#00000000" d="M75.4,22.48L74.33,23.55" stroke="#003ab5" strokeLineCap="round" strokeLineJoin="round" stroke-width="0.1"/>
		<path fill="#00000000" d="M75.4,22.79L74.46,23.73" stroke="#003ab5" strokeLineCap="round" strokeLineJoin="round" stroke-width="0.1"/>
		<path fill="#00000000" d="M75.35,23.16L74.64,23.86" stroke="#003ab5" strokeLineCap="round" strokeLineJoin="round" stroke-width="0.1"/>
		<path fill="#00000000" d="M21.17,4.41L56.72,4.41" stroke="#003ab5" strokeLineCap="round" strokeLineJoin="round" stroke-width="1.22"/>
		<path fill="#00000000" d="M21.17,6.92L56.72,6.92" stroke="#003ab5" strokeLineCap="round" strokeLineJoin="round" stroke-width="1.22"/>
		<path fill="#00000000" d="M21.17,9.44L56.72,9.44" stroke="#003ab5" strokeLineCap="round" strokeLineJoin="round" stroke-width="1.22"/>
		<path fill="#00000000" d="M21.17,11.95L56.72,11.95" stroke="#003ab5" strokeLineCap="round" strokeLineJoin="round" stroke-width="1.22"/>
		<path fill="#00000000" d="M21.12,37.94L56.67,37.94" stroke="#003ab5" strokeLineCap="round" strokeLineJoin="round" stroke-width="1.22"/>
		<path fill="#00000000" d="M21.12,35.43L56.67,35.43" stroke="#003ab5" strokeLineCap="round" strokeLineJoin="round" stroke-width="1.22"/>
		<path fill="#00000000" d="M21.17,32.91L56.72,32.91" stroke="#003ab5" strokeLineCap="round" strokeLineJoin="round" stroke-width="1.22"/>
		<path fill="#00000000" d="M21.12,30.4L56.67,30.4" stroke="#003ab5" strokeLineCap="round" strokeLineJoin="round" stroke-width="1.22"/>
	</group>
</svg>
