<svg id="Layer_7" data-name="Layer 7" xmlns="http://www.w3.org/2000/svg" xmlns:xlink="http://www.w3.org/1999/xlink" viewBox="0 0 75.49 44.97"><defs><style>.cls-1,.cls-4,.cls-5,.cls-6,.cls-7{fill:none;}.cls-2{isolation:isolate;}.cls-3{clip-path:url(#clip-path);}.cls-4,.cls-5,.cls-6,.cls-7{stroke:#003ab5;stroke-linecap:round;stroke-linejoin:round;}.cls-4{stroke-width:1.22px;}.cls-5{stroke-width:0.49px;}.cls-6{stroke-width:0.1px;}.cls-7{stroke-width:0.1px;}</style><clipPath id="clip-path"><rect class="cls-1" x="-32.19" y="-3.34" width="140.6" height="70.3"/></clipPath></defs><g class="cls-2"><g class="cls-3"><rect class="cls-4" x="21.17" y="1.05" width="35.55" height="38.09"/><path class="cls-4" d="M21.12,1.06h-14A6.34,6.34,0,0,0,.81,7.4V35.34a6.34,6.34,0,0,0,6.34,6.34H18.59a2.54,2.54,0,0,1,2.53-2.54Z"/><path class="cls-4" d="M59.21,41.68h1.27a3.81,3.81,0,0,0,3.81-3.81v-33a3.81,3.81,0,0,0-3.81-3.8H56.67V39.14A2.54,2.54,0,0,1,59.21,41.68Z"/><path class="cls-4" d="M59.21,41.69a2.54,2.54,0,0,0-2.54-2.54H21.12a2.54,2.54,0,0,0-2.54,2.54v2.53H28.74v-.58a.57.57,0,0,1,.17-.41.58.58,0,0,1,.41-.18l12.12,0H48l.2,0h.39a.51.51,0,0,1,.5.5v.3a1.12,1.12,0,0,1,.05.31H59.21Z"/><path class="cls-5" d="M73.86,22.64h0c0-.7.28-1.26.63-1.26s.64-.57.64-1.27-.29-1.27-.64-1.27H64.31v5.08H74.49C74.14,23.91,73.86,23.34,73.86,22.64Z"/><path class="cls-6" d="M74.14,22.64c0,.7.28,1.27.63,1.27s.63-.57.63-1.27-.28-1.27-.63-1.27-.63.56-.63,1.26Z"/><line class="cls-7" x1="74.9" y1="21.39" x2="74.2" y2="22.09"/><line class="cls-7" x1="75.08" y1="21.53" x2="74.15" y2="22.46"/><line class="cls-7" x1="75.2" y1="21.71" x2="74.15" y2="22.77"/><line class="cls-7" x1="75.3" y1="21.93" x2="74.17" y2="23.05"/><line class="cls-7" x1="75.36" y1="22.19" x2="74.25" y2="23.3"/><line class="cls-7" x1="75.4" y1="22.48" x2="74.33" y2="23.55"/><line class="cls-7" x1="75.4" y1="22.79" x2="74.46" y2="23.73"/><line class="cls-7" x1="75.35" y1="23.16" x2="74.64" y2="23.86"/><line class="cls-4" x1="21.17" y1="4.41" x2="56.72" y2="4.41"/><line class="cls-4" x1="21.17" y1="6.92" x2="56.72" y2="6.92"/><line class="cls-4" x1="21.17" y1="9.44" x2="56.72" y2="9.44"/><line class="cls-4" x1="21.17" y1="11.95" x2="56.72" y2="11.95"/><line class="cls-4" x1="21.12" y1="37.94" x2="56.67" y2="37.94"/><line class="cls-4" x1="21.12" y1="35.43" x2="56.67" y2="35.43"/><line class="cls-4" x1="21.17" y1="32.91" x2="56.72" y2="32.91"/><line class="cls-4" x1="21.12" y1="30.4" x2="56.67" y2="30.4"/></g></g></svg>