<svg xmlns="http://www.w3.org/2000/svg" xmlns:android="http://schemas.android.com/apk/res/android" width="70dp" height="54dp" viewportWidth="105.16" viewportHeight="79.0542">
	<path d="M28.258,31.248a24.121,24.121 0,1 0,48.241 0a24.121,24.121 0,1 0,-48.241 0z" strokeLineJoin="round" stroke-width="1.25" fill="#00000000" stroke="#003ab5" strokeLineCap="round"/>
	<path d="M37.801,31.248a14.578,14.578 0,1 0,29.156 0a14.578,14.578 0,1 0,-29.156 0z" strokeLineJoin="round" stroke-width="1.25" fill="#00000000" stroke="#003ab5" strokeLineCap="round"/>
	<path fill="#FF000000" d="M49.969,45.624A8.253,9.532 59.757,0 0,58.409 54.613" strokeLineJoin="round" stroke-width="1.25" stroke="#003ab5" strokeLineCap="round"/>
	<path fill="#FF000000" d="M63.522,40.493A9.532,8.253 89.757,0 0,75.527 37.678" strokeLineJoin="round" stroke-width="1.25" stroke="#003ab5" strokeLineCap="round"/>
	<path fill="#FF000000" d="M66.073,26.252A8.253,9.532 119.757,0 0,69.637 14.448" strokeLineJoin="round" stroke-width="1.25" stroke="#003ab5" strokeLineCap="round"/>
	<path fill="#FF000000" d="M54.97,16.837A8.253,9.532 59.757,0 0,46.53 7.849" strokeLineJoin="round" stroke-width="1.25" stroke="#003ab5" strokeLineCap="round"/>
	<path fill="#FF000000" d="M41.185,21.834A7.593,9.253 103.598,0 0,30.175 21.834" strokeLineJoin="round" stroke-width="1.25" stroke="#003ab5" strokeLineCap="round"/>
	<path fill="#FF000000" d="M38.555,36.168A8.253,9.532 119.757,0 0,34.991 47.972" strokeLineJoin="round" stroke-width="1.25" stroke="#003ab5" strokeLineCap="round"/>
	<path fill="#FF000000" d="M81.629,21.273C82.439,20.333 82.999,19.973 83.499,19.763C85.169,19.053 86.039,19.963 86.749,20.733C87.999,22.063 88.789,22.973 89.599,23.213C90.869,23.583 92.179,22.273 92.879,21.273" strokeLineJoin="round" stroke-width="0.75" stroke="#003ab5" strokeLineCap="round"/>
	<path fill="#FF000000" d="M81.629,24.103C82.439,23.163 82.999,22.813 83.499,22.603C85.169,21.893 86.039,22.793 86.749,23.563C87.999,24.893 88.789,25.813 89.599,26.043C90.869,26.413 92.179,25.103 92.879,24.103" strokeLineJoin="round" stroke-width="0.75" stroke="#003ab5" strokeLineCap="round"/>
	<path fill="#FF000000" d="M81.629,26.933C82.439,26.003 82.999,25.643 83.499,25.433C85.169,24.723 86.039,25.633 86.749,26.403C87.999,27.733 88.789,28.643 89.599,28.883C90.869,29.253 92.179,27.943 92.879,26.933" strokeLineJoin="round" stroke-width="0.75" stroke="#003ab5" strokeLineCap="round"/>
	<path fill="#FF000000" d="M81.629,29.773C82.439,28.833 82.999,28.483 83.499,28.263C85.169,27.563 86.039,28.463 86.749,29.233C87.999,30.563 88.789,31.473 89.599,31.713C90.869,32.083 92.179,30.773 92.879,29.773" strokeLineJoin="round" stroke-width="0.75" stroke="#003ab5" strokeLineCap="round"/>
	<path fill="#FF000000" d="M81.629,32.493C82.439,31.553 82.999,31.203 83.499,30.993C85.169,30.283 86.039,31.193 86.749,31.953C87.999,33.283 88.789,34.203 89.599,34.433C90.869,34.813 92.179,33.493 92.879,32.493" strokeLineJoin="round" stroke-width="0.75" stroke="#003ab5" strokeLineCap="round"/>
	<path fill="#FF000000" d="M81.629,35.333C82.439,34.393 82.999,34.033 83.499,33.823C85.169,33.113 86.039,34.023 86.749,34.793C87.999,36.123 88.789,37.033 89.599,37.273C90.869,37.643 92.179,36.333 92.879,35.333" strokeLineJoin="round" stroke-width="0.75" stroke="#003ab5" strokeLineCap="round"/>
	<path fill="#FF000000" d="M81.629,38.163C82.439,37.223 82.999,36.873 83.499,36.663C85.169,35.953 86.039,36.863 86.749,37.623C87.999,38.953 88.789,39.873 89.599,40.103C90.869,40.473 92.179,39.163 92.879,38.163" strokeLineJoin="round" stroke-width="0.75" stroke="#003ab5" strokeLineCap="round"/>
	<path fill="#FF000000" d="M81.629,40.993C82.439,40.063 82.999,39.703 83.499,39.493C85.169,38.783 86.039,39.693 86.749,40.463C87.999,41.793 88.789,42.703 89.599,42.943C90.869,43.313 92.179,42.003 92.879,40.993" strokeLineJoin="round" stroke-width="0.75" stroke="#003ab5" strokeLineCap="round"/>
	<path d="M50.715,28.502L39.715,23.942L49.155,31.192L49.115,31.262L49.165,31.352L39.745,38.572L50.715,34.032L50.755,34.102L50.835,34.102L52.385,45.822L53.925,34.102L54.035,34.102L54.095,33.992L65.045,38.522L55.645,31.312L55.675,31.262L55.635,31.192L65.045,23.962L54.085,28.502L54.035,28.422L53.955,28.422L52.405,16.672L50.855,28.422L50.755,28.422L50.715,28.502ZM54.805,31.252A2.429,2.429 0,1 1,49.955 31.252A2.429,2.429 0,1 1,54.805 31.252Z" strokeLineJoin="round" stroke-width="1.25" fill="#00000000" stroke="#003ab5" strokeLineCap="round"/>
	<path d="M103.942,0.938a0.422,0.563 0,1 0,0.844 0a0.422,0.563 0,1 0,-0.844 0z" strokeLineJoin="round" stroke-width="0.75" fill="#ffffff" stroke="#00000000" strokeLineCap="round"/>
	<path d="M0.75,78.117a0.422,0.563 0,1 0,0.844 0a0.422,0.563 0,1 0,-0.844 0z" strokeLineJoin="round" stroke-width="0.75" fill="#ffffff" stroke="#00000000" strokeLineCap="round"/>
</svg>
