<svg xmlns="http://www.w3.org/2000/svg" height="48dp" viewportHeight="44.97" viewportWidth="112.98" width="120.59239dp" xmlns:android="http://schemas.android.com/apk/res/android">
	<group>
		<clip-path d="M-12.64,-4.28h137.36v69.19h-137.36z"/>
		<path fill="#00000000" d="M42.89,22.51a21,21 0,1 1,-21 -21.2A21.12,21.12 0,0 1,42.89 22.51Z" stroke="#003ab5" strokeLineCap="round" strokeLineJoin="round" stroke-width="1.2"/>
		<path fill="#00000000" d="M9.13,22.51a12.72,12.81 0,1 0,25.44 0a12.72,12.81 0,1 0,-25.44 0z" stroke="#003ab5" strokeLineCap="round" strokeLineJoin="round" stroke-width="1.2"/>
		<path fill="#00000000" d="M19.75,35.14c-0.13,4.82 3.17,8.36 7.36,7.91" stroke="#003ab5" strokeLineCap="round" strokeLineJoin="round" stroke-width="1.2"/>
		<path fill="#00000000" d="M31.58,30.64c4.07,2.52 8.76,1.41 10.47,-2.48" stroke="#003ab5" strokeLineCap="round" strokeLineJoin="round" stroke-width="1.2"/>
		<path fill="#00000000" d="M33.8,18.12c4.2,-2.29 5.6,-6.94 3.11,-10.38" stroke="#003ab5" strokeLineCap="round" strokeLineJoin="round" stroke-width="1.2"/>
		<path fill="#00000000" d="M24.12,9.84C24.24,5 21,1.49 16.75,1.94" stroke="#003ab5" strokeLineCap="round" strokeLineJoin="round" stroke-width="1.2"/>
		<path fill="#00000000" d="M12.09,14.23C8,11.71 3.32,12.82 1.61,16.71" stroke="#003ab5" strokeLineCap="round" strokeLineJoin="round" stroke-width="1.2"/>
		<path fill="#00000000" d="M9.79,26.83c-4.2,2.3 -5.6,6.94 -3.11,10.38" stroke="#003ab5" strokeLineCap="round" strokeLineJoin="round" stroke-width="1.2"/>
		<path fill="#00000000" d="M25.41,22.51a3.56,3.56 0,1 1,-3.56 -3.59A3.57,3.57 0,0 1,25.41 22.51Z" stroke="#003ab5" strokeLineCap="round" strokeLineJoin="round" stroke-width="1.2"/>
		<path fill="#00000000" d="M43.69,13.74a4.39,4.39 0,0 1,1.63 -1.33c1.46,-0.62 2.21,0.18 2.84,0.86 1.08,1.16 1.78,2 2.48,2.17 1.11,0.33 2.25,-0.82 2.86,-1.7" stroke="#003ab5" strokeLineCap="round" strokeLineJoin="round" stroke-width="0.72"/>
		<path fill="#00000000" d="M43.69,16.23a4.49,4.49 0,0 1,1.63 -1.33c1.46,-0.61 2.21,0.19 2.84,0.86 1.08,1.16 1.78,2 2.48,2.17 1.11,0.34 2.25,-0.82 2.86,-1.7" stroke="#003ab5" strokeLineCap="round" strokeLineJoin="round" stroke-width="0.72"/>
		<path fill="#00000000" d="M43.69,18.72a4.33,4.33 0,0 1,1.63 -1.32,2.24 2.24,0 0,1 2.84,0.85c1.08,1.17 1.78,2 2.48,2.18 1.11,0.33 2.25,-0.83 2.86,-1.71" stroke="#003ab5" strokeLineCap="round" strokeLineJoin="round" stroke-width="0.72"/>
		<path fill="#00000000" d="M43.69,21.21a4.33,4.33 0,0 1,1.63 -1.32,2.24 2.24,0 0,1 2.84,0.85c1.08,1.17 1.78,2 2.48,2.18 1.11,0.32 2.25,-0.83 2.86,-1.71" stroke="#003ab5" strokeLineCap="round" strokeLineJoin="round" stroke-width="0.72"/>
		<path fill="#00000000" d="M43.69,23.6a4.44,4.44 0,0 1,1.63 -1.32c1.46,-0.62 2.21,0.18 2.84,0.85 1.08,1.17 1.78,2 2.48,2.18 1.11,0.33 2.25,-0.83 2.86,-1.71" stroke="#003ab5" strokeLineCap="round" strokeLineJoin="round" stroke-width="0.72"/>
		<path fill="#00000000" d="M43.69,26.1a4.39,4.39 0,0 1,1.63 -1.33c1.46,-0.62 2.21,0.18 2.84,0.85 1.08,1.17 1.78,2 2.48,2.18 1.11,0.33 2.25,-0.83 2.86,-1.7" stroke="#003ab5" strokeLineCap="round" strokeLineJoin="round" stroke-width="0.72"/>
		<path fill="#00000000" d="M43.69,28.59a4.39,4.39 0,0 1,1.63 -1.33c1.46,-0.62 2.21,0.18 2.84,0.86 1.08,1.16 1.78,2 2.48,2.17 1.11,0.33 2.25,-0.82 2.86,-1.7" stroke="#003ab5" strokeLineCap="round" strokeLineJoin="round" stroke-width="0.72"/>
		<path fill="#00000000" d="M43.69,31.08a4.39,4.39 0,0 1,1.63 -1.33,2.25 2.25,0 0,1 2.84,0.86c1.08,1.17 1.78,2 2.48,2.18 1.11,0.33 2.25,-0.83 2.86,-1.71" stroke="#003ab5" strokeLineCap="round" strokeLineJoin="round" stroke-width="0.72"/>
		<path fill="#00000000" d="M79.08,4.07h1.84V7H71.64C63.55,7 57,12.46 57,19.25v6.52c0,6.79 6.55,12.29 14.64,12.29H80.8v2.88H79V44H90V40.94H88.13V38.06h9.14c8.1,0 14.66,-5.5 14.66,-12.29V19.25c0,-6.79 -6.56,-12.3 -14.66,-12.29h-9V4.07h1.83V1h-11Z" stroke="#003ab5" strokeLineCap="round" strokeLineJoin="round" stroke-width="1.44"/>
		<path fill="#00000000" d="M77.39,24.06a1.55,1.55 0,1 1,1.54 -1.55A1.54,1.54 0,0 1,77.39 24.06ZM74.59,27.26 L74.86,27.11a5.35,5.35 0,0 1,5.36 0.17A5.35,5.35 0,0 0,86.93 26a5.45,5.45 0,0 0,0 -6.89,5.35 5.35,0 0,0 -6.69,-1.39l-0.07,0 -0.26,0.15a5.31,5.31 0,0 1,-5.13 0l-0.26,-0.15 -0.06,0a5.37,5.37 0,0 0,-6.68 1.36,5.45 5.45,0 0,0 0,6.86 5.38,5.38 0,0 0,6.68 1.39l0.05,0Z" stroke="#0070c0" strokeLineCap="round" strokeLineJoin="round" stroke-width="0.24"/>
		<path fill="#003ab5" fill-rule="evenOdd" d="M78.93,22.51A1.54,1.54 0,1 1,77.39 21,1.54 1.54,0 0,1 78.93,22.51Z"/>
		<path fill="#00000000" d="M78.93,22.51A1.54,1.54 0,1 1,77.39 21,1.54 1.54,0 0,1 78.93,22.51Z" stroke="#0070c0" strokeLineCap="round" strokeLineJoin="round" stroke-width="0.24"/>
		<path fill="#00000000" d="M94,22.52A1.54,1.54 0,1 1,92.49 21,1.54 1.54,0 0,1 94,22.52ZM97.17,25.33a1.35,1.35 0,0 0,-0.15 -0.26,5.49 5.49,0 0,1 0.17,-5.41 5.45,5.45 0,0 0,-1.28 -6.76,5.38 5.38,0 0,0 -6.84,-0.05 5.47,5.47 0,0 0,-1.38 6.75l0,0.06 0.15,0.27a5.43,5.43 0,0 1,0 5.16l-0.15,0.27 0,0.06a5.45,5.45 0,0 0,1.36 6.72,5.37 5.37,0 0,0 6.81,0 5.47,5.47 0,0 0,1.38 -6.72l0,-0.05Z" stroke="#0070c0" strokeLineCap="round" strokeLineJoin="round" stroke-width="0.24"/>
		<path fill="#003ab5" fill-rule="evenOdd" d="M94,22.52A1.54,1.54 0,1 1,92.49 21,1.55 1.55,0 0,1 94,22.52Z"/>
		<path fill="#00000000" d="M94,22.52A1.54,1.54 0,1 1,92.49 21,1.55 1.55,0 0,1 94,22.52Z" stroke="#0070c0" strokeLineCap="round" strokeLineJoin="round" stroke-width="0.24"/>
		<path fill="#00000000" d="M74.59,27.26l-0.06,0 0,0a5.36,5.36 0,0 1,-6.67 -1.4,5.46 5.46,0 0,1 0,-6.86 5.37,5.37 0,0 1,6.68 -1.36l0,0 0.26,0.15a5.31,5.31 0,0 0,5.13 0l0.27,-0.15 0.06,0A5.35,5.35 0,0 1,87 19.1a5.46,5.46 0,0 1,0 6.88,5.37 5.37,0 0,1 -6.71,1.3 5.35,5.35 0,0 0,-5.36 -0.17ZM97.21,25.33 L97.21,25.39 97.21,25.44a5.45,5.45 0,0 1,-1.39 6.71,5.35 5.35,0 0,1 -6.81,0 5.45,5.45 0,0 1,-1.35 -6.72l0,-0.06c0,-0.09 0.1,-0.18 0.16,-0.27a5.5,5.5 0,0 0,0 -5.17l-0.16,-0.26 0,-0.06a5.43,5.43 0,0 1,1.38 -6.73,5.36 5.36,0 0,1 6.83,0 5.45,5.45 0,0 1,1.3 6.75,5.45 5.45,0 0,0 -0.18,5.4C97.11,25.15 97.16,25.24 97.21,25.33ZM82.17,11L77.56,11a11.52,11.52 0,0 0,0 23h4.61L82.17,44h4.58L86.75,34h4.62a11.52,11.52 0,0 0,0 -23L86.75,11L86.75,1L82.17,1Z" stroke="#003ab5" strokeLineCap="round" strokeLineJoin="round" stroke-width="0.96"/>
		<path fill="#00000000" d="M74.59,27.26l0.27,-0.15a5.35,5.35 0,0 1,5.36 0.17A5.35,5.35 0,0 0,86.93 26a5.45,5.45 0,0 0,0 -6.89,5.35 5.35,0 0,0 -6.69,-1.39l-0.07,0 -0.26,0.15a5.31,5.31 0,0 1,-5.13 0l-0.26,-0.15 -0.06,0a5.37,5.37 0,0 0,-6.68 1.36,5.45 5.45,0 0,0 0,6.86 5.38,5.38 0,0 0,6.68 1.39l0.05,0Z" stroke="#003ab5" strokeLineCap="round" strokeLineJoin="round" stroke-width="0.24"/>
	</group>
</svg>
