<svg xmlns="http://www.w3.org/2000/svg" xmlns:android="http://schemas.android.com/apk/res/android" width="48dp" height="44.61dp" viewportWidth="79.01" viewportHeight="44.61">
	<group>
		<clip-path d="M-26.06,-4.55h130.98v71.49h-130.98z"/>
		<path d="M0.24,9.29h9.72v25.94h-9.72z" strokeLineJoin="round" stroke-width="0.48" fill="#00000000" stroke="#003ab5" strokeLineCap="round"/>
		<path d="M9.96,0.31h5.23v43.9h-5.23z" strokeLineJoin="round" stroke-width="0.48" fill="#00000000" stroke="#003ab5" strokeLineCap="round"/>
		<path d="M22.18,9.29h9.72v25.94h-9.72z" strokeLineJoin="round" stroke-width="0.48" fill="#00000000" stroke="#003ab5" strokeLineCap="round"/>
		<path d="M16.95,0.31h5.23v43.9h-5.23z" strokeLineJoin="round" stroke-width="0.48" fill="#00000000" stroke="#003ab5" strokeLineCap="round"/>
		<path d="M12.81,1.73h6.53a0.89,0.89 0,0 1,0.7 0.39,1.66 1.66,0 0,1 0.29,1 1.66,1.66 0,0 1,-0.29 1,0.89 0.89,0 0,1 -0.7,0.39L12.81,4.51A1.49,1.49 0,0 0,11.22 5.73a1.49,1.49 0,0 0,1.59 1.36h6.53a1.73,1.73 0,0 1,1.13 0.4,1.22 1.22,0 0,1 0,1.92 1.73,1.73 0,0 1,-1.13 0.4L12.81,9.81a1.77,1.77 0,0 0,-1.13 0.4,1.25 1.25,0 0,0 -0.46,1 1.49,1.49 0,0 0,1.59 1.36h6.53a1.73,1.73 0,0 1,1.13 0.4,1.26 1.26,0 0,1 0.47,1 1.29,1.29 0,0 1,-0.47 1,1.78 1.78,0 0,1 -1.13,0.39L12.81,15.36a1.49,1.49 0,0 0,-1.59 1.36,1.49 1.49,0 0,0 1.59,1.36h6.53a1.73,1.73 0,0 1,1.13 0.4,1.23 1.23,0 0,1 0,1.93 1.72,1.72 0,0 1,-1.13 0.39L12.81,20.8a1.49,1.49 0,0 0,-1.59 1.36,1.49 1.49,0 0,0 1.59,1.36h6.53a1.79,1.79 0,0 1,1.13 0.4,1.23 1.23,0 0,1 0,1.93 1.78,1.78 0,0 1,-1.13 0.39L12.81,26.24a1.38,1.38 0,1 0,0 2.73h6.53a1.72,1.72 0,0 1,1.13 0.39,1.23 1.23,0 0,1 0,1.93 1.79,1.79 0,0 1,-1.13 0.4L12.81,31.69a1.37,1.37 0,1 0,0 2.71h6.53a1.79,1.79 0,0 1,1.13 0.4,1.23 1.23,0 0,1 0,1.93 1.73,1.73 0,0 1,-1.13 0.4L12.81,37.13a1.38,1.38 0,1 0,0 2.72h6.53a1.72,1.72 0,0 1,1.13 0.39,1.29 1.29,0 0,1 0.47,1 1.26,1.26 0,0 1,-0.47 1,1.73 1.73,0 0,1 -1.13,0.4L12.81,42.64" strokeLineJoin="round" stroke-width="0.71" fill="#00000000" stroke="#003ab5" strokeLineCap="round"/>
		<path d="M72.4,6.39a18.94,18.94 0,0 0,-28.35 0.71,23.41 23.41,0 0,0 0.5,31A18.94,18.94 0,0 0,72.91 37.73a23.4,23.4 0,0 0,-0.2 -31A3.26,3.26 0,0 1,72.4 6.39Z" strokeLineJoin="round" stroke-width="0.71" fill="#00000000" stroke="#003ab5" strokeLineCap="round"/>
		<path d="M74.18,25.57a3.21,3.21 0,0 1,-2.7 -3.3,3.19 3.19,0 0,1 2.74,-3.26c0,-0.14 0,-0.27 -0.07,-0.4A2.94,2.94 0,0 1,70.46 16.73a3.45,3.45 0,0 1,1.37 -4.19c-0.07,-0.11 -0.14,-0.23 -0.22,-0.34a2.82,2.82 0,0 1,-4 0,14.92 14.92,0 0,1 -0.15,19.74 12.07,12.07 0,0 1,-18.08 -0.06,14.92 14.92,0 0,1 -0.05,-19.74 12.07,12.07 0,0 1,18.08 -0.15,3.54 3.54,0 0,1 -0.14,-4.34l-0.2,-0.14a2.9,2.9 0,0 1,-3.75 1.51,3.38 3.38,0 0,1 -1.82,-3.9l-0.18,0a3,3 0,0 1,-5.9 0.08l-0.11,0a3.38,3.38 0,0 1,-1.73 4A2.89,2.89 0,0 1,49.81 7.73L49.6,7.87a3.52,3.52 0,0 1,-0.23 4.34,2.82 2.82,0 0,1 -4,0.3l-0.07,0.12A3.48,3.48 0,0 1,46.53 16.73a3,3 0,0 1,-3.52 1.93,1.18 1.18,0 0,0 0,0.2 3.2,3.2 0,0 1,2.45 3,3.3 3.3,0 0,1 -2,3.37A3,3 0,0 1,46.6 27.55a3.42,3.42 0,0 1,-1.48 3.85l0.17,0.28a2.81,2.81 0,0 1,4 0.32,3.53 3.53,0 0,1 0.19,4.37l0.12,0.09a2.91,2.91 0,0 1,3.87 -1.48,3.4 3.4,0 0,1 1.63,4.11l0.21,0a3,3 0,1 1,6 0.13l0.18,0a3.36,3.36 0,0 1,1.84 -3.85,2.9 2.9,0 0,1 3.73,1.49l0.24,-0.17a3.52,3.52 0,0 1,0.3 -4.39,2.81 2.81,0 0,1 4,-0.16 1,1 0,0 0,0.11 -0.17,3.46 3.46,0 0,1 -1.27,-4.18 2.94,2.94 0,0 1,3.67 -1.82C74.13,25.84 74.15,25.73 74.18,25.57Z" fill="#003ab5" fill-rule="evenOdd"/>
		<path d="M74.18,25.57a3.21,3.21 0,0 1,-2.7 -3.3,3.19 3.19,0 0,1 2.74,-3.26c0,-0.14 0,-0.27 -0.07,-0.4A2.94,2.94 0,0 1,70.46 16.73a3.45,3.45 0,0 1,1.37 -4.19c-0.07,-0.11 -0.14,-0.23 -0.22,-0.34a2.82,2.82 0,0 1,-4 0,14.92 14.92,0 0,1 -0.15,19.74 12.07,12.07 0,0 1,-18.08 -0.06,14.92 14.92,0 0,1 -0.05,-19.74 12.07,12.07 0,0 1,18.08 -0.15,3.54 3.54,0 0,1 -0.14,-4.34l-0.2,-0.14a2.9,2.9 0,0 1,-3.75 1.51,3.38 3.38,0 0,1 -1.82,-3.9l-0.18,0a3,3 0,0 1,-5.9 0.08l-0.11,0a3.38,3.38 0,0 1,-1.73 4A2.89,2.89 0,0 1,49.81 7.73L49.6,7.87a3.52,3.52 0,0 1,-0.23 4.34,2.82 2.82,0 0,1 -4,0.3l-0.07,0.12A3.48,3.48 0,0 1,46.53 16.73a3,3 0,0 1,-3.52 1.93,1.18 1.18,0 0,0 0,0.2 3.2,3.2 0,0 1,2.45 3,3.3 3.3,0 0,1 -2,3.37A3,3 0,0 1,46.6 27.55a3.42,3.42 0,0 1,-1.48 3.85l0.17,0.28a2.81,2.81 0,0 1,4 0.32,3.53 3.53,0 0,1 0.19,4.37l0.12,0.09a2.91,2.91 0,0 1,3.87 -1.48,3.4 3.4,0 0,1 1.63,4.11l0.21,0a3,3 0,1 1,6 0.13l0.18,0a3.36,3.36 0,0 1,1.84 -3.85,2.9 2.9,0 0,1 3.73,1.49l0.24,-0.17a3.52,3.52 0,0 1,0.3 -4.39,2.81 2.81,0 0,1 4,-0.16 1,1 0,0 0,0.11 -0.17,3.46 3.46,0 0,1 -1.27,-4.18 2.94,2.94 0,0 1,3.67 -1.82C74.13,25.84 74.15,25.73 74.18,25.57Z" strokeLineJoin="round" stroke-width="1.9" fill="#00000000" stroke="#003ab5" strokeLineCap="round"/>
		<path d="M62.98,16.79a6.31,6.31 0,0 0,-9.45 0.09,7.8 7.8,0 0,0 0,10.33 6.32,6.32 0,0 0,9.46 0,7.79 7.79,0 0,0 0.07,-10.32Z" strokeLineJoin="round" stroke-width="0.71" fill="#00000000" stroke="#003ab5" strokeLineCap="round"/>
		<path d="M61.45,18.54a4.23,4.23 0,0 0,-6.32 -0.41,5.22 5.22,0 0,0 -0.4,6.9 4.23,4.23 0,0 0,6.32 0.48,5.23 5.23,0 0,0 0.47,-6.89Z" strokeLineJoin="round" stroke-width="0.71" fill="#00000000" stroke="#003ab5" strokeLineCap="round"/>
	</group>
</svg>
