<svg id="Layer_3" data-name="Layer 3" xmlns="http://www.w3.org/2000/svg" xmlns:xlink="http://www.w3.org/1999/xlink" viewBox="0 0 79.01 44.61"><defs><style>.cls-1,.cls-4,.cls-5,.cls-7{fill:none;}.cls-2{isolation:isolate;}.cls-3{clip-path:url(#clip-path);}.cls-4,.cls-5,.cls-7{stroke:#003ab5;stroke-linecap:round;stroke-linejoin:round;}.cls-4{stroke-width:0.48px;}.cls-5{stroke-width:0.71px;}.cls-6{fill:#003ab5;fill-rule:evenodd;}.cls-7{stroke-width:1.9px;}</style><clipPath id="clip-path" transform="translate(-0.4 -0.27)"><rect class="cls-1" x="-25.66" y="-4.28" width="130.98" height="71.49"/></clipPath></defs><g class="cls-2"><g class="cls-3"><rect class="cls-4" x="0.24" y="9.29" width="9.72" height="25.94"/><rect class="cls-4" x="9.96" y="0.31" width="5.23" height="43.9"/><rect class="cls-4" x="22.18" y="9.29" width="9.72" height="25.94"/><rect class="cls-4" x="16.95" y="0.31" width="5.23" height="43.9"/><path class="cls-5" d="M13.21,2h6.53a.89.89,0,0,1,.7.39,1.66,1.66,0,0,1,.29,1,1.66,1.66,0,0,1-.29,1,.89.89,0,0,1-.7.39H13.21A1.49,1.49,0,0,0,11.62,6a1.49,1.49,0,0,0,1.59,1.36h6.53a1.73,1.73,0,0,1,1.13.4,1.22,1.22,0,0,1,0,1.92,1.73,1.73,0,0,1-1.13.4H13.21a1.77,1.77,0,0,0-1.13.4,1.25,1.25,0,0,0-.46,1,1.49,1.49,0,0,0,1.59,1.36h6.53a1.73,1.73,0,0,1,1.13.4,1.26,1.26,0,0,1,.47,1,1.29,1.29,0,0,1-.47,1,1.78,1.78,0,0,1-1.13.39H13.21a1.49,1.49,0,0,0-1.59,1.36,1.49,1.49,0,0,0,1.59,1.36h6.53a1.73,1.73,0,0,1,1.13.4,1.23,1.23,0,0,1,0,1.93,1.72,1.72,0,0,1-1.13.39H13.21a1.49,1.49,0,0,0-1.59,1.36,1.49,1.49,0,0,0,1.59,1.36h6.53a1.79,1.79,0,0,1,1.13.4,1.23,1.23,0,0,1,0,1.93,1.78,1.78,0,0,1-1.13.39H13.21a1.38,1.38,0,1,0,0,2.73h6.53a1.72,1.72,0,0,1,1.13.39,1.23,1.23,0,0,1,0,1.93,1.79,1.79,0,0,1-1.13.4H13.21a1.37,1.37,0,1,0,0,2.71h6.53a1.79,1.79,0,0,1,1.13.4,1.23,1.23,0,0,1,0,1.93,1.73,1.73,0,0,1-1.13.4H13.21a1.38,1.38,0,1,0,0,2.72h6.53a1.72,1.72,0,0,1,1.13.39,1.29,1.29,0,0,1,.47,1,1.26,1.26,0,0,1-.47,1,1.73,1.73,0,0,1-1.13.4H13.21" transform="translate(-0.4 -0.27)"/><path class="cls-5" d="M72.8,6.66a18.94,18.94,0,0,0-28.35.71,23.41,23.41,0,0,0,.5,31A18.94,18.94,0,0,0,73.31,38a23.4,23.4,0,0,0-.2-31A3.26,3.26,0,0,1,72.8,6.66Z" transform="translate(-0.4 -0.27)"/><path class="cls-6" d="M74.58,25.84a3.21,3.21,0,0,1-2.7-3.3,3.19,3.19,0,0,1,2.74-3.26c0-.14,0-.27-.07-.4A2.94,2.94,0,0,1,70.86,17a3.45,3.45,0,0,1,1.37-4.19c-.07-.11-.14-.23-.22-.34a2.82,2.82,0,0,1-4,0,14.92,14.92,0,0,1-.15,19.74,12.07,12.07,0,0,1-18.08-.06,14.92,14.92,0,0,1-.05-19.74,12.07,12.07,0,0,1,18.08-.15,3.54,3.54,0,0,1-.14-4.34l-.2-.14a2.9,2.9,0,0,1-3.75,1.51,3.38,3.38,0,0,1-1.82-3.9l-.18,0a3,3,0,0,1-5.9.08l-.11,0a3.38,3.38,0,0,1-1.73,4A2.89,2.89,0,0,1,50.21,8L50,8.14a3.52,3.52,0,0,1-.23,4.34,2.82,2.82,0,0,1-4,.3l-.07.12A3.48,3.48,0,0,1,46.93,17a3,3,0,0,1-3.52,1.93,1.18,1.18,0,0,0,0,.2,3.2,3.2,0,0,1,2.45,3,3.3,3.3,0,0,1-2,3.37A3,3,0,0,1,47,27.82a3.42,3.42,0,0,1-1.48,3.85l.17.28a2.81,2.81,0,0,1,4,.32,3.53,3.53,0,0,1,.19,4.37l.12.09a2.91,2.91,0,0,1,3.87-1.48,3.4,3.4,0,0,1,1.63,4.11l.21,0a3,3,0,1,1,6,.13l.18,0a3.36,3.36,0,0,1,1.84-3.85,2.9,2.9,0,0,1,3.73,1.49l.24-.17a3.52,3.52,0,0,1,.3-4.39,2.81,2.81,0,0,1,4-.16,1,1,0,0,0,.11-.17,3.46,3.46,0,0,1-1.27-4.18,2.94,2.94,0,0,1,3.67-1.82C74.53,26.11,74.55,26,74.58,25.84Z" transform="translate(-0.4 -0.27)"/><path class="cls-7" d="M74.58,25.84a3.21,3.21,0,0,1-2.7-3.3,3.19,3.19,0,0,1,2.74-3.26c0-.14,0-.27-.07-.4A2.94,2.94,0,0,1,70.86,17a3.45,3.45,0,0,1,1.37-4.19c-.07-.11-.14-.23-.22-.34a2.82,2.82,0,0,1-4,0,14.92,14.92,0,0,1-.15,19.74,12.07,12.07,0,0,1-18.08-.06,14.92,14.92,0,0,1-.05-19.74,12.07,12.07,0,0,1,18.08-.15,3.54,3.54,0,0,1-.14-4.34l-.2-.14a2.9,2.9,0,0,1-3.75,1.51,3.38,3.38,0,0,1-1.82-3.9l-.18,0a3,3,0,0,1-5.9.08l-.11,0a3.38,3.38,0,0,1-1.73,4A2.89,2.89,0,0,1,50.21,8L50,8.14a3.52,3.52,0,0,1-.23,4.34,2.82,2.82,0,0,1-4,.3l-.07.12A3.48,3.48,0,0,1,46.93,17a3,3,0,0,1-3.52,1.93,1.18,1.18,0,0,0,0,.2,3.2,3.2,0,0,1,2.45,3,3.3,3.3,0,0,1-2,3.37A3,3,0,0,1,47,27.82a3.42,3.42,0,0,1-1.48,3.85l.17.28a2.81,2.81,0,0,1,4,.32,3.53,3.53,0,0,1,.19,4.37l.12.09a2.91,2.91,0,0,1,3.87-1.48,3.4,3.4,0,0,1,1.63,4.11l.21,0a3,3,0,1,1,6,.13l.18,0a3.36,3.36,0,0,1,1.84-3.85,2.9,2.9,0,0,1,3.73,1.49l.24-.17a3.52,3.52,0,0,1,.3-4.39,2.81,2.81,0,0,1,4-.16,1,1,0,0,0,.11-.17,3.46,3.46,0,0,1-1.27-4.18,2.94,2.94,0,0,1,3.67-1.82C74.53,26.11,74.55,26,74.58,25.84Z" transform="translate(-0.4 -0.27)"/><path class="cls-5" d="M63.38,17.06a6.31,6.31,0,0,0-9.45.09,7.8,7.8,0,0,0,0,10.33,6.32,6.32,0,0,0,9.46,0,7.79,7.79,0,0,0,.07-10.32Z" transform="translate(-0.4 -0.27)"/><path class="cls-5" d="M61.85,18.81a4.23,4.23,0,0,0-6.32-.41,5.22,5.22,0,0,0-.4,6.9,4.23,4.23,0,0,0,6.32.48,5.23,5.23,0,0,0,.47-6.89Z" transform="translate(-0.4 -0.27)"/></g></g></svg>