<svg id="Layer_3" data-name="Layer 3" xmlns="http://www.w3.org/2000/svg" xmlns:xlink="http://www.w3.org/1999/xlink" viewBox="0 0 112.98 44.97"><defs><style>.cls-1,.cls-10,.cls-11,.cls-13,.cls-14,.cls-4,.cls-5,.cls-6,.cls-7,.cls-8,.cls-9{fill:none;}.cls-2{isolation:isolate;}.cls-3{clip-path:url(#clip-path);}.cls-10,.cls-13,.cls-14,.cls-4,.cls-5,.cls-6,.cls-7,.cls-8,.cls-9{stroke:#003ab5;}.cls-10,.cls-11,.cls-13,.cls-14,.cls-4,.cls-5,.cls-6,.cls-7,.cls-8,.cls-9{stroke-linecap:round;stroke-linejoin:round;}.cls-4{stroke-width:1.2px;}.cls-5{stroke-width:1.2px;}.cls-6{stroke-width:1.2px;}.cls-7{stroke-width:1.2px;}.cls-8{stroke-width:1.2px;}.cls-9{stroke-width:0.72px;}.cls-10{stroke-width:1.44px;}.cls-11{stroke:#0070c0;}.cls-11,.cls-14{stroke-width:0.24px;}.cls-12{fill:#003ab5;fill-rule:evenodd;}.cls-13{stroke-width:0.96px;}</style><clipPath id="clip-path"><rect class="cls-1" x="-12.64" y="-4.28" width="137.36" height="69.19"/></clipPath></defs><g class="cls-2"><g class="cls-3"><path class="cls-4" d="M42.89,22.51a21,21,0,1,1-21-21.2A21.12,21.12,0,0,1,42.89,22.51Z"/><ellipse class="cls-4" cx="21.85" cy="22.51" rx="12.72" ry="12.81"/><path class="cls-5" d="M19.75,35.14c-.13,4.82,3.17,8.36,7.36,7.91"/><path class="cls-6" d="M31.58,30.64c4.07,2.52,8.76,1.41,10.47-2.48"/><path class="cls-4" d="M33.8,18.12c4.2-2.29,5.6-6.94,3.11-10.38"/><path class="cls-7" d="M24.12,9.84C24.24,5,21,1.49,16.75,1.94"/><path class="cls-8" d="M12.09,14.23C8,11.71,3.32,12.82,1.61,16.71"/><path class="cls-6" d="M9.79,26.83c-4.2,2.3-5.6,6.94-3.11,10.38"/><path class="cls-4" d="M25.41,22.51a3.56,3.56,0,1,1-3.56-3.59A3.57,3.57,0,0,1,25.41,22.51Z"/><path class="cls-9" d="M43.69,13.74a4.39,4.39,0,0,1,1.63-1.33c1.46-.62,2.21.18,2.84.86,1.08,1.16,1.78,2,2.48,2.17,1.11.33,2.25-.82,2.86-1.7"/><path class="cls-9" d="M43.69,16.23a4.49,4.49,0,0,1,1.63-1.33c1.46-.61,2.21.19,2.84.86,1.08,1.16,1.78,2,2.48,2.17,1.11.34,2.25-.82,2.86-1.7"/><path class="cls-9" d="M43.69,18.72a4.33,4.33,0,0,1,1.63-1.32,2.24,2.24,0,0,1,2.84.85c1.08,1.17,1.78,2,2.48,2.18,1.11.33,2.25-.83,2.86-1.71"/><path class="cls-9" d="M43.69,21.21a4.33,4.33,0,0,1,1.63-1.32,2.24,2.24,0,0,1,2.84.85c1.08,1.17,1.78,2,2.48,2.18,1.11.32,2.25-.83,2.86-1.71"/><path class="cls-9" d="M43.69,23.6a4.44,4.44,0,0,1,1.63-1.32c1.46-.62,2.21.18,2.84.85,1.08,1.17,1.78,2,2.48,2.18,1.11.33,2.25-.83,2.86-1.71"/><path class="cls-9" d="M43.69,26.1a4.39,4.39,0,0,1,1.63-1.33c1.46-.62,2.21.18,2.84.85,1.08,1.17,1.78,2,2.48,2.18,1.11.33,2.25-.83,2.86-1.7"/><path class="cls-9" d="M43.69,28.59a4.39,4.39,0,0,1,1.63-1.33c1.46-.62,2.21.18,2.84.86,1.08,1.16,1.78,2,2.48,2.17,1.11.33,2.25-.82,2.86-1.7"/><path class="cls-9" d="M43.69,31.08a4.39,4.39,0,0,1,1.63-1.33,2.25,2.25,0,0,1,2.84.86c1.08,1.17,1.78,2,2.48,2.18,1.11.33,2.25-.83,2.86-1.71"/><path class="cls-10" d="M79.08,4.07h1.84V7H71.64C63.55,7,57,12.46,57,19.25v6.52c0,6.79,6.55,12.29,14.64,12.29H80.8v2.88H79V44H90V40.94H88.13V38.06h9.14c8.1,0,14.66-5.5,14.66-12.29V19.25c0-6.79-6.56-12.3-14.66-12.29h-9V4.07h1.83V1h-11Z"/><path class="cls-11" d="M77.39,24.06a1.55,1.55,0,1,1,1.54-1.55A1.54,1.54,0,0,1,77.39,24.06Zm-2.8,3.2.27-.15a5.35,5.35,0,0,1,5.36.17A5.35,5.35,0,0,0,86.93,26a5.45,5.45,0,0,0,0-6.89,5.35,5.35,0,0,0-6.69-1.39l-.07,0-.26.15a5.31,5.31,0,0,1-5.13,0l-.26-.15-.06,0a5.37,5.37,0,0,0-6.68,1.36,5.45,5.45,0,0,0,0,6.86,5.38,5.38,0,0,0,6.68,1.39l.05,0Z"/><path class="cls-12" d="M78.93,22.51A1.54,1.54,0,1,1,77.39,21,1.54,1.54,0,0,1,78.93,22.51Z"/><path class="cls-11" d="M78.93,22.51A1.54,1.54,0,1,1,77.39,21,1.54,1.54,0,0,1,78.93,22.51Z"/><path class="cls-11" d="M94,22.52A1.54,1.54,0,1,1,92.49,21,1.54,1.54,0,0,1,94,22.52Zm3.17,2.81a1.35,1.35,0,0,0-.15-.26,5.49,5.49,0,0,1,.17-5.41,5.45,5.45,0,0,0-1.28-6.76,5.38,5.38,0,0,0-6.84-.05,5.47,5.47,0,0,0-1.38,6.75l0,.06.15.27a5.43,5.43,0,0,1,0,5.16l-.15.27,0,.06a5.45,5.45,0,0,0,1.36,6.72,5.37,5.37,0,0,0,6.81,0,5.47,5.47,0,0,0,1.38-6.72l0-.05Z"/><path class="cls-12" d="M94,22.52A1.54,1.54,0,1,1,92.49,21,1.55,1.55,0,0,1,94,22.52Z"/><path class="cls-11" d="M94,22.52A1.54,1.54,0,1,1,92.49,21,1.55,1.55,0,0,1,94,22.52Z"/><path class="cls-13" d="M74.59,27.26l-.06,0,0,0a5.36,5.36,0,0,1-6.67-1.4,5.46,5.46,0,0,1,0-6.86,5.37,5.37,0,0,1,6.68-1.36l0,0,.26.15a5.31,5.31,0,0,0,5.13,0l.27-.15.06,0A5.35,5.35,0,0,1,87,19.1a5.46,5.46,0,0,1,0,6.88,5.37,5.37,0,0,1-6.71,1.3,5.35,5.35,0,0,0-5.36-.17Zm22.62-1.93,0,.06,0,.05a5.45,5.45,0,0,1-1.39,6.71,5.35,5.35,0,0,1-6.81,0,5.45,5.45,0,0,1-1.35-6.72l0-.06c0-.09.1-.18.16-.27a5.5,5.5,0,0,0,0-5.17l-.16-.26,0-.06a5.43,5.43,0,0,1,1.38-6.73,5.36,5.36,0,0,1,6.83,0,5.45,5.45,0,0,1,1.3,6.75,5.45,5.45,0,0,0-.18,5.4C97.11,25.15,97.16,25.24,97.21,25.33ZM82.17,11H77.56a11.52,11.52,0,0,0,0,23h4.61V44h4.58V34h4.62a11.52,11.52,0,0,0,0-23H86.75V1H82.17Z"/><path class="cls-14" d="M74.59,27.26l.27-.15a5.35,5.35,0,0,1,5.36.17A5.35,5.35,0,0,0,86.93,26a5.45,5.45,0,0,0,0-6.89,5.35,5.35,0,0,0-6.69-1.39l-.07,0-.26.15a5.31,5.31,0,0,1-5.13,0l-.26-.15-.06,0a5.37,5.37,0,0,0-6.68,1.36,5.45,5.45,0,0,0,0,6.86,5.38,5.38,0,0,0,6.68,1.39l.05,0Z"/></g></g></svg>