<svg id="Layer_9" data-name="Layer 9" xmlns="http://www.w3.org/2000/svg" xmlns:xlink="http://www.w3.org/1999/xlink" viewBox="0 0 82.6 44.97"><defs><style>.cls-1,.cls-4,.cls-5{fill:none;}.cls-2{isolation:isolate;}.cls-3{clip-path:url(#clip-path);}.cls-4,.cls-5{stroke:#003ab5;stroke-linecap:round;stroke-linejoin:round;}.cls-4{stroke-width:1.47px;}.cls-5{stroke-width:0.98px;}</style><clipPath id="clip-path"><rect class="cls-1" x="-28.91" y="-4.02" width="141.45" height="69.96"/></clipPath></defs><g class="cls-2"><g class="cls-3"><path class="cls-4" d="M38.55,41.3a16.87,16.87,0,0,1-2.73-.62,18.67,18.67,0,0,1-13-14.95h2.65A16,16,0,0,0,30,34.28a16.27,16.27,0,0,0,8.56,4.4V41.3Zm0-35.6V7.13a16.35,16.35,0,0,0-8.61,4.45,16.09,16.09,0,0,0-4.49,8.5H22.8A18.67,18.67,0,0,1,34.39,5.63V1.18H48V5.45A18.66,18.66,0,0,1,60,20.08H57.35a16,16,0,0,0-4.45-8.46,16.28,16.28,0,0,0-8.65-4.49V4.5a2.85,2.85,0,0,0-5.7,0V5.7ZM35.11,20.08H22.8a2.83,2.83,0,0,0,0,5.65H37.68a4.59,4.59,0,0,1-1-2.82h0a4.59,4.59,0,0,1,1-2.82H25.45a16.09,16.09,0,0,1,4.49-8.5l6.56,6.5A6.91,6.91,0,0,0,35.11,20.08Zm6.3,24H27.55V40.68h8.27a16.87,16.87,0,0,0,2.73.62A2.83,2.83,0,0,0,41.41,44.07ZM38.55,16.68a7,7,0,0,0-2,1.4l-6.56-6.5a16.35,16.35,0,0,1,8.61-4.45Zm-2,11.11L30,34.28a16,16,0,0,1-4.54-8.55h9.66a6.75,6.75,0,0,0,1.45,2.06,6.9,6.9,0,0,0,2,1.34v9.55A16.27,16.27,0,0,1,30,34.28Zm9.18-4.91a4.33,4.33,0,1,1-4.33-4.26A4.29,4.29,0,0,1,45.74,22.88Zm-7.19-3.65V4.5a2.85,2.85,0,0,1,5.7,0V19.23a4.68,4.68,0,0,0-2.84-1h0A4.73,4.73,0,0,0,38.55,19.23Zm5.7,22.07A17.23,17.23,0,0,0,47,40.68h7.94v3.39H41.41A2.83,2.83,0,0,0,44.25,41.3Zm0,0a2.85,2.85,0,0,1-5.7,0V26.59a4.74,4.74,0,0,0,5.7,0V41.3ZM60,25.73a18.67,18.67,0,0,1-13,15,17.23,17.23,0,0,1-2.74.62V38.68a16.23,16.23,0,0,0,8.6-4.44,16,16,0,0,0,4.5-8.51H60Zm-15.76-9V7.13a16.28,16.28,0,0,1,8.65,4.49l-6.56,6.5A7,7,0,0,0,44.25,16.68ZM60,20.08a2.83,2.83,0,0,1,0,5.65H45.12a4.6,4.6,0,0,0,0-5.65H60ZM46.28,27.75l6.57,6.49a16.23,16.23,0,0,1-8.6,4.44V29.13a6.79,6.79,0,0,0,3.44-3.4h9.66a16,16,0,0,1-4.5,8.51Zm1.41-7.67a6.93,6.93,0,0,0-1.35-2l6.56-6.5a16,16,0,0,1,4.45,8.46Z"/><polygon class="cls-5" points="13.61 24.81 19.27 34.05 9.78 27.19 11.42 26.05 5.39 21.67 7.48 20.21 0.8 15.38 8.32 11.2 11.97 17.67 10.52 18.35 15.33 24.03 13.61 24.81"/><polygon class="cls-5" points="68.77 24.81 63.11 34.05 72.6 27.19 70.96 26.05 76.99 21.67 74.9 20.21 81.59 15.38 74.07 11.2 70.41 17.67 71.87 18.35 67.05 24.03 68.77 24.81"/></g></g></svg>