<svg xmlns="http://www.w3.org/2000/svg" height="48dp" viewportHeight="44.97" viewportWidth="46.85" width="50.00667dp" xmlns:android="http://schemas.android.com/apk/res/android">
	<group>
		<clip-path d="M0.23,-2.79h46.62v47.75h-46.62z"/>
		<path fill="#00000000" d="M14.4,20.23a2.44,2.44 0,1 1,-2.51 2.44A2.47,2.47 0,0 1,14.4 20.23ZM12.23,17.32c-0.63,-0.34 -0.58,-1.54 -2.57,-2.73a0.36,0.36 0,0 0,-0.38 -0.05A5.28,5.28 0,0 0,8 15.36l-0.21,0.21a1.64,1.64 0,0 0,-0.2 0.26c-0.12,0.12 -0.08,0.25 0,0.38 0.73,2.27 2,2.46 2.1,3.22l0.09,-0.07a5.85,5.85 0,0 0,-0.78 1.56h0c-0.66,0.41 -1.61,-0.46 -3.87,0.4 -0.13,0.05 -0.25,0.1 -0.28,0.27a5.18,5.18 0,0 0,-0.11 1.51,2.6 2.6,0 0,0 0,0.28c0,0.13 0.08,0.31 0.09,0.33a0.35,0.35 0,0 0,0.29 0.26c2.16,0.75 3.12,0 3.78,0.24A5.9,5.9 0,0 0,9.72 26c-0.09,0.75 -1.38,0.94 -2.11,3.21a0.36,0.36 0,0 0,0 0.38,2.92 2.92,0 0,0 0.21,0.26l0.21,0.21a5.73,5.73 0,0 0,1.3 0.82,0.38 0.38,0 0,0 0.4,-0.06c2,-1.21 1.92,-2.44 2.59,-2.73a6.47,6.47 0,0 0,1.84 0.42l-0.08,0c0.56,0.54 -0.12,1.64 1.23,3.62a0.36,0.36 0,0 0,0.33 0.21L16,32.34a1.47,1.47 0,0 0,0.28 0,5 5,0 0,0 1.49,-0.46c0.16,-0.06 0.18,-0.2 0.2,-0.33 0.32,-2.29 -0.73,-3 -0.53,-3.7a6.14,6.14 0,0 0,1.67 -1.28c0.78,-0.09 1.24,1.11 3.67,1.34 0.14,0 0.28,0 0.38,-0.13a1.65,1.65 0,0 0,0.22 -0.25,2.35 2.35,0 0,0 0.17,-0.24 5.11,5.11 0,0 0,0.55 -1.41,0.33 0.33,0 0,0 -0.14,-0.36c-1.67,-1.71 -2.92,-1.31 -3.34,-2l-0.09,0.21a5.65,5.65 0,0 0,0 -2.09l0.06,0.1c0.41,-0.66 1.65,-0.25 3.33,-2a0.34,0.34 0,0 0,0.14 -0.36A5.52,5.52 0,0 0,23.54 18a2.35,2.35 0,0 0,-0.17 -0.24,2 2,0 0,0 -0.22,-0.24 0.36,0.36 0,0 0,-0.38 -0.13c-2.43,0.23 -2.89,1.42 -3.66,1.34a5.77,5.77 0,0 0,-1.52 -1.17c-0.25,-0.72 0.85,-1.42 0.52,-3.76 0,-0.13 0,-0.26 -0.2,-0.32A5.38,5.38 0,0 0,16.42 13a1.5,1.5 0,0 0,-0.29 0h-0.34c-0.17,0 -0.25,0.11 -0.32,0.22 -1.35,2 -0.69,3.07 -1.24,3.61A6.24,6.24 0,0 0,12.23 17.32Z" stroke="#003ab5" strokeLineCap="round" strokeLineJoin="round" stroke-width="1"/>
		<path fill="#00000000" d="M32.26,20.23a2.44,2.44 0,1 1,-2.51 2.44A2.47,2.47 0,0 1,32.26 20.23ZM30.09,17.32c-0.63,-0.34 -0.58,-1.54 -2.56,-2.73a0.38,0.38 0,0 0,-0.39 -0.05,5 5,0 0,0 -1.3,0.82 1.9,1.9 0,0 0,-0.22 0.21,1.64 1.64,0 0,0 -0.2,0.26c-0.12,0.12 -0.08,0.25 0,0.38 0.73,2.27 2,2.46 2.1,3.22l0.08,-0.07a6.13,6.13 0,0 0,-0.77 1.56h0c-0.66,0.41 -1.61,-0.46 -3.86,0.4 -0.14,0.05 -0.26,0.1 -0.29,0.27a5.18,5.18 0,0 0,-0.11 1.51,2.6 2.6,0 0,0 0,0.28c0,0.13 0.08,0.31 0.09,0.33A0.35,0.35 0,0 0,23 24c2.16,0.75 3.12,0 3.78,0.24A5.67,5.67 0,0 0,27.58 26c-0.09,0.75 -1.38,0.94 -2.11,3.21a0.36,0.36 0,0 0,0 0.38,2.92 2.92,0 0,0 0.21,0.26l0.21,0.21a5.73,5.73 0,0 0,1.3 0.82,0.38 0.38,0 0,0 0.4,-0.06c2,-1.21 1.92,-2.44 2.59,-2.73a6.46,6.46 0,0 0,1.85 0.42l-0.09,0c0.56,0.54 -0.12,1.64 1.24,3.62 0.07,0.1 0.15,0.22 0.32,0.21h0.35a1.47,1.47 0,0 0,0.28 0,5 5,0 0,0 1.49,-0.46c0.16,-0.06 0.18,-0.2 0.2,-0.33 0.32,-2.29 -0.73,-3 -0.53,-3.7A6,6 0,0 0,37 26.54c0.78,-0.09 1.24,1.11 3.68,1.34a0.35,0.35 0,0 0,0.37 -0.13,2.21 2.21,0 0,0 0.23,-0.25 1.94,1.94 0,0 0,0.16 -0.24A5.45,5.45 0,0 0,42 25.85a0.33,0.33 0,0 0,-0.14 -0.36c-1.67,-1.71 -2.92,-1.31 -3.33,-2l-0.11,0.21a5.65,5.65 0,0 0,0 -2.09l0,0.1c0.41,-0.66 1.66,-0.25 3.33,-2a0.33,0.33 0,0 0,0.14 -0.36A5.18,5.18 0,0 0,41.4 18a1.39,1.39 0,0 0,-0.17 -0.24,2 2,0 0,0 -0.22,-0.24c-0.1,-0.15 -0.24,-0.14 -0.38,-0.13 -2.43,0.23 -2.89,1.42 -3.66,1.34a5.77,5.77 0,0 0,-1.52 -1.17c-0.25,-0.72 0.85,-1.42 0.52,-3.76 0,-0.13 0,-0.26 -0.2,-0.32A5.38,5.38 0,0 0,34.28 13,1.5 1.5,0 0,0 34,13h-0.34c-0.17,0 -0.25,0.11 -0.32,0.22 -1.35,2 -0.69,3.07 -1.24,3.61A6.24,6.24 0,0 0,30.09 17.32Z" stroke="#003ab5" strokeLineCap="round" strokeLineJoin="round" stroke-width="1"/>
		<path fill="#00000000" d="M21.19,36.52L21.19,35.38a2.68,2.68 0,0 0,-2.09 -2.05L14.65,33.33v0A10.89,10.89 0,0 1,4 22.54,10.9 10.9,0 0,1 14.65,11.78v0h4.23a2.72,2.72 0,0 0,2.36 -2.33L21.24,0.68A22.24,22.24 0,0 0,1 22.55,22.23 22.23,0 0,0 21.19,44.46ZM29.19,33.33L28.09,33.33a2.72,2.72 0,0 0,-2.13 2v9.1A22.23,22.23 0,0 0,46.15 22.6,22.24 22.24,0 0,0 26,0.7L26,8.27a1.29,1.29 0,0 0,0 0.19v1a2.83,2.83 0,0 0,2.33 2.28h4.22v0A10.91,10.91 0,0 1,43.2 22.54,10.9 10.9,0 0,1 32.51,33.29v0Z" stroke="#003ab5" strokeLineCap="round" strokeLineJoin="round" stroke-width="1"/>
		<path fill="#00000000" d="M23.54,13.31L23.54,8.23" stroke="#003ab5" strokeLineCap="round" strokeLineJoin="round" stroke-width="0.75"/>
		<path fill="#003ab5" fill-rule="evenOdd" d="M21.31,8.23l2.23,-6.51l2.23,6.51l-4.46,0"/>
	</group>
</svg>
