<svg id="Layer_7" data-name="Layer 7" xmlns="http://www.w3.org/2000/svg" xmlns:xlink="http://www.w3.org/1999/xlink" viewBox="0 0 46.85 44.97"><defs><style>.cls-1,.cls-4,.cls-5{fill:none;}.cls-2{isolation:isolate;}.cls-3{clip-path:url(#clip-path);}.cls-4,.cls-5{stroke:#003ab5;stroke-linecap:round;stroke-linejoin:round;}.cls-4{stroke-width:1px;}.cls-5{stroke-width:0.75px;}.cls-6{fill:#003ab5;fill-rule:evenodd;}</style><clipPath id="clip-path"><rect class="cls-1" x="0.23" y="-2.79" width="46.62" height="47.75"/></clipPath></defs><g class="cls-2"><g class="cls-3"><path class="cls-4" d="M14.4,20.23a2.44,2.44,0,1,1-2.51,2.44A2.47,2.47,0,0,1,14.4,20.23Zm-2.17-2.91c-.63-.34-.58-1.54-2.57-2.73a.36.36,0,0,0-.38-.05A5.28,5.28,0,0,0,8,15.36l-.21.21a1.64,1.64,0,0,0-.2.26c-.12.12-.08.25,0,.38.73,2.27,2,2.46,2.1,3.22l.09-.07a5.85,5.85,0,0,0-.78,1.56h0c-.66.41-1.61-.46-3.87.4-.13.05-.25.1-.28.27a5.18,5.18,0,0,0-.11,1.51,2.6,2.6,0,0,0,0,.28c0,.13.08.31.09.33a.35.35,0,0,0,.29.26c2.16.75,3.12,0,3.78.24A5.9,5.9,0,0,0,9.72,26c-.09.75-1.38.94-2.11,3.21a.36.36,0,0,0,0,.38,2.92,2.92,0,0,0,.21.26l.21.21a5.73,5.73,0,0,0,1.3.82.38.38,0,0,0,.4-.06c2-1.21,1.92-2.44,2.59-2.73a6.47,6.47,0,0,0,1.84.42l-.08,0c.56.54-.12,1.64,1.23,3.62a.36.36,0,0,0,.33.21H16a1.47,1.47,0,0,0,.28,0,5,5,0,0,0,1.49-.46c.16-.06.18-.2.2-.33.32-2.29-.73-3-.53-3.7a6.14,6.14,0,0,0,1.67-1.28c.78-.09,1.24,1.11,3.67,1.34.14,0,.28,0,.38-.13a1.65,1.65,0,0,0,.22-.25,2.35,2.35,0,0,0,.17-.24,5.11,5.11,0,0,0,.55-1.41.33.33,0,0,0-.14-.36c-1.67-1.71-2.92-1.31-3.34-2l-.09.21a5.65,5.65,0,0,0,0-2.09l.06.1c.41-.66,1.65-.25,3.33-2a.34.34,0,0,0,.14-.36A5.52,5.52,0,0,0,23.54,18a2.35,2.35,0,0,0-.17-.24,2,2,0,0,0-.22-.24.36.36,0,0,0-.38-.13c-2.43.23-2.89,1.42-3.66,1.34a5.77,5.77,0,0,0-1.52-1.17c-.25-.72.85-1.42.52-3.76,0-.13,0-.26-.2-.32A5.38,5.38,0,0,0,16.42,13a1.5,1.5,0,0,0-.29,0h-.34c-.17,0-.25.11-.32.22-1.35,2-.69,3.07-1.24,3.61A6.24,6.24,0,0,0,12.23,17.32Z"/><path class="cls-4" d="M32.26,20.23a2.44,2.44,0,1,1-2.51,2.44A2.47,2.47,0,0,1,32.26,20.23Zm-2.17-2.91c-.63-.34-.58-1.54-2.56-2.73a.38.38,0,0,0-.39-.05,5,5,0,0,0-1.3.82,1.9,1.9,0,0,0-.22.21,1.64,1.64,0,0,0-.2.26c-.12.12-.08.25,0,.38.73,2.27,2,2.46,2.1,3.22l.08-.07a6.13,6.13,0,0,0-.77,1.56h0c-.66.41-1.61-.46-3.86.4-.14.05-.26.1-.29.27a5.18,5.18,0,0,0-.11,1.51,2.6,2.6,0,0,0,0,.28c0,.13.08.31.09.33A.35.35,0,0,0,23,24c2.16.75,3.12,0,3.78.24A5.67,5.67,0,0,0,27.58,26c-.09.75-1.38.94-2.11,3.21a.36.36,0,0,0,0,.38,2.92,2.92,0,0,0,.21.26l.21.21a5.73,5.73,0,0,0,1.3.82.38.38,0,0,0,.4-.06c2-1.21,1.92-2.44,2.59-2.73a6.46,6.46,0,0,0,1.85.42l-.09,0c.56.54-.12,1.64,1.24,3.62.07.1.15.22.32.21h.35a1.47,1.47,0,0,0,.28,0,5,5,0,0,0,1.49-.46c.16-.06.18-.2.2-.33.32-2.29-.73-3-.53-3.7A6,6,0,0,0,37,26.54c.78-.09,1.24,1.11,3.68,1.34a.35.35,0,0,0,.37-.13,2.21,2.21,0,0,0,.23-.25,1.94,1.94,0,0,0,.16-.24A5.45,5.45,0,0,0,42,25.85a.33.33,0,0,0-.14-.36c-1.67-1.71-2.92-1.31-3.33-2l-.11.21a5.65,5.65,0,0,0,0-2.09l0,.1c.41-.66,1.66-.25,3.33-2a.33.33,0,0,0,.14-.36A5.18,5.18,0,0,0,41.4,18a1.39,1.39,0,0,0-.17-.24,2,2,0,0,0-.22-.24c-.1-.15-.24-.14-.38-.13-2.43.23-2.89,1.42-3.66,1.34a5.77,5.77,0,0,0-1.52-1.17c-.25-.72.85-1.42.52-3.76,0-.13,0-.26-.2-.32A5.38,5.38,0,0,0,34.28,13,1.5,1.5,0,0,0,34,13h-.34c-.17,0-.25.11-.32.22-1.35,2-.69,3.07-1.24,3.61A6.24,6.24,0,0,0,30.09,17.32Z"/><path class="cls-4" d="M21.19,36.52V35.38a2.68,2.68,0,0,0-2.09-2.05H14.65v0A10.89,10.89,0,0,1,4,22.54,10.9,10.9,0,0,1,14.65,11.78v0h4.23a2.72,2.72,0,0,0,2.36-2.33V.68A22.24,22.24,0,0,0,1,22.55,22.23,22.23,0,0,0,21.19,44.46Zm8-3.19H28.09a2.72,2.72,0,0,0-2.13,2v9.1A22.23,22.23,0,0,0,46.15,22.6,22.24,22.24,0,0,0,26,.7V8.27a1.29,1.29,0,0,0,0,.19v1a2.83,2.83,0,0,0,2.33,2.28h4.22v0A10.91,10.91,0,0,1,43.2,22.54,10.9,10.9,0,0,1,32.51,33.29v0Z"/><line class="cls-5" x1="23.54" y1="13.31" x2="23.54" y2="8.23"/><polyline class="cls-6" points="21.31 8.23 23.54 1.72 25.77 8.23 21.31 8.23"/></g></g></svg>