<svg xmlns="http://www.w3.org/2000/svg" xmlns:android="http://schemas.android.com/apk/res/android" width="82.6dp" height="48dp" viewportWidth="82.6" viewportHeight="44.97">
	<group>
		<clip-path d="M-28.91,-4.02h141.45v69.96h-141.45z"/>
		<path d="M38.55,41.3a16.87,16.87 0,0 1,-2.73 -0.62,18.67 18.67,0 0,1 -13,-14.95h2.65A16,16 0,0 0,30 34.28a16.27,16.27 0,0 0,8.56 4.4L38.56,41.3ZM38.55,5.7L38.55,7.13a16.35,16.35 0,0 0,-8.61 4.45,16.09 16.09,0 0,0 -4.49,8.5L22.8,20.08A18.67,18.67 0,0 1,34.39 5.63L34.39,1.18L48,1.18L48,5.45A18.66,18.66 0,0 1,60 20.08L57.35,20.08a16,16 0,0 0,-4.45 -8.46,16.28 16.28,0 0,0 -8.65,-4.49L44.25,4.5a2.85,2.85 0,0 0,-5.7 0L38.55,5.7ZM35.11,20.08L22.8,20.08a2.83,2.83 0,0 0,0 5.65L37.68,25.73a4.59,4.59 0,0 1,-1 -2.82h0a4.59,4.59 0,0 1,1 -2.82L25.45,20.09a16.09,16.09 0,0 1,4.49 -8.5l6.56,6.5A6.91,6.91 0,0 0,35.11 20.08ZM41.41,44.08L27.55,44.08L27.55,40.68h8.27a16.87,16.87 0,0 0,2.73 0.62A2.83,2.83 0,0 0,41.41 44.07ZM38.55,16.68a7,7 0,0 0,-2 1.4l-6.56,-6.5a16.35,16.35 0,0 1,8.61 -4.45ZM36.55,27.79L30,34.28a16,16 0,0 1,-4.54 -8.55h9.66a6.75,6.75 0,0 0,1.45 2.06,6.9 6.9,0 0,0 2,1.34v9.55A16.27,16.27 0,0 1,30 34.28ZM45.73,22.88a4.33,4.33 0,1 1,-4.33 -4.26A4.29,4.29 0,0 1,45.74 22.88ZM38.54,19.23L38.54,4.5a2.85,2.85 0,0 1,5.7 0L44.24,19.23a4.68,4.68 0,0 0,-2.84 -1h0A4.73,4.73 0,0 0,38.55 19.23ZM44.24,41.3A17.23,17.23 0,0 0,47 40.68h7.94v3.39L41.41,44.07A2.83,2.83 0,0 0,44.25 41.3ZM44.24,41.3a2.85,2.85 0,0 1,-5.7 0L38.54,26.59a4.74,4.74 0,0 0,5.7 0L44.24,41.3ZM60,25.73a18.67,18.67 0,0 1,-13 15,17.23 17.23,0 0,1 -2.74,0.62L44.26,38.68a16.23,16.23 0,0 0,8.6 -4.44,16 16,0 0,0 4.5,-8.51L60,25.73ZM44.24,16.73L44.24,7.13a16.28,16.28 0,0 1,8.65 4.49l-6.56,6.5A7,7 0,0 0,44.25 16.68ZM60,20.08a2.83,2.83 0,0 1,0 5.65L45.12,25.73a4.6,4.6 0,0 0,0 -5.65L60,20.08ZM46.28,27.75l6.57,6.49a16.23,16.23 0,0 1,-8.6 4.44L44.25,29.13a6.79,6.79 0,0 0,3.44 -3.4h9.66a16,16 0,0 1,-4.5 8.51ZM47.69,20.08a6.93,6.93 0,0 0,-1.35 -2l6.56,-6.5a16,16 0,0 1,4.45 8.46Z" strokeLineJoin="round" stroke-width="1.47" fill="#00000000" stroke="#003ab5" strokeLineCap="round"/>
		<path d="M13.61,24.81l5.66,9.24l-9.49,-6.86l1.64,-1.14l-6.03,-4.38l2.09,-1.46l-6.68,-4.83l7.52,-4.18l3.65,6.47l-1.45,0.68l4.81,5.68l-1.72,0.78z" strokeLineJoin="round" stroke-width="0.98" fill="#00000000" stroke="#003ab5" strokeLineCap="round"/>
		<path d="M68.77,24.81l-5.66,9.24l9.49,-6.86l-1.64,-1.14l6.03,-4.38l-2.09,-1.46l6.69,-4.83l-7.52,-4.18l-3.66,6.47l1.46,0.68l-4.82,5.68l1.72,0.78z" strokeLineJoin="round" stroke-width="0.98" fill="#00000000" stroke="#003ab5" strokeLineCap="round"/>
	</group>
</svg>
