<svg xmlns="http://www.w3.org/2000/svg" height="48dp" viewportHeight="200" viewportWidth="200" width="48dp" xmlns:android="http://schemas.android.com/apk/res/android">
	<group>
		<clip-path d="M1.15,17.16h205.7v194.11h-205.7z"/>
		<path fill="#00000000" d="M129.21,90.28c5.9,2.06 14.15,1.28 22.48,-2.14a31.26,31.26 0,0 0,-11.78 -27.79c-1.08,9.38 -4.64,17.36 -9.61,21.57A9.11,9.11 0,0 1,129.21 90.28Z" stroke="#26499f" strokeLineCap="round" strokeLineJoin="round" stroke-width="4.52"/>
		<path fill="#00000000" d="M123.6,76.38a8.46,8.46 0,0 1,6.69 5.52c5,-4.2 8.52,-12.15 9.61,-21.53a28.31,28.31 0,0 0,-30.32 -2.86C117.13,63.05 122.3,70 123.6,76.38Z" stroke="#26499f" strokeLineCap="round" strokeLineJoin="round" stroke-width="4.52"/>
		<path fill="#00000000" d="M115.77,79.84a8.2,8.2 0,0 1,7.84 -3.47C122.3,70 117.12,63 109.55,57.5A30.7,30.7 0,0 0,93.29 82C101.62,78.56 109.86,77.78 115.77,79.84Z" stroke="#26499f" strokeLineCap="round" strokeLineJoin="round" stroke-width="4.52"/>
		<path fill="#00000000" d="M135.43,112.6a30.67,30.67 0,0 0,16.26 -24.46c-8.34,3.4 -16.58,4.2 -22.49,2.12a8.2,8.2 0,0 1,-7.84 3.45C122.66,100.08 127.84,107.06 135.43,112.6Z" stroke="#26499f" strokeLineCap="round" strokeLineJoin="round" stroke-width="4.52"/>
		<path fill="#00000000" d="M114.68,88.2a9.17,9.17 0,0 1,1.09 -8.36c-5.89,-2.07 -14.13,-1.3 -22.48,2.11a31.26,31.26 0,0 0,11.78 27.78C106.16,100.36 109.72,92.39 114.68,88.2Z" stroke="#26499f" strokeLineCap="round" strokeLineJoin="round" stroke-width="4.52"/>
		<path fill="#00000000" d="M114.67,88.17c-5,4.22 -8.5,12.2 -9.57,21.58a28.28,28.28 0,0 0,30.32 2.85c-7.58,-5.54 -12.77,-12.51 -14.06,-18.89A8.47,8.47 0,0 1,114.67 88.17Z" stroke="#26499f" strokeLineCap="round" strokeLineJoin="round" stroke-width="4.52"/>
		<path fill="#00000000" d="M118.68,85.05a3.8,3.8 0,1 1,3.8 3.8A3.8,3.8 0,0 1,118.68 85.05Z" stroke="#26499f" strokeLineCap="round" strokeLineJoin="round" stroke-width="4.52"/>
		<path fill="#00000000" d="M73,85.05a49.5,49.5 0,1 1,49.5 49.39A49.45,49.45 0,0 1,73 85.05Z" stroke="#26499f" strokeLineCap="round" strokeLineJoin="round" stroke-width="4.52"/>
		<path fill="#00000000" d="M139.21,121a4.06,4.06 0,1 1,4.06 4A4.05,4.05 0,0 1,139.21 121Z" stroke="#26499f" strokeLineCap="round" strokeLineJoin="round" stroke-width="4.52"/>
		<path fill="#00000000" d="M97.65,121a4.06,4.06 0,1 1,4.06 4A4.05,4.05 0,0 1,97.65 121Z" stroke="#26499f" strokeLineCap="round" strokeLineJoin="round" stroke-width="4.52"/>
		<path fill="#00000000" d="M139,49.15a4.06,4.06 0,1 1,4.05 4A4.05,4.05 0,0 1,139 49.15Z" stroke="#26499f" strokeLineCap="round" strokeLineJoin="round" stroke-width="4.52"/>
		<path fill="#00000000" d="M97.47,49.15a4.06,4.06 0,1 1,4 4A4.05,4.05 0,0 1,97.47 49.15Z" stroke="#26499f" strokeLineCap="round" strokeLineJoin="round" stroke-width="4.52"/>
		<path fill="#00000000" d="M159.81,85.05a4.06,4.06 0,1 1,4.05 4A4,4 0,0 1,159.81 85.05Z" stroke="#26499f" strokeLineCap="round" strokeLineJoin="round" stroke-width="4.52"/>
		<path fill="#00000000" d="M77.17,85.05a4,4 0,1 1,4 4A4,4 0,0 1,77.17 85.05Z" stroke="#26499f" strokeLineCap="round" strokeLineJoin="round" stroke-width="4.52"/>
		<path fill="#00000000" d="M171.99,118.86L171.99,142.43" stroke="#26499f" strokeLineCap="round" strokeLineJoin="round" stroke-width="4.52"/>
		<path fill="#26499f" fill-rule="evenOdd" d="M183.01,142.43l-11.01,33.07l-11.03,-33.07l22.04,0"/>
		<path fill="#00000000" d="M192.31,180.14h4v-8.68h-4v-0.07H187.4V85.05h-0.05A64.87,64.87 0,1 0,156 140.53v30.86h-4.19v0.07h-4.09v8.68Z" stroke="#26499f" strokeLineCap="round" strokeLineJoin="round" stroke-width="4.52"/>
		<path fill="#00000000" d="M57.58,99.08a14,14 0,0 1,0.14 -28A65.12,65.12 0,0 1,79.16 35.73c0,-0.54 -0.11,-1.09 -0.18,-1.7s-0.22,-1.48 -1.16,-1.88a29.68,29.68 0,0 0,-8.31 -2.65,9.37 9.37,0 0,0 -1.67,-0.18A10.58,10.58 0,0 0,66 29.4c-1,-0.08 -1.43,0.58 -1.87,1.19C56.57,42 60.29,48.3 57.22,51.45A33.69,33.69 0,0 0,46 54.23c-3.58,-1.92 -3.32,-8.86 -14.42,-15.68a2,2 0,0 0,-2.21 -0.33A29.82,29.82 0,0 0,22 43a12.7,12.7 0,0 0,-1.16 1.2,10.58 10.58,0 0,0 -1.15,1.51 2,2 0,0 0,-0.26 2.21C23.57,61 30.83,62 31.27,66.41l0.5,-0.4a33.79,33.79 0,0 0,-4.37 9v-0.08c-3.68,2.39 -9,-2.64 -21.71,2.29 -0.73,0.28 -1.42,0.57 -1.6,1.58a29.67,29.67 0,0 0,-0.61 8.68,10 10,0 0,0 0.25,1.65A11,11 0,0 0,4.24 91c0.18,1 0.9,1.26 1.63,1.51 12.14,4.33 17.48,0 21.21,1.41A33.33,33.33 0,0 0,31.82 104c-0.48,4.37 -7.74,5.45 -11.83,18.5a2,2 0,0 0,0.26 2.21,9.52 9.52,0 0,0 1.16,1.51 8.25,8.25 0,0 0,1.15 1.16,28.62 28.62,0 0,0 7.34,4.74 2,2 0,0 0,2.2 -0.29c11.27,-7 10.81,-14 14.6,-15.8A33.47,33.47 0,0 0,57 118.52l-0.46,0.11c3.15,3.11 -0.66,9.39 6.9,20.86a2.05,2.05 0,0 0,1.88 1.22,16.31 16.31,0 0,0 1.88,0.08 11.23,11.23 0,0 0,1.66 -0.19A29.43,29.43 0,0 0,77.2 138c0.94,-0.4 1,-1.17 1.17,-1.93 0.06,-0.54 0.13,-1.07 0.18,-1.61a65.1,65.1 0,0 1,-21 -35.35,14 14,0 0,1 0.14,-28A64.84,64.84 0,0 0,57.58 99.08Z" stroke="#26499f" strokeLineCap="round" strokeLineJoin="round" stroke-width="4.52"/>
	</group>
</svg>
