<svg id="Layer_2" data-name="Layer 2" xmlns="http://www.w3.org/2000/svg" xmlns:xlink="http://www.w3.org/1999/xlink" viewBox="0 0 79.66 44.97"><defs><style>.cls-1,.cls-4,.cls-5,.cls-7{fill:none;}.cls-2{isolation:isolate;}.cls-3{clip-path:url(#clip-path);}.cls-4,.cls-5,.cls-7{stroke:#003ab5;stroke-linecap:round;stroke-linejoin:round;}.cls-4{stroke-width:0.35px;}.cls-5{stroke-width:0.7px;}.cls-6{fill:#003ab5;}.cls-7{stroke-width:1.05px;}</style><clipPath id="clip-path"><rect class="cls-1" x="-103.4" y="-4.01" width="286.47" height="70.98"/></clipPath></defs><g class="cls-2"><g class="cls-3"><polygon class="cls-4" points="16.59 5.41 22.21 8.59 14.62 6.68 15.43 6.08 10.62 4.85 11.66 4.1 6.32 2.75 10.26 0.44 14 2.71 13.2 3.1 17.51 4.95 16.59 5.41"/><polygon class="cls-4" points="64.57 5.85 58.96 9.03 66.54 7.12 65.73 6.52 70.54 5.29 69.5 4.54 74.85 3.19 70.91 0.88 67.17 3.15 67.96 3.54 63.65 5.38 64.57 5.85"/><polygon class="cls-4" points="16.99 39.19 22.45 36.3 14.98 38 15.81 38.56 11.08 39.64 12.14 40.35 6.88 41.56 10.89 43.73 14.52 41.67 13.71 41.3 17.93 39.63 16.99 39.19"/><polygon class="cls-4" points="64.79 39.22 59.33 36.33 66.8 38.03 65.97 38.59 70.7 39.67 69.64 40.39 74.9 41.59 70.89 43.76 67.26 41.7 68.07 41.33 63.84 39.66 64.79 39.22"/><polygon class="cls-5" points="41.1 16.29 41.1 44.03 53.55 44.03 53.55 22.46 78.64 22.46 78.64 16.29 53.55 16.29 53.55 0.88 41.1 0.88 41.1 16.29"/><polygon class="cls-5" points="26.31 16.29 1.02 16.29 1.02 22.46 26.31 22.46 26.31 44.03 38.77 44.03 38.77 0.88 26.31 0.88 26.31 16.29"/><rect class="cls-6" x="26.63" y="0.98" width="11.79" height="5.96"/><rect class="cls-6" x="42.05" y="37.65" width="10.71" height="5.96"/><rect class="cls-7" x="42.05" y="37.65" width="10.71" height="5.96"/></g></g></svg>