<svg xmlns="http://www.w3.org/2000/svg" height="48dp" viewportHeight="44.97" viewportWidth="79.66" width="85.02735dp" xmlns:android="http://schemas.android.com/apk/res/android">
	<group>
		<clip-path d="M-103.4,-4.01h286.47v70.98h-286.47z"/>
		<path fill="#00000000" d="M16.59,5.41l5.62,3.18l-7.59,-1.91l0.81,-0.6l-4.81,-1.23l1.04,-0.75l-5.34,-1.35l3.94,-2.31l3.74,2.27l-0.8,0.39l4.31,1.85l-0.92,0.46z" stroke="#003ab5" strokeLineCap="round" strokeLineJoin="round" stroke-width="0.35"/>
		<path fill="#00000000" d="M64.57,5.85l-5.61,3.18l7.58,-1.91l-0.81,-0.6l4.81,-1.23l-1.04,-0.75l5.35,-1.35l-3.94,-2.31l-3.74,2.27l0.79,0.39l-4.31,1.84l0.92,0.47z" stroke="#003ab5" strokeLineCap="round" strokeLineJoin="round" stroke-width="0.35"/>
		<path fill="#00000000" d="M16.99,39.19l5.46,-2.89l-7.47,1.7l0.83,0.56l-4.73,1.08l1.06,0.71l-5.26,1.21l4.01,2.17l3.63,-2.06l-0.81,-0.37l4.22,-1.67l-0.94,-0.44z" stroke="#003ab5" strokeLineCap="round" strokeLineJoin="round" stroke-width="0.35"/>
		<path fill="#00000000" d="M64.79,39.22l-5.46,-2.89l7.47,1.7l-0.83,0.56l4.73,1.08l-1.06,0.72l5.26,1.2l-4.01,2.17l-3.63,-2.06l0.81,-0.37l-4.23,-1.67l0.95,-0.44z" stroke="#003ab5" strokeLineCap="round" strokeLineJoin="round" stroke-width="0.35"/>
		<path fill="#00000000" d="M41.1,16.29l0,27.74l12.45,0l0,-21.57l25.09,0l0,-6.17l-25.09,0l0,-15.41l-12.45,0l0,15.41z" stroke="#003ab5" strokeLineCap="round" strokeLineJoin="round" stroke-width="0.7"/>
		<path fill="#00000000" d="M26.31,16.29l-25.29,0l0,6.17l25.29,0l0,21.57l12.46,0l0,-43.15l-12.46,0l0,15.41z" stroke="#003ab5" strokeLineCap="round" strokeLineJoin="round" stroke-width="0.7"/>
		<path fill="#003ab5" d="M26.63,0.98h11.79v5.96h-11.79z"/>
		<path fill="#003ab5" d="M42.05,37.65h10.71v5.96h-10.71z"/>
		<path fill="#00000000" d="M42.05,37.65h10.71v5.96h-10.71z" stroke="#003ab5" strokeLineCap="round" strokeLineJoin="round" stroke-width="1.05"/>
	</group>
</svg>
