<svg id="Layer_8" data-name="Layer 8" xmlns="http://www.w3.org/2000/svg" xmlns:xlink="http://www.w3.org/1999/xlink" viewBox="0 0 64.64 44.97"><defs><style>.cls-1,.cls-4{fill:none;}.cls-2{isolation:isolate;}.cls-3{clip-path:url(#clip-path);}.cls-4{stroke:#003ab5;stroke-linecap:round;stroke-linejoin:round;stroke-width:1.22px;}</style><clipPath id="clip-path"><rect class="cls-1" x="-38.3" y="-4.26" width="141.02" height="70.51"/></clipPath></defs><g class="cls-2"><g class="cls-3"><path class="cls-4" d="M.79,44.22V27.28h63V44.22H.79m2.39-33.3c-.26-.74.91-1.45,3-1.85a20.14,20.14,0,0,1,6.84,0c2.1.4,3.27,1.11,3,1.85h.12v5.64h-13V10.92h0m1,16.36V16.56H15.1V27.28H4.21M26.88,5.48V27h-1V4.57A3.75,3.75,0,0,1,29.34.94v0H43v.92H30.82a3.81,3.81,0,0,0-3.94,3.66m2,4.3h-.09V27H61.09V9.83c.85-3.26-5.43-6.16-14.19-6.54V.9H43V3.28c-8.7.38-15,3.27-14.1,6.5H60.8"/></g></g></svg>