<svg id="Layer_5" data-name="Layer 5" xmlns="http://www.w3.org/2000/svg" xmlns:xlink="http://www.w3.org/1999/xlink" viewBox="0 0 45.83 44.97"><defs><style>.cls-1,.cls-4{fill:none;}.cls-2{isolation:isolate;}.cls-3{clip-path:url(#clip-path);}.cls-4{stroke:#003ab5;stroke-linecap:round;stroke-linejoin:round;stroke-width:1.23px;}</style><clipPath id="clip-path"><rect class="cls-1" x="-48.77" y="-4.47" width="142.85" height="70.6"/></clipPath></defs><g class="cls-2"><g class="cls-3"><path class="cls-4" d="M23.05,1A21.81,21.81,0,0,1,45,22.68,21.81,21.81,0,0,1,23.05,44.36,21.81,21.81,0,0,1,1.12,22.68,21.81,21.81,0,0,1,23.05,1Zm1.7,20c1.38-.9,2.44-3.28,2.56-5.28a21.45,21.45,0,0,0-.67-4.53,7.49,7.49,0,0,1,.53-4C28,5.39,29.53,4.39,32,5.54a19.85,19.85,0,0,1,5.87,4.81c1.76,2.13,1.94,3.62,1.67,5.15-.79,4.64-5.68,9.67-14.14,7.36a2.44,2.44,0,0,1-1.23,2,2.75,2.75,0,0,0,.44-.32C25.53,25.9,28,27,30,27.09a22.54,22.54,0,0,0,4.57-.66A7.7,7.7,0,0,1,38.7,27c1.75.79,2.77,2.33,1.59,4.82a19.68,19.68,0,0,1-4.85,5.79c-2.15,1.74-3.67,1.93-5.23,1.66-4.7-.79-9.8-5.64-7.41-14.06a2.5,2.5,0,0,1-1.7-.81c-1.39.87-2.47,3.28-2.59,5.3a20.68,20.68,0,0,0,.65,4.53,7.53,7.53,0,0,1-.52,4.06C17.83,40,16.29,41,13.77,39.82A19.88,19.88,0,0,1,7.89,35C6.15,32.9,6,31.4,6.23,29.86c.8-4.65,5.72-9.7,14.23-7.32a2.47,2.47,0,0,0,0,.61,2.45,2.45,0,0,1,.75-2.24c-.91-1.37-3.32-2.42-5.34-2.53a21.78,21.78,0,0,0-4.58.65,7.81,7.81,0,0,1-4.11-.52c-1.76-.79-2.78-2.33-1.6-4.82A19.87,19.87,0,0,1,10.48,7.9C12.62,6.16,14.14,6,15.7,6.24c4.69.79,9.78,5.63,7.42,14A2.54,2.54,0,0,1,24.75,21Zm-.11,1.69a1.68,1.68,0,1,1-2.56-1.55,1.69,1.69,0,0,1,2.56,1.55Z"/></g></g></svg>