<svg xmlns="http://www.w3.org/2000/svg" height="48dp" viewportHeight="44.97" viewportWidth="45.83" width="48.917946dp" xmlns:android="http://schemas.android.com/apk/res/android">
	<group>
		<clip-path d="M-48.77,-4.47h142.85v70.6h-142.85z"/>
		<path fill="#00000000" d="M23.05,1A21.81,21.81 0,0 1,45 22.68,21.81 21.81,0 0,1 23.05,44.36 21.81,21.81 0,0 1,1.12 22.68,21.81 21.81,0 0,1 23.05,1ZM24.75,21c1.38,-0.9 2.44,-3.28 2.56,-5.28a21.45,21.45 0,0 0,-0.67 -4.53,7.49 7.49,0 0,1 0.53,-4C28,5.39 29.53,4.39 32,5.54a19.85,19.85 0,0 1,5.87 4.81c1.76,2.13 1.94,3.62 1.67,5.15 -0.79,4.64 -5.68,9.67 -14.14,7.36a2.44,2.44 0,0 1,-1.23 2,2.75 2.75,0 0,0 0.44,-0.32C25.53,25.9 28,27 30,27.09a22.54,22.54 0,0 0,4.57 -0.66A7.7,7.7 0,0 1,38.7 27c1.75,0.79 2.77,2.33 1.59,4.82a19.68,19.68 0,0 1,-4.85 5.79c-2.15,1.74 -3.67,1.93 -5.23,1.66 -4.7,-0.79 -9.8,-5.64 -7.41,-14.06a2.5,2.5 0,0 1,-1.7 -0.81c-1.39,0.87 -2.47,3.28 -2.59,5.3a20.68,20.68 0,0 0,0.65 4.53,7.53 7.53,0 0,1 -0.52,4.06C17.83,40 16.29,41 13.77,39.82A19.88,19.88 0,0 1,7.89 35C6.15,32.9 6,31.4 6.23,29.86c0.8,-4.65 5.72,-9.7 14.23,-7.32a2.47,2.47 0,0 0,0 0.61,2.45 2.45,0 0,1 0.75,-2.24c-0.91,-1.37 -3.32,-2.42 -5.34,-2.53a21.78,21.78 0,0 0,-4.58 0.65,7.81 7.81,0 0,1 -4.11,-0.52c-1.76,-0.79 -2.78,-2.33 -1.6,-4.82A19.87,19.87 0,0 1,10.48 7.9C12.62,6.16 14.14,6 15.7,6.24c4.69,0.79 9.78,5.63 7.42,14A2.54,2.54 0,0 1,24.75 21ZM24.64,22.69a1.68,1.68 0,1 1,-2.56 -1.55,1.69 1.69,0 0,1 2.56,1.55Z" stroke="#003ab5" strokeLineCap="round" strokeLineJoin="round" stroke-width="1.23"/>
	</group>
</svg>
