<svg id="Layer_4" data-name="Layer 4" xmlns="http://www.w3.org/2000/svg" xmlns:xlink="http://www.w3.org/1999/xlink" viewBox="0 0 79.66 44.97"><defs><style>.cls-1,.cls-10,.cls-11,.cls-12,.cls-13,.cls-14,.cls-15,.cls-16,.cls-17,.cls-18,.cls-19,.cls-20,.cls-5,.cls-6,.cls-7,.cls-8,.cls-9{fill:none;}.cls-2{isolation:isolate;}.cls-3{clip-path:url(#clip-path);}.cls-4{fill:#003ab5;fill-rule:evenodd;}.cls-10,.cls-11,.cls-12,.cls-13,.cls-14,.cls-15,.cls-16,.cls-17,.cls-18,.cls-19,.cls-20,.cls-5,.cls-6,.cls-7,.cls-8,.cls-9{stroke:#003ab5;stroke-linecap:round;stroke-linejoin:round;}.cls-5{stroke-width:1.97px;}.cls-6{stroke-width:0.74px;}.cls-7{stroke-width:0.99px;}.cls-8{stroke-width:0.74px;}.cls-9{stroke-width:0.74px;}.cls-10{stroke-width:0.74px;}.cls-11{stroke-width:0.74px;}.cls-12{stroke-width:0.74px;}.cls-13{stroke-width:0.74px;}.cls-14{stroke-width:0.74px;}.cls-15{stroke-width:0.74px;}.cls-16{stroke-width:0.74px;}.cls-17{stroke-width:0.74px;}.cls-18{stroke-width:0.74px;}.cls-19{stroke-width:0.74px;}.cls-20{stroke-width:0.74px;}</style><clipPath id="clip-path"><rect class="cls-1" x="-30.89" y="-4.66" width="140.94" height="71.49"/></clipPath></defs><g class="cls-2"><g class="cls-3"><path class="cls-4" d="M38.41,27.09a3.41,3.41,0,0,1,.05-6.78c0-.13-.05-.27-.08-.41A3.31,3.31,0,0,1,34.3,18a3.42,3.42,0,0,1,1.51-4.32l-.24-.34a3.29,3.29,0,0,1-4.42,0,14.61,14.61,0,0,1,.31,20.37,14.1,14.1,0,0,1-20.07.42,14.59,14.59,0,0,1-.52-20.36,14.08,14.08,0,0,1,20.06-.63,3.44,3.44,0,0,1-.15-4.48l-.23-.15A3.3,3.3,0,0,1,26.38,10a3.42,3.42,0,0,1-2-4l-.2,0A3.33,3.33,0,0,1,17.62,6L17.5,6a3.41,3.41,0,0,1-1.9,4.16,3.31,3.31,0,0,1-4.24-1.56l-.28.18a3.45,3.45,0,0,1-.26,4.48,3.3,3.3,0,0,1-4.4.31l-.07.12A3.44,3.44,0,0,1,7.75,18a3.33,3.33,0,0,1-3.94,2c0,.06,0,.13,0,.2a3.41,3.41,0,0,1,.52,6.54,3.34,3.34,0,0,1,3.5,2.42,3.42,3.42,0,0,1-1.64,4l.19.27a3.3,3.3,0,0,1,4.44.33A3.45,3.45,0,0,1,11,38.23l.13.1a3.32,3.32,0,0,1,4.29-1.52A3.42,3.42,0,0,1,17.2,41l.25.05a3.33,3.33,0,0,1,6.65.13l.21,0a3.42,3.42,0,0,1,2-4,3.32,3.32,0,0,1,4.14,1.53l.28-.16a3.45,3.45,0,0,1,.34-4.5,3.3,3.3,0,0,1,4.43-.19l.13-.18a3.43,3.43,0,0,1-1.4-4.32,3.32,3.32,0,0,1,4.06-1.88Z"/><path class="cls-5" d="M38.41,27.09a3.41,3.41,0,0,1,.05-6.78c0-.13-.05-.27-.08-.41A3.31,3.31,0,0,1,34.3,18a3.42,3.42,0,0,1,1.51-4.32l-.24-.34a3.29,3.29,0,0,1-4.42,0,14.61,14.61,0,0,1,.31,20.37,14.1,14.1,0,0,1-20.07.42,14.59,14.59,0,0,1-.52-20.36,14.08,14.08,0,0,1,20.06-.63,3.44,3.44,0,0,1-.15-4.48l-.23-.15A3.3,3.3,0,0,1,26.38,10a3.42,3.42,0,0,1-2-4l-.2,0A3.33,3.33,0,0,1,17.62,6L17.5,6a3.41,3.41,0,0,1-1.9,4.16,3.31,3.31,0,0,1-4.24-1.56l-.28.18a3.45,3.45,0,0,1-.26,4.48,3.3,3.3,0,0,1-4.4.31l-.07.12A3.44,3.44,0,0,1,7.75,18a3.33,3.33,0,0,1-3.94,2c0,.06,0,.13,0,.2a3.41,3.41,0,0,1,.52,6.54,3.34,3.34,0,0,1,3.5,2.42,3.42,3.42,0,0,1-1.64,4l.19.27a3.3,3.3,0,0,1,4.44.33A3.45,3.45,0,0,1,11,38.23l.13.1a3.32,3.32,0,0,1,4.29-1.52A3.42,3.42,0,0,1,17.2,41l.25.05a3.33,3.33,0,0,1,6.65.13l.21,0a3.42,3.42,0,0,1,2-4,3.32,3.32,0,0,1,4.14,1.53l.28-.16a3.45,3.45,0,0,1,.34-4.5,3.3,3.3,0,0,1,4.43-.19l.13-.18a3.43,3.43,0,0,1-1.4-4.32,3.32,3.32,0,0,1,4.06-1.88Z"/><path class="cls-6" d="M24.29,19.84a4.93,4.93,0,0,0-7,.53,5.1,5.1,0,0,0,.48,7.11,4.93,4.93,0,0,0,7-.45,5.1,5.1,0,0,0-.41-7.12A.46.46,0,0,0,24.29,19.84Z"/><path class="cls-4" d="M74.6,26.82a2.58,2.58,0,0,1-1.7-3,2.51,2.51,0,0,1,2.78-2c0-.11,0-.22,0-.32A2.52,2.52,0,0,1,73,19.46a2.56,2.56,0,0,1,1.8-2.95l-.12-.3a2.49,2.49,0,0,1-3.25-.72,11,11,0,0,1-3.26,15,10.63,10.63,0,0,1-14.78-3.23,11,11,0,0,1,3.1-15A10.63,10.63,0,0,1,71.26,15.3,2.6,2.6,0,0,1,71.84,12l-.15-.15a2.49,2.49,0,0,1-3.3.47A2.59,2.59,0,0,1,67.52,9L67.37,9a2.52,2.52,0,0,1-2.81,1.52,2.56,2.56,0,0,1-2-2.51h-.08a2.57,2.57,0,0,1-2.05,2.75,2.51,2.51,0,0,1-2.88-1.82L57.29,9a2.6,2.6,0,0,1-.88,3.28,2.49,2.49,0,0,1-3.3-.48l-.07.07a2.6,2.6,0,0,1,.36,3.34,2.48,2.48,0,0,1-3.19.85l-.06.14a2.57,2.57,0,0,1-.63,4.91,2.52,2.52,0,0,1,2.2,2.34,2.56,2.56,0,0,1-1.82,2.66l.09.23a2.5,2.5,0,0,1,3.23.95,2.59,2.59,0,0,1-.57,3.36l.09.09a2.5,2.5,0,0,1,3.4-.43,2.58,2.58,0,0,1,.68,3.41l.17.07a2.52,2.52,0,0,1,3-1.74A2.56,2.56,0,0,1,61.88,35H62a2.54,2.54,0,0,1,2.11-2.62A2.5,2.5,0,0,1,67,34.14l.23-.08a2.59,2.59,0,0,1,.94-3.28,2.48,2.48,0,0,1,3.3.58l.12-.1a2.6,2.6,0,0,1-.4-3.44,2.5,2.5,0,0,1,3.32-.72Z"/><path class="cls-7" d="M74.6,26.82a2.58,2.58,0,0,1-1.7-3,2.51,2.51,0,0,1,2.78-2c0-.11,0-.22,0-.32A2.52,2.52,0,0,1,73,19.46a2.56,2.56,0,0,1,1.8-2.95l-.12-.3a2.49,2.49,0,0,1-3.25-.72,11,11,0,0,1-3.26,15,10.63,10.63,0,0,1-14.78-3.23,11,11,0,0,1,3.1-15A10.63,10.63,0,0,1,71.26,15.3,2.6,2.6,0,0,1,71.84,12l-.15-.15a2.5,2.5,0,0,1-3.3.47A2.59,2.59,0,0,1,67.52,9L67.37,9a2.52,2.52,0,0,1-2.81,1.52,2.56,2.56,0,0,1-2-2.51h-.08a2.57,2.57,0,0,1-2.05,2.75,2.51,2.51,0,0,1-2.88-1.82L57.29,9a2.6,2.6,0,0,1-.88,3.28,2.49,2.49,0,0,1-3.3-.48l-.07.07a2.6,2.6,0,0,1,.36,3.34,2.48,2.48,0,0,1-3.19.85l-.06.14a2.57,2.57,0,0,1-.63,4.91,2.52,2.52,0,0,1,2.2,2.34,2.56,2.56,0,0,1-1.82,2.66l.09.23a2.5,2.5,0,0,1,3.23.95,2.59,2.59,0,0,1-.57,3.36l.09.09a2.5,2.5,0,0,1,3.4-.43,2.58,2.58,0,0,1,.68,3.41l.17.07a2.52,2.52,0,0,1,3-1.74A2.56,2.56,0,0,1,61.88,35H62a2.54,2.54,0,0,1,2.11-2.62A2.5,2.5,0,0,1,67,34.14l.23-.08a2.59,2.59,0,0,1,.94-3.28,2.48,2.48,0,0,1,3.3.58l.12-.1a2.6,2.6,0,0,1-.4-3.44,2.5,2.5,0,0,1,3.32-.72Z"/><path class="cls-7" d="M65.32,19.23a3.74,3.74,0,0,0-5.08-1.55,3.84,3.84,0,0,0-1.55,5.14,3.73,3.73,0,0,0,5.06,1.6,3.83,3.83,0,0,0,1.6-5.12l0-.07Z"/><path class="cls-8" d="M14.16,3.9l5.76-1.56a2.7,2.7,0,0,1,3.31,1.93,2.74,2.74,0,0,1-1.91,3.35L15.56,9.19a2.69,2.69,0,0,1-3.3-1.93A2.74,2.74,0,0,1,14.16,3.9Z"/><path class="cls-8" d="M15.89,6.27a1.13,1.13,0,0,1-.73,1.39,1.12,1.12,0,0,1-1.33-.84,1.13,1.13,0,0,1,.74-1.39A1.1,1.1,0,0,1,15.89,6.27Z"/><path class="cls-8" d="M21.72,4.68A1.12,1.12,0,0,1,21,6.07a1.09,1.09,0,0,1-1.32-.83,1.12,1.12,0,0,1,.73-1.39A1.1,1.1,0,0,1,21.72,4.68Z"/><path class="cls-9" d="M2.2,14.16l3.34-5a2.66,2.66,0,0,1,3.74-.73A2.75,2.75,0,0,1,10,12.2l-3.34,5A2.68,2.68,0,0,1,2.93,18,2.76,2.76,0,0,1,2.2,14.16Z"/><path class="cls-9" d="M5,14.8a1.12,1.12,0,0,1,.35,1.53,1.1,1.1,0,0,1-1.54.26,1.13,1.13,0,0,1-.34-1.54A1.07,1.07,0,0,1,5,14.8Z"/><path class="cls-9" d="M8.4,9.72a1.13,1.13,0,0,1,.35,1.54,1.08,1.08,0,0,1-1.53.25A1.13,1.13,0,0,1,6.87,10,1.09,1.09,0,0,1,8.4,9.72Z"/><path class="cls-6" d="M50.58,34.76l5.87-1a2.69,2.69,0,0,1,3.12,2.22,2.73,2.73,0,0,1-2.19,3.17l-5.87,1a2.74,2.74,0,0,1-.93-5.39Z"/><path class="cls-6" d="M52.09,37.34a1.07,1.07,0,1,1-2.1.37,1.13,1.13,0,0,1,.86-1.32A1.1,1.1,0,0,1,52.09,37.34Z"/><path class="cls-6" d="M58.24,36.27a1.11,1.11,0,0,1-.85,1.32,1.09,1.09,0,0,1-1.24-.94A1.11,1.11,0,0,1,57,35.33,1.09,1.09,0,0,1,58.24,36.27Z"/><path class="cls-10" d="M21.3,39l5.95-.42a2.74,2.74,0,0,1,.37,5.46l-5.94.42A2.74,2.74,0,0,1,21.3,39Z"/><path class="cls-10" d="M22.55,41.68a1.12,1.12,0,0,1-1,1.22,1.16,1.16,0,1,1,1-1.22Z"/><path class="cls-10" d="M28.57,41.25a1.07,1.07,0,1,1-1.14-1.07A1.12,1.12,0,0,1,28.57,41.25Z"/><path class="cls-11" d="M36.39,37.26l5.87-1a2.71,2.71,0,0,1,3.13,2.22A2.74,2.74,0,0,1,43.2,41.6l-5.87,1a2.7,2.7,0,0,1-3.13-2.22A2.73,2.73,0,0,1,36.39,37.26Z"/><path class="cls-11" d="M37.9,39.77a1.07,1.07,0,1,1-2.09.38,1.12,1.12,0,0,1,.85-1.33A1.1,1.1,0,0,1,37.9,39.77Z"/><path class="cls-11" d="M43.85,38.71a1.07,1.07,0,1,1-1.25-1A1.11,1.11,0,0,1,43.85,38.71Z"/><path class="cls-10" d="M39,6.36l5.94.42a2.72,2.72,0,0,0,2.88-2.54,2.71,2.71,0,0,0-2.5-2.92l-6-.43A2.74,2.74,0,0,0,39,6.36Z"/><path class="cls-10" d="M40.31,3.79a1.12,1.12,0,0,0-1-1.22,1.09,1.09,0,0,0-1.14,1.07,1.12,1.12,0,0,0,1,1.23A1.11,1.11,0,0,0,40.31,3.79Z"/><path class="cls-10" d="M46.33,4.22a1.13,1.13,0,0,0-1-1.23,1.11,1.11,0,0,0-1.14,1.08,1.1,1.1,0,0,0,1,1.22A1.12,1.12,0,0,0,46.33,4.22Z"/><path class="cls-11" d="M51.4,7.37l5.87,1A2.74,2.74,0,0,0,58.21,3L52.34,2A2.7,2.7,0,0,0,49.21,4.2,2.75,2.75,0,0,0,51.4,7.37Z"/><path class="cls-11" d="M52.92,4.86a1.07,1.07,0,1,0-2.1-.38,1.13,1.13,0,0,0,.85,1.33A1.11,1.11,0,0,0,52.92,4.86Z"/><path class="cls-11" d="M58.86,5.92a1.07,1.07,0,1,0-2.1-.37,1.13,1.13,0,0,0,.86,1.32A1.11,1.11,0,0,0,58.86,5.92Z"/><path class="cls-12" d="M26.73.53l6,.22a2.74,2.74,0,0,1-.2,5.47l-6-.22a2.73,2.73,0,0,1-2.6-2.84A2.71,2.71,0,0,1,26.73.53Z"/><path class="cls-12" d="M27.7,3.3a1.1,1.1,0,0,1-1.11,1.11,1.11,1.11,0,0,1-1-1.19,1.07,1.07,0,1,1,2.13.08Z"/><path class="cls-12" d="M33.73,3.53a1.11,1.11,0,0,1-1.11,1.11,1.13,1.13,0,0,1-1-1.19,1.12,1.12,0,0,1,1.11-1.12A1.13,1.13,0,0,1,33.73,3.53Z"/><path class="cls-11" d="M1.56,30.39l-1-6a2.74,2.74,0,0,1,2.19-3.17,2.7,2.7,0,0,1,3.12,2.22l1,6a2.74,2.74,0,0,1-2.19,3.17A2.71,2.71,0,0,1,1.56,30.39Z"/><path class="cls-11" d="M4,28.85A1.08,1.08,0,1,1,4.4,31a1.11,1.11,0,0,1-1.3-.86A1.12,1.12,0,0,1,4,28.85Z"/><path class="cls-11" d="M3,22.83a1.09,1.09,0,0,1,1.3.86A1.12,1.12,0,0,1,3.36,25,1.08,1.08,0,1,1,3,22.83Z"/><path class="cls-13" d="M12.12,42.42,7.24,39a2.77,2.77,0,0,1-.67-3.81,2.67,2.67,0,0,1,3.76-.67l4.88,3.47a2.77,2.77,0,0,1,.67,3.81A2.67,2.67,0,0,1,12.12,42.42Z"/><path class="cls-13" d="M12.79,39.56a1.1,1.1,0,0,1,1.53-.32,1.13,1.13,0,0,1,.22,1.56,1.09,1.09,0,0,1-1.53.32A1.13,1.13,0,0,1,12.79,39.56Z"/><path class="cls-13" d="M7.85,36.05a1.08,1.08,0,0,1,1.52-.32,1.12,1.12,0,0,1,.23,1.56,1.1,1.1,0,0,1-1.53.32A1.13,1.13,0,0,1,7.85,36.05Z"/><path class="cls-11" d="M63.47,32.69l5.61-2.06a2.68,2.68,0,0,1,3.45,1.64,2.75,2.75,0,0,1-1.61,3.51l-5.61,2a2.69,2.69,0,0,1-3.46-1.64A2.74,2.74,0,0,1,63.47,32.69Z"/><path class="cls-11" d="M65.4,35a1.12,1.12,0,0,1-.61,1.45,1.1,1.1,0,0,1-1.39-.72A1.12,1.12,0,0,1,64,34.25,1.1,1.1,0,0,1,65.4,35Z"/><path class="cls-11" d="M71.28,32.83a1.13,1.13,0,0,1-.62,1.45,1.09,1.09,0,0,1-1.39-.71,1.12,1.12,0,0,1,.62-1.45A1.1,1.1,0,0,1,71.28,32.83Z"/><path class="cls-8" d="M79.2,18.7l-.53,6a2.7,2.7,0,1,1-5.37-.49l.53-6a2.7,2.7,0,1,1,5.37.48Z"/><path class="cls-8" d="M76.35,19.52a1.09,1.09,0,1,1,1.23-1A1.11,1.11,0,0,1,76.35,19.52Z"/><path class="cls-8" d="M75.77,25.82a1.12,1.12,0,0,1-1-1.18,1.14,1.14,0,1,1,1,1.18Z"/><path class="cls-13" d="M65.77,5.17l5.4,2.56a2.76,2.76,0,0,1,1.3,3.64,2.68,2.68,0,0,1-3.59,1.32l-5.39-2.57a2.76,2.76,0,0,1-1.3-3.64A2.66,2.66,0,0,1,65.77,5.17Z"/><path class="cls-13" d="M65.55,8.16a1.1,1.1,0,0,1-1.45.59,1.13,1.13,0,0,1-.48-1.5,1.09,1.09,0,0,1,1.45-.59A1.12,1.12,0,0,1,65.55,8.16Z"/><path class="cls-13" d="M71.19,10.87a1.1,1.1,0,0,1-1.45.58,1.13,1.13,0,0,1-.48-1.5,1.1,1.1,0,0,1,1.45-.59A1.13,1.13,0,0,1,71.19,10.87Z"/><line class="cls-6" x1="6.26" y1="8.41" x2="13.1" y2="4.47"/><line class="cls-10" x1="20.39" y1="2.25" x2="25.83" y2="0.65"/><line class="cls-6" x1="33.23" y1="0.83" x2="38.08" y2="0.83"/><line class="cls-13" x1="33.14" y1="6.16" x2="38.38" y2="6.25"/><line class="cls-14" x1="45.83" y1="6.67" x2="51.29" y2="7.34"/><line class="cls-15" x1="45.38" y1="1.33" x2="52.13" y2="1.95"/><line class="cls-16" x1="57.52" y1="8.92" x2="62.81" y2="9.14"/><line class="cls-17" x1="58.69" y1="3.16" x2="64.7" y2="4.67"/><line class="cls-12" x1="71.78" y1="8.13" x2="78.84" y2="17.08"/><line class="cls-15" x1="78.57" y1="25.28" x2="72.28" y2="34.65"/><line class="cls-6" x1="64.44" y1="38" x2="57.97" y2="38.94"/><line class="cls-18" x1="51.11" y1="40.19" x2="44.19" y2="41.21"/><line class="cls-19" x1="49.55" y1="35.17" x2="43.01" y2="36.19"/><line class="cls-16" x1="28.53" y1="43.83" x2="37.28" y2="42.66"/><line class="cls-17" x1="35.52" y1="37.58" x2="28.22" y2="38.71"/><line class="cls-19" x1="21.46" y1="44.49" x2="12.78" y2="42.76"/><line class="cls-6" x1="6.59" y1="38.31" x2="2.02" y2="31.49"/><line class="cls-20" x1="0.5" y1="23.69" x2="1.83" y2="14.98"/></g></g></svg>