<svg xmlns="http://www.w3.org/2000/svg" height="48dp" viewportHeight="44.97" viewportWidth="45.83" width="48.917946dp" xmlns:android="http://schemas.android.com/apk/res/android">
	<group>
		<clip-path d="M-48.51,-3.96h142.72v70.79h-142.72z"/>
		<path fill="#003ab5" fill-rule="evenOdd" d="M12.43,19.79l0.44,-0.75l-8.67,-4.97l-0.43,0.76l8.66,4.96z"/>
		<path fill="#00000000" d="M12.43,19.79l0.44,-0.75l-8.67,-4.97l-0.43,0.76l8.66,4.96z" stroke="#003ab5" strokeLineCap="round" strokeLineJoin="round" stroke-width="0.25"/>
		<path fill="#00000000" d="M22.79,1.75h0.87v9.88h-0.87z" stroke="#003ab5" strokeLineCap="round" strokeLineJoin="round" stroke-width="0.25"/>
		<path fill="#003ab5" fill-rule="evenOdd" d="M33.59,19.04l0.44,0.75l8.64,-4.96l-0.43,-0.74l-8.65,4.95z"/>
		<path fill="#00000000" d="M33.59,19.04l0.44,0.75l8.64,-4.96l-0.43,-0.74l-8.65,4.95z" stroke="#003ab5" strokeLineCap="round" strokeLineJoin="round" stroke-width="0.25"/>
		<path fill="#003ab5" fill-rule="evenOdd" d="M5.08,19.43a4.26,4.26 0,0 0,-0.37 -0.77l-0.14,-0.2a2.09,2.09 0,0 0,-0.29 -0.3,0.88 0.88,0 0,0 -0.61,-0.24 1,1 0,0 0,-0.59 0.27,2.46 2.46,0 0,0 -0.3,0.33c0,0.37 -0.08,0.74 -0.11,1.11A25.54,25.54 0,0 0,4 30.42a1.23,1.23 0,0 0,0.41 -0.3L4.51,30l0,-0.05 0,0 0.08,-0.1 0.16,-0.27 0,-0.05A4.43,4.43 0,0 0,5.08 29c-0.08,-0.33 -0.14,-0.67 -0.21,-1A21.42,21.42 0,0 1,5.08 19.43Z"/>
		<path fill="#00000000" d="M5.08,19.43a4.26,4.26 0,0 0,-0.37 -0.77l-0.14,-0.2a2.09,2.09 0,0 0,-0.29 -0.3,0.88 0.88,0 0,0 -0.61,-0.24 1,1 0,0 0,-0.59 0.27,2.46 2.46,0 0,0 -0.3,0.33c0,0.37 -0.08,0.74 -0.11,1.11A25.54,25.54 0,0 0,4 30.42a1.23,1.23 0,0 0,0.41 -0.3L4.51,30l0,-0.05 0,0 0.08,-0.1 0.16,-0.27 0,-0.05A4.43,4.43 0,0 0,5.08 29c-0.08,-0.33 -0.14,-0.67 -0.21,-1A21.42,21.42 0,0 1,5.08 19.43Z" stroke="#003ab5" strokeLineCap="round" strokeLineJoin="round" stroke-width="0.25"/>
		<path fill="#003ab5" d="M6.2164,34.7248l8.5866,-4.9275l0.433,0.7546l-8.5866,4.9275z"/>
		<path fill="#00000000" d="M6.2164,34.7248l8.5866,-4.9275l0.433,0.7546l-8.5866,4.9275z" stroke="#003ab5" strokeLineCap="round" strokeLineJoin="round" stroke-width="0.25"/>
		<path fill="#003ab5" d="M22.79,33.38h0.87v9.88h-0.87z"/>
		<path fill="#00000000" d="M22.79,33.38h0.87v9.88h-0.87z" stroke="#003ab5" strokeLineCap="round" strokeLineJoin="round" stroke-width="0.25"/>
		<path fill="#003ab5" fill-rule="evenOdd" d="M43.6,18.52c-0.76,-1.05 -1.66,-0.7 -2.3,0.91a21.34,21.34 0,0 1,0 9.54,2.41 2.41,0 0,0 1.1,1.45A25.84,25.84 0,0 0,43.6 18.52Z"/>
		<path fill="#00000000" d="M43.6,18.52c-0.76,-1.05 -1.66,-0.7 -2.3,0.91a21.34,21.34 0,0 1,0 9.54,2.41 2.41,0 0,0 1.1,1.45A25.84,25.84 0,0 0,43.6 18.52Z" stroke="#003ab5" strokeLineCap="round" strokeLineJoin="round" stroke-width="0.25"/>
		<path fill="#003ab5" fill-rule="evenOdd" d="M25.22,28.9a4,4 0,1 0,-4 -6.84,3.94 3.94,0 0,0 -0.09,7A4.05,4.05 0,0 0,25.22 28.9Z"/>
		<path fill="#00000000" d="M25.22,28.9a4,4 0,1 0,-4 -6.84,3.94 3.94,0 0,0 -0.09,7A4.05,4.05 0,0 0,25.22 28.9Z" stroke="#003ab5" strokeLineCap="round" strokeLineJoin="round" stroke-width="0.25"/>
		<path fill="#003ab5" fill-rule="evenOdd" d="M12.43,19.79l0.44,-0.75l-8.67,-4.97l-0.43,0.76l8.66,4.96z"/>
		<path fill="#00000000" d="M12.43,19.79l0.44,-0.75l-8.67,-4.97l-0.43,0.76l8.66,4.96z" stroke="#003ab5" strokeLineCap="round" strokeLineJoin="round" stroke-width="0.25"/>
		<path fill="#003ab5" d="M22.79,1.75h0.87v9.88h-0.87z"/>
		<path fill="#00000000" d="M22.79,1.75h0.87v9.88h-0.87z" stroke="#003ab5" strokeLineCap="round" strokeLineJoin="round" stroke-width="0.25"/>
		<path fill="#003ab5" fill-rule="evenOdd" d="M33.59,19.04l0.44,0.75l8.64,-4.96l-0.43,-0.74l-8.65,4.95z"/>
		<path fill="#00000000" d="M33.59,19.04l0.44,0.75l8.64,-4.96l-0.43,-0.74l-8.65,4.95z" stroke="#003ab5" strokeLineCap="round" strokeLineJoin="round" stroke-width="0.25"/>
		<path fill="#003ab5" fill-rule="evenOdd" d="M5.08,19.43a4.26,4.26 0,0 0,-0.37 -0.77l-0.14,-0.2a2.09,2.09 0,0 0,-0.29 -0.3,0.88 0.88,0 0,0 -0.61,-0.24 1,1 0,0 0,-0.59 0.27,2.46 2.46,0 0,0 -0.3,0.33c0,0.37 -0.08,0.74 -0.11,1.11A25.54,25.54 0,0 0,4 30.42a1.23,1.23 0,0 0,0.41 -0.3L4.51,30l0,-0.05 0,0 0.08,-0.1 0.16,-0.27 0,-0.05A4.43,4.43 0,0 0,5.08 29c-0.08,-0.33 -0.14,-0.67 -0.21,-1A21.42,21.42 0,0 1,5.08 19.43Z"/>
		<path fill="#00000000" d="M5.08,19.43a4.26,4.26 0,0 0,-0.37 -0.77l-0.14,-0.2a2.09,2.09 0,0 0,-0.29 -0.3,0.88 0.88,0 0,0 -0.61,-0.24 1,1 0,0 0,-0.59 0.27,2.46 2.46,0 0,0 -0.3,0.33c0,0.37 -0.08,0.74 -0.11,1.11A25.54,25.54 0,0 0,4 30.42a1.23,1.23 0,0 0,0.41 -0.3L4.51,30l0,-0.05 0,0 0.08,-0.1 0.16,-0.27 0,-0.05A4.43,4.43 0,0 0,5.08 29c-0.08,-0.33 -0.14,-0.67 -0.21,-1A21.42,21.42 0,0 1,5.08 19.43Z" stroke="#003ab5" strokeLineCap="round" strokeLineJoin="round" stroke-width="0.25"/>
		<path fill="#003ab5" d="M6.2164,34.7248l8.5866,-4.9275l0.433,0.7546l-8.5866,4.9275z"/>
		<path fill="#00000000" d="M6.2164,34.7248l8.5866,-4.9275l0.433,0.7546l-8.5866,4.9275z" stroke="#003ab5" strokeLineCap="round" strokeLineJoin="round" stroke-width="0.25"/>
		<path fill="#003ab5" d="M22.79,33.38h0.87v9.88h-0.87z"/>
		<path fill="#00000000" d="M22.79,33.38h0.87v9.88h-0.87z" stroke="#003ab5" strokeLineCap="round" strokeLineJoin="round" stroke-width="0.25"/>
		<path fill="#00000000" d="M12.43,19.79l0.44,-0.75l-8.67,-4.97l-0.43,0.76l8.66,4.96z" stroke="#003ab5" strokeLineCap="round" strokeLineJoin="round" stroke-width="0.25"/>
		<path fill="#00000000" d="M22.79,1.75h0.87v9.88h-0.87z" stroke="#003ab5" strokeLineCap="round" strokeLineJoin="round" stroke-width="0.25"/>
		<path fill="#00000000" d="M33.59,19.04l0.44,0.75l8.64,-4.96l-0.43,-0.74l-8.65,4.95z" stroke="#003ab5" strokeLineCap="round" strokeLineJoin="round" stroke-width="0.25"/>
		<path fill="#00000000" d="M5.08,19.43a4.26,4.26 0,0 0,-0.37 -0.77l-0.14,-0.2a2.09,2.09 0,0 0,-0.29 -0.3,0.88 0.88,0 0,0 -0.61,-0.24 1,1 0,0 0,-0.59 0.27,2.46 2.46,0 0,0 -0.3,0.33c0,0.37 -0.08,0.74 -0.11,1.11A25.54,25.54 0,0 0,4 30.42a1.23,1.23 0,0 0,0.41 -0.3L4.51,30l0,-0.05 0,0 0.08,-0.1 0.16,-0.27 0,-0.05A4.43,4.43 0,0 0,5.08 29c-0.08,-0.33 -0.14,-0.67 -0.21,-1A21.42,21.42 0,0 1,5.08 19.43Z" stroke="#003ab5" strokeLineCap="round" strokeLineJoin="round" stroke-width="0.25"/>
		<path fill="#00000000" d="M6.2164,34.7248l8.5866,-4.9275l0.433,0.7546l-8.5866,4.9275z" stroke="#003ab5" strokeLineCap="round" strokeLineJoin="round" stroke-width="0.25"/>
		<path fill="#00000000" d="M22.79,33.38h0.87v9.88h-0.87z" stroke="#003ab5" strokeLineCap="round" strokeLineJoin="round" stroke-width="0.25"/>
		<path fill="#00000000" d="M43.64,18.43c-0.64,-0.89 -1.4,-0.6 -1.94,0.75a17.8,17.8 0,0 1,0 8,2.08 2.08,0 0,0 0.92,1.21A21.72,21.72 0,0 0,43.64 18.43Z" stroke="#003ab5" strokeLineCap="round" strokeLineJoin="round" stroke-width="0.25"/>
		<path fill="#00000000" d="M24.51,42.89a17.63,17.63 0,0 0,13.28 -7.6L28.62,30l1.29,-2.21 9.16,5.24a17.33,17.33 0,0 0,0 -15.2l-9.16,5.24 -1.29,-2.2 9.17,-5.25a17.63,17.63 0,0 0,-13.28 -7.6V18.55H21.94V8.06a17.63,17.63 0,0 0,-13.27 7.6l9.16,5.25 -1.29,2.2L7.38,17.87a17.33,17.33 0,0 0,0 15.2l9.16,-5.24L17.83,30 8.67,35.29a17.63,17.63 0,0 0,13.27 7.6V32.39h2.57Z" stroke="#003ab5" strokeLineCap="round" strokeLineJoin="round" stroke-width="0.25"/>
		<path fill="#00000000" d="M12.43,19.79l0.44,-0.75l-8.67,-4.97l-0.43,0.76l8.66,4.96z" stroke="#003ab5" strokeLineCap="round" strokeLineJoin="round" stroke-width="0.25"/>
		<path fill="#00000000" d="M22.79,1.75h0.87v9.88h-0.87z" stroke="#003ab5" strokeLineCap="round" strokeLineJoin="round" stroke-width="0.25"/>
		<path fill="#00000000" d="M33.59,19.04l0.44,0.75l8.64,-4.96l-0.43,-0.74l-8.65,4.95z" stroke="#003ab5" strokeLineCap="round" strokeLineJoin="round" stroke-width="0.25"/>
		<path fill="#00000000" d="M5.08,19.43a4.26,4.26 0,0 0,-0.37 -0.77l-0.14,-0.2a2.09,2.09 0,0 0,-0.29 -0.3,0.88 0.88,0 0,0 -0.61,-0.24 1,1 0,0 0,-0.59 0.27,2.46 2.46,0 0,0 -0.3,0.33c0,0.37 -0.08,0.74 -0.11,1.11A25.54,25.54 0,0 0,4 30.42a1.23,1.23 0,0 0,0.41 -0.3L4.51,30l0,-0.05 0,0 0.08,-0.1 0.16,-0.27 0,-0.05A4.43,4.43 0,0 0,5.08 29c-0.08,-0.33 -0.14,-0.67 -0.21,-1A21.42,21.42 0,0 1,5.08 19.43Z" stroke="#003ab5" strokeLineCap="round" strokeLineJoin="round" stroke-width="0.25"/>
		<path fill="#00000000" d="M6.2164,34.7248l8.5866,-4.9275l0.433,0.7546l-8.5866,4.9275z" stroke="#003ab5" strokeLineCap="round" strokeLineJoin="round" stroke-width="0.25"/>
		<path fill="#00000000" d="M22.79,33.38h0.87v9.88h-0.87z" stroke="#003ab5" strokeLineCap="round" strokeLineJoin="round" stroke-width="0.25"/>
		<path fill="#003ab5" fill-rule="evenOdd" d="M31.47,29.69l-0.43,0.76l8.59,4.92l0.44,-0.75l-8.6,-4.93z"/>
		<path fill="#00000000" d="M31.47,29.69l-0.43,0.76l8.59,4.92l0.44,-0.75l-8.6,-4.93z" stroke="#003ab5" strokeLineCap="round" strokeLineJoin="round" stroke-width="0.25"/>
		<path fill="#00000000" d="M24.51,42.89a17.63,17.63 0,0 0,13.28 -7.6L28.62,30l1.29,-2.21 9.16,5.24a17.33,17.33 0,0 0,0 -15.2l-9.16,5.24 -1.29,-2.2 9.17,-5.25a17.63,17.63 0,0 0,-13.28 -7.6V18.55H21.94V8.06a17.63,17.63 0,0 0,-13.27 7.6l9.16,5.25 -1.29,2.2L7.38,17.87a17.33,17.33 0,0 0,0 15.2l9.16,-5.24L17.83,30 8.67,35.29a17.63,17.63 0,0 0,13.27 7.6V32.39h2.57Z" stroke="#003ab5" strokeLineCap="round" strokeLineJoin="round" stroke-width="0.25"/>
		<path fill="#00000000" d="M12.43,19.79l0.44,-0.75l-8.67,-4.97l-0.43,0.76l8.66,4.96z" stroke="#003ab5" strokeLineCap="round" strokeLineJoin="round" stroke-width="0.25"/>
		<path fill="#00000000" d="M22.79,1.75h0.87v9.88h-0.87z" stroke="#003ab5" strokeLineCap="round" strokeLineJoin="round" stroke-width="0.25"/>
		<path fill="#00000000" d="M33.59,19.04l0.44,0.75l8.64,-4.96l-0.43,-0.74l-8.65,4.95z" stroke="#003ab5" strokeLineCap="round" strokeLineJoin="round" stroke-width="0.25"/>
		<path fill="#00000000" d="M5.08,19.43a4.26,4.26 0,0 0,-0.37 -0.77l-0.14,-0.2a2.09,2.09 0,0 0,-0.29 -0.3,0.88 0.88,0 0,0 -0.61,-0.24 1,1 0,0 0,-0.59 0.27,2.46 2.46,0 0,0 -0.3,0.33c0,0.37 -0.08,0.74 -0.11,1.11A25.54,25.54 0,0 0,4 30.42a1.23,1.23 0,0 0,0.41 -0.3L4.51,30l0,-0.05 0,0 0.08,-0.1 0.16,-0.27 0,-0.05A4.43,4.43 0,0 0,5.08 29c-0.08,-0.33 -0.14,-0.67 -0.21,-1A21.42,21.42 0,0 1,5.08 19.43Z" stroke="#003ab5" strokeLineCap="round" strokeLineJoin="round" stroke-width="0.25"/>
		<path fill="#00000000" d="M6.2164,34.7248l8.5866,-4.9275l0.433,0.7546l-8.5866,4.9275z" stroke="#003ab5" strokeLineCap="round" strokeLineJoin="round" stroke-width="0.25"/>
		<path fill="#00000000" d="M22.79,33.38h0.87v9.88h-0.87z" stroke="#003ab5" strokeLineCap="round" strokeLineJoin="round" stroke-width="0.25"/>
		<path fill="#00000000" d="M31.47,29.69l-0.43,0.76l8.59,4.92l0.44,-0.75l-8.6,-4.93z" stroke="#003ab5" strokeLineCap="round" strokeLineJoin="round" stroke-width="0.25"/>
		<path fill="#00000000" d="M43.6,18.52c-0.76,-1.05 -1.66,-0.7 -2.3,0.91a21.34,21.34 0,0 1,0 9.54,2.41 2.41,0 0,0 1.1,1.45A25.84,25.84 0,0 0,43.6 18.52Z" stroke="#003ab5" strokeLineCap="round" strokeLineJoin="round" stroke-width="0.25"/>
		<path fill="#00000000" d="M24.51,42.89a17.63,17.63 0,0 0,13.28 -7.6L28.62,30l1.29,-2.21 9.16,5.24a17.33,17.33 0,0 0,0 -15.2l-9.16,5.24 -1.29,-2.2 9.17,-5.25a17.63,17.63 0,0 0,-13.28 -7.6V18.55H21.94V8.06a17.63,17.63 0,0 0,-13.27 7.6l9.16,5.25 -1.29,2.2L7.38,17.87a17.33,17.33 0,0 0,0 15.2l9.16,-5.24L17.83,30 8.67,35.29a17.63,17.63 0,0 0,13.27 7.6V32.39h2.57Z" stroke="#003ab5" strokeLineCap="round" strokeLineJoin="round" stroke-width="0.74"/>
		<path fill="#00000000" d="M24.51,42.89L24.51,32.39L21.94,32.39v10.5A17.64,17.64 0,0 1,8.67 35.28L17.82,30l-1.27,-2.21L7.39,33.08a17.29,17.29 0,0 1,0 -15.21l9.16,5.25 1.27,-2.21L8.67,15.67a17.63,17.63 0,0 1,13.27 -7.6L21.94,18.56h2.57L24.51,8.07a17.63,17.63 0,0 1,13.28 7.6l-9.16,5.24 1.28,2.21 9.16,-5.25a17.35,17.35 0,0 1,0 15.21l-9.16,-5.25L28.63,30l9.16,5.24A17.64,17.64 0,0 1,24.51 42.89ZM43.61,18.53a25.73,25.73 0,0 1,-1.22 11.88A2.38,2.38 0,0 1,41.3 29a21.43,21.43 0,0 0,0 -9.56C41.94,17.81 42.84,17.46 43.61,18.53ZM31.47,29.7l8.6,4.92 -0.44,0.75L31,30.44ZM23.66,33.38v9.88h-0.87L22.79,33.38ZM15.23,30.55L6.64,35.48l-0.44,-0.76 8.59,-4.92ZM5.09,19.42A21.34,21.34 0,0 0,4.87 28c0.07,0.34 0.14,0.68 0.22,1a5,5 0,0 1,-0.25 0.52l0,0.06a1.53,1.53 0,0 1,-0.16 0.25,0.44 0.44,0 0,1 -0.08,0.11l0,0 0,0.05 -0.1,0.12a1.14,1.14 0,0 1,-0.42 0.28A25.65,25.65 0,0 1,2.66 19.63c0,-0.37 0.07,-0.74 0.12,-1.1a2.07,2.07 0,0 1,0.3 -0.34,1 1,0 0,1 0.58,-0.27 0.92,0.92 0,0 1,0.62 0.23,2.2 2.2,0 0,1 0.29,0.31 1.74,1.74 0,0 1,0.13 0.2A4.47,4.47 0,0 1,5.09 19.42ZM33.6,19l8.64,-5 0.43,0.76L34,19.79ZM22.79,11.63L22.79,1.74h0.87v9.89ZM12.42,19.79l-8.65,-5 0.44,-0.75 8.65,5ZM45.15,22.51A21.72,21.72 0,0 0,34.22 3.58a22.08,22.08 0,0 0,-22 0,21.86 21.86,0 0,0 0,37.86 22.08,22.08 0,0 0,22 0A21.72,21.72 0,0 0,45.15 22.51Z" stroke="#003ab5" strokeLineCap="round" strokeLineJoin="round" stroke-width="0.49"/>
		<path fill="#00000000" d="M12.43,19.79l0.44,-0.75l-8.67,-4.97l-0.43,0.76l8.66,4.96z" stroke="#003ab5" strokeLineCap="round" strokeLineJoin="round" stroke-width="0.25"/>
		<path fill="#00000000" d="M22.79,1.75h0.87v9.88h-0.87z" stroke="#003ab5" strokeLineCap="round" strokeLineJoin="round" stroke-width="0.25"/>
		<path fill="#00000000" d="M33.59,19.04l0.44,0.75l8.64,-4.96l-0.43,-0.74l-8.65,4.95z" stroke="#003ab5" strokeLineCap="round" strokeLineJoin="round" stroke-width="0.25"/>
		<path fill="#00000000" d="M5.08,19.43a4.26,4.26 0,0 0,-0.37 -0.77l-0.14,-0.2a2.09,2.09 0,0 0,-0.29 -0.3,0.88 0.88,0 0,0 -0.61,-0.24 1,1 0,0 0,-0.59 0.27,2.46 2.46,0 0,0 -0.3,0.33c0,0.37 -0.08,0.74 -0.11,1.11A25.54,25.54 0,0 0,4 30.42a1.23,1.23 0,0 0,0.41 -0.3L4.51,30l0,-0.05 0,0 0.08,-0.1 0.16,-0.27 0,-0.05A4.43,4.43 0,0 0,5.08 29c-0.08,-0.33 -0.14,-0.67 -0.21,-1A21.42,21.42 0,0 1,5.08 19.43Z" stroke="#003ab5" strokeLineCap="round" strokeLineJoin="round" stroke-width="0.25"/>
		<path fill="#00000000" d="M6.2164,34.7248l8.5866,-4.9275l0.433,0.7546l-8.5866,4.9275z" stroke="#003ab5" strokeLineCap="round" strokeLineJoin="round" stroke-width="0.25"/>
		<path fill="#00000000" d="M22.79,33.38h0.87v9.88h-0.87z" stroke="#003ab5" strokeLineCap="round" strokeLineJoin="round" stroke-width="0.25"/>
		<path fill="#00000000" d="M31.47,29.69l-0.43,0.76l8.59,4.92l0.44,-0.75l-8.6,-4.93z" stroke="#003ab5" strokeLineCap="round" strokeLineJoin="round" stroke-width="0.25"/>
		<path fill="#00000000" d="M43.6,18.52c-0.76,-1.05 -1.66,-0.7 -2.3,0.91a21.34,21.34 0,0 1,0 9.54,2.41 2.41,0 0,0 1.1,1.45A25.84,25.84 0,0 0,43.6 18.52Z" stroke="#003ab5" strokeLineCap="round" strokeLineJoin="round" stroke-width="0.25"/>
		<path fill="#00000000" d="M24.51,42.89a17.63,17.63 0,0 0,13.28 -7.6L28.62,30l1.29,-2.21 9.16,5.24a17.33,17.33 0,0 0,0 -15.2l-9.16,5.24 -1.29,-2.2 9.17,-5.25a17.63,17.63 0,0 0,-13.28 -7.6V18.55H21.94V8.06a17.63,17.63 0,0 0,-13.27 7.6l9.16,5.25 -1.29,2.2L7.38,17.87a17.33,17.33 0,0 0,0 15.2l9.16,-5.24L17.83,30 8.67,35.29a17.63,17.63 0,0 0,13.27 7.6V32.39h2.57Z" stroke="#003ab5" strokeLineCap="round" strokeLineJoin="round" stroke-width="0.25"/>
	</group>
</svg>
