<svg id="Layer_4" data-name="Layer 4" xmlns="http://www.w3.org/2000/svg" xmlns:xlink="http://www.w3.org/1999/xlink" viewBox="0 0 71.11 44.97"><defs><style>.cls-1,.cls-11,.cls-5,.cls-6,.cls-7,.cls-9{fill:none;}.cls-2{isolation:isolate;}.cls-3{clip-path:url(#clip-path);}.cls-4,.cls-8{fill:#003ab5;}.cls-12,.cls-4{fill-rule:evenodd;}.cls-11,.cls-5,.cls-9{stroke:#003ab5;}.cls-11,.cls-5,.cls-6,.cls-7,.cls-9{stroke-linecap:round;stroke-linejoin:round;}.cls-5{stroke-width:0.73px;}.cls-6,.cls-7{stroke:#fff;}.cls-6,.cls-9{stroke-width:0.73px;}.cls-7{stroke-width:0.24px;}.cls-10,.cls-12{fill:#fff;}.cls-11{stroke-width:0.73px;}</style><clipPath id="clip-path"><rect class="cls-1" x="-34.6" y="-3.68" width="140.43" height="70.21"/></clipPath></defs><g class="cls-2"><g class="cls-3"><path class="cls-4" d="M40.17,22a4,4,0,1,1-1.44-5.44A4,4,0,0,1,40.17,22Z"/><path class="cls-5" d="M40.17,22a4,4,0,1,1-1.44-5.44A4,4,0,0,1,40.17,22Z"/><path class="cls-4" d="M49.61,15.93a3.28,3.28,0,0,1,2.76,3.51A3.3,3.3,0,0,1,49.61,23v2.35h9.87V13.58H49.61Z"/><path class="cls-6" d="M49.61,15.93a3.28,3.28,0,0,1,2.76,3.51A3.3,3.3,0,0,1,49.61,23v2.35h9.87V13.58H49.61Z"/><line class="cls-7" x1="57.76" y1="13.58" x2="57.76" y2="25.31"/><rect class="cls-8" x="31.9" y="14.35" width="2.74" height="7.63" transform="translate(0.9 37.89) rotate(-59.99)"/><rect class="cls-5" x="31.9" y="14.35" width="2.74" height="7.63" transform="translate(0.9 37.89) rotate(-59.99)"/><path class="cls-9" d="M19.49,12.64a20,20,0,0,1,.77-2V10.2H.91V29H20.26v-.46a18.88,18.88,0,0,1-.77-2H2V12.64Z"/><path class="cls-9" d="M53.25,26.39c-.21.67-.44,1.34-.7,2v.46H70.23V10.05H52.55v.46c.26.64.49,1.31.7,2H69.19V26.39Z"/><rect class="cls-10" x="6.73" y="16.64" width="21.59" height="1.35" transform="translate(-1.98 2.26) rotate(-7)"/><rect class="cls-9" x="6.73" y="16.64" width="21.59" height="1.35" transform="translate(-1.98 2.26) rotate(-7)"/><rect class="cls-10" x="40.34" y="5.66" width="1.35" height="23.53" transform="matrix(0.13, -0.99, 0.99, 0.13, 18.39, 55.82)"/><rect class="cls-11" x="40.34" y="5.66" width="1.35" height="23.53" transform="translate(18.39 55.82) rotate(-82.5)"/><path class="cls-9" d="M48.46,33.45a18.64,18.64,0,0,0,5-20.39,18.18,18.18,0,0,0-34.16,0,18.64,18.64,0,0,0,5,20.39V44.22H48.46V33.45m0,0h0"/><path class="cls-12" d="M30.65,16.63a1.29,1.29,0,1,1-.46-1.77A1.29,1.29,0,0,1,30.65,16.63Z"/><path class="cls-5" d="M30.65,16.63a1.29,1.29,0,1,1-.46-1.77A1.29,1.29,0,0,1,30.65,16.63Z"/><path class="cls-4" d="M12.59,22.8a3.28,3.28,0,0,1-2.75-3.51,3.29,3.29,0,0,1,2.75-3.52V13.42H2.72V25.16h9.87Z"/><path class="cls-6" d="M12.59,22.8a3.28,3.28,0,0,1-2.75-3.51,3.29,3.29,0,0,1,2.75-3.52V13.42H2.72V25.16h9.87Z"/><path class="cls-12" d="M37.92,20a1.3,1.3,0,1,1-1.3-1.3A1.31,1.31,0,0,1,37.92,20Z"/><path class="cls-6" d="M37.92,20a1.3,1.3,0,1,1-1.3-1.3A1.31,1.31,0,0,1,37.92,20Z"/><path class="cls-6" d="M8,19.15a.72.72,0,1,1-1.43,0,.72.72,0,1,1,1.43,0Z"/><line class="cls-7" x1="4.44" y1="25.16" x2="4.44" y2="13.42"/><path class="cls-6" d="M54.21,19.59a.72.72,0,1,1,.71.76A.74.74,0,0,1,54.21,19.59Z"/></g></g></svg>