<svg xmlns="http://www.w3.org/2000/svg" height="48dp" viewportHeight="44.97" viewportWidth="71.11" width="75.90127dp" xmlns:android="http://schemas.android.com/apk/res/android">
	<group>
		<clip-path d="M-34.6,-3.68h140.43v70.21h-140.43z"/>
		<path fill="#003ab5" fill-rule="evenOdd" d="M40.17,22a4,4 0,1 1,-1.44 -5.44A4,4 0,0 1,40.17 22Z"/>
		<path fill="#00000000" d="M40.17,22a4,4 0,1 1,-1.44 -5.44A4,4 0,0 1,40.17 22Z" stroke="#003ab5" strokeLineCap="round" strokeLineJoin="round" stroke-width="0.73"/>
		<path fill="#003ab5" fill-rule="evenOdd" d="M49.61,15.93a3.28,3.28 0,0 1,2.76 3.51A3.3,3.3 0,0 1,49.61 23v2.35h9.87V13.58H49.61Z"/>
		<path fill="#00000000" d="M49.61,15.93a3.28,3.28 0,0 1,2.76 3.51A3.3,3.3 0,0 1,49.61 23v2.35h9.87V13.58H49.61Z" stroke="#fff" strokeLineCap="round" strokeLineJoin="round" stroke-width="0.73"/>
		<path fill="#00000000" d="M57.76,13.58L57.76,25.31" stroke="#fff" strokeLineCap="round" strokeLineJoin="round" stroke-width="0.24"/>
		<path fill="#003ab5" d="M29.281,17.4437l1.3704,-2.3727l6.6071,3.8162l-1.3704,2.3727z"/>
		<path fill="#00000000" d="M29.281,17.4437l1.3704,-2.3727l6.6071,3.8162l-1.3704,2.3727z" stroke="#003ab5" strokeLineCap="round" strokeLineJoin="round" stroke-width="0.73"/>
		<path fill="#00000000" d="M19.49,12.64a20,20 0,0 1,0.77 -2V10.2H0.91V29H20.26v-0.46a18.88,18.88 0,0 1,-0.77 -2H2V12.64Z" stroke="#003ab5" strokeLineCap="round" strokeLineJoin="round" stroke-width="0.73"/>
		<path fill="#00000000" d="M53.25,26.39c-0.21,0.67 -0.44,1.34 -0.7,2v0.46H70.23V10.05H52.55v0.46c0.26,0.64 0.49,1.31 0.7,2H69.19V26.39Z" stroke="#003ab5" strokeLineCap="round" strokeLineJoin="round" stroke-width="0.73"/>
		<path fill="#fff" d="M6.7277,17.9558l21.4291,-2.6312l0.1645,1.3399l-21.4291,2.6312z"/>
		<path fill="#00000000" d="M6.7277,17.9558l21.4291,-2.6312l0.1645,1.3399l-21.4291,2.6312z" stroke="#003ab5" strokeLineCap="round" strokeLineJoin="round" stroke-width="0.73"/>
		<path fill="#fff" d="M29.2376,16.6192l0.1755,-1.3365l23.2947,3.0589l-0.1755,1.3365z"/>
		<path fill="#00000000" d="M29.267,16.5639l0.1762,-1.3385l23.3287,3.0713l-0.1762,1.3385z" stroke="#003ab5" strokeLineCap="round" strokeLineJoin="round" stroke-width="0.73"/>
		<path fill="#00000000" d="M48.46,33.45a18.64,18.64 0,0 0,5 -20.39,18.18 18.18,0 0,0 -34.16,0 18.64,18.64 0,0 0,5 20.39V44.22H48.46V33.45m0,0h0" stroke="#003ab5" strokeLineCap="round" strokeLineJoin="round" stroke-width="0.73"/>
		<path fill="#fff" fill-rule="evenOdd" d="M30.65,16.63a1.29,1.29 0,1 1,-0.46 -1.77A1.29,1.29 0,0 1,30.65 16.63Z"/>
		<path fill="#00000000" d="M30.65,16.63a1.29,1.29 0,1 1,-0.46 -1.77A1.29,1.29 0,0 1,30.65 16.63Z" stroke="#003ab5" strokeLineCap="round" strokeLineJoin="round" stroke-width="0.73"/>
		<path fill="#003ab5" fill-rule="evenOdd" d="M12.59,22.8a3.28,3.28 0,0 1,-2.75 -3.51,3.29 3.29,0 0,1 2.75,-3.52V13.42H2.72V25.16h9.87Z"/>
		<path fill="#00000000" d="M12.59,22.8a3.28,3.28 0,0 1,-2.75 -3.51,3.29 3.29,0 0,1 2.75,-3.52V13.42H2.72V25.16h9.87Z" stroke="#fff" strokeLineCap="round" strokeLineJoin="round" stroke-width="0.73"/>
		<path fill="#fff" fill-rule="evenOdd" d="M37.92,20a1.3,1.3 0,1 1,-1.3 -1.3A1.31,1.31 0,0 1,37.92 20Z"/>
		<path fill="#00000000" d="M37.92,20a1.3,1.3 0,1 1,-1.3 -1.3A1.31,1.31 0,0 1,37.92 20Z" stroke="#fff" strokeLineCap="round" strokeLineJoin="round" stroke-width="0.73"/>
		<path fill="#00000000" d="M8,19.15a0.72,0.72 0,1 1,-1.43 0,0.72 0.72,0 1,1 1.43,0Z" stroke="#fff" strokeLineCap="round" strokeLineJoin="round" stroke-width="0.73"/>
		<path fill="#00000000" d="M4.44,25.16L4.44,13.42" stroke="#fff" strokeLineCap="round" strokeLineJoin="round" stroke-width="0.24"/>
		<path fill="#00000000" d="M54.21,19.59a0.72,0.72 0,1 1,0.71 0.76A0.74,0.74 0,0 1,54.21 19.59Z" stroke="#fff" strokeLineCap="round" strokeLineJoin="round" stroke-width="0.73"/>
	</group>
</svg>
