<svg xmlns="http://www.w3.org/2000/svg" height="48dp" viewportHeight="44.97" viewportWidth="121.79" width="129.996dp" xmlns:android="http://schemas.android.com/apk/res/android">
	<group>
		<clip-path d="M-10.21,-4.28h142.47v71.23h-142.47z"/>
		<path fill="#00000000" d="M8.21,0.75h109.39v43.75h-109.39z" stroke="#003ab5" strokeLineCap="round" strokeLineJoin="round" stroke-width="0.74"/>
		<path fillAlpha="0.62" fill="#003ab5" fill-rule="evenOdd" d="M67.12,27.52H48.66c1.09,8.76 4.89,14.88 9.23,14.88S66,36.28 67.12,27.52Z" strokeAlpha="0.62"/>
		<path fillAlpha="0.5" fill="#00000000" d="M67.12,27.52H48.66c1.09,8.76 4.89,14.88 9.23,14.88S66,36.28 67.12,27.52Z" strokeAlpha="0.5" stroke="#003ab5" strokeLineCap="round" strokeLineJoin="round" stroke-width="0.74"/>
		<path fillAlpha="0.62" fill="#003ab5" fill-rule="evenOdd" d="M88.45,27.52H71.87c1,8.76 4.39,14.88 8.29,14.88S87.48,36.28 88.45,27.52Z" strokeAlpha="0.62"/>
		<path fillAlpha="0.5" fill="#00000000" d="M88.45,27.52H71.87c1,8.76 4.39,14.88 8.29,14.88S87.48,36.28 88.45,27.52Z" strokeAlpha="0.5" stroke="#003ab5" strokeLineCap="round" strokeLineJoin="round" stroke-width="0.74"/>
		<path fill="#00000000" d="M71.6,27.24c-1,-2.65 -1.82,-5.41 -2.57,-8.21 0.75,2.81 1.38,5.62 1.87,8.4Z" stroke="#003ab5" strokeLineCap="round" strokeLineJoin="round" stroke-width="0.74"/>
		<path fillAlpha="0.62" fill="#003ab5" fill-rule="evenOdd" d="M110.29,27.52H93.7c1,8.76 4.39,14.88 8.29,14.88S109.31,36.28 110.29,27.52Z" strokeAlpha="0.62"/>
		<path fillAlpha="0.5" fill="#00000000" d="M110.29,27.52H93.7c1,8.76 4.39,14.88 8.29,14.88S109.31,36.28 110.29,27.52Z" strokeAlpha="0.5" stroke="#003ab5" strokeLineCap="round" strokeLineJoin="round" stroke-width="0.74"/>
		<path fill="#00000000" d="M94.18,27.24c-1,-2.65 -1.82,-5.41 -2.57,-8.2 0.76,2.8 1.38,5.61 1.87,8.39Z" stroke="#003ab5" strokeLineCap="round" strokeLineJoin="round" stroke-width="0.74"/>
		<path fill-rule="evenOdd" d="M40.57,17.61H0.92v9.91H120.17a13.27,13.27 0,0 0,0 -9.91Z"/>
		<path fill="#00000000" d="M40.57,17.61H0.92v9.91H120.17a13.27,13.27 0,0 0,0 -9.91Z" stroke="#003ab5" strokeLineCap="round" strokeLineJoin="round" stroke-width="0.74"/>
		<path fillAlpha="0.62" fill="#003ab5" fill-rule="evenOdd" d="M42.67,7.62c-1.47,-3.15 -3.35,-4.89 -5.3,-4.89C30,2.72 23.94,9.39 23.94,17.6H45.17A32.49,32.49 0,0 0,42.67 7.62Z" strokeAlpha="0.62"/>
		<path fillAlpha="0.5" fill="#00000000" d="M42.67,7.62c-1.47,-3.15 -3.35,-4.89 -5.3,-4.89C30,2.72 23.94,9.39 23.94,17.6H45.17A32.49,32.49 0,0 0,42.67 7.62Z" strokeAlpha="0.5" stroke="#003ab5" strokeLineCap="round" strokeLineJoin="round" stroke-width="0.74"/>
		<path fillAlpha="0.62" fill="#003ab5" fill-rule="evenOdd" d="M64.69,7.82c-2.07,-3.28 -4.76,-5.09 -7.55,-5.09C52.21,1.82 45.42,4 42,7.62a25.29,25.29 0,0 1,3.51 10H68.07A25.36,25.36 0,0 0,64.69 7.82Z" strokeAlpha="0.62"/>
		<path fillAlpha="0.5" fill="#00000000" d="M64.69,7.82c-2.07,-3.28 -4.76,-5.09 -7.55,-5.09C52.21,1.82 45.42,4 42,7.62a25.29,25.29 0,0 1,3.51 10H68.07A25.36,25.36 0,0 0,64.69 7.82Z" strokeAlpha="0.5" stroke="#003ab5" strokeLineCap="round" strokeLineJoin="round" stroke-width="0.74"/>
		<path fillAlpha="0.62" fill="#003ab5" fill-rule="evenOdd" d="M87.62,8.38a26.22,26.22 0,0 1,3 9.22h22.58C112,8.84 107.46,2.73 102.31,2.73 97.19,2 90.61,4.52 87.62,8.38Z" strokeAlpha="0.62"/>
		<path fillAlpha="0.5" fill="#00000000" d="M87.62,8.38a26.22,26.22 0,0 1,3 9.22h22.58C112,8.84 107.46,2.73 102.31,2.73 97.19,2 90.61,4.52 87.62,8.38Z" strokeAlpha="0.5" stroke="#003ab5" strokeLineCap="round" strokeLineJoin="round" stroke-width="0.74"/>
		<path fillAlpha="0.62" fill="#003ab5" fill-rule="evenOdd" d="M87.59,8.27c-2.11,-3.63 -4.94,-5.66 -7.89,-5.66C74.94,2 68.22,4.32 64.67,7.7a25.35,25.35 0,0 1,3.38 9.79H90.63A26.22,26.22 0,0 0,87.59 8.27Z" strokeAlpha="0.62"/>
		<path fillAlpha="0.5" fill="#00000000" d="M87.59,8.27c-2.11,-3.63 -4.94,-5.66 -7.89,-5.66C74.94,2 68.22,4.32 64.67,7.7a25.35,25.35 0,0 1,3.38 9.79H90.63A26.22,26.22 0,0 0,87.59 8.27Z" strokeAlpha="0.5" stroke="#003ab5" strokeLineCap="round" strokeLineJoin="round" stroke-width="0.74"/>
		<path fill="#00000000" d="M49,27.24c-1,-2.65 -1.82,-5.41 -2.57,-8.2 0.75,2.8 1.38,5.61 1.87,8.39Z" stroke="#003ab5" strokeLineCap="round" strokeLineJoin="round" stroke-width="0.74"/>
		<path fill="#00000000" d="M115.64,26.28c-1,-2.65 -1.82,-5.41 -2.57,-8.2 0.75,2.79 1.38,5.61 1.87,8.38Z" stroke="#003ab5" strokeLineCap="round" strokeLineJoin="round" stroke-width="0.74"/>
	</group>
</svg>
