<svg id="Layer_6" data-name="Layer 6" xmlns="http://www.w3.org/2000/svg" xmlns:xlink="http://www.w3.org/1999/xlink" viewBox="0 0 61.74 44.37"><defs><style>.cls-1,.cls-10,.cls-11,.cls-12,.cls-13,.cls-14,.cls-15,.cls-16,.cls-17,.cls-18,.cls-19,.cls-20,.cls-21,.cls-22,.cls-23,.cls-24,.cls-25,.cls-26,.cls-29,.cls-30,.cls-31,.cls-32,.cls-4,.cls-5,.cls-6,.cls-7,.cls-8,.cls-9{fill:none;}.cls-2{isolation:isolate;}.cls-3{clip-path:url(#clip-path);}.cls-10,.cls-11,.cls-12,.cls-13,.cls-14,.cls-15,.cls-16,.cls-17,.cls-18,.cls-19,.cls-20,.cls-21,.cls-22,.cls-23,.cls-24,.cls-25,.cls-26,.cls-4,.cls-5,.cls-6,.cls-7,.cls-8,.cls-9{stroke:#003ab5;}.cls-10,.cls-11,.cls-12,.cls-13,.cls-14,.cls-15,.cls-16,.cls-17,.cls-18,.cls-19,.cls-20,.cls-21,.cls-22,.cls-23,.cls-24,.cls-25,.cls-26,.cls-29,.cls-30,.cls-31,.cls-32,.cls-4,.cls-5,.cls-6,.cls-7,.cls-8,.cls-9{stroke-linecap:round;stroke-linejoin:round;}.cls-29,.cls-4{stroke-width:0.44px;}.cls-30,.cls-5{stroke-width:0.44px;}.cls-31,.cls-6{stroke-width:0.44px;}.cls-7{stroke-width:0.44px;}.cls-8{stroke-width:0.44px;}.cls-9{stroke-width:0.44px;}.cls-10,.cls-32{stroke-width:0.44px;}.cls-11{stroke-width:0.44px;}.cls-12{stroke-width:0.44px;}.cls-13{stroke-width:0.44px;}.cls-14{stroke-width:0.44px;}.cls-15{stroke-width:0.44px;}.cls-16{stroke-width:0.44px;}.cls-17{stroke-width:0.44px;}.cls-18{stroke-width:0.44px;}.cls-19{stroke-width:0.44px;}.cls-20{stroke-width:0.44px;}.cls-21{stroke-width:0.44px;}.cls-22{stroke-width:0.44px;}.cls-23{stroke-width:0.44px;}.cls-24{stroke-width:0.44px;}.cls-25{stroke-width:0.44px;}.cls-26{stroke-width:0.44px;}.cls-27,.cls-28{fill:#003ab5;}.cls-27{fill-rule:evenodd;}.cls-29,.cls-30,.cls-31,.cls-32{stroke:#fff;}</style><clipPath id="clip-path" transform="translate(-0.36 -0.37)"><rect class="cls-1" x="-25.25" y="-4.61" width="112.95" height="71.46"/></clipPath></defs><g class="cls-2"><g class="cls-3"><polygon class="cls-4" points="1.16 27.69 10.32 27.69 10.32 10.72 16.2 10.72 16.2 1.19 12.93 1.19 12.93 2.14 14.96 2.14 14.96 8 7.7 8 7.7 26.41 2.07 26.41 2.07 24.3 1.16 24.3 1.16 27.69"/><polygon class="cls-4" points="1.15 31.77 1.15 35.16 2.07 35.16 2.07 33.05 7.7 33.05 7.7 35.16 28.61 35.16 28.61 8 21.34 8 21.34 2.14 23.38 2.14 23.38 1.2 20.11 1.2 20.11 10.72 25.99 10.72 25.99 32.44 10.31 32.44 10.31 31.77 1.15 31.77"/><rect class="cls-4" x="0.22" y="24.29" width="0.91" height="3.4"/><rect class="cls-4" x="0.22" y="31.77" width="0.91" height="3.39"/><rect class="cls-4" x="20.11" y="0.23" width="3.26" height="0.95"/><rect class="cls-4" x="12.93" y="0.23" width="3.27" height="0.95"/><line class="cls-4" x1="25.12" y1="26.74" x2="25.12" y2="29.79"/><line class="cls-5" x1="25.17" y1="20.71" x2="25.12" y2="23.77"/><line class="cls-4" x1="25.18" y1="14.62" x2="25.18" y2="17.67"/><line class="cls-6" x1="24.1" y1="13.83" x2="25.18" y2="14.42"/><line class="cls-7" x1="11" y1="19.8" x2="11.01" y2="20.12"/><line class="cls-7" x1="10.97" y1="16.99" x2="11" y2="19.8"/><line class="cls-4" x1="11" y1="14" x2="11" y2="13.7"/><line class="cls-7" x1="15.45" y1="19.84" x2="12.15" y2="22.23"/><line class="cls-7" x1="12.15" y1="22.23" x2="10.97" y2="23.08"/><line class="cls-8" x1="21.02" y1="27.2" x2="21.86" y2="27.92"/><line class="cls-6" x1="20.99" y1="21.13" x2="21.85" y2="21.89"/><line class="cls-9" x1="20.86" y1="15.19" x2="21.79" y2="15.85"/><line class="cls-10" x1="11" y1="14" x2="12.15" y2="14.89"/><line class="cls-4" x1="14.75" y1="10.92" x2="15.39" y2="10.92"/><line class="cls-4" x1="15.39" y1="10.92" x2="15.45" y2="10.92"/><line class="cls-4" x1="15.45" y1="10.92" x2="16.79" y2="10.92"/><line class="cls-4" x1="16.79" y1="10.92" x2="16.86" y2="10.92"/><line class="cls-4" x1="16.86" y1="10.92" x2="18.59" y2="10.92"/><line class="cls-4" x1="18.59" y1="10.92" x2="18.65" y2="10.92"/><line class="cls-4" x1="18.65" y1="10.92" x2="19.23" y2="10.92"/><line class="cls-4" x1="19.23" y1="10.92" x2="19.29" y2="10.92"/><line class="cls-4" x1="19.29" y1="10.92" x2="22.14" y2="10.92"/><line class="cls-4" x1="22.14" y1="10.92" x2="22.18" y2="10.92"/><line class="cls-4" x1="22.17" y1="10.92" x2="25.18" y2="10.92"/><line class="cls-4" x1="11" y1="10.92" x2="14.75" y2="10.92"/><line class="cls-4" x1="18.05" y1="31.77" x2="19.17" y2="31.77"/><line class="cls-4" x1="11" y1="31.77" x2="11.13" y2="31.77"/><line class="cls-4" x1="11.13" y1="31.77" x2="11.17" y2="31.77"/><line class="cls-4" x1="11.17" y1="31.77" x2="12.69" y2="31.77"/><line class="cls-4" x1="12.69" y1="31.77" x2="12.76" y2="31.77"/><line class="cls-4" x1="12.77" y1="31.77" x2="14.04" y2="31.77"/><line class="cls-4" x1="14.04" y1="31.77" x2="15.33" y2="31.77"/><line class="cls-4" x1="15.33" y1="31.77" x2="15.35" y2="31.77"/><line class="cls-4" x1="15.35" y1="31.77" x2="15.83" y2="31.77"/><line class="cls-4" x1="15.83" y1="31.77" x2="18.01" y2="31.77"/><line class="cls-4" x1="19.17" y1="31.77" x2="19.97" y2="31.77"/><line class="cls-4" x1="19.97" y1="31.77" x2="19.99" y2="31.77"/><line class="cls-4" x1="19.99" y1="31.77" x2="22.78" y2="31.77"/><line class="cls-4" x1="22.81" y1="31.77" x2="24.22" y2="31.77"/><line class="cls-4" x1="10.97" y1="31.77" x2="11.01" y2="31.77"/><line class="cls-11" x1="14.75" y1="10.92" x2="11" y2="13.71"/><line class="cls-4" x1="16.79" y1="10.92" x2="16.86" y2="10.92"/><line class="cls-12" x1="18.02" y1="12.97" x2="16.8" y2="10.92"/><line class="cls-4" x1="18.59" y1="10.92" x2="18.65" y2="10.92"/><line class="cls-13" x1="19.81" y1="12.79" x2="18.59" y2="10.91"/><line class="cls-4" x1="19.23" y1="10.92" x2="19.29" y2="10.92"/><line class="cls-14" x1="20.72" y1="12.06" x2="19.23" y2="10.91"/><line class="cls-4" x1="19.81" y1="12.79" x2="19.81" y2="14.36"/><line class="cls-4" x1="22.14" y1="10.92" x2="22.18" y2="10.92"/><line class="cls-15" x1="19.81" y1="12.79" x2="22.14" y2="10.92"/><line class="cls-4" x1="15.39" y1="10.92" x2="15.45" y2="10.92"/><line class="cls-6" x1="20.86" y1="15.19" x2="15.39" y2="10.92"/><line class="cls-16" x1="24.09" y1="12.51" x2="20.86" y2="15.19"/><line class="cls-16" x1="25.18" y1="11.61" x2="24.1" y2="12.5"/><line class="cls-4" x1="25.18" y1="10.92" x2="25.18" y2="11.61"/><line class="cls-5" x1="12.15" y1="20.94" x2="11" y2="20.12"/><line class="cls-4" x1="12.15" y1="26.95" x2="10.97" y2="25.87"/><line class="cls-17" x1="13.46" y1="18.09" x2="12.15" y2="20.94"/><line class="cls-4" x1="14.33" y1="18.96" x2="14.33" y2="17.38"/><line class="cls-16" x1="13.47" y1="21.28" x2="14.33" y2="18.96"/><line class="cls-4" x1="12.15" y1="22.23" x2="12.15" y2="20.94"/><line class="cls-4" x1="10.97" y1="23.08" x2="10.97" y2="25.87"/><line class="cls-9" x1="15.27" y1="22.69" x2="10.97" y2="25.87"/><line class="cls-9" x1="16.35" y1="21.89" x2="15.29" y2="22.68"/><line class="cls-5" x1="15.45" y1="19.84" x2="14.33" y2="18.96"/><line class="cls-5" x1="16.35" y1="20.55" x2="15.45" y2="19.84"/><line class="cls-5" x1="18.07" y1="21.89" x2="16.35" y2="20.54"/><line class="cls-4" x1="16.35" y1="21.89" x2="16.37" y2="21.89"/><line class="cls-4" x1="16.35" y1="20.55" x2="16.35" y2="21.89"/><line class="cls-4" x1="16.35" y1="21.89" x2="16.37" y2="21.89"/><line class="cls-12" x1="18.14" y1="24.95" x2="16.35" y2="21.9"/><line class="cls-18" x1="19.97" y1="24.83" x2="18.07" y2="21.89"/><line class="cls-14" x1="20.91" y1="24.08" x2="18.07" y2="21.89"/><line class="cls-8" x1="25.18" y1="20.44" x2="25.34" y2="20.54"/><line class="cls-14" x1="24.09" y1="19.89" x2="25.18" y2="20.44"/><line class="cls-4" x1="24.1" y1="19.89" x2="24.1" y2="18.56"/><line class="cls-19" x1="23.38" y1="22.13" x2="24.09" y2="19.89"/><line class="cls-10" x1="22.84" y1="19.6" x2="21.85" y2="21.89"/><line class="cls-4" x1="21.85" y1="23.34" x2="21.85" y2="21.9"/><line class="cls-4" x1="19.97" y1="24.83" x2="19.97" y2="26.38"/><line class="cls-17" x1="25.18" y1="20.71" x2="25.34" y2="20.54"/><line class="cls-8" x1="23.38" y1="22.13" x2="25.18" y2="20.71"/><line class="cls-8" x1="19.97" y1="24.83" x2="23.38" y2="22.13"/><line class="cls-15" x1="21.02" y1="27.2" x2="15.27" y2="22.69"/><line class="cls-20" x1="24.16" y1="24.58" x2="21.01" y2="27.2"/><line class="cls-20" x1="25.12" y1="23.77" x2="24.17" y2="24.56"/><line class="cls-4" x1="12.69" y1="31.77" x2="12.76" y2="31.77"/><line class="cls-14" x1="13.48" y1="30.03" x2="12.69" y2="31.76"/><line class="cls-4" x1="14.45" y1="30.68" x2="14.45" y2="29.31"/><line class="cls-21" x1="14.05" y1="31.77" x2="14.45" y2="30.68"/><line class="cls-4" x1="15.33" y1="31.77" x2="15.35" y2="31.77"/><line class="cls-4" x1="15.6" y1="31.58" x2="15.33" y2="31.76"/><line class="cls-9" x1="15.83" y1="31.77" x2="14.45" y2="30.68"/><line class="cls-9" x1="15.83" y1="31.77" x2="15.6" y2="31.58"/><line class="cls-4" x1="24.29" y1="31.64" x2="24.29" y2="30.49"/><line class="cls-4" x1="24.29" y1="31.64" x2="24.31" y2="31.64"/><line class="cls-7" x1="24.22" y1="31.77" x2="24.29" y2="31.65"/><line class="cls-17" x1="13.52" y1="23.98" x2="12.15" y2="26.96"/><line class="cls-4" x1="14.33" y1="24.98" x2="14.33" y2="23.39"/><line class="cls-16" x1="13.47" y1="27.29" x2="14.33" y2="24.98"/><line class="cls-4" x1="12.15" y1="28.24" x2="12.15" y2="26.95"/><line class="cls-7" x1="12.15" y1="28.24" x2="10.97" y2="29.1"/><line class="cls-7" x1="15.45" y1="25.86" x2="12.15" y2="28.25"/><line class="cls-4" x1="10.97" y1="31.77" x2="11.01" y2="31.77"/><line class="cls-4" x1="10.97" y1="29.1" x2="10.97" y2="31.77"/><line class="cls-4" x1="11.13" y1="31.77" x2="11.17" y2="31.77"/><line class="cls-10" x1="13.48" y1="30.03" x2="11.13" y2="31.76"/><line class="cls-10" x1="15.26" y1="28.71" x2="13.47" y2="30.03"/><line class="cls-10" x1="16.35" y1="27.91" x2="15.27" y2="28.71"/><line class="cls-5" x1="15.45" y1="25.86" x2="14.33" y2="24.98"/><line class="cls-5" x1="16.35" y1="26.56" x2="15.45" y2="25.86"/><line class="cls-5" x1="18.07" y1="27.91" x2="16.35" y2="26.56"/><line class="cls-4" x1="16.35" y1="26.56" x2="16.35" y2="27.91"/><line class="cls-22" x1="18.14" y1="30.96" x2="16.35" y2="27.91"/><line class="cls-19" x1="19.97" y1="30.85" x2="18.07" y2="27.91"/><line class="cls-14" x1="20.91" y1="30.1" x2="18.07" y2="27.91"/><line class="cls-7" x1="25.12" y1="26.46" x2="25.34" y2="26.56"/><line class="cls-19" x1="24.09" y1="25.92" x2="25.11" y2="26.46"/><line class="cls-8" x1="24.1" y1="25.92" x2="24.16" y2="24.58"/><line class="cls-7" x1="23.39" y1="28.11" x2="24.09" y2="25.91"/><line class="cls-10" x1="22.8" y1="25.71" x2="21.86" y2="27.91"/><line class="cls-4" x1="21.85" y1="29.34" x2="21.85" y2="27.92"/><line class="cls-4" x1="19.97" y1="31.77" x2="19.99" y2="31.77"/><line class="cls-4" x1="19.97" y1="30.85" x2="19.97" y2="31.77"/><line class="cls-9" x1="25.12" y1="26.74" x2="25.34" y2="26.55"/><line class="cls-18" x1="23.39" y1="28.11" x2="25.12" y2="26.74"/><line class="cls-18" x1="19.97" y1="30.85" x2="23.4" y2="28.11"/><line class="cls-6" x1="19.17" y1="31.77" x2="15.26" y2="28.71"/><line class="cls-22" x1="24.29" y1="30.49" x2="22.78" y2="31.77"/><line class="cls-22" x1="25.12" y1="29.79" x2="24.29" y2="30.49"/><line class="cls-4" x1="13.45" y1="11.89" x2="12.15" y2="14.89"/><line class="cls-4" x1="14.3" y1="12.92" x2="14.3" y2="11.25"/><line class="cls-14" x1="13.4" y1="15.23" x2="14.29" y2="12.92"/><line class="cls-23" x1="12.13" y1="16.15" x2="12.15" y2="14.89"/><line class="cls-7" x1="12.13" y1="16.15" x2="10.97" y2="16.99"/><line class="cls-7" x1="15.41" y1="13.78" x2="12.13" y2="16.15"/><line class="cls-6" x1="15.23" y1="16.64" x2="11" y2="20.12"/><line class="cls-24" x1="16.29" y1="15.85" x2="15.23" y2="16.64"/><line class="cls-4" x1="15.41" y1="13.78" x2="14.3" y2="12.92"/><line class="cls-4" x1="16.29" y1="14.48" x2="15.41" y2="13.79"/><line class="cls-4" x1="18.05" y1="15.85" x2="16.29" y2="14.47"/><line class="cls-4" x1="16.29" y1="14.48" x2="16.29" y2="15.85"/><line class="cls-12" x1="18.13" y1="18.9" x2="16.29" y2="15.85"/><line class="cls-24" x1="19.93" y1="18.76" x2="18.05" y2="15.85"/><line class="cls-25" x1="20.85" y1="18.04" x2="18.05" y2="15.85"/><line class="cls-26" x1="25.18" y1="14.42" x2="25.32" y2="14.49"/><line class="cls-4" x1="24.1" y1="13.83" x2="24.1" y2="12.51"/><line class="cls-14" x1="23.36" y1="16.06" x2="24.09" y2="13.83"/><line class="cls-23" x1="22.81" y1="13.57" x2="21.79" y2="15.86"/><line class="cls-4" x1="21.79" y1="17.29" x2="21.79" y2="15.86"/><line class="cls-4" x1="19.93" y1="18.76" x2="19.93" y2="20.3"/><line class="cls-25" x1="25.18" y1="14.62" x2="25.31" y2="14.49"/><line class="cls-26" x1="23.36" y1="16.06" x2="25.18" y2="14.61"/><line class="cls-26" x1="19.93" y1="18.76" x2="23.36" y2="16.06"/><line class="cls-4" x1="15.23" y1="16.64" x2="15.25" y2="16.64"/><line class="cls-8" x1="20.99" y1="21.13" x2="15.23" y2="16.64"/><line class="cls-19" x1="24.1" y1="18.57" x2="20.99" y2="21.13"/><line class="cls-19" x1="25.18" y1="17.67" x2="24.1" y2="18.57"/><line class="cls-4" x1="11" y1="13.71" x2="11" y2="10.92"/><rect class="cls-4" x="17.5" y="35.16" width="1.31" height="2.72"/><line class="cls-4" x1="9.6" y1="29.77" x2="5.63" y2="29.77"/><polyline class="cls-27" points="5.63 32.05 0.22 29.77 5.63 27.49 5.63 32.05"/><polygon class="cls-4" points="60.58 27.68 51.42 27.68 51.42 10.71 45.55 10.71 45.55 1.19 48.81 1.19 48.81 2.14 46.78 2.14 46.78 8 54.04 8 54.04 26.41 59.67 26.41 59.67 24.29 60.58 24.29 60.58 27.68"/><polygon class="cls-4" points="60.59 31.76 60.59 35.15 59.67 35.15 59.67 33.04 54.04 33.04 54.04 35.15 33.13 35.15 33.13 7.99 40.4 7.99 40.4 2.13 38.36 2.13 38.36 1.19 41.63 1.19 41.63 10.71 35.75 10.71 35.75 32.44 51.43 32.44 51.43 31.76 60.59 31.76"/><rect class="cls-4" x="60.61" y="24.29" width="0.91" height="3.39"/><rect class="cls-4" x="60.61" y="31.76" width="0.91" height="3.39"/><rect class="cls-4" x="38.36" y="0.22" width="3.26" height="0.95"/><rect class="cls-4" x="45.55" y="0.22" width="3.27" height="0.95"/><line class="cls-4" x1="36.62" y1="26.73" x2="36.62" y2="29.78"/><line class="cls-5" x1="36.57" y1="20.71" x2="36.62" y2="23.76"/><line class="cls-4" x1="36.56" y1="14.61" x2="36.56" y2="17.67"/><line class="cls-6" x1="37.65" y1="13.82" x2="36.56" y2="14.42"/><line class="cls-7" x1="50.74" y1="19.79" x2="50.74" y2="20.11"/><line class="cls-7" x1="50.77" y1="16.98" x2="50.74" y2="19.79"/><line class="cls-4" x1="50.74" y1="13.99" x2="50.74" y2="13.7"/><line class="cls-7" x1="46.29" y1="19.84" x2="49.59" y2="22.22"/><line class="cls-7" x1="49.59" y1="22.22" x2="50.77" y2="23.08"/><line class="cls-8" x1="40.72" y1="27.2" x2="39.88" y2="27.91"/><line class="cls-6" x1="40.75" y1="21.12" x2="39.89" y2="21.89"/><line class="cls-9" x1="40.88" y1="15.18" x2="39.95" y2="15.85"/><line class="cls-10" x1="50.74" y1="14" x2="49.59" y2="14.89"/><line class="cls-4" x1="46.99" y1="10.91" x2="46.35" y2="10.91"/><line class="cls-4" x1="46.35" y1="10.91" x2="46.29" y2="10.91"/><line class="cls-4" x1="46.29" y1="10.91" x2="44.95" y2="10.91"/><line class="cls-4" x1="44.95" y1="10.91" x2="44.88" y2="10.91"/><line class="cls-4" x1="44.89" y1="10.91" x2="43.15" y2="10.91"/><line class="cls-4" x1="43.15" y1="10.91" x2="43.09" y2="10.91"/><line class="cls-4" x1="43.09" y1="10.91" x2="42.51" y2="10.91"/><line class="cls-4" x1="42.51" y1="10.91" x2="42.45" y2="10.91"/><line class="cls-4" x1="42.45" y1="10.91" x2="39.6" y2="10.91"/><line class="cls-4" x1="39.6" y1="10.91" x2="39.56" y2="10.91"/><line class="cls-4" x1="39.57" y1="10.91" x2="36.56" y2="10.91"/><line class="cls-4" x1="50.74" y1="10.91" x2="46.99" y2="10.91"/><line class="cls-4" x1="43.69" y1="31.76" x2="42.57" y2="31.76"/><line class="cls-4" x1="50.74" y1="31.76" x2="50.61" y2="31.76"/><line class="cls-4" x1="50.61" y1="31.76" x2="50.57" y2="31.76"/><line class="cls-4" x1="50.57" y1="31.76" x2="49.05" y2="31.76"/><line class="cls-4" x1="49.05" y1="31.76" x2="48.98" y2="31.76"/><line class="cls-4" x1="48.97" y1="31.76" x2="47.7" y2="31.76"/><line class="cls-4" x1="47.69" y1="31.76" x2="46.42" y2="31.76"/><line class="cls-4" x1="46.42" y1="31.76" x2="46.39" y2="31.76"/><line class="cls-4" x1="46.39" y1="31.76" x2="45.91" y2="31.76"/><line class="cls-4" x1="45.91" y1="31.76" x2="43.73" y2="31.76"/><line class="cls-4" x1="42.57" y1="31.76" x2="41.77" y2="31.76"/><line class="cls-4" x1="41.77" y1="31.76" x2="41.75" y2="31.76"/><line class="cls-4" x1="41.75" y1="31.76" x2="38.96" y2="31.76"/><line class="cls-4" x1="38.93" y1="31.76" x2="37.52" y2="31.76"/><line class="cls-4" x1="50.77" y1="31.76" x2="50.73" y2="31.76"/><line class="cls-11" x1="46.99" y1="10.91" x2="50.74" y2="13.7"/><line class="cls-4" x1="44.95" y1="10.91" x2="44.88" y2="10.91"/><line class="cls-12" x1="43.72" y1="12.97" x2="44.94" y2="10.91"/><line class="cls-4" x1="43.15" y1="10.91" x2="43.09" y2="10.91"/><line class="cls-13" x1="41.93" y1="12.79" x2="43.15" y2="10.91"/><line class="cls-4" x1="42.51" y1="10.91" x2="42.45" y2="10.91"/><line class="cls-14" x1="41.02" y1="12.06" x2="42.51" y2="10.91"/><line class="cls-4" x1="41.93" y1="12.79" x2="41.93" y2="14.36"/><line class="cls-4" x1="39.6" y1="10.91" x2="39.56" y2="10.91"/><line class="cls-15" x1="41.93" y1="12.79" x2="39.6" y2="10.91"/><line class="cls-4" x1="46.35" y1="10.91" x2="46.29" y2="10.91"/><line class="cls-6" x1="40.88" y1="15.18" x2="46.35" y2="10.91"/><line class="cls-16" x1="37.65" y1="12.5" x2="40.88" y2="15.18"/><line class="cls-16" x1="36.56" y1="11.6" x2="37.64" y2="12.49"/><line class="cls-4" x1="36.56" y1="10.91" x2="36.56" y2="11.61"/><line class="cls-5" x1="49.59" y1="20.93" x2="50.74" y2="20.11"/><line class="cls-4" x1="49.59" y1="26.95" x2="50.77" y2="25.87"/><line class="cls-17" x1="48.28" y1="18.09" x2="49.59" y2="20.93"/><line class="cls-4" x1="47.41" y1="18.96" x2="47.41" y2="17.38"/><line class="cls-16" x1="48.27" y1="21.27" x2="47.41" y2="18.96"/><line class="cls-4" x1="49.59" y1="22.22" x2="49.59" y2="20.93"/><line class="cls-4" x1="50.77" y1="23.08" x2="50.77" y2="25.86"/><line class="cls-9" x1="46.47" y1="22.69" x2="50.77" y2="25.87"/><line class="cls-9" x1="45.39" y1="21.89" x2="46.45" y2="22.68"/><line class="cls-5" x1="46.29" y1="19.84" x2="47.41" y2="18.96"/><line class="cls-5" x1="45.39" y1="20.54" x2="46.29" y2="19.84"/><line class="cls-5" x1="43.67" y1="21.89" x2="45.39" y2="20.54"/><line class="cls-4" x1="45.39" y1="21.89" x2="45.37" y2="21.89"/><line class="cls-4" x1="45.39" y1="20.54" x2="45.39" y2="21.89"/><line class="cls-4" x1="45.39" y1="21.89" x2="45.37" y2="21.89"/><line class="cls-12" x1="43.6" y1="24.94" x2="45.39" y2="21.89"/><line class="cls-18" x1="41.77" y1="24.83" x2="43.67" y2="21.89"/><line class="cls-14" x1="40.83" y1="24.08" x2="43.67" y2="21.89"/><line class="cls-8" x1="36.56" y1="20.44" x2="36.4" y2="20.54"/><line class="cls-14" x1="37.65" y1="19.89" x2="36.56" y2="20.44"/><line class="cls-4" x1="37.65" y1="19.89" x2="37.65" y2="18.56"/><line class="cls-19" x1="38.36" y1="22.13" x2="37.65" y2="19.89"/><line class="cls-10" x1="38.9" y1="19.6" x2="39.89" y2="21.89"/><line class="cls-4" x1="39.89" y1="23.33" x2="39.89" y2="21.89"/><line class="cls-4" x1="41.77" y1="24.83" x2="41.77" y2="26.37"/><line class="cls-17" x1="36.56" y1="20.7" x2="36.4" y2="20.53"/><line class="cls-8" x1="38.36" y1="22.13" x2="36.56" y2="20.71"/><line class="cls-8" x1="41.77" y1="24.83" x2="38.36" y2="22.13"/><line class="cls-15" x1="40.72" y1="27.19" x2="46.47" y2="22.69"/><line class="cls-20" x1="37.58" y1="24.57" x2="40.73" y2="27.2"/><line class="cls-20" x1="36.62" y1="23.77" x2="37.57" y2="24.55"/><line class="cls-4" x1="49.05" y1="31.76" x2="48.98" y2="31.76"/><line class="cls-14" x1="48.26" y1="30.03" x2="49.05" y2="31.76"/><line class="cls-4" x1="47.29" y1="30.68" x2="47.29" y2="29.31"/><line class="cls-21" x1="47.69" y1="31.76" x2="47.29" y2="30.68"/><line class="cls-4" x1="46.42" y1="31.76" x2="46.39" y2="31.76"/><line class="cls-4" x1="46.14" y1="31.57" x2="46.41" y2="31.76"/><line class="cls-9" x1="45.91" y1="31.76" x2="47.29" y2="30.68"/><line class="cls-9" x1="45.91" y1="31.76" x2="46.14" y2="31.58"/><line class="cls-4" x1="37.45" y1="31.64" x2="37.45" y2="30.49"/><line class="cls-4" x1="37.45" y1="31.64" x2="37.43" y2="31.64"/><line class="cls-7" x1="37.52" y1="31.76" x2="37.45" y2="31.64"/><line class="cls-17" x1="48.22" y1="23.98" x2="49.59" y2="26.95"/><line class="cls-4" x1="47.41" y1="24.97" x2="47.41" y2="23.39"/><line class="cls-16" x1="48.27" y1="27.29" x2="47.41" y2="24.97"/><line class="cls-4" x1="49.59" y1="28.24" x2="49.59" y2="26.95"/><line class="cls-7" x1="49.59" y1="28.24" x2="50.77" y2="29.1"/><line class="cls-7" x1="46.29" y1="25.86" x2="49.59" y2="28.24"/><line class="cls-4" x1="50.77" y1="31.76" x2="50.73" y2="31.76"/><line class="cls-4" x1="50.77" y1="29.09" x2="50.77" y2="31.76"/><line class="cls-4" x1="50.61" y1="31.76" x2="50.57" y2="31.76"/><line class="cls-10" x1="48.26" y1="30.03" x2="50.61" y2="31.76"/><line class="cls-10" x1="46.48" y1="28.71" x2="48.27" y2="30.03"/><line class="cls-10" x1="45.39" y1="27.91" x2="46.48" y2="28.71"/><line class="cls-5" x1="46.29" y1="25.86" x2="47.41" y2="24.98"/><line class="cls-5" x1="45.39" y1="26.56" x2="46.29" y2="25.85"/><line class="cls-5" x1="43.67" y1="27.91" x2="45.39" y2="26.56"/><line class="cls-4" x1="45.39" y1="26.56" x2="45.39" y2="27.91"/><line class="cls-22" x1="43.6" y1="30.95" x2="45.39" y2="27.91"/><line class="cls-19" x1="41.77" y1="30.85" x2="43.67" y2="27.91"/><line class="cls-14" x1="40.83" y1="30.09" x2="43.67" y2="27.9"/><line class="cls-7" x1="36.62" y1="26.45" x2="36.4" y2="26.55"/><line class="cls-19" x1="37.65" y1="25.91" x2="36.63" y2="26.45"/><line class="cls-8" x1="37.65" y1="25.91" x2="37.58" y2="24.58"/><line class="cls-7" x1="38.35" y1="28.11" x2="37.65" y2="25.91"/><line class="cls-10" x1="38.94" y1="25.7" x2="39.89" y2="27.91"/><line class="cls-4" x1="39.89" y1="29.34" x2="39.89" y2="27.91"/><line class="cls-4" x1="41.77" y1="31.76" x2="41.75" y2="31.76"/><line class="cls-4" x1="41.77" y1="30.85" x2="41.77" y2="31.76"/><line class="cls-9" x1="36.62" y1="26.73" x2="36.4" y2="26.55"/><line class="cls-18" x1="38.35" y1="28.11" x2="36.63" y2="26.73"/><line class="cls-18" x1="41.77" y1="30.85" x2="38.34" y2="28.11"/><line class="cls-6" x1="42.57" y1="31.76" x2="46.48" y2="28.71"/><line class="cls-22" x1="37.45" y1="30.49" x2="38.96" y2="31.76"/><line class="cls-22" x1="36.63" y1="29.78" x2="37.45" y2="30.49"/><line class="cls-4" x1="48.29" y1="11.88" x2="49.59" y2="14.88"/><line class="cls-4" x1="47.44" y1="12.91" x2="47.44" y2="11.24"/><line class="cls-14" x1="48.34" y1="15.23" x2="47.45" y2="12.92"/><line class="cls-23" x1="49.61" y1="16.15" x2="49.59" y2="14.89"/><line class="cls-7" x1="49.61" y1="16.15" x2="50.77" y2="16.98"/><line class="cls-7" x1="46.34" y1="13.78" x2="49.61" y2="16.15"/><line class="cls-6" x1="46.51" y1="16.63" x2="50.74" y2="20.12"/><line class="cls-24" x1="45.45" y1="15.85" x2="46.51" y2="16.63"/><line class="cls-4" x1="46.34" y1="13.78" x2="47.44" y2="12.92"/><line class="cls-4" x1="45.45" y1="14.47" x2="46.33" y2="13.78"/><line class="cls-4" x1="43.69" y1="15.85" x2="45.45" y2="14.47"/><line class="cls-4" x1="45.45" y1="14.47" x2="45.45" y2="15.85"/><line class="cls-12" x1="43.61" y1="18.89" x2="45.46" y2="15.84"/><line class="cls-24" x1="41.81" y1="18.76" x2="43.69" y2="15.85"/><line class="cls-25" x1="40.89" y1="18.03" x2="43.69" y2="15.84"/><line class="cls-26" x1="36.56" y1="14.41" x2="36.42" y2="14.49"/><line class="cls-4" x1="37.65" y1="13.82" x2="37.65" y2="12.5"/><line class="cls-14" x1="38.38" y1="16.05" x2="37.65" y2="13.83"/><line class="cls-23" x1="38.93" y1="13.56" x2="39.95" y2="15.85"/><line class="cls-4" x1="39.95" y1="17.29" x2="39.95" y2="15.85"/><line class="cls-4" x1="41.81" y1="18.76" x2="41.81" y2="20.3"/><line class="cls-25" x1="36.56" y1="14.61" x2="36.43" y2="14.49"/><line class="cls-26" x1="38.38" y1="16.05" x2="36.56" y2="14.61"/><line class="cls-26" x1="41.81" y1="18.76" x2="38.38" y2="16.05"/><line class="cls-4" x1="46.51" y1="16.63" x2="46.49" y2="16.63"/><line class="cls-8" x1="40.75" y1="21.12" x2="46.51" y2="16.63"/><line class="cls-19" x1="37.65" y1="18.56" x2="40.75" y2="21.12"/><line class="cls-19" x1="36.56" y1="17.67" x2="37.65" y2="18.56"/><line class="cls-4" x1="50.74" y1="13.7" x2="50.74" y2="10.91"/><rect class="cls-4" x="42.93" y="35.15" width="1.31" height="2.72"/><line class="cls-4" x1="52.14" y1="29.77" x2="56.11" y2="29.77"/><polyline class="cls-27" points="56.11 32.05 61.52 29.77 56.11 27.48 56.11 32.05"/><rect class="cls-4" x="22.47" y="37.98" width="16.66" height="3.65"/><line class="cls-12" x1="22.47" y1="37.98" x2="23.81" y2="41.64"/><line class="cls-15" x1="24.13" y1="37.98" x2="25.61" y2="41.63"/><line class="cls-15" x1="25.6" y1="37.98" x2="27.08" y2="41.63"/><line class="cls-15" x1="27.08" y1="37.98" x2="28.55" y2="41.63"/><line class="cls-24" x1="30.02" y1="41.63" x2="28.55" y2="37.98"/><line class="cls-24" x1="31.49" y1="41.63" x2="30.02" y2="37.98"/><line class="cls-24" x1="32.96" y1="41.63" x2="31.49" y2="37.98"/><line class="cls-24" x1="34.43" y1="41.63" x2="32.96" y2="37.98"/><line class="cls-24" x1="35.91" y1="41.63" x2="34.43" y2="37.98"/><line class="cls-24" x1="37.38" y1="41.63" x2="35.91" y2="37.98"/><line class="cls-7" x1="39.13" y1="41.63" x2="37.38" y2="37.98"/><rect class="cls-28" x="14.23" y="37.98" width="7.85" height="3.65"/><rect class="cls-29" x="14.23" y="37.98" width="7.85" height="3.65"/><line class="cls-30" x1="22.07" y1="37.98" x2="20.63" y2="41.63"/><line class="cls-30" x1="20.63" y1="37.98" x2="19.19" y2="41.63"/><line class="cls-30" x1="19.19" y1="37.98" x2="17.74" y2="41.63"/><line class="cls-30" x1="17.74" y1="37.98" x2="16.3" y2="41.63"/><line class="cls-30" x1="16.3" y1="37.98" x2="14.86" y2="41.63"/><rect class="cls-28" x="39.69" y="37.98" width="7.84" height="3.65"/><rect class="cls-29" x="39.69" y="37.98" width="7.84" height="3.65"/><line class="cls-31" x1="39.69" y1="41.63" x2="41.05" y2="37.98"/><line class="cls-32" x1="41.05" y1="41.63" x2="42.49" y2="37.99"/><line class="cls-32" x1="42.49" y1="41.63" x2="43.93" y2="37.99"/><line class="cls-32" x1="43.93" y1="41.63" x2="45.37" y2="37.99"/><line class="cls-32" x1="45.37" y1="41.63" x2="46.82" y2="37.99"/><rect class="cls-4" x="30.37" y="41.62" width="0.86" height="2.53"/></g></g></svg>