<svg xmlns="http://www.w3.org/2000/svg" xmlns:android="http://schemas.android.com/apk/res/android" width="44.61dp" height="48dp" viewportWidth="44.61" viewportHeight="44.16">
	<group>
		<clip-path d="M-28.76,-4.7h102.13v70.47h-102.13z"/>
		<path d="M32.35,42.31l0,-13.98l-19.73,0l0,-8.97l-11.08,0l0,4.98l1.11,0l0,-3.1l6.81,0l0,11.08l21.41,0l0,8.6l-2.47,0l0,1.39l3.95,0z" strokeLineJoin="round" stroke-width="0.83" fill="#00000000" stroke="#003ab5" strokeLineCap="round"/>
		<path d="M37.09,42.31l3.95,0l0,-1.38l-2.46,0l0,-8.61l2.46,0l0,-31.9l-31.58,0l0,11.09l-6.82,0l0,-3.12l-1.1,0l0,4.99l11.08,0l0,-8.98l25.26,0l0,23.93l-0.79,0l0,13.98z" strokeLineJoin="round" stroke-width="0.83" fill="#00000000" stroke="#003ab5" strokeLineCap="round"/>
		<path d="M28.41,42.35h3.95v1.39h-3.95z" strokeLineJoin="round" stroke-width="0.83" fill="#00000000" stroke="#003ab5" strokeLineCap="round"/>
		<path d="M37.09,42.35h3.95v1.39h-3.95z" strokeLineJoin="round" stroke-width="0.83" fill="#00000000" stroke="#003ab5" strokeLineCap="round"/>
		<path d="M0.42,8.39h1.1v4.99h-1.1z" strokeLineJoin="round" stroke-width="0.83" fill="#00000000" stroke="#003ab5" strokeLineCap="round"/>
		<path d="M0.42,19.36h1.1v4.99h-1.1z" strokeLineJoin="round" stroke-width="0.83" fill="#00000000" stroke="#003ab5" strokeLineCap="round"/>
		<path d="M31.24,5.74L34.8,5.74" strokeLineJoin="round" stroke-width="0.83" fill="#00000000" stroke="#003ab5" strokeLineCap="round"/>
		<path d="M24.24,5.66L27.8,5.74" strokeLineJoin="round" stroke-width="0.83" fill="#00000000" stroke="#003ab5" strokeLineCap="round"/>
		<path d="M17.15,5.65L20.7,5.65" strokeLineJoin="round" stroke-width="0.83" fill="#00000000" stroke="#003ab5" strokeLineCap="round"/>
		<path d="M16.23,7.3L16.92,5.65" strokeLineJoin="round" stroke-width="0.83" fill="#00000000" stroke="#003ab5" strokeLineCap="round"/>
		<path d="M23.18,27.29L23.55,27.28" strokeLineJoin="round" stroke-width="0.83" fill="#00000000" stroke="#003ab5" strokeLineCap="round"/>
		<path d="M19.91,27.34L23.18,27.29" strokeLineJoin="round" stroke-width="0.83" fill="#00000000" stroke="#003ab5" strokeLineCap="round"/>
		<path d="M16.43,27.28L16.09,27.28" strokeLineJoin="round" stroke-width="0.83" fill="#00000000" stroke="#003ab5" strokeLineCap="round"/>
		<path d="M23.23,20.49L26,25.54" strokeLineJoin="round" stroke-width="0.83" fill="#00000000" stroke="#003ab5" strokeLineCap="round"/>
		<path d="M26,25.53L26.99,27.34" strokeLineJoin="round" stroke-width="0.83" fill="#00000000" stroke="#003ab5" strokeLineCap="round"/>
		<path d="M31.78,12L32.61,10.72" strokeLineJoin="round" stroke-width="0.83" fill="#00000000" stroke="#003ab5" strokeLineCap="round"/>
		<path d="M24.72,12.04L25.61,10.73" strokeLineJoin="round" stroke-width="0.83" fill="#00000000" stroke="#003ab5" strokeLineCap="round"/>
		<path d="M17.81,12.24L18.59,10.82" strokeLineJoin="round" stroke-width="0.83" fill="#00000000" stroke="#003ab5" strokeLineCap="round"/>
		<path d="M16.43,27.28L17.47,25.53" strokeLineJoin="round" stroke-width="0.83" fill="#00000000" stroke="#003ab5" strokeLineCap="round"/>
		<path d="M12.85,21.57L12.85,20.59" strokeLineJoin="round" stroke-width="0.83" fill="#00000000" stroke="#003ab5" strokeLineCap="round"/>
		<path d="M12.85,20.59L12.85,20.49" strokeLineJoin="round" stroke-width="0.83" fill="#00000000" stroke="#003ab5" strokeLineCap="round"/>
		<path d="M12.85,20.5L12.85,18.45" strokeLineJoin="round" stroke-width="0.83" fill="#00000000" stroke="#003ab5" strokeLineCap="round"/>
		<path d="M12.85,18.45L12.85,18.35" strokeLineJoin="round" stroke-width="0.83" fill="#00000000" stroke="#003ab5" strokeLineCap="round"/>
		<path d="M12.85,18.35L12.85,15.71" strokeLineJoin="round" stroke-width="0.83" fill="#00000000" stroke="#003ab5" strokeLineCap="round"/>
		<path d="M12.85,15.71L12.85,15.61" strokeLineJoin="round" stroke-width="0.83" fill="#00000000" stroke="#003ab5" strokeLineCap="round"/>
		<path d="M12.85,15.61L12.85,14.73" strokeLineJoin="round" stroke-width="0.83" fill="#00000000" stroke="#003ab5" strokeLineCap="round"/>
		<path d="M12.85,14.73L12.85,14.63" strokeLineJoin="round" stroke-width="0.83" fill="#00000000" stroke="#003ab5" strokeLineCap="round"/>
		<path d="M12.85,14.63L12.85,10.29" strokeLineJoin="round" stroke-width="0.83" fill="#00000000" stroke="#003ab5" strokeLineCap="round"/>
		<path d="M12.85,10.29L12.85,10.23" strokeLineJoin="round" stroke-width="0.83" fill="#00000000" stroke="#003ab5" strokeLineCap="round"/>
		<path d="M12.85,10.23L12.85,5.64" strokeLineJoin="round" stroke-width="0.83" fill="#00000000" stroke="#003ab5" strokeLineCap="round"/>
		<path d="M12.85,27.28L12.85,21.57" strokeLineJoin="round" stroke-width="0.83" fill="#00000000" stroke="#003ab5" strokeLineCap="round"/>
		<path d="M37.09,16.53L37.09,14.82" strokeLineJoin="round" stroke-width="0.83" fill="#00000000" stroke="#003ab5" strokeLineCap="round"/>
		<path d="M37.09,27.28L37.09,27.1" strokeLineJoin="round" stroke-width="0.83" fill="#00000000" stroke="#003ab5" strokeLineCap="round"/>
		<path d="M37.09,27.09L37.09,27.03" strokeLineJoin="round" stroke-width="0.83" fill="#00000000" stroke="#003ab5" strokeLineCap="round"/>
		<path d="M37.09,27.04L37.09,24.7" strokeLineJoin="round" stroke-width="0.83" fill="#00000000" stroke="#003ab5" strokeLineCap="round"/>
		<path d="M37.09,24.7L37.09,24.6" strokeLineJoin="round" stroke-width="0.83" fill="#00000000" stroke="#003ab5" strokeLineCap="round"/>
		<path d="M37.09,24.59L37.09,22.64" strokeLineJoin="round" stroke-width="0.83" fill="#00000000" stroke="#003ab5" strokeLineCap="round"/>
		<path d="M37.09,22.64L37.09,20.68" strokeLineJoin="round" stroke-width="0.83" fill="#00000000" stroke="#003ab5" strokeLineCap="round"/>
		<path d="M37.09,20.69L37.09,20.65" strokeLineJoin="round" stroke-width="0.83" fill="#00000000" stroke="#003ab5" strokeLineCap="round"/>
		<path d="M37.09,20.65L37.09,19.91" strokeLineJoin="round" stroke-width="0.83" fill="#00000000" stroke="#003ab5" strokeLineCap="round"/>
		<path d="M37.09,19.91L37.09,16.58" strokeLineJoin="round" stroke-width="0.83" fill="#00000000" stroke="#003ab5" strokeLineCap="round"/>
		<path d="M37.09,14.82L37.09,13.6" strokeLineJoin="round" stroke-width="0.83" fill="#00000000" stroke="#003ab5" strokeLineCap="round"/>
		<path d="M37.09,13.6L37.09,13.56" strokeLineJoin="round" stroke-width="0.83" fill="#00000000" stroke="#003ab5" strokeLineCap="round"/>
		<path d="M37.09,13.56L37.09,9.31" strokeLineJoin="round" stroke-width="0.83" fill="#00000000" stroke="#003ab5" strokeLineCap="round"/>
		<path d="M37.09,9.26L37.09,7.11" strokeLineJoin="round" stroke-width="0.83" fill="#00000000" stroke="#003ab5" strokeLineCap="round"/>
		<path d="M37.09,27.34L37.09,27.28" strokeLineJoin="round" stroke-width="0.83" fill="#00000000" stroke="#003ab5" strokeLineCap="round"/>
		<path d="M12.85,21.57L16.09,27.29" strokeLineJoin="round" stroke-width="0.83" fill="#00000000" stroke="#003ab5" strokeLineCap="round"/>
		<path d="M12.85,18.45L12.85,18.35" strokeLineJoin="round" stroke-width="0.83" fill="#00000000" stroke="#003ab5" strokeLineCap="round"/>
		<path d="M15.23,16.58L12.85,18.45" strokeLineJoin="round" stroke-width="0.83" fill="#00000000" stroke="#003ab5" strokeLineCap="round"/>
		<path d="M12.85,15.71L12.85,15.61" strokeLineJoin="round" stroke-width="0.83" fill="#00000000" stroke="#003ab5" strokeLineCap="round"/>
		<path d="M15.03,13.85L12.85,15.71" strokeLineJoin="round" stroke-width="0.83" fill="#00000000" stroke="#003ab5" strokeLineCap="round"/>
		<path d="M12.85,14.73L12.85,14.63" strokeLineJoin="round" stroke-width="0.83" fill="#00000000" stroke="#003ab5" strokeLineCap="round"/>
		<path d="M14.18,12.46L12.85,14.72" strokeLineJoin="round" stroke-width="0.83" fill="#00000000" stroke="#003ab5" strokeLineCap="round"/>
		<path d="M15.03,13.85L16.86,13.85" strokeLineJoin="round" stroke-width="0.83" fill="#00000000" stroke="#003ab5" strokeLineCap="round"/>
		<path d="M12.85,10.29L12.85,10.23" strokeLineJoin="round" stroke-width="0.83" fill="#00000000" stroke="#003ab5" strokeLineCap="round"/>
		<path d="M15.03,13.85L12.85,10.29" strokeLineJoin="round" stroke-width="0.83" fill="#00000000" stroke="#003ab5" strokeLineCap="round"/>
		<path d="M12.85,20.59L12.85,20.49" strokeLineJoin="round" stroke-width="0.83" fill="#00000000" stroke="#003ab5" strokeLineCap="round"/>
		<path d="M17.81,12.24L12.85,20.59" strokeLineJoin="round" stroke-width="0.83" fill="#00000000" stroke="#003ab5" strokeLineCap="round"/>
		<path d="M14.7,7.3L17.81,12.24" strokeLineJoin="round" stroke-width="0.83" fill="#00000000" stroke="#003ab5" strokeLineCap="round"/>
		<path d="M13.65,5.65L14.69,7.29" strokeLineJoin="round" stroke-width="0.83" fill="#00000000" stroke="#003ab5" strokeLineCap="round"/>
		<path d="M12.85,5.65L13.65,5.65" strokeLineJoin="round" stroke-width="0.83" fill="#00000000" stroke="#003ab5" strokeLineCap="round"/>
		<path d="M24.5,25.53L23.55,27.28" strokeLineJoin="round" stroke-width="0.83" fill="#00000000" stroke="#003ab5" strokeLineCap="round"/>
		<path d="M31.5,25.53L30.24,27.34" strokeLineJoin="round" stroke-width="0.83" fill="#00000000" stroke="#003ab5" strokeLineCap="round"/>
		<path d="M21.19,23.53L24.5,25.53" strokeLineJoin="round" stroke-width="0.83" fill="#00000000" stroke="#003ab5" strokeLineCap="round"/>
		<path d="M22.2,22.21L20.37,22.21" strokeLineJoin="round" stroke-width="0.83" fill="#00000000" stroke="#003ab5" strokeLineCap="round"/>
		<path d="M24.9,23.52L22.2,22.21" strokeLineJoin="round" stroke-width="0.83" fill="#00000000" stroke="#003ab5" strokeLineCap="round"/>
		<path d="M26,25.53L24.5,25.53" strokeLineJoin="round" stroke-width="0.83" fill="#00000000" stroke="#003ab5" strokeLineCap="round"/>
		<path d="M26.99,27.34L30.24,27.34" strokeLineJoin="round" stroke-width="0.83" fill="#00000000" stroke="#003ab5" strokeLineCap="round"/>
		<path d="M26.54,20.77L30.24,27.34" strokeLineJoin="round" stroke-width="0.83" fill="#00000000" stroke="#003ab5" strokeLineCap="round"/>
		<path d="M25.62,19.13L26.53,20.76" strokeLineJoin="round" stroke-width="0.83" fill="#00000000" stroke="#003ab5" strokeLineCap="round"/>
		<path d="M23.23,20.49L22.2,22.21" strokeLineJoin="round" stroke-width="0.83" fill="#00000000" stroke="#003ab5" strokeLineCap="round"/>
		<path d="M24.04,19.13L23.23,20.49" strokeLineJoin="round" stroke-width="0.83" fill="#00000000" stroke="#003ab5" strokeLineCap="round"/>
		<path d="M25.62,16.49L24.04,19.13" strokeLineJoin="round" stroke-width="0.83" fill="#00000000" stroke="#003ab5" strokeLineCap="round"/>
		<path d="M25.62,19.13L25.62,19.09" strokeLineJoin="round" stroke-width="0.83" fill="#00000000" stroke="#003ab5" strokeLineCap="round"/>
		<path d="M24.04,19.13L25.62,19.13" strokeLineJoin="round" stroke-width="0.83" fill="#00000000" stroke="#003ab5" strokeLineCap="round"/>
		<path d="M25.62,19.13L25.62,19.09" strokeLineJoin="round" stroke-width="0.83" fill="#00000000" stroke="#003ab5" strokeLineCap="round"/>
		<path d="M29.16,16.39L25.61,19.13" strokeLineJoin="round" stroke-width="0.83" fill="#00000000" stroke="#003ab5" strokeLineCap="round"/>
		<path d="M29.03,13.6L25.62,16.49" strokeLineJoin="round" stroke-width="0.83" fill="#00000000" stroke="#003ab5" strokeLineCap="round"/>
		<path d="M28.16,12.16L25.61,16.5" strokeLineJoin="round" stroke-width="0.83" fill="#00000000" stroke="#003ab5" strokeLineCap="round"/>
		<path d="M23.93,5.65L24.04,5.4" strokeLineJoin="round" stroke-width="0.83" fill="#00000000" stroke="#003ab5" strokeLineCap="round"/>
		<path d="M23.29,7.3L23.93,5.64" strokeLineJoin="round" stroke-width="0.83" fill="#00000000" stroke="#003ab5" strokeLineCap="round"/>
		<path d="M23.29,7.3L21.75,7.3" strokeLineJoin="round" stroke-width="0.83" fill="#00000000" stroke="#003ab5" strokeLineCap="round"/>
		<path d="M25.89,8.39L23.29,7.3" strokeLineJoin="round" stroke-width="0.83" fill="#00000000" stroke="#003ab5" strokeLineCap="round"/>
		<path d="M22.95,9.21L25.62,10.72" strokeLineJoin="round" stroke-width="0.83" fill="#00000000" stroke="#003ab5" strokeLineCap="round"/>
		<path d="M27.29,10.72L25.61,10.72" strokeLineJoin="round" stroke-width="0.83" fill="#00000000" stroke="#003ab5" strokeLineCap="round"/>
		<path d="M29.03,13.6L30.83,13.6" strokeLineJoin="round" stroke-width="0.83" fill="#00000000" stroke="#003ab5" strokeLineCap="round"/>
		<path d="M24.23,5.65L24.04,5.4" strokeLineJoin="round" stroke-width="0.83" fill="#00000000" stroke="#003ab5" strokeLineCap="round"/>
		<path d="M25.89,8.39L24.24,5.64" strokeLineJoin="round" stroke-width="0.83" fill="#00000000" stroke="#003ab5" strokeLineCap="round"/>
		<path d="M29.03,13.6L25.89,8.39" strokeLineJoin="round" stroke-width="0.83" fill="#00000000" stroke="#003ab5" strokeLineCap="round"/>
		<path d="M31.78,12L26.54,20.78" strokeLineJoin="round" stroke-width="0.83" fill="#00000000" stroke="#003ab5" strokeLineCap="round"/>
		<path d="M28.73,7.21L31.79,12" strokeLineJoin="round" stroke-width="0.83" fill="#00000000" stroke="#003ab5" strokeLineCap="round"/>
		<path d="M27.8,5.74L28.72,7.18" strokeLineJoin="round" stroke-width="0.83" fill="#00000000" stroke="#003ab5" strokeLineCap="round"/>
		<path d="M37.09,24.7L37.09,24.6" strokeLineJoin="round" stroke-width="0.83" fill="#00000000" stroke="#003ab5" strokeLineCap="round"/>
		<path d="M35.08,23.51L37.09,24.7" strokeLineJoin="round" stroke-width="0.83" fill="#00000000" stroke="#003ab5" strokeLineCap="round"/>
		<path d="M35.83,22.02L34.24,22.02" strokeLineJoin="round" stroke-width="0.83" fill="#00000000" stroke="#003ab5" strokeLineCap="round"/>
		<path d="M37.09,22.64L35.83,22.02" strokeLineJoin="round" stroke-width="0.83" fill="#00000000" stroke="#003ab5" strokeLineCap="round"/>
		<path d="M37.09,20.69L37.09,20.65" strokeLineJoin="round" stroke-width="0.83" fill="#00000000" stroke="#003ab5" strokeLineCap="round"/>
		<path d="M36.88,20.27L37.09,20.68" strokeLineJoin="round" stroke-width="0.83" fill="#00000000" stroke="#003ab5" strokeLineCap="round"/>
		<path d="M37.09,19.91L35.83,22.02" strokeLineJoin="round" stroke-width="0.83" fill="#00000000" stroke="#003ab5" strokeLineCap="round"/>
		<path d="M37.09,19.91L36.87,20.28" strokeLineJoin="round" stroke-width="0.83" fill="#00000000" stroke="#003ab5" strokeLineCap="round"/>
		<path d="M36.95,7L35.61,7" strokeLineJoin="round" stroke-width="0.83" fill="#00000000" stroke="#003ab5" strokeLineCap="round"/>
		<path d="M36.95,7L36.95,6.96" strokeLineJoin="round" stroke-width="0.83" fill="#00000000" stroke="#003ab5" strokeLineCap="round"/>
		<path d="M37.09,7.11L36.95,7" strokeLineJoin="round" stroke-width="0.83" fill="#00000000" stroke="#003ab5" strokeLineCap="round"/>
		<path d="M28.04,23.44L31.5,25.53" strokeLineJoin="round" stroke-width="0.83" fill="#00000000" stroke="#003ab5" strokeLineCap="round"/>
		<path d="M29.2,22.21L27.35,22.21" strokeLineJoin="round" stroke-width="0.83" fill="#00000000" stroke="#003ab5" strokeLineCap="round"/>
		<path d="M31.89,23.52L29.2,22.21" strokeLineJoin="round" stroke-width="0.83" fill="#00000000" stroke="#003ab5" strokeLineCap="round"/>
		<path d="M33,25.53L31.49,25.53" strokeLineJoin="round" stroke-width="0.83" fill="#00000000" stroke="#003ab5" strokeLineCap="round"/>
		<path d="M33,25.53L33.99,27.34" strokeLineJoin="round" stroke-width="0.83" fill="#00000000" stroke="#003ab5" strokeLineCap="round"/>
		<path d="M30.22,20.49L33,25.54" strokeLineJoin="round" stroke-width="0.83" fill="#00000000" stroke="#003ab5" strokeLineCap="round"/>
		<path d="M37.09,27.34L37.09,27.28" strokeLineJoin="round" stroke-width="0.83" fill="#00000000" stroke="#003ab5" strokeLineCap="round"/>
		<path d="M33.99,27.34L37.09,27.34" strokeLineJoin="round" stroke-width="0.83" fill="#00000000" stroke="#003ab5" strokeLineCap="round"/>
		<path d="M37.09,27.09L37.09,27.03" strokeLineJoin="round" stroke-width="0.83" fill="#00000000" stroke="#003ab5" strokeLineCap="round"/>
		<path d="M35.08,23.51L37.09,27.09" strokeLineJoin="round" stroke-width="0.83" fill="#00000000" stroke="#003ab5" strokeLineCap="round"/>
		<path d="M33.54,20.78L35.08,23.51" strokeLineJoin="round" stroke-width="0.83" fill="#00000000" stroke="#003ab5" strokeLineCap="round"/>
		<path d="M32.61,19.13L33.54,20.78" strokeLineJoin="round" stroke-width="0.83" fill="#00000000" stroke="#003ab5" strokeLineCap="round"/>
		<path d="M30.22,20.49L29.2,22.21" strokeLineJoin="round" stroke-width="0.83" fill="#00000000" stroke="#003ab5" strokeLineCap="round"/>
		<path d="M31.04,19.13L30.22,20.49" strokeLineJoin="round" stroke-width="0.83" fill="#00000000" stroke="#003ab5" strokeLineCap="round"/>
		<path d="M32.61,16.49L31.04,19.13" strokeLineJoin="round" stroke-width="0.83" fill="#00000000" stroke="#003ab5" strokeLineCap="round"/>
		<path d="M31.04,19.13L32.62,19.13" strokeLineJoin="round" stroke-width="0.83" fill="#00000000" stroke="#003ab5" strokeLineCap="round"/>
		<path d="M36.15,16.4L32.61,19.13" strokeLineJoin="round" stroke-width="0.83" fill="#00000000" stroke="#003ab5" strokeLineCap="round"/>
		<path d="M36.03,13.6L32.62,16.49" strokeLineJoin="round" stroke-width="0.83" fill="#00000000" stroke="#003ab5" strokeLineCap="round"/>
		<path d="M35.16,12.16L32.62,16.49" strokeLineJoin="round" stroke-width="0.83" fill="#00000000" stroke="#003ab5" strokeLineCap="round"/>
		<path d="M30.92,5.74L31.03,5.4" strokeLineJoin="round" stroke-width="0.83" fill="#00000000" stroke="#003ab5" strokeLineCap="round"/>
		<path d="M30.29,7.3L30.92,5.74" strokeLineJoin="round" stroke-width="0.83" fill="#00000000" stroke="#003ab5" strokeLineCap="round"/>
		<path d="M30.29,7.3L28.73,7.21" strokeLineJoin="round" stroke-width="0.83" fill="#00000000" stroke="#003ab5" strokeLineCap="round"/>
		<path d="M32.85,8.37L30.29,7.3" strokeLineJoin="round" stroke-width="0.83" fill="#00000000" stroke="#003ab5" strokeLineCap="round"/>
		<path d="M30.05,9.27L32.61,10.72" strokeLineJoin="round" stroke-width="0.83" fill="#00000000" stroke="#003ab5" strokeLineCap="round"/>
		<path d="M34.28,10.72L32.61,10.72" strokeLineJoin="round" stroke-width="0.83" fill="#00000000" stroke="#003ab5" strokeLineCap="round"/>
		<path d="M37.09,13.6L37.09,13.56" strokeLineJoin="round" stroke-width="0.83" fill="#00000000" stroke="#003ab5" strokeLineCap="round"/>
		<path d="M36.03,13.6L37.09,13.6" strokeLineJoin="round" stroke-width="0.83" fill="#00000000" stroke="#003ab5" strokeLineCap="round"/>
		<path d="M31.24,5.74L31.04,5.4" strokeLineJoin="round" stroke-width="0.83" fill="#00000000" stroke="#003ab5" strokeLineCap="round"/>
		<path d="M32.85,8.37L31.24,5.74" strokeLineJoin="round" stroke-width="0.83" fill="#00000000" stroke="#003ab5" strokeLineCap="round"/>
		<path d="M36.03,13.6L32.85,8.37" strokeLineJoin="round" stroke-width="0.83" fill="#00000000" stroke="#003ab5" strokeLineCap="round"/>
		<path d="M37.09,14.82L33.53,20.8" strokeLineJoin="round" stroke-width="0.83" fill="#00000000" stroke="#003ab5" strokeLineCap="round"/>
		<path d="M35.61,7L37.09,9.31" strokeLineJoin="round" stroke-width="0.83" fill="#00000000" stroke="#003ab5" strokeLineCap="round"/>
		<path d="M34.8,5.74L35.61,7" strokeLineJoin="round" stroke-width="0.83" fill="#00000000" stroke="#003ab5" strokeLineCap="round"/>
		<path d="M13.97,23.55L17.47,25.53" strokeLineJoin="round" stroke-width="0.83" fill="#00000000" stroke="#003ab5" strokeLineCap="round"/>
		<path d="M15.18,22.26L13.24,22.26" strokeLineJoin="round" stroke-width="0.83" fill="#00000000" stroke="#003ab5" strokeLineCap="round"/>
		<path d="M17.86,23.62L15.18,22.26" strokeLineJoin="round" stroke-width="0.83" fill="#00000000" stroke="#003ab5" strokeLineCap="round"/>
		<path d="M18.94,25.57L17.47,25.53" strokeLineJoin="round" stroke-width="0.83" fill="#00000000" stroke="#003ab5" strokeLineCap="round"/>
		<path d="M18.94,25.57L19.91,27.34" strokeLineJoin="round" stroke-width="0.83" fill="#00000000" stroke="#003ab5" strokeLineCap="round"/>
		<path d="M16.18,20.57L18.94,25.57" strokeLineJoin="round" stroke-width="0.83" fill="#00000000" stroke="#003ab5" strokeLineCap="round"/>
		<path d="M19.5,20.83L23.55,27.29" strokeLineJoin="round" stroke-width="0.83" fill="#00000000" stroke="#003ab5" strokeLineCap="round"/>
		<path d="M18.59,19.22L19.51,20.84" strokeLineJoin="round" stroke-width="0.83" fill="#00000000" stroke="#003ab5" strokeLineCap="round"/>
		<path d="M16.18,20.57L15.17,22.26" strokeLineJoin="round" stroke-width="0.83" fill="#00000000" stroke="#003ab5" strokeLineCap="round"/>
		<path d="M16.99,19.22L16.18,20.57" strokeLineJoin="round" stroke-width="0.83" fill="#00000000" stroke="#003ab5" strokeLineCap="round"/>
		<path d="M18.59,16.53L16.99,19.22" strokeLineJoin="round" stroke-width="0.83" fill="#00000000" stroke="#003ab5" strokeLineCap="round"/>
		<path d="M16.99,19.22L18.59,19.22" strokeLineJoin="round" stroke-width="0.83" fill="#00000000" stroke="#003ab5" strokeLineCap="round"/>
		<path d="M22.13,16.41L18.59,19.22" strokeLineJoin="round" stroke-width="0.83" fill="#00000000" stroke="#003ab5" strokeLineCap="round"/>
		<path d="M21.97,13.65L18.58,16.54" strokeLineJoin="round" stroke-width="0.83" fill="#00000000" stroke="#003ab5" strokeLineCap="round"/>
		<path d="M21.13,12.26L18.59,16.53" strokeLineJoin="round" stroke-width="0.83" fill="#00000000" stroke="#003ab5" strokeLineCap="round"/>
		<path d="M16.92,5.65L17.01,5.44" strokeLineJoin="round" stroke-width="0.83" fill="#00000000" stroke="#003ab5" strokeLineCap="round"/>
		<path d="M16.23,7.3L14.7,7.3" strokeLineJoin="round" stroke-width="0.83" fill="#00000000" stroke="#003ab5" strokeLineCap="round"/>
		<path d="M18.83,8.43L16.23,7.3" strokeLineJoin="round" stroke-width="0.83" fill="#00000000" stroke="#003ab5" strokeLineCap="round"/>
		<path d="M15.93,9.26L18.58,10.82" strokeLineJoin="round" stroke-width="0.83" fill="#00000000" stroke="#003ab5" strokeLineCap="round"/>
		<path d="M20.26,10.82L18.58,10.82" strokeLineJoin="round" stroke-width="0.83" fill="#00000000" stroke="#003ab5" strokeLineCap="round"/>
		<path d="M21.97,13.65L23.77,13.65" strokeLineJoin="round" stroke-width="0.83" fill="#00000000" stroke="#003ab5" strokeLineCap="round"/>
		<path d="M17.15,5.65L17.01,5.44" strokeLineJoin="round" stroke-width="0.83" fill="#00000000" stroke="#003ab5" strokeLineCap="round"/>
		<path d="M18.83,8.43L17.15,5.65" strokeLineJoin="round" stroke-width="0.83" fill="#00000000" stroke="#003ab5" strokeLineCap="round"/>
		<path d="M21.97,13.65L18.83,8.43" strokeLineJoin="round" stroke-width="0.83" fill="#00000000" stroke="#003ab5" strokeLineCap="round"/>
		<path d="M19.5,20.84L19.5,20.8" strokeLineJoin="round" stroke-width="0.83" fill="#00000000" stroke="#003ab5" strokeLineCap="round"/>
		<path d="M24.72,12.04L19.5,20.84" strokeLineJoin="round" stroke-width="0.83" fill="#00000000" stroke="#003ab5" strokeLineCap="round"/>
		<path d="M21.75,7.3L24.73,12.04" strokeLineJoin="round" stroke-width="0.83" fill="#00000000" stroke="#003ab5" strokeLineCap="round"/>
		<path d="M20.7,5.65L21.75,7.3" strokeLineJoin="round" stroke-width="0.83" fill="#00000000" stroke="#003ab5" strokeLineCap="round"/>
		<path d="M16.09,27.28L12.85,27.28" strokeLineJoin="round" stroke-width="0.83" fill="#00000000" stroke="#003ab5" strokeLineCap="round"/>
		<path d="M41.04,15.37h3.16v1.99h-3.16z" strokeLineJoin="round" stroke-width="0.83" fill="#00000000" stroke="#003ab5" strokeLineCap="round"/>
		<path d="M34.77,29.43L34.77,36.26" strokeLineJoin="round" stroke-width="0.62" fill="#00000000" stroke="#003ab5" strokeLineCap="round"/>
		<path d="M36.58,36.26l-1.81,7.49l-1.8,-7.49l3.61,0" fill="#003ab5" fill-rule="evenOdd"/>
	</group>
</svg>
