<svg xmlns="http://www.w3.org/2000/svg" height="48dp" viewportHeight="44.97" viewportWidth="57.39" width="61.25684dp" xmlns:android="http://schemas.android.com/apk/res/android">
	<group>
		<clip-path d="M0,0h57.39v44.97h-57.39z"/>
		<path fill="#00000000" d="M42.73,22.5A21.21,21.21 0,0 1,21.66 43.84,21.21 21.21,0 0,1 0.59,22.5 21.22,21.22 0,0 1,21.66 1.15,21.21 21.21,0 0,1 42.73,22.5Z" stroke="#003ab5" strokeLineCap="round" strokeLineJoin="round" stroke-width="1.2"/>
		<path fill="#00000000" d="M34.39,22.5A12.73,12.73 0,1 1,21.66 9.6,12.82 12.82,0 0,1 34.39,22.5Z" stroke="#003ab5" strokeLineCap="round" strokeLineJoin="round" stroke-width="1.2"/>
		<path fill="#00000000" d="M19.56,35.22c-0.12,4.84 3.17,8.4 7.36,8" stroke="#003ab5" strokeLineCap="round" strokeLineJoin="round" stroke-width="1.2"/>
		<path fill="#00000000" d="M31.39,30.68c4.08,2.53 8.77,1.41 10.49,-2.49" stroke="#003ab5" strokeLineCap="round" strokeLineJoin="round" stroke-width="1.2"/>
		<path fill="#00000000" d="M33.63,18.08c4.19,-2.31 5.58,-7 3.11,-10.44" stroke="#003ab5" strokeLineCap="round" strokeLineJoin="round" stroke-width="1.2"/>
		<path fill="#00000000" d="M23.93,9.74c0.12,-4.83 -3.18,-8.39 -7.37,-7.95" stroke="#003ab5" strokeLineCap="round" strokeLineJoin="round" stroke-width="1.2"/>
		<path fill="#00000000" d="M11.89,14.16c-4.08,-2.52 -8.77,-1.4 -10.49,2.49" stroke="#003ab5" strokeLineCap="round" strokeLineJoin="round" stroke-width="1.2"/>
		<path fill="#00000000" d="M9.58,26.85c-4.19,2.31 -5.58,7 -3.11,10.44" stroke="#003ab5" strokeLineCap="round" strokeLineJoin="round" stroke-width="1.2"/>
		<path fill="#00000000" d="M25.23,22.5a3.57,3.57 0,1 1,-3.57 -3.62A3.59,3.59 0,0 1,25.23 22.5Z" stroke="#003ab5" strokeLineCap="round" strokeLineJoin="round" stroke-width="1.2"/>
		<path fill="#00000000" d="M47.21,13.67a4.22,4.22 0,0 1,1.64 -1.33c1.45,-0.63 2.21,0.17 2.84,0.85 1.08,1.18 1.78,2 2.48,2.2 1.11,0.32 2.25,-0.83 2.86,-1.72" stroke="#003ab5" strokeLineCap="round" strokeLineJoin="round" stroke-width="0.72"/>
		<path fill="#00000000" d="M47.21,16.18a4.38,4.38 0,0 1,1.64 -1.34c1.45,-0.62 2.21,0.18 2.84,0.86 1.08,1.17 1.78,2 2.48,2.2 1.11,0.32 2.25,-0.83 2.86,-1.72" stroke="#003ab5" strokeLineCap="round" strokeLineJoin="round" stroke-width="0.72"/>
		<path fill="#00000000" d="M47.21,18.69a4.22,4.22 0,0 1,1.64 -1.33c1.45,-0.63 2.21,0.17 2.84,0.85 1.08,1.17 1.78,2 2.48,2.19 1.11,0.34 2.25,-0.82 2.86,-1.71" stroke="#003ab5" strokeLineCap="round" strokeLineJoin="round" stroke-width="0.72"/>
		<path fill="#00000000" d="M47.21,21.19a4.32,4.32 0,0 1,1.64 -1.33c1.45,-0.62 2.21,0.18 2.84,0.85 1.08,1.18 1.78,2 2.48,2.2 1.11,0.33 2.25,-0.83 2.86,-1.72" stroke="#003ab5" strokeLineCap="round" strokeLineJoin="round" stroke-width="0.72"/>
		<path fill="#00000000" d="M47.21,23.6a4.22,4.22 0,0 1,1.64 -1.33c1.45,-0.63 2.21,0.17 2.84,0.86 1.08,1.18 1.78,2 2.48,2.19 1.11,0.33 2.25,-0.83 2.86,-1.72" stroke="#003ab5" strokeLineCap="round" strokeLineJoin="round" stroke-width="0.72"/>
		<path fill="#00000000" d="M47.21,26.11a4.22,4.22 0,0 1,1.64 -1.33c1.45,-0.63 2.21,0.17 2.84,0.85 1.08,1.18 1.78,2 2.48,2.2 1.11,0.33 2.25,-0.83 2.86,-1.72" stroke="#003ab5" strokeLineCap="round" strokeLineJoin="round" stroke-width="0.72"/>
		<path fill="#00000000" d="M47.21,28.62a4.22,4.22 0,0 1,1.64 -1.33c1.45,-0.63 2.21,0.17 2.84,0.85 1.08,1.17 1.78,2 2.48,2.2 1.11,0.33 2.25,-0.83 2.86,-1.72" stroke="#003ab5" strokeLineCap="round" strokeLineJoin="round" stroke-width="0.72"/>
		<path fill="#00000000" d="M47.21,31.12a4.17,4.17 0,0 1,1.64 -1.32c1.45,-0.63 2.21,0.17 2.84,0.85 1.08,1.18 1.78,2 2.48,2.19 1.11,0.34 2.25,-0.83 2.86,-1.72" stroke="#003ab5" strokeLineCap="round" strokeLineJoin="round" stroke-width="0.72"/>
	</group>
</svg>
