<svg xmlns="http://www.w3.org/2000/svg" height="48dp" viewportHeight="43.61" viewportWidth="56.52" width="62.209583dp" xmlns:android="http://schemas.android.com/apk/res/android">
	<group>
		<clip-path d="M0.01,-0.16h56.51v43.92h-56.51z"/>
		<path fill="#00000000" d="M46.49,13.14a4.29,4.29 0,0 1,1.62 -1.31c1.42,-0.62 2.17,0.17 2.79,0.84 1.07,1.18 1.76,2 2.45,2.18C54.44,15.14 55.61,14.02 56.17,13.14" stroke="#003ab5" strokeLineCap="round" strokeLineJoin="round" stroke-width="0.71"/>
		<path fill="#00000000" d="M46.49,15.63a4.25,4.25 0,0 1,1.62 -1.32c1.42,-0.62 2.17,0.18 2.79,0.85 1.07,1.17 1.76,2 2.45,2.18 1.09,0.33 2.21,-0.83 2.82,-1.71" stroke="#003ab5" strokeLineCap="round" strokeLineJoin="round" stroke-width="0.71"/>
		<path fill="#00000000" d="M46.49,18.14a4.35,4.35 0,0 1,1.62 -1.32c1.42,-0.62 2.17,0.18 2.79,0.85 1.07,1.17 1.76,2 2.45,2.18C54.44,20.14 55.61,19.01 56.17,18.14" stroke="#003ab5" strokeLineCap="round" strokeLineJoin="round" stroke-width="0.71"/>
		<path fill="#00000000" d="M46.49,20.62a4.15,4.15 0,0 1,1.62 -1.32c1.42,-0.63 2.17,0.17 2.79,0.85 1.07,1.17 1.76,2 2.45,2.18 1.09,0.32 2.21,-0.83 2.82,-1.71" stroke="#003ab5" strokeLineCap="round" strokeLineJoin="round" stroke-width="0.71"/>
		<path fill="#00000000" d="M46.49,23.02a4.2,4.2 0,0 1,1.62 -1.33c1.42,-0.62 2.17,0.18 2.79,0.85 1.07,1.17 1.76,2 2.45,2.19 1.09,0.32 2.21,-0.83 2.82,-1.71" stroke="#003ab5" strokeLineCap="round" strokeLineJoin="round" stroke-width="0.71"/>
		<path fill="#00000000" d="M46.49,25.5A4.35,4.35 0,0 1,48.11 24.14c1.42,-0.62 2.17,0.18 2.79,0.85 1.07,1.17 1.76,2 2.45,2.18 1.09,0.34 2.21,-0.83 2.82,-1.71" stroke="#003ab5" strokeLineCap="round" strokeLineJoin="round" stroke-width="0.71"/>
		<path fill="#00000000" d="M46.49,28a4.3,4.3 0,0 1,1.62 -1.33c1.42,-0.62 2.17,0.18 2.79,0.85 1.07,1.18 1.76,2 2.45,2.18 1.09,0.33 2.21,-0.82 2.82,-1.7" stroke="#003ab5" strokeLineCap="round" strokeLineJoin="round" stroke-width="0.71"/>
		<path fill="#00000000" d="M46.49,30.49A4.25,4.25 0,0 1,48.11 29.14c1.42,-0.63 2.17,0.17 2.79,0.85 1.07,1.17 1.76,2 2.45,2.18 1.09,0.32 2.21,-0.83 2.82,-1.71" stroke="#003ab5" strokeLineCap="round" strokeLineJoin="round" stroke-width="0.71"/>
		<path fill="#00000000" d="M36.18,7.03c2.17,3.36 0.8,8 -3.07,10.38" stroke="#003ab5" strokeLineCap="round" strokeLineJoin="round" stroke-width="1.19"/>
		<path fill="#00000000" d="M41.23,27.46c-1.75,3.6 -6.37,4.7 -10.31,2.47" stroke="#003ab5" strokeLineCap="round" strokeLineJoin="round" stroke-width="1.19"/>
		<path fill="#00000000" d="M26.52,42.35c-3.93,0.24 -7.17,-3.29 -7.26,-7.9" stroke="#003ab5" strokeLineCap="round" strokeLineJoin="round" stroke-width="1.19"/>
		<path fill="#00000000" d="M24.85,21.81a3.61,3.61 0,0 1,-1.73 3.17,3.45 3.45,0 0,1 -3.56,0 3.78,3.78 0,0 1,0 -6.35,3.45 3.45,0 0,1 3.56,0 3.62,3.62 0,0 1,1.73 3.18" stroke="#003ab5" strokeLineCap="round" strokeLineJoin="round" stroke-width="1.19"/>
		<path fill="#00000000" d="M16.31,1.23C20.23,0.98 23.48,4.52 23.61,9.14" stroke="#003ab5" strokeLineCap="round" strokeLineJoin="round" stroke-width="1.19"/>
		<path fill="#00000000" d="M33.87,21.81a12.88,12.88 0,0 1,-6.21 11.26,12.3 12.3,0 0,1 -12.64,0A12.89,12.89 0,0 1,8.8 21.81,12.89 12.89,0 0,1 15.02,10.54a12.3,12.3 0,0 1,12.64 0,12.88 12.88,0 0,1 6.21,11.27" stroke="#003ab5" strokeLineCap="round" strokeLineJoin="round" stroke-width="1.19"/>
		<path fill="#00000000" d="M6.38,36.51C4.21,33.14 5.61,28.51 9.45,26.14" stroke="#003ab5" strokeLineCap="round" strokeLineJoin="round" stroke-width="1.19"/>
		<path fill="#00000000" d="M1.38,16a6.39,6.39 0,0 1,4.34 -3.43,8.31 8.31,0 0,1 6,1" stroke="#003ab5" strokeLineCap="round" strokeLineJoin="round" stroke-width="1.19"/>
		<path fill="#00000000" d="M29.07,11.91A5.23,5.23 0,0 0,26.61 5.36,17.4 17.4,0 0,1 38.06,18.14a5.16,5.16 0,0 1,-4.28 5.57,11.87 11.87,0 0,0 0.12,-1.68 13,13 0,0 0,-4.83 -10.11" stroke="#003ab5" strokeLineCap="round" strokeLineJoin="round" stroke-width="1.19"/>
		<path fill="#00000000" d="M16.61,10.14a5,5 0,0 0,-6.76 -1.13A16.86,16.86 0,0 1,26.38 5.3a5.2,5.2 0,0 1,2.58 6.58A11.27,11.27 0,0 0,27.61 10.95,12.28 12.28,0 0,0 16.61,10.14 12.78,12.78 0,0 0,8.91 20.28,5.14 5.14,0 0,0 4.61,25.91 17.77,17.77 0,0 1,9.87 9.03,5 5,0 0,1 16.61,10.14" stroke="#003ab5" strokeLineCap="round" strokeLineJoin="round" stroke-width="1.19"/>
		<path fill="#00000000" d="M33.18,34.68a5,5 0,0 1,-7 -0.83,12.78 12.78,0 0,0 7.57,-10.23 13,13 0,0 0,-4.82 -11.74,5.2 5.2,0 0,0 -2.58,-6.58 17.4,17.4 0,0 1,11.62 12.7,17.8 17.8,0 0,1 -4.82,16.68 16.86,16.86 0,0 1,-16.8 4.13A5.21,5.21 0,0 1,13.61 32.14,12.29 12.29,0 0,0 26.21,33.85a5,5 0,0 0,7 0.83" stroke="#003ab5" strokeLineCap="round" strokeLineJoin="round" stroke-width="1.19"/>
		<path fill="#00000000" d="M4.61,25.91A5.14,5.14 0,0 1,8.91 20.28,13 13,0 0,0 13.61,32.14a5.21,5.21 0,0 0,2.79 6.69A17.37,17.37 0,0 1,4.61 25.91" stroke="#003ab5" strokeLineCap="round" strokeLineJoin="round" stroke-width="1.19"/>
		<path fill="#00000000" d="M42.08,21.81A21,21 0,0 1,21.34 43.02,21 21,0 0,1 0.61,21.81 21,21 0,0 1,21.34 0.59,21 21,0 0,1 42.08,21.81" stroke="#003ab5" strokeLineCap="round" strokeLineJoin="round" stroke-width="1.19"/>
	</group>
</svg>
