<svg xmlns="http://www.w3.org/2000/svg" height="48dp" viewportHeight="44.97" viewportWidth="53.11" width="56.688457dp" xmlns:android="http://schemas.android.com/apk/res/android">
	<group>
		<clip-path d="M-44.43,-3.53h140.43v70.74h-140.43z"/>
		<path fill="#00000000" d="M51,21.5h0.05a1,1 0,0 0,1 -1V14.57a1,1 0,0 0,-1 -1H51v8" stroke="#003ab5" strokeLineCap="round" strokeLineJoin="round" stroke-width="0.98"/>
		<path fill="#00000000" d="M49.83,11.75h1.21v11.52h-1.21z" stroke="#003ab5" strokeLineCap="round" strokeLineJoin="round" stroke-width="0.98"/>
		<path fill="#00000000" d="M48.62,19.24l0,4.04l1.21,0l0,-11.53l-1.21,0l0,7.49" stroke="#003ab5" strokeLineCap="round" strokeLineJoin="round" stroke-width="0.98"/>
		<path fill="#00000000" d="M44.9,24.68L44.9,24.69" stroke="#003ab5" strokeLineCap="round" strokeLineJoin="round" stroke-width="0.98"/>
		<path fill="#00000000" d="M41.17,16.06h3.67v2.93h-3.67z" stroke="#003ab5" strokeLineCap="round" strokeLineJoin="round" stroke-width="0.98"/>
		<path fill="#00000000" d="M34.84,17.81V29.69l0,0.46 3.6,-0.46h1.84V27.13l4.15,-1.27a1.38,1.38 0,0 0,0.5 -1.15V23a0.86,0.86 0,0 1,0.83 -0.89h2.89v-9.2H45.73a0.85,0.85 0,0 0,-0.84 0.84V20H41.16V15.49a0.48,0.48 0,1 0,-1 0v0.32H38.38v-0.66a0.84,0.84 0,0 0,-0.83 -0.84H36a1.08,1.08 0,0 1,-0.82 -0.4,1.42 1.42,0 0,1 -0.35,-0.94v4.61a0.76,0.76 0,0 0,0 0.21" stroke="#003ab5" strokeLineCap="round" strokeLineJoin="round" stroke-width="0.98"/>
		<path fill="#00000000" d="M32.1,28.12a0.68,0.68 0,0 1,0.35 -0.61,0.77 0.77,0 0,1 0.72,0 0.71,0.71 0,1 1,-0.72 1.22,0.68 0.68,0 0,1 -0.35,-0.61" stroke="#003ab5" strokeLineCap="round" strokeLineJoin="round" stroke-width="0.98"/>
		<path fill="#00000000" d="M32.06,32.35a0.68,0.68 0,0 1,0.36 -0.61,0.7 0.7,0 0,1 0.71,0 0.68,0.68 0,0 1,0.36 0.61,0.69 0.69,0 0,1 -0.36,0.61 0.75,0.75 0,0 1,-0.71 0,0.69 0.69,0 0,1 -0.36,-0.61" stroke="#003ab5" strokeLineCap="round" strokeLineJoin="round" stroke-width="0.98"/>
		<path fill="#00000000" d="M29.74,35.51a0.71,0.71 0,0 0,0.36 0.61,0.76 0.76,0 0,0 0.72,0 0.7,0.7 0,0 0,0 -1.22,0.76 0.76,0 0,0 -0.72,0 0.71,0.71 0,0 0,-0.36 0.61" stroke="#003ab5" strokeLineCap="round" strokeLineJoin="round" stroke-width="0.98"/>
		<path fill="#00000000" d="M29.74,35.51a0.71,0.71 0,0 1,0.36 -0.61,0.76 0.76,0 0,1 0.72,0 0.7,0.7 0,0 1,0 1.22,0.76 0.76,0 0,1 -0.72,0 0.71,0.71 0,0 1,-0.36 -0.61" stroke="#003ab5" strokeLineCap="round" strokeLineJoin="round" stroke-width="0.98"/>
		<path fill="#00000000" d="M29.72,24.84a0.71,0.71 0,0 1,0.36 -0.61,0.76 0.76,0 0,1 0.72,0 0.7,0.7 0,0 1,0 1.22,0.76 0.76,0 0,1 -0.72,0 0.71,0.71 0,0 1,-0.36 -0.61" stroke="#003ab5" strokeLineCap="round" strokeLineJoin="round" stroke-width="0.98"/>
		<path fill="#00000000" d="M25.74,23.43a0.69,0.69 0,0 1,0.36 -0.6,0.71 0.71,0 0,1 0.72,0 0.69,0.69 0,0 1,0 1.21,0.71 0.71,0 0,1 -0.72,0 0.69,0.69 0,0 1,-0.36 -0.61" stroke="#003ab5" strokeLineCap="round" strokeLineJoin="round" stroke-width="0.98"/>
		<path fill="#00000000" d="M25.74,36.83a0.69,0.69 0,0 1,0.36 -0.61,0.71 0.71,0 0,1 0.72,0 0.69,0.69 0,0 1,0 1.21,0.71 0.71,0 0,1 -0.72,0 0.69,0.69 0,0 1,-0.36 -0.6" stroke="#003ab5" strokeLineCap="round" strokeLineJoin="round" stroke-width="0.98"/>
		<path fill="#00000000" d="M26.52,14.63h-4c0.54,0 1,-0.3 1,-0.67l0.05,-7.5c0,-1.17 1.34,-2.11 3,-2.11s3,0.94 3,2.11l0,7.5c0,0.38 0.44,0.68 1,0.68h-4" stroke="#003ab5" strokeLineCap="round" strokeLineJoin="round" stroke-width="0.98"/>
		<path fill="#00000000" d="M23.22,24.83a0.71,0.71 0,0 1,-0.36 0.61,0.77 0.77,0 0,1 -0.72,0 0.7,0.7 0,0 1,0 -1.22,0.77 0.77,0 0,1 0.72,0 0.71,0.71 0,0 1,0.36 0.61" stroke="#003ab5" strokeLineCap="round" strokeLineJoin="round" stroke-width="0.98"/>
		<path fill="#00000000" d="M23.2,35.5a0.68,0.68 0,0 1,-0.36 0.61,0.76 0.76,0 0,1 -0.72,0 0.7,0.7 0,0 1,-0.36 -0.61,0.71 0.71,0 0,1 0.36,-0.61 0.76,0.76 0,0 1,0.72 0,0.69 0.69,0 0,1 0.36,0.61" stroke="#003ab5" strokeLineCap="round" strokeLineJoin="round" stroke-width="0.98"/>
		<path fill="#00000000" d="M31.66,30.24a5.16,5.16 0,0 1,-2.5 4.6,5.07 5.07,0 0,1 -5.21,0 5.16,5.16 0,0 1,-2.5 -4.6,5.17 5.17,0 0,1 2.5,-4.6 5.12,5.12 0,0 1,5.21 0,5.17 5.17,0 0,1 2.5,4.6" stroke="#003ab5" strokeLineCap="round" strokeLineJoin="round" stroke-width="0.98"/>
		<path fill="#00000000" d="M20.91,32.34a0.72,0.72 0,1 1,-0.72 -0.71,0.71 0.71,0 0,1 0.72,0.71" stroke="#003ab5" strokeLineCap="round" strokeLineJoin="round" stroke-width="0.98"/>
		<path fill="#00000000" d="M20.86,28.11a0.69,0.69 0,0 0,-0.36 -0.61,0.76 0.76,0 0,0 -0.72,0 0.71,0.71 0,0 0,0.72 1.22,0.69 0.69,0 0,0 0.36,-0.61" stroke="#003ab5" strokeLineCap="round" strokeLineJoin="round" stroke-width="0.98"/>
		<path fill="#00000000" d="M20.86,28.11a0.69,0.69 0,0 1,-0.36 0.61,0.71 0.71,0 1,1 -0.72,-1.22 0.76,0.76 0,0 1,0.72 0,0.69 0.69,0 0,1 0.36,0.61" stroke="#003ab5" strokeLineCap="round" strokeLineJoin="round" stroke-width="0.98"/>
		<path fill="#00000000" d="M31.66,30.24a5.17,5.17 0,0 0,-2.5 -4.6,5.12 5.12,0 0,0 -5.21,0 5.17,5.17 0,0 0,-2.5 4.6,5.16 5.16,0 0,0 2.5,4.6 5.07,5.07 0,0 0,5.21 0,5.16 5.16,0 0,0 2.5,-4.6" stroke="#003ab5" strokeLineCap="round" strokeLineJoin="round" stroke-width="0.98"/>
		<path fill="#00000000" d="M23.2,35.5a0.69,0.69 0,0 0,-0.36 -0.61,0.76 0.76,0 0,0 -0.72,0 0.71,0.71 0,0 0,-0.36 0.61,0.7 0.7,0 0,0 0.36,0.61 0.76,0.76 0,0 0,0.72 0,0.68 0.68,0 0,0 0.36,-0.61" stroke="#003ab5" strokeLineCap="round" strokeLineJoin="round" stroke-width="0.98"/>
		<path fill="#00000000" d="M23.22,24.83a0.71,0.71 0,0 0,-0.36 -0.61,0.77 0.77,0 0,0 -0.72,0 0.7,0.7 0,0 0,0 1.22,0.77 0.77,0 0,0 0.72,0 0.71,0.71 0,0 0,0.36 -0.61" stroke="#003ab5" strokeLineCap="round" strokeLineJoin="round" stroke-width="0.98"/>
		<path fill="#00000000" d="M25.74,36.83a0.69,0.69 0,0 0,0.36 0.6,0.71 0.71,0 0,0 0.72,0 0.69,0.69 0,0 0,0 -1.21,0.71 0.71,0 0,0 -0.72,0 0.69,0.69 0,0 0,-0.36 0.61" stroke="#003ab5" strokeLineCap="round" strokeLineJoin="round" stroke-width="0.98"/>
		<path fill="#00000000" d="M25.74,23.43a0.69,0.69 0,0 0,0.36 0.61,0.71 0.71,0 0,0 0.72,0 0.69,0.69 0,0 0,0 -1.21,0.71 0.71,0 0,0 -0.72,0 0.69,0.69 0,0 0,-0.36 0.6" stroke="#003ab5" strokeLineCap="round" strokeLineJoin="round" stroke-width="0.98"/>
		<path fill="#00000000" d="M29.72,24.84a0.71,0.71 0,0 0,0.36 0.61,0.76 0.76,0 0,0 0.72,0 0.7,0.7 0,0 0,0 -1.22,0.76 0.76,0 0,0 -0.72,0 0.71,0.71 0,0 0,-0.36 0.61" stroke="#003ab5" strokeLineCap="round" strokeLineJoin="round" stroke-width="0.98"/>
		<path fill="#00000000" d="M32.06,32.35a0.69,0.69 0,0 0,0.36 0.61,0.75 0.75,0 0,0 0.71,0 0.69,0.69 0,0 0,0.36 -0.61,0.68 0.68,0 0,0 -0.36,-0.61 0.7,0.7 0,0 0,-0.71 0,0.68 0.68,0 0,0 -0.36,0.61" stroke="#003ab5" strokeLineCap="round" strokeLineJoin="round" stroke-width="0.98"/>
		<path fill="#00000000" d="M32.1,28.12a0.68,0.68 0,0 0,0.35 0.61,0.71 0.71,0 1,0 0.72,-1.22 0.77,0.77 0,0 0,-0.72 0,0.68 0.68,0 0,0 -0.35,0.61" stroke="#003ab5" strokeLineCap="round" strokeLineJoin="round" stroke-width="0.98"/>
		<path fill="#00000000" d="M34.84,30.11a8.33,8.33 0,0 1,-4.09 7.36,8.24 8.24,0 0,1 -8.39,0 8.35,8.35 0,0 1,-4.09 -7.36,8.37 8.37,0 0,1 4.09,-7.37 8.24,8.24 0,0 1,8.39 0,8.35 8.35,0 0,1 4.09,7.37" stroke="#003ab5" strokeLineCap="round" strokeLineJoin="round" stroke-width="0.98"/>
		<path fill="#00000000" d="M15.76,41.03h21.5v1.64h-21.5z" stroke="#003ab5" strokeLineCap="round" strokeLineJoin="round" stroke-width="0.98"/>
		<path fill="#00000000" d="M18.23,41l-2.47,0 2.47,-10.25h0V13.1a1.61,1.61 0,0 1,1.66 -1.57H23L23,3.68C23,2.14 24.57,0.89 26.47,0.88s3.44,1.26 3.44,2.8L30,11.53h3.19a1.61,1.61 0,0 1,1.66 1.57v4.23h0V30.72h0L37.28,41 34.8,41H18.23" stroke="#003ab5" strokeLineCap="round" strokeLineJoin="round" stroke-width="0.98"/>
		<path fill="#00000000" d="M14.46,42.69h24.1v1.64h-24.1z" stroke="#003ab5" strokeLineCap="round" strokeLineJoin="round" stroke-width="0.98"/>
		<path fill="#00000000" d="M12.89,15.79L14.6,15.79" stroke="#003ab5" strokeLineCap="round" strokeLineJoin="round" stroke-width="0.98"/>
		<path fill="#00000000" d="M14.6,29.65l-1.76,0l0,-2.54" stroke="#003ab5" strokeLineCap="round" strokeLineJoin="round" stroke-width="0.98"/>
		<path fill="#00000000" d="M12.89,27.11L12.84,27.11" stroke="#003ab5" strokeLineCap="round" strokeLineJoin="round" stroke-width="0.98"/>
		<path fill="#00000000" d="M12.89,29.65L12.84,29.65" stroke="#003ab5" strokeLineCap="round" strokeLineJoin="round" stroke-width="0.98"/>
		<path fill="#00000000" d="M9,25.93a0.58,0.58 0,0 1,-0.3 -0.09l0.3,0.09" stroke="#003ab5" strokeLineCap="round" strokeLineJoin="round" stroke-width="0.98"/>
		<path fill="#00000000" d="M8.18,16.06h3.66v2.93h-3.66z" stroke="#003ab5" strokeLineCap="round" strokeLineJoin="round" stroke-width="0.98"/>
		<path fill="#00000000" d="M8.18,24.68L8.18,24.69" stroke="#003ab5" strokeLineCap="round" strokeLineJoin="round" stroke-width="0.98"/>
		<path fill="#00000000" d="M18.19,17.77V29.66l0,0.48 -3.6,-0.48H12.79V27.11L8.63,25.84a1.36,1.36 0,0 1,-0.5 -1.15V23a0.85,0.85 0,0 0,-0.83 -0.88H4.42v-9.2H7.3a0.85,0.85 0,0 1,0.84 0.84V20h3.74V15.47a0.49,0.49 0,1 1,1 0v0.31h1.81v-0.65a0.83,0.83 0,0 1,0.83 -0.83h1.57a1.11,1.11 0,0 0,0.83 -0.39,1.45 1.45,0 0,0 0.34,-0.95v4.61a0.76,0.76 0,0 1,0 0.21" stroke="#003ab5" strokeLineCap="round" strokeLineJoin="round" stroke-width="0.98"/>
		<path fill="#00000000" d="M4.42,19.24l0,4.04l-1.21,0l0,-11.53l1.21,0l0,7.49" stroke="#003ab5" strokeLineCap="round" strokeLineJoin="round" stroke-width="0.98"/>
		<path fill="#00000000" d="M1.99,11.75h1.22v11.52h-1.22z" stroke="#003ab5" strokeLineCap="round" strokeLineJoin="round" stroke-width="0.98"/>
		<path fill="#00000000" d="M2,21.5H2a1,1 0,0 1,-0.73 -0.31,1 1,0 0,1 -0.3,-0.73V14.57a1,1 0,0 1,1 -1H2v8" stroke="#003ab5" strokeLineCap="round" strokeLineJoin="round" stroke-width="0.98"/>
	</group>
</svg>
