<svg id="Layer_8" data-name="Layer 8" xmlns="http://www.w3.org/2000/svg" xmlns:xlink="http://www.w3.org/1999/xlink" viewBox="0 0 53.11 44.97"><defs><style>.cls-1,.cls-4{fill:none;}.cls-2{isolation:isolate;}.cls-3{clip-path:url(#clip-path);}.cls-4{stroke:#003ab5;stroke-linecap:round;stroke-linejoin:round;stroke-width:0.98px;}</style><clipPath id="clip-path"><rect class="cls-1" x="-44.43" y="-3.53" width="140.43" height="70.74"/></clipPath></defs><g class="cls-2"><g class="cls-3"><path class="cls-4" d="M51,21.5h.05a1,1,0,0,0,1-1V14.57a1,1,0,0,0-1-1H51v8"/><rect class="cls-4" x="49.83" y="11.75" width="1.21" height="11.52"/><polyline class="cls-4" points="48.62 19.24 48.62 23.28 49.83 23.28 49.83 11.75 48.62 11.75 48.62 19.24"/><line class="cls-4" x1="44.9" y1="24.68" x2="44.9" y2="24.69"/><rect class="cls-4" x="41.17" y="16.06" width="3.67" height="2.93"/><path class="cls-4" d="M34.84,17.81V29.69l0,.46,3.6-.46h1.84V27.13l4.15-1.27a1.38,1.38,0,0,0,.5-1.15V23a.86.86,0,0,1,.83-.89h2.89v-9.2H45.73a.85.85,0,0,0-.84.84V20H41.16V15.49a.48.48,0,1,0-1,0v.32H38.38v-.66a.84.84,0,0,0-.83-.84H36a1.08,1.08,0,0,1-.82-.4,1.42,1.42,0,0,1-.35-.94v4.61a.76.76,0,0,0,0,.21"/><path class="cls-4" d="M32.1,28.12a.68.68,0,0,1,.35-.61.77.77,0,0,1,.72,0,.71.71,0,1,1-.72,1.22.68.68,0,0,1-.35-.61"/><path class="cls-4" d="M32.06,32.35a.68.68,0,0,1,.36-.61.7.7,0,0,1,.71,0,.68.68,0,0,1,.36.61.69.69,0,0,1-.36.61.75.75,0,0,1-.71,0,.69.69,0,0,1-.36-.61"/><path class="cls-4" d="M29.74,35.51a.71.71,0,0,0,.36.61.76.76,0,0,0,.72,0,.7.7,0,0,0,0-1.22.76.76,0,0,0-.72,0,.71.71,0,0,0-.36.61"/><path class="cls-4" d="M29.74,35.51a.71.71,0,0,1,.36-.61.76.76,0,0,1,.72,0,.7.7,0,0,1,0,1.22.76.76,0,0,1-.72,0,.71.71,0,0,1-.36-.61"/><path class="cls-4" d="M29.72,24.84a.71.71,0,0,1,.36-.61.76.76,0,0,1,.72,0,.7.7,0,0,1,0,1.22.76.76,0,0,1-.72,0,.71.71,0,0,1-.36-.61"/><path class="cls-4" d="M25.74,23.43a.69.69,0,0,1,.36-.6.71.71,0,0,1,.72,0,.69.69,0,0,1,0,1.21.71.71,0,0,1-.72,0,.69.69,0,0,1-.36-.61"/><path class="cls-4" d="M25.74,36.83a.69.69,0,0,1,.36-.61.71.71,0,0,1,.72,0,.69.69,0,0,1,0,1.21.71.71,0,0,1-.72,0,.69.69,0,0,1-.36-.6"/><path class="cls-4" d="M26.52,14.63h-4c.54,0,1-.3,1-.67l.05-7.5c0-1.17,1.34-2.11,3-2.11s3,.94,3,2.11l0,7.5c0,.38.44.68,1,.68h-4"/><path class="cls-4" d="M23.22,24.83a.71.71,0,0,1-.36.61.77.77,0,0,1-.72,0,.7.7,0,0,1,0-1.22.77.77,0,0,1,.72,0,.71.71,0,0,1,.36.61"/><path class="cls-4" d="M23.2,35.5a.68.68,0,0,1-.36.61.76.76,0,0,1-.72,0,.7.7,0,0,1-.36-.61.71.71,0,0,1,.36-.61.76.76,0,0,1,.72,0,.69.69,0,0,1,.36.61"/><path class="cls-4" d="M31.66,30.24a5.16,5.16,0,0,1-2.5,4.6,5.07,5.07,0,0,1-5.21,0,5.16,5.16,0,0,1-2.5-4.6,5.17,5.17,0,0,1,2.5-4.6,5.12,5.12,0,0,1,5.21,0,5.17,5.17,0,0,1,2.5,4.6"/><path class="cls-4" d="M20.91,32.34a.72.72,0,1,1-.72-.71.71.71,0,0,1,.72.71"/><path class="cls-4" d="M20.86,28.11a.69.69,0,0,0-.36-.61.76.76,0,0,0-.72,0,.71.71,0,0,0,.72,1.22.69.69,0,0,0,.36-.61"/><path class="cls-4" d="M20.86,28.11a.69.69,0,0,1-.36.61.71.71,0,1,1-.72-1.22.76.76,0,0,1,.72,0,.69.69,0,0,1,.36.61"/><path class="cls-4" d="M31.66,30.24a5.17,5.17,0,0,0-2.5-4.6,5.12,5.12,0,0,0-5.21,0,5.17,5.17,0,0,0-2.5,4.6,5.16,5.16,0,0,0,2.5,4.6,5.07,5.07,0,0,0,5.21,0,5.16,5.16,0,0,0,2.5-4.6"/><path class="cls-4" d="M23.2,35.5a.69.69,0,0,0-.36-.61.76.76,0,0,0-.72,0,.71.71,0,0,0-.36.61.7.7,0,0,0,.36.61.76.76,0,0,0,.72,0,.68.68,0,0,0,.36-.61"/><path class="cls-4" d="M23.22,24.83a.71.71,0,0,0-.36-.61.77.77,0,0,0-.72,0,.7.7,0,0,0,0,1.22.77.77,0,0,0,.72,0,.71.71,0,0,0,.36-.61"/><path class="cls-4" d="M25.74,36.83a.69.69,0,0,0,.36.6.71.71,0,0,0,.72,0,.69.69,0,0,0,0-1.21.71.71,0,0,0-.72,0,.69.69,0,0,0-.36.61"/><path class="cls-4" d="M25.74,23.43a.69.69,0,0,0,.36.61.71.71,0,0,0,.72,0,.69.69,0,0,0,0-1.21.71.71,0,0,0-.72,0,.69.69,0,0,0-.36.6"/><path class="cls-4" d="M29.72,24.84a.71.71,0,0,0,.36.61.76.76,0,0,0,.72,0,.7.7,0,0,0,0-1.22.76.76,0,0,0-.72,0,.71.71,0,0,0-.36.61"/><path class="cls-4" d="M32.06,32.35a.69.69,0,0,0,.36.61.75.75,0,0,0,.71,0,.69.69,0,0,0,.36-.61.68.68,0,0,0-.36-.61.7.7,0,0,0-.71,0,.68.68,0,0,0-.36.61"/><path class="cls-4" d="M32.1,28.12a.68.68,0,0,0,.35.61.71.71,0,1,0,.72-1.22.77.77,0,0,0-.72,0,.68.68,0,0,0-.35.61"/><path class="cls-4" d="M34.84,30.11a8.33,8.33,0,0,1-4.09,7.36,8.24,8.24,0,0,1-8.39,0,8.35,8.35,0,0,1-4.09-7.36,8.37,8.37,0,0,1,4.09-7.37,8.24,8.24,0,0,1,8.39,0,8.35,8.35,0,0,1,4.09,7.37"/><rect class="cls-4" x="15.76" y="41.03" width="21.5" height="1.64"/><path class="cls-4" d="M18.23,41l-2.47,0,2.47-10.25h0V13.1a1.61,1.61,0,0,1,1.66-1.57H23L23,3.68C23,2.14,24.57.89,26.47.88s3.44,1.26,3.44,2.8L30,11.53h3.19a1.61,1.61,0,0,1,1.66,1.57v4.23h0V30.72h0L37.28,41,34.8,41H18.23"/><rect class="cls-4" x="14.46" y="42.69" width="24.1" height="1.64"/><line class="cls-4" x1="12.89" y1="15.79" x2="14.6" y2="15.79"/><polyline class="cls-4" points="14.6 29.65 12.84 29.65 12.84 27.11"/><line class="cls-4" x1="12.89" y1="27.11" x2="12.84" y2="27.11"/><line class="cls-4" x1="12.89" y1="29.65" x2="12.84" y2="29.65"/><path class="cls-4" d="M9,25.93a.58.58,0,0,1-.3-.09l.3.09"/><rect class="cls-4" x="8.18" y="16.06" width="3.66" height="2.93"/><line class="cls-4" x1="8.18" y1="24.68" x2="8.18" y2="24.69"/><path class="cls-4" d="M18.19,17.77V29.66l0,.48-3.6-.48H12.79V27.11L8.63,25.84a1.36,1.36,0,0,1-.5-1.15V23a.85.85,0,0,0-.83-.88H4.42v-9.2H7.3a.85.85,0,0,1,.84.84V20h3.74V15.47a.49.49,0,1,1,1,0v.31h1.81v-.65a.83.83,0,0,1,.83-.83h1.57a1.11,1.11,0,0,0,.83-.39,1.45,1.45,0,0,0,.34-.95v4.61a.76.76,0,0,1,0,.21"/><polyline class="cls-4" points="4.42 19.24 4.42 23.28 3.21 23.28 3.21 11.75 4.42 11.75 4.42 19.24"/><rect class="cls-4" x="1.99" y="11.75" width="1.22" height="11.52"/><path class="cls-4" d="M2,21.5H2a1,1,0,0,1-.73-.31,1,1,0,0,1-.3-.73V14.57a1,1,0,0,1,1-1H2v8"/></g></g></svg>