<svg id="Layer_4" data-name="Layer 4" xmlns="http://www.w3.org/2000/svg" xmlns:xlink="http://www.w3.org/1999/xlink" viewBox="0 0 44.61 44.16"><defs><style>.cls-1,.cls-10,.cls-11,.cls-12,.cls-13,.cls-14,.cls-15,.cls-16,.cls-4,.cls-5,.cls-6,.cls-7,.cls-8,.cls-9{fill:none;}.cls-2{isolation:isolate;}.cls-3{clip-path:url(#clip-path);}.cls-10,.cls-11,.cls-12,.cls-13,.cls-14,.cls-15,.cls-16,.cls-4,.cls-5,.cls-6,.cls-7,.cls-8,.cls-9{stroke:#003ab5;stroke-linecap:round;stroke-linejoin:round;}.cls-4{stroke-width:0.83px;}.cls-5{stroke-width:0.83px;}.cls-6{stroke-width:0.83px;}.cls-7{stroke-width:0.83px;}.cls-8{stroke-width:0.83px;}.cls-9{stroke-width:0.83px;}.cls-10{stroke-width:0.83px;}.cls-11{stroke-width:0.83px;}.cls-12{stroke-width:0.83px;}.cls-13{stroke-width:0.83px;}.cls-14{stroke-width:0.83px;}.cls-15{stroke-width:0.83px;}.cls-16{stroke-width:0.62px;}.cls-17{fill:#003ab5;fill-rule:evenodd;}</style><clipPath id="clip-path" transform="translate(-0.84 -0.3)"><rect class="cls-1" x="-27.92" y="-4.4" width="102.13" height="70.47"/></clipPath></defs><g class="cls-2"><g class="cls-3"><polygon class="cls-4" points="32.35 42.31 32.35 28.33 12.62 28.33 12.62 19.36 1.54 19.36 1.54 24.34 2.65 24.34 2.65 21.24 9.46 21.24 9.46 32.32 30.87 32.32 30.87 40.92 28.4 40.92 28.4 42.31 32.35 42.31"/><polygon class="cls-4" points="37.09 42.31 41.04 42.31 41.04 40.93 38.58 40.93 38.58 32.32 41.04 32.32 41.04 0.42 9.46 0.42 9.46 11.51 2.64 11.51 2.64 8.39 1.54 8.39 1.54 13.38 12.62 13.38 12.62 4.4 37.88 4.4 37.88 28.33 37.09 28.33 37.09 42.31"/><rect class="cls-4" x="28.41" y="42.35" width="3.95" height="1.39"/><rect class="cls-4" x="37.09" y="42.35" width="3.95" height="1.39"/><rect class="cls-4" x="0.42" y="8.39" width="1.1" height="4.99"/><rect class="cls-4" x="0.42" y="19.36" width="1.1" height="4.99"/><line class="cls-4" x1="31.24" y1="5.74" x2="34.8" y2="5.74"/><line class="cls-5" x1="24.24" y1="5.66" x2="27.8" y2="5.74"/><line class="cls-4" x1="17.15" y1="5.65" x2="20.7" y2="5.65"/><line class="cls-6" x1="16.23" y1="7.3" x2="16.92" y2="5.65"/><line class="cls-7" x1="23.18" y1="27.29" x2="23.55" y2="27.28"/><line class="cls-7" x1="19.91" y1="27.34" x2="23.18" y2="27.29"/><line class="cls-4" x1="16.43" y1="27.28" x2="16.09" y2="27.28"/><line class="cls-5" x1="23.23" y1="20.49" x2="26" y2="25.54"/><line class="cls-5" x1="26" y1="25.53" x2="26.99" y2="27.34"/><line class="cls-4" x1="31.78" y1="12" x2="32.61" y2="10.72"/><line class="cls-8" x1="24.72" y1="12.04" x2="25.61" y2="10.73"/><line class="cls-8" x1="17.81" y1="12.24" x2="18.59" y2="10.82"/><line class="cls-9" x1="16.43" y1="27.28" x2="17.47" y2="25.53"/><line class="cls-4" x1="12.85" y1="21.57" x2="12.85" y2="20.59"/><line class="cls-4" x1="12.85" y1="20.59" x2="12.85" y2="20.49"/><line class="cls-4" x1="12.85" y1="20.5" x2="12.85" y2="18.45"/><line class="cls-4" x1="12.85" y1="18.45" x2="12.85" y2="18.35"/><line class="cls-4" x1="12.85" y1="18.35" x2="12.85" y2="15.71"/><line class="cls-4" x1="12.85" y1="15.71" x2="12.85" y2="15.61"/><line class="cls-4" x1="12.85" y1="15.61" x2="12.85" y2="14.73"/><line class="cls-4" x1="12.85" y1="14.73" x2="12.85" y2="14.63"/><line class="cls-4" x1="12.85" y1="14.63" x2="12.85" y2="10.29"/><line class="cls-4" x1="12.85" y1="10.29" x2="12.85" y2="10.23"/><line class="cls-4" x1="12.85" y1="10.23" x2="12.85" y2="5.64"/><line class="cls-4" x1="12.85" y1="27.28" x2="12.85" y2="21.57"/><line class="cls-4" x1="37.09" y1="16.53" x2="37.09" y2="14.82"/><line class="cls-4" x1="37.09" y1="27.28" x2="37.09" y2="27.1"/><line class="cls-4" x1="37.09" y1="27.09" x2="37.09" y2="27.03"/><line class="cls-4" x1="37.09" y1="27.04" x2="37.09" y2="24.7"/><line class="cls-4" x1="37.09" y1="24.7" x2="37.09" y2="24.6"/><line class="cls-4" x1="37.09" y1="24.59" x2="37.09" y2="22.64"/><line class="cls-4" x1="37.09" y1="22.64" x2="37.09" y2="20.68"/><line class="cls-4" x1="37.09" y1="20.69" x2="37.09" y2="20.65"/><line class="cls-4" x1="37.09" y1="20.65" x2="37.09" y2="19.91"/><line class="cls-4" x1="37.09" y1="19.91" x2="37.09" y2="16.58"/><line class="cls-4" x1="37.09" y1="14.82" x2="37.09" y2="13.6"/><line class="cls-4" x1="37.09" y1="13.6" x2="37.09" y2="13.56"/><line class="cls-4" x1="37.09" y1="13.56" x2="37.09" y2="9.31"/><line class="cls-4" x1="37.09" y1="9.26" x2="37.09" y2="7.11"/><line class="cls-4" x1="37.09" y1="27.34" x2="37.09" y2="27.28"/><line class="cls-10" x1="12.85" y1="21.57" x2="16.09" y2="27.29"/><line class="cls-4" x1="12.85" y1="18.45" x2="12.85" y2="18.35"/><line class="cls-9" x1="15.23" y1="16.58" x2="12.85" y2="18.45"/><line class="cls-4" x1="12.85" y1="15.71" x2="12.85" y2="15.61"/><line class="cls-5" x1="15.03" y1="13.85" x2="12.85" y2="15.71"/><line class="cls-4" x1="12.85" y1="14.73" x2="12.85" y2="14.63"/><line class="cls-6" x1="14.18" y1="12.46" x2="12.85" y2="14.72"/><line class="cls-4" x1="15.03" y1="13.85" x2="16.86" y2="13.85"/><line class="cls-4" x1="12.85" y1="10.29" x2="12.85" y2="10.23"/><line class="cls-10" x1="15.03" y1="13.85" x2="12.85" y2="10.29"/><line class="cls-4" x1="12.85" y1="20.59" x2="12.85" y2="20.49"/><line class="cls-8" x1="17.81" y1="12.24" x2="12.85" y2="20.59"/><line class="cls-11" x1="14.7" y1="7.3" x2="17.81" y2="12.24"/><line class="cls-11" x1="13.65" y1="5.65" x2="14.69" y2="7.29"/><line class="cls-4" x1="12.85" y1="5.65" x2="13.65" y2="5.65"/><line class="cls-12" x1="24.5" y1="25.53" x2="23.55" y2="27.28"/><line class="cls-6" x1="31.5" y1="25.53" x2="30.24" y2="27.34"/><line class="cls-7" x1="21.19" y1="23.53" x2="24.5" y2="25.53"/><line class="cls-4" x1="22.2" y1="22.21" x2="20.37" y2="22.21"/><line class="cls-13" x1="24.9" y1="23.52" x2="22.2" y2="22.21"/><line class="cls-4" x1="26" y1="25.53" x2="24.5" y2="25.53"/><line class="cls-4" x1="26.99" y1="27.34" x2="30.24" y2="27.34"/><line class="cls-12" x1="26.54" y1="20.77" x2="30.24" y2="27.34"/><line class="cls-12" x1="25.62" y1="19.13" x2="26.53" y2="20.76"/><line class="cls-14" x1="23.23" y1="20.49" x2="22.2" y2="22.21"/><line class="cls-14" x1="24.04" y1="19.13" x2="23.23" y2="20.49"/><line class="cls-14" x1="25.62" y1="16.49" x2="24.04" y2="19.13"/><line class="cls-4" x1="25.62" y1="19.13" x2="25.62" y2="19.09"/><line class="cls-4" x1="24.04" y1="19.13" x2="25.62" y2="19.13"/><line class="cls-4" x1="25.62" y1="19.13" x2="25.62" y2="19.09"/><line class="cls-8" x1="29.16" y1="16.39" x2="25.61" y2="19.13"/><line class="cls-6" x1="29.03" y1="13.6" x2="25.62" y2="16.49"/><line class="cls-6" x1="28.16" y1="12.16" x2="25.61" y2="16.5"/><line class="cls-4" x1="23.93" y1="5.65" x2="24.04" y2="5.4"/><line class="cls-13" x1="23.29" y1="7.3" x2="23.93" y2="5.64"/><line class="cls-4" x1="23.29" y1="7.3" x2="21.75" y2="7.3"/><line class="cls-7" x1="25.89" y1="8.39" x2="23.29" y2="7.3"/><line class="cls-8" x1="22.95" y1="9.21" x2="25.62" y2="10.72"/><line class="cls-4" x1="27.29" y1="10.72" x2="25.61" y2="10.72"/><line class="cls-4" x1="29.03" y1="13.6" x2="30.83" y2="13.6"/><line class="cls-12" x1="24.23" y1="5.65" x2="24.04" y2="5.4"/><line class="cls-10" x1="25.89" y1="8.39" x2="24.24" y2="5.64"/><line class="cls-10" x1="29.03" y1="13.6" x2="25.89" y2="8.39"/><line class="cls-7" x1="31.78" y1="12" x2="26.54" y2="20.78"/><line class="cls-10" x1="28.73" y1="7.21" x2="31.79" y2="12"/><line class="cls-10" x1="27.8" y1="5.74" x2="28.72" y2="7.18"/><line class="cls-4" x1="37.09" y1="24.7" x2="37.09" y2="24.6"/><line class="cls-11" x1="35.08" y1="23.51" x2="37.09" y2="24.7"/><line class="cls-4" x1="35.83" y1="22.02" x2="34.24" y2="22.02"/><line class="cls-10" x1="37.09" y1="22.64" x2="35.83" y2="22.02"/><line class="cls-4" x1="37.09" y1="20.69" x2="37.09" y2="20.65"/><line class="cls-7" x1="36.88" y1="20.27" x2="37.09" y2="20.68"/><line class="cls-4" x1="37.09" y1="19.91" x2="35.83" y2="22.02"/><line class="cls-4" x1="37.09" y1="19.91" x2="36.87" y2="20.28"/><line class="cls-4" x1="36.95" y1="7" x2="35.61" y2="7"/><line class="cls-4" x1="36.95" y1="7" x2="36.95" y2="6.96"/><line class="cls-4" x1="37.09" y1="7.11" x2="36.95" y2="7"/><line class="cls-7" x1="28.04" y1="23.44" x2="31.5" y2="25.53"/><line class="cls-4" x1="29.2" y1="22.21" x2="27.35" y2="22.21"/><line class="cls-13" x1="31.89" y1="23.52" x2="29.2" y2="22.21"/><line class="cls-4" x1="33" y1="25.53" x2="31.49" y2="25.53"/><line class="cls-5" x1="33" y1="25.53" x2="33.99" y2="27.34"/><line class="cls-5" x1="30.22" y1="20.49" x2="33" y2="25.54"/><line class="cls-4" x1="37.09" y1="27.34" x2="37.09" y2="27.28"/><line class="cls-4" x1="33.99" y1="27.34" x2="37.09" y2="27.34"/><line class="cls-4" x1="37.09" y1="27.09" x2="37.09" y2="27.03"/><line class="cls-12" x1="35.08" y1="23.51" x2="37.09" y2="27.09"/><line class="cls-12" x1="33.54" y1="20.78" x2="35.08" y2="23.51"/><line class="cls-12" x1="32.61" y1="19.13" x2="33.54" y2="20.78"/><line class="cls-14" x1="30.22" y1="20.49" x2="29.2" y2="22.21"/><line class="cls-14" x1="31.04" y1="19.13" x2="30.22" y2="20.49"/><line class="cls-14" x1="32.61" y1="16.49" x2="31.04" y2="19.13"/><line class="cls-4" x1="31.04" y1="19.13" x2="32.62" y2="19.13"/><line class="cls-5" x1="36.15" y1="16.4" x2="32.61" y2="19.13"/><line class="cls-4" x1="36.03" y1="13.6" x2="32.62" y2="16.49"/><line class="cls-6" x1="35.16" y1="12.16" x2="32.62" y2="16.49"/><line class="cls-5" x1="30.92" y1="5.74" x2="31.03" y2="5.4"/><line class="cls-6" x1="30.29" y1="7.3" x2="30.92" y2="5.74"/><line class="cls-4" x1="30.29" y1="7.3" x2="28.73" y2="7.21"/><line class="cls-11" x1="32.85" y1="8.37" x2="30.29" y2="7.3"/><line class="cls-8" x1="30.05" y1="9.27" x2="32.61" y2="10.72"/><line class="cls-4" x1="34.28" y1="10.72" x2="32.61" y2="10.72"/><line class="cls-4" x1="37.09" y1="13.6" x2="37.09" y2="13.56"/><line class="cls-4" x1="36.03" y1="13.6" x2="37.09" y2="13.6"/><line class="cls-5" x1="31.24" y1="5.74" x2="31.04" y2="5.4"/><line class="cls-12" x1="32.85" y1="8.37" x2="31.24" y2="5.74"/><line class="cls-12" x1="36.03" y1="13.6" x2="32.85" y2="8.37"/><line class="cls-11" x1="37.09" y1="14.82" x2="33.53" y2="20.8"/><line class="cls-12" x1="35.61" y1="7" x2="37.09" y2="9.31"/><line class="cls-12" x1="34.8" y1="5.74" x2="35.61" y2="7"/><line class="cls-8" x1="13.97" y1="23.55" x2="17.47" y2="25.53"/><line class="cls-4" x1="15.18" y1="22.26" x2="13.24" y2="22.26"/><line class="cls-12" x1="17.86" y1="23.62" x2="15.18" y2="22.26"/><line class="cls-9" x1="18.94" y1="25.57" x2="17.47" y2="25.53"/><line class="cls-4" x1="18.94" y1="25.57" x2="19.91" y2="27.34"/><line class="cls-4" x1="16.18" y1="20.57" x2="18.94" y2="25.57"/><line class="cls-7" x1="19.5" y1="20.83" x2="23.55" y2="27.29"/><line class="cls-15" x1="18.59" y1="19.22" x2="19.51" y2="20.84"/><line class="cls-12" x1="16.18" y1="20.57" x2="15.17" y2="22.26"/><line class="cls-12" x1="16.99" y1="19.22" x2="16.18" y2="20.57"/><line class="cls-12" x1="18.59" y1="16.53" x2="16.99" y2="19.22"/><line class="cls-4" x1="16.99" y1="19.22" x2="18.59" y2="19.22"/><line class="cls-9" x1="22.13" y1="16.41" x2="18.59" y2="19.22"/><line class="cls-4" x1="21.97" y1="13.65" x2="18.58" y2="16.54"/><line class="cls-5" x1="21.13" y1="12.26" x2="18.59" y2="16.53"/><line class="cls-13" x1="16.92" y1="5.65" x2="17.01" y2="5.44"/><line class="cls-4" x1="16.23" y1="7.3" x2="14.7" y2="7.3"/><line class="cls-10" x1="18.83" y1="8.43" x2="16.23" y2="7.3"/><line class="cls-10" x1="15.93" y1="9.26" x2="18.58" y2="10.82"/><line class="cls-4" x1="20.26" y1="10.82" x2="18.58" y2="10.82"/><line class="cls-4" x1="21.97" y1="13.65" x2="23.77" y2="13.65"/><line class="cls-8" x1="17.15" y1="5.65" x2="17.01" y2="5.44"/><line class="cls-13" x1="18.83" y1="8.43" x2="17.15" y2="5.65"/><line class="cls-13" x1="21.97" y1="13.65" x2="18.83" y2="8.43"/><line class="cls-4" x1="19.5" y1="20.84" x2="19.5" y2="20.8"/><line class="cls-9" x1="24.72" y1="12.04" x2="19.5" y2="20.84"/><line class="cls-9" x1="21.75" y1="7.3" x2="24.73" y2="12.04"/><line class="cls-9" x1="20.7" y1="5.65" x2="21.75" y2="7.3"/><line class="cls-4" x1="16.09" y1="27.28" x2="12.85" y2="27.28"/><rect class="cls-4" x="41.04" y="15.37" width="3.16" height="1.99"/><line class="cls-16" x1="34.77" y1="29.43" x2="34.77" y2="36.26"/><polyline class="cls-17" points="36.58 36.26 34.77 43.75 32.97 36.26 36.58 36.26"/></g></g></svg>