<svg xmlns="http://www.w3.org/2000/svg" height="48dp" viewportHeight="44.97" viewportWidth="61.28" width="65.408936dp" xmlns:android="http://schemas.android.com/apk/res/android">
	<group>
		<clip-path d="M0,0.09h61.28v44.78h-61.28z"/>
		<path fill="#00000000" d="M16.8,2.29l0,13.95l27.19,0l0,8.96l15.25,0l0,-4.98l-1.53,0l0,3.11l-9.37,0l0,-11.07l-29.5,0l0,-8.59l3.4,0l0,-1.38l-5.44,0z" stroke="#003ab5" strokeLineCap="round" strokeLineJoin="round" stroke-width="0.98"/>
		<path fill="#00000000" d="M10.28,2.29l-5.44,0l0,1.39l3.39,0l0,8.58l-3.39,0l0,31.84l43.5,0l0,-11.06l9.38,0l0,3.1l1.51,0l0,-4.97l-15.25,0l0,8.96l-34.8,0l0,-23.89l1.1,0l0,-13.95z" stroke="#003ab5" strokeLineCap="round" strokeLineJoin="round" stroke-width="0.98"/>
		<path fill="#00000000" d="M16.8,0.86h5.44v1.39h-5.44z" stroke="#003ab5" strokeLineCap="round" strokeLineJoin="round" stroke-width="0.98"/>
		<path fill="#00000000" d="M4.84,0.86h5.44v1.39h-5.44z" stroke="#003ab5" strokeLineCap="round" strokeLineJoin="round" stroke-width="0.98"/>
		<path fill="#00000000" d="M59.27,31.17h1.52v4.97h-1.52z" stroke="#003ab5" strokeLineCap="round" strokeLineJoin="round" stroke-width="0.98"/>
		<path fill="#00000000" d="M59.27,20.22h1.52v4.97h-1.52z" stroke="#003ab5" strokeLineCap="round" strokeLineJoin="round" stroke-width="0.98"/>
		<path fill="#00000000" d="M18.33,38.79L13.44,38.79" stroke="#003ab5" strokeLineCap="round" strokeLineJoin="round" stroke-width="0.98"/>
		<path fill="#00000000" d="M27.97,38.88L23.07,38.79" stroke="#003ab5" strokeLineCap="round" strokeLineJoin="round" stroke-width="0.98"/>
		<path fill="#00000000" d="M37.74,38.89L32.85,38.89" stroke="#003ab5" strokeLineCap="round" strokeLineJoin="round" stroke-width="0.98"/>
		<path fill="#00000000" d="M39,37.23L38.06,38.89" stroke="#003ab5" strokeLineCap="round" strokeLineJoin="round" stroke-width="0.98"/>
		<path fill="#00000000" d="M29.44,17.29L28.92,17.29" stroke="#003ab5" strokeLineCap="round" strokeLineJoin="round" stroke-width="0.98"/>
		<path fill="#00000000" d="M33.94,17.24L29.44,17.29" stroke="#003ab5" strokeLineCap="round" strokeLineJoin="round" stroke-width="0.98"/>
		<path fill="#00000000" d="M38.73,17.29L39.2,17.29" stroke="#003ab5" strokeLineCap="round" strokeLineJoin="round" stroke-width="0.98"/>
		<path fill="#00000000" d="M29.37,24.07L25.55,19.04" stroke="#003ab5" strokeLineCap="round" strokeLineJoin="round" stroke-width="0.98"/>
		<path fill="#00000000" d="M25.55,19.04L24.18,17.24" stroke="#003ab5" strokeLineCap="round" strokeLineJoin="round" stroke-width="0.98"/>
		<path fill="#00000000" d="M17.59,32.54L16.45,33.82" stroke="#003ab5" strokeLineCap="round" strokeLineJoin="round" stroke-width="0.98"/>
		<path fill="#00000000" d="M27.31,32.5L26.08,33.82" stroke="#003ab5" strokeLineCap="round" strokeLineJoin="round" stroke-width="0.98"/>
		<path fill="#00000000" d="M36.83,32.3L35.76,33.72" stroke="#003ab5" strokeLineCap="round" strokeLineJoin="round" stroke-width="0.98"/>
		<path fill="#00000000" d="M38.73,17.29L37.3,19.04" stroke="#003ab5" strokeLineCap="round" strokeLineJoin="round" stroke-width="0.98"/>
		<path fill="#00000000" d="M43.67,22.99L43.67,23.97" stroke="#003ab5" strokeLineCap="round" strokeLineJoin="round" stroke-width="0.98"/>
		<path fill="#00000000" d="M43.67,23.97L43.67,24.07" stroke="#003ab5" strokeLineCap="round" strokeLineJoin="round" stroke-width="0.98"/>
		<path fill="#00000000" d="M43.67,24.06L43.67,26.1" stroke="#003ab5" strokeLineCap="round" strokeLineJoin="round" stroke-width="0.98"/>
		<path fill="#00000000" d="M43.67,26.11L43.67,26.21" stroke="#003ab5" strokeLineCap="round" strokeLineJoin="round" stroke-width="0.98"/>
		<path fill="#00000000" d="M43.67,26.2L43.67,28.84" stroke="#003ab5" strokeLineCap="round" strokeLineJoin="round" stroke-width="0.98"/>
		<path fill="#00000000" d="M43.67,28.84L43.67,28.94" stroke="#003ab5" strokeLineCap="round" strokeLineJoin="round" stroke-width="0.98"/>
		<path fill="#00000000" d="M43.67,28.94L43.67,29.82" stroke="#003ab5" strokeLineCap="round" strokeLineJoin="round" stroke-width="0.98"/>
		<path fill="#00000000" d="M43.67,29.82L43.67,29.92" stroke="#003ab5" strokeLineCap="round" strokeLineJoin="round" stroke-width="0.98"/>
		<path fill="#00000000" d="M43.67,29.92L43.67,34.25" stroke="#003ab5" strokeLineCap="round" strokeLineJoin="round" stroke-width="0.98"/>
		<path fill="#00000000" d="M43.67,34.25L43.67,34.31" stroke="#003ab5" strokeLineCap="round" strokeLineJoin="round" stroke-width="0.98"/>
		<path fill="#00000000" d="M43.67,34.3L43.67,38.89" stroke="#003ab5" strokeLineCap="round" strokeLineJoin="round" stroke-width="0.98"/>
		<path fill="#00000000" d="M43.67,17.29L43.67,22.99" stroke="#003ab5" strokeLineCap="round" strokeLineJoin="round" stroke-width="0.98"/>
		<path fill="#00000000" d="M10.28,28.02L10.28,29.73" stroke="#003ab5" strokeLineCap="round" strokeLineJoin="round" stroke-width="0.98"/>
		<path fill="#00000000" d="M10.28,17.29L10.28,17.47" stroke="#003ab5" strokeLineCap="round" strokeLineJoin="round" stroke-width="0.98"/>
		<path fill="#00000000" d="M10.28,17.48L10.28,17.54" stroke="#003ab5" strokeLineCap="round" strokeLineJoin="round" stroke-width="0.98"/>
		<path fill="#00000000" d="M10.28,17.53L10.28,19.87" stroke="#003ab5" strokeLineCap="round" strokeLineJoin="round" stroke-width="0.98"/>
		<path fill="#00000000" d="M10.28,19.87L10.28,19.97" stroke="#003ab5" strokeLineCap="round" strokeLineJoin="round" stroke-width="0.98"/>
		<path fill="#00000000" d="M10.28,19.97L10.28,21.93" stroke="#003ab5" strokeLineCap="round" strokeLineJoin="round" stroke-width="0.98"/>
		<path fill="#00000000" d="M10.28,21.92L10.28,23.88" stroke="#003ab5" strokeLineCap="round" strokeLineJoin="round" stroke-width="0.98"/>
		<path fill="#00000000" d="M10.28,23.87L10.28,23.91" stroke="#003ab5" strokeLineCap="round" strokeLineJoin="round" stroke-width="0.98"/>
		<path fill="#00000000" d="M10.28,23.92L10.28,24.65" stroke="#003ab5" strokeLineCap="round" strokeLineJoin="round" stroke-width="0.98"/>
		<path fill="#00000000" d="M10.28,24.65L10.28,27.97" stroke="#003ab5" strokeLineCap="round" strokeLineJoin="round" stroke-width="0.98"/>
		<path fill="#00000000" d="M10.28,29.73L10.28,30.95" stroke="#003ab5" strokeLineCap="round" strokeLineJoin="round" stroke-width="0.98"/>
		<path fill="#00000000" d="M10.28,30.95L10.28,30.98" stroke="#003ab5" strokeLineCap="round" strokeLineJoin="round" stroke-width="0.98"/>
		<path fill="#00000000" d="M10.28,30.99L10.28,35.23" stroke="#003ab5" strokeLineCap="round" strokeLineJoin="round" stroke-width="0.98"/>
		<path fill="#00000000" d="M10.28,35.28L10.28,37.42" stroke="#003ab5" strokeLineCap="round" strokeLineJoin="round" stroke-width="0.98"/>
		<path fill="#00000000" d="M10.28,17.23L10.28,17.29" stroke="#003ab5" strokeLineCap="round" strokeLineJoin="round" stroke-width="0.98"/>
		<path fill="#00000000" d="M43.67,23L39.2,17.29" stroke="#003ab5" strokeLineCap="round" strokeLineJoin="round" stroke-width="0.98"/>
		<path fill="#00000000" d="M43.67,26.11L43.67,26.21" stroke="#003ab5" strokeLineCap="round" strokeLineJoin="round" stroke-width="0.98"/>
		<path fill="#00000000" d="M40.38,27.98L43.67,26.11" stroke="#003ab5" strokeLineCap="round" strokeLineJoin="round" stroke-width="0.98"/>
		<path fill="#00000000" d="M43.67,28.84L43.67,28.94" stroke="#003ab5" strokeLineCap="round" strokeLineJoin="round" stroke-width="0.98"/>
		<path fill="#00000000" d="M40.66,30.7L43.67,28.84" stroke="#003ab5" strokeLineCap="round" strokeLineJoin="round" stroke-width="0.98"/>
		<path fill="#00000000" d="M43.67,29.82L43.67,29.92" stroke="#003ab5" strokeLineCap="round" strokeLineJoin="round" stroke-width="0.98"/>
		<path fill="#00000000" d="M41.83,32.08L43.66,29.82" stroke="#003ab5" strokeLineCap="round" strokeLineJoin="round" stroke-width="0.98"/>
		<path fill="#00000000" d="M40.66,30.7L38.14,30.7" stroke="#003ab5" strokeLineCap="round" strokeLineJoin="round" stroke-width="0.98"/>
		<path fill="#00000000" d="M43.67,34.25L43.67,34.31" stroke="#003ab5" strokeLineCap="round" strokeLineJoin="round" stroke-width="0.98"/>
		<path fill="#00000000" d="M40.66,30.7L43.67,34.25" stroke="#003ab5" strokeLineCap="round" strokeLineJoin="round" stroke-width="0.98"/>
		<path fill="#00000000" d="M43.67,23.97L43.67,24.07" stroke="#003ab5" strokeLineCap="round" strokeLineJoin="round" stroke-width="0.98"/>
		<path fill="#00000000" d="M36.83,32.3L43.66,23.97" stroke="#003ab5" strokeLineCap="round" strokeLineJoin="round" stroke-width="0.98"/>
		<path fill="#00000000" d="M41.12,37.23L36.83,32.3" stroke="#003ab5" strokeLineCap="round" strokeLineJoin="round" stroke-width="0.98"/>
		<path fill="#00000000" d="M42.56,38.88L41.13,37.25" stroke="#003ab5" strokeLineCap="round" strokeLineJoin="round" stroke-width="0.98"/>
		<path fill="#00000000" d="M43.67,38.89L42.56,38.89" stroke="#003ab5" strokeLineCap="round" strokeLineJoin="round" stroke-width="0.98"/>
		<path fill="#00000000" d="M27.62,19.04L28.92,17.29" stroke="#003ab5" strokeLineCap="round" strokeLineJoin="round" stroke-width="0.98"/>
		<path fill="#00000000" d="M17.98,19.04L19.71,17.24" stroke="#003ab5" strokeLineCap="round" strokeLineJoin="round" stroke-width="0.98"/>
		<path fill="#00000000" d="M32.17,21.04L27.62,19.04" stroke="#003ab5" strokeLineCap="round" strokeLineJoin="round" stroke-width="0.98"/>
		<path fill="#00000000" d="M30.78,22.35L33.31,22.35" stroke="#003ab5" strokeLineCap="round" strokeLineJoin="round" stroke-width="0.98"/>
		<path fill="#00000000" d="M27.08,21.04L30.79,22.36" stroke="#003ab5" strokeLineCap="round" strokeLineJoin="round" stroke-width="0.98"/>
		<path fill="#00000000" d="M25.55,19.04L27.62,19.04" stroke="#003ab5" strokeLineCap="round" strokeLineJoin="round" stroke-width="0.98"/>
		<path fill="#00000000" d="M24.18,17.24L19.72,17.24" stroke="#003ab5" strokeLineCap="round" strokeLineJoin="round" stroke-width="0.98"/>
		<path fill="#00000000" d="M24.8,23.79L19.71,17.24" stroke="#003ab5" strokeLineCap="round" strokeLineJoin="round" stroke-width="0.98"/>
		<path fill="#00000000" d="M26.08,25.43L24.82,23.8" stroke="#003ab5" strokeLineCap="round" strokeLineJoin="round" stroke-width="0.98"/>
		<path fill="#00000000" d="M29.37,24.07L30.78,22.35" stroke="#003ab5" strokeLineCap="round" strokeLineJoin="round" stroke-width="0.98"/>
		<path fill="#00000000" d="M28.25,25.43L29.37,24.07" stroke="#003ab5" strokeLineCap="round" strokeLineJoin="round" stroke-width="0.98"/>
		<path fill="#00000000" d="M26.08,28.06L28.25,25.43" stroke="#003ab5" strokeLineCap="round" strokeLineJoin="round" stroke-width="0.98"/>
		<path fill="#00000000" d="M26.08,25.43L26.08,25.47" stroke="#003ab5" strokeLineCap="round" strokeLineJoin="round" stroke-width="0.98"/>
		<path fill="#00000000" d="M28.25,25.43L26.08,25.43" stroke="#003ab5" strokeLineCap="round" strokeLineJoin="round" stroke-width="0.98"/>
		<path fill="#00000000" d="M26.08,25.43L26.08,25.47" stroke="#003ab5" strokeLineCap="round" strokeLineJoin="round" stroke-width="0.98"/>
		<path fill="#00000000" d="M21.19,28.17L26.08,25.43" stroke="#003ab5" strokeLineCap="round" strokeLineJoin="round" stroke-width="0.98"/>
		<path fill="#00000000" d="M21.38,30.94L26.08,28.06" stroke="#003ab5" strokeLineCap="round" strokeLineJoin="round" stroke-width="0.98"/>
		<path fill="#00000000" d="M22.58,32.38L26.08,28.06" stroke="#003ab5" strokeLineCap="round" strokeLineJoin="round" stroke-width="0.98"/>
		<path fill="#00000000" d="M28.41,38.88L28.25,39.13" stroke="#003ab5" strokeLineCap="round" strokeLineJoin="round" stroke-width="0.98"/>
		<path fill="#00000000" d="M29.29,37.23L28.41,38.89" stroke="#003ab5" strokeLineCap="round" strokeLineJoin="round" stroke-width="0.98"/>
		<path fill="#00000000" d="M29.29,37.23L31.41,37.23" stroke="#003ab5" strokeLineCap="round" strokeLineJoin="round" stroke-width="0.98"/>
		<path fill="#00000000" d="M25.71,36.14L29.28,37.23" stroke="#003ab5" strokeLineCap="round" strokeLineJoin="round" stroke-width="0.98"/>
		<path fill="#00000000" d="M29.76,35.33L26.08,33.82" stroke="#003ab5" strokeLineCap="round" strokeLineJoin="round" stroke-width="0.98"/>
		<path fill="#00000000" d="M23.77,33.82L26.09,33.82" stroke="#003ab5" strokeLineCap="round" strokeLineJoin="round" stroke-width="0.98"/>
		<path fill="#00000000" d="M21.38,30.95L18.9,30.95" stroke="#003ab5" strokeLineCap="round" strokeLineJoin="round" stroke-width="0.98"/>
		<path fill="#00000000" d="M27.98,38.88L28.26,39.13" stroke="#003ab5" strokeLineCap="round" strokeLineJoin="round" stroke-width="0.98"/>
		<path fill="#00000000" d="M25.71,36.14L27.99,38.89" stroke="#003ab5" strokeLineCap="round" strokeLineJoin="round" stroke-width="0.98"/>
		<path fill="#00000000" d="M21.39,30.94L25.71,36.14" stroke="#003ab5" strokeLineCap="round" strokeLineJoin="round" stroke-width="0.98"/>
		<path fill="#00000000" d="M17.58,32.54L24.8,23.78" stroke="#003ab5" strokeLineCap="round" strokeLineJoin="round" stroke-width="0.98"/>
		<path fill="#00000000" d="M21.79,37.33L17.58,32.54" stroke="#003ab5" strokeLineCap="round" strokeLineJoin="round" stroke-width="0.98"/>
		<path fill="#00000000" d="M23.07,38.79L21.81,37.35" stroke="#003ab5" strokeLineCap="round" strokeLineJoin="round" stroke-width="0.98"/>
		<path fill="#00000000" d="M10.28,19.87L10.28,19.97" stroke="#003ab5" strokeLineCap="round" strokeLineJoin="round" stroke-width="0.98"/>
		<path fill="#00000000" d="M13.05,21.06L10.28,19.87" stroke="#003ab5" strokeLineCap="round" strokeLineJoin="round" stroke-width="0.98"/>
		<path fill="#00000000" d="M12.01,22.54L14.21,22.54" stroke="#003ab5" strokeLineCap="round" strokeLineJoin="round" stroke-width="0.98"/>
		<path fill="#00000000" d="M10.28,21.92L12.01,22.55" stroke="#003ab5" strokeLineCap="round" strokeLineJoin="round" stroke-width="0.98"/>
		<path fill="#00000000" d="M10.28,23.87L10.28,23.91" stroke="#003ab5" strokeLineCap="round" strokeLineJoin="round" stroke-width="0.98"/>
		<path fill="#00000000" d="M10.57,24.29L10.27,23.88" stroke="#003ab5" strokeLineCap="round" strokeLineJoin="round" stroke-width="0.98"/>
		<path fill="#00000000" d="M10.27,24.65L12.01,22.54" stroke="#003ab5" strokeLineCap="round" strokeLineJoin="round" stroke-width="0.98"/>
		<path fill="#00000000" d="M10.27,24.65L10.57,24.28" stroke="#003ab5" strokeLineCap="round" strokeLineJoin="round" stroke-width="0.98"/>
		<path fill="#00000000" d="M10.47,37.53L12.32,37.53" stroke="#003ab5" strokeLineCap="round" strokeLineJoin="round" stroke-width="0.98"/>
		<path fill="#00000000" d="M10.47,37.53L10.47,37.57" stroke="#003ab5" strokeLineCap="round" strokeLineJoin="round" stroke-width="0.98"/>
		<path fill="#00000000" d="M10.28,37.42L10.47,37.53" stroke="#003ab5" strokeLineCap="round" strokeLineJoin="round" stroke-width="0.98"/>
		<path fill="#00000000" d="M22.74,21.13L17.98,19.04" stroke="#003ab5" strokeLineCap="round" strokeLineJoin="round" stroke-width="0.98"/>
		<path fill="#00000000" d="M21.14,22.35L23.69,22.35" stroke="#003ab5" strokeLineCap="round" strokeLineJoin="round" stroke-width="0.98"/>
		<path fill="#00000000" d="M17.44,21.04L21.15,22.36" stroke="#003ab5" strokeLineCap="round" strokeLineJoin="round" stroke-width="0.98"/>
		<path fill="#00000000" d="M15.91,19.04L17.99,19.04" stroke="#003ab5" strokeLineCap="round" strokeLineJoin="round" stroke-width="0.98"/>
		<path fill="#00000000" d="M15.91,19.04L14.54,17.24" stroke="#003ab5" strokeLineCap="round" strokeLineJoin="round" stroke-width="0.98"/>
		<path fill="#00000000" d="M19.73,24.07L15.91,19.04" stroke="#003ab5" strokeLineCap="round" strokeLineJoin="round" stroke-width="0.98"/>
		<path fill="#00000000" d="M10.28,17.23L10.28,17.29" stroke="#003ab5" strokeLineCap="round" strokeLineJoin="round" stroke-width="0.98"/>
		<path fill="#00000000" d="M14.55,17.24L10.28,17.24" stroke="#003ab5" strokeLineCap="round" strokeLineJoin="round" stroke-width="0.98"/>
		<path fill="#00000000" d="M10.28,17.48L10.28,17.54" stroke="#003ab5" strokeLineCap="round" strokeLineJoin="round" stroke-width="0.98"/>
		<path fill="#00000000" d="M13.05,21.06L10.28,17.48" stroke="#003ab5" strokeLineCap="round" strokeLineJoin="round" stroke-width="0.98"/>
		<path fill="#00000000" d="M15.16,23.78L13.05,21.05" stroke="#003ab5" strokeLineCap="round" strokeLineJoin="round" stroke-width="0.98"/>
		<path fill="#00000000" d="M16.44,25.43L15.16,23.78" stroke="#003ab5" strokeLineCap="round" strokeLineJoin="round" stroke-width="0.98"/>
		<path fill="#00000000" d="M19.73,24.07L21.14,22.35" stroke="#003ab5" strokeLineCap="round" strokeLineJoin="round" stroke-width="0.98"/>
		<path fill="#00000000" d="M18.61,25.43L19.73,24.07" stroke="#003ab5" strokeLineCap="round" strokeLineJoin="round" stroke-width="0.98"/>
		<path fill="#00000000" d="M16.44,28.06L18.61,25.43" stroke="#003ab5" strokeLineCap="round" strokeLineJoin="round" stroke-width="0.98"/>
		<path fill="#00000000" d="M18.61,25.43L16.44,25.43" stroke="#003ab5" strokeLineCap="round" strokeLineJoin="round" stroke-width="0.98"/>
		<path fill="#00000000" d="M11.57,28.15L16.45,25.43" stroke="#003ab5" strokeLineCap="round" strokeLineJoin="round" stroke-width="0.98"/>
		<path fill="#00000000" d="M11.73,30.94L16.44,28.06" stroke="#003ab5" strokeLineCap="round" strokeLineJoin="round" stroke-width="0.98"/>
		<path fill="#00000000" d="M12.94,32.38L16.44,28.06" stroke="#003ab5" strokeLineCap="round" strokeLineJoin="round" stroke-width="0.98"/>
		<path fill="#00000000" d="M18.77,38.79L18.62,39.13" stroke="#003ab5" strokeLineCap="round" strokeLineJoin="round" stroke-width="0.98"/>
		<path fill="#00000000" d="M19.64,37.23L18.77,38.79" stroke="#003ab5" strokeLineCap="round" strokeLineJoin="round" stroke-width="0.98"/>
		<path fill="#00000000" d="M19.64,37.23L21.79,37.32" stroke="#003ab5" strokeLineCap="round" strokeLineJoin="round" stroke-width="0.98"/>
		<path fill="#00000000" d="M16.12,36.16L19.64,37.23" stroke="#003ab5" strokeLineCap="round" strokeLineJoin="round" stroke-width="0.98"/>
		<path fill="#00000000" d="M19.98,35.27L16.45,33.82" stroke="#003ab5" strokeLineCap="round" strokeLineJoin="round" stroke-width="0.98"/>
		<path fill="#00000000" d="M14.15,33.82L16.45,33.82" stroke="#003ab5" strokeLineCap="round" strokeLineJoin="round" stroke-width="0.98"/>
		<path fill="#00000000" d="M10.28,30.95L10.28,30.98" stroke="#003ab5" strokeLineCap="round" strokeLineJoin="round" stroke-width="0.98"/>
		<path fill="#00000000" d="M11.73,30.95L10.28,30.95" stroke="#003ab5" strokeLineCap="round" strokeLineJoin="round" stroke-width="0.98"/>
		<path fill="#00000000" d="M18.33,38.79L18.62,39.12" stroke="#003ab5" strokeLineCap="round" strokeLineJoin="round" stroke-width="0.98"/>
		<path fill="#00000000" d="M16.12,36.16L18.33,38.78" stroke="#003ab5" strokeLineCap="round" strokeLineJoin="round" stroke-width="0.98"/>
		<path fill="#00000000" d="M11.74,30.94L16.13,36.16" stroke="#003ab5" strokeLineCap="round" strokeLineJoin="round" stroke-width="0.98"/>
		<path fill="#00000000" d="M10.27,29.72L15.17,23.76" stroke="#003ab5" strokeLineCap="round" strokeLineJoin="round" stroke-width="0.98"/>
		<path fill="#00000000" d="M12.32,37.53L10.27,35.23" stroke="#003ab5" strokeLineCap="round" strokeLineJoin="round" stroke-width="0.98"/>
		<path fill="#00000000" d="M13.44,38.79L12.32,37.53" stroke="#003ab5" strokeLineCap="round" strokeLineJoin="round" stroke-width="0.98"/>
		<path fill="#00000000" d="M42.12,21.02L37.3,19.04" stroke="#003ab5" strokeLineCap="round" strokeLineJoin="round" stroke-width="0.98"/>
		<path fill="#00000000" d="M40.46,22.3L43.13,22.3" stroke="#003ab5" strokeLineCap="round" strokeLineJoin="round" stroke-width="0.98"/>
		<path fill="#00000000" d="M36.76,20.94L40.46,22.3" stroke="#003ab5" strokeLineCap="round" strokeLineJoin="round" stroke-width="0.98"/>
		<path fill="#00000000" d="M35.28,19L37.3,19.04" stroke="#003ab5" strokeLineCap="round" strokeLineJoin="round" stroke-width="0.98"/>
		<path fill="#00000000" d="M35.28,19L33.94,17.24" stroke="#003ab5" strokeLineCap="round" strokeLineJoin="round" stroke-width="0.98"/>
		<path fill="#00000000" d="M39.07,24L35.28,19" stroke="#003ab5" strokeLineCap="round" strokeLineJoin="round" stroke-width="0.98"/>
		<path fill="#00000000" d="M34.5,23.73L28.92,17.29" stroke="#003ab5" strokeLineCap="round" strokeLineJoin="round" stroke-width="0.98"/>
		<path fill="#00000000" d="M35.76,25.34L34.5,23.73" stroke="#003ab5" strokeLineCap="round" strokeLineJoin="round" stroke-width="0.98"/>
		<path fill="#00000000" d="M39.07,23.99L40.46,22.3" stroke="#003ab5" strokeLineCap="round" strokeLineJoin="round" stroke-width="0.98"/>
		<path fill="#00000000" d="M37.97,25.34L39.07,23.99" stroke="#003ab5" strokeLineCap="round" strokeLineJoin="round" stroke-width="0.98"/>
		<path fill="#00000000" d="M35.76,28.02L37.97,25.34" stroke="#003ab5" strokeLineCap="round" strokeLineJoin="round" stroke-width="0.98"/>
		<path fill="#00000000" d="M37.97,25.34L35.76,25.34" stroke="#003ab5" strokeLineCap="round" strokeLineJoin="round" stroke-width="0.98"/>
		<path fill="#00000000" d="M30.88,28.14L35.76,25.34" stroke="#003ab5" strokeLineCap="round" strokeLineJoin="round" stroke-width="0.98"/>
		<path fill="#00000000" d="M31.1,30.89L35.77,28.02" stroke="#003ab5" strokeLineCap="round" strokeLineJoin="round" stroke-width="0.98"/>
		<path fill="#00000000" d="M32.26,32.29L35.76,28.02" stroke="#003ab5" strokeLineCap="round" strokeLineJoin="round" stroke-width="0.98"/>
		<path fill="#00000000" d="M38.06,38.89L37.94,39.08" stroke="#003ab5" strokeLineCap="round" strokeLineJoin="round" stroke-width="0.98"/>
		<path fill="#00000000" d="M39,37.23L41.12,37.23" stroke="#003ab5" strokeLineCap="round" strokeLineJoin="round" stroke-width="0.98"/>
		<path fill="#00000000" d="M35.43,36.11L39,37.23" stroke="#003ab5" strokeLineCap="round" strokeLineJoin="round" stroke-width="0.98"/>
		<path fill="#00000000" d="M39.42,35.28L35.76,33.72" stroke="#003ab5" strokeLineCap="round" strokeLineJoin="round" stroke-width="0.98"/>
		<path fill="#00000000" d="M33.45,33.72L35.77,33.72" stroke="#003ab5" strokeLineCap="round" strokeLineJoin="round" stroke-width="0.98"/>
		<path fill="#00000000" d="M31.1,30.89L28.64,30.89" stroke="#003ab5" strokeLineCap="round" strokeLineJoin="round" stroke-width="0.98"/>
		<path fill="#00000000" d="M37.74,38.88L37.94,39.08" stroke="#003ab5" strokeLineCap="round" strokeLineJoin="round" stroke-width="0.98"/>
		<path fill="#00000000" d="M35.43,36.11L37.74,38.88" stroke="#003ab5" strokeLineCap="round" strokeLineJoin="round" stroke-width="0.98"/>
		<path fill="#00000000" d="M31.1,30.89L35.43,36.1" stroke="#003ab5" strokeLineCap="round" strokeLineJoin="round" stroke-width="0.98"/>
		<path fill="#00000000" d="M34.51,23.73L34.51,23.77" stroke="#003ab5" strokeLineCap="round" strokeLineJoin="round" stroke-width="0.98"/>
		<path fill="#00000000" d="M27.31,32.5L34.5,23.73" stroke="#003ab5" strokeLineCap="round" strokeLineJoin="round" stroke-width="0.98"/>
		<path fill="#00000000" d="M31.41,37.23L27.31,32.5" stroke="#003ab5" strokeLineCap="round" strokeLineJoin="round" stroke-width="0.98"/>
		<path fill="#00000000" d="M32.84,38.89L31.41,37.23" stroke="#003ab5" strokeLineCap="round" strokeLineJoin="round" stroke-width="0.98"/>
		<path fill="#00000000" d="M39.2,17.29L43.67,17.29" stroke="#003ab5" strokeLineCap="round" strokeLineJoin="round" stroke-width="0.98"/>
		<path fill="#00000000" d="M0.49,27.19h4.35v1.99h-4.35z" stroke="#003ab5" strokeLineCap="round" strokeLineJoin="round" stroke-width="0.98"/>
	</group>
</svg>
