<svg id="Layer_4" data-name="Layer 4" xmlns="http://www.w3.org/2000/svg" xmlns:xlink="http://www.w3.org/1999/xlink" viewBox="0 0 56.52 43.61"><defs><style>.cls-1,.cls-4,.cls-5{fill:none;}.cls-2{isolation:isolate;}.cls-3{clip-path:url(#clip-path);}.cls-4,.cls-5{stroke:#003ab5;stroke-linecap:round;stroke-linejoin:round;}.cls-4{stroke-width:0.71px;}.cls-5{stroke-width:1.19px;}</style><clipPath id="clip-path" transform="translate(-0.39 -0.86)"><rect class="cls-1" x="0.4" y="0.7" width="56.51" height="43.92"/></clipPath></defs><g class="cls-2"><g class="cls-3"><path class="cls-4" d="M46.88,14a4.29,4.29,0,0,1,1.62-1.31c1.42-.62,2.17.17,2.79.84,1.07,1.18,1.76,2,2.45,2.18C54.83,16,56,14.88,56.56,14" transform="translate(-0.39 -0.86)"/><path class="cls-4" d="M46.88,16.49a4.25,4.25,0,0,1,1.62-1.32c1.42-.62,2.17.18,2.79.85,1.07,1.17,1.76,2,2.45,2.18,1.09.33,2.21-.83,2.82-1.71" transform="translate(-0.39 -0.86)"/><path class="cls-4" d="M46.88,19a4.35,4.35,0,0,1,1.62-1.32c1.42-.62,2.17.18,2.79.85,1.07,1.17,1.76,2,2.45,2.18C54.83,21,56,19.87,56.56,19" transform="translate(-0.39 -0.86)"/><path class="cls-4" d="M46.88,21.48a4.15,4.15,0,0,1,1.62-1.32c1.42-.63,2.17.17,2.79.85,1.07,1.17,1.76,2,2.45,2.18,1.09.32,2.21-.83,2.82-1.71" transform="translate(-0.39 -0.86)"/><path class="cls-4" d="M46.88,23.88a4.2,4.2,0,0,1,1.62-1.33c1.42-.62,2.17.18,2.79.85,1.07,1.17,1.76,2,2.45,2.19,1.09.32,2.21-.83,2.82-1.71" transform="translate(-0.39 -0.86)"/><path class="cls-4" d="M46.88,26.36A4.35,4.35,0,0,1,48.5,25c1.42-.62,2.17.18,2.79.85,1.07,1.17,1.76,2,2.45,2.18,1.09.34,2.21-.83,2.82-1.71" transform="translate(-0.39 -0.86)"/><path class="cls-4" d="M46.88,28.86a4.3,4.3,0,0,1,1.62-1.33c1.42-.62,2.17.18,2.79.85,1.07,1.18,1.76,2,2.45,2.18,1.09.33,2.21-.82,2.82-1.7" transform="translate(-0.39 -0.86)"/><path class="cls-4" d="M46.88,31.35A4.25,4.25,0,0,1,48.5,30c1.42-.63,2.17.17,2.79.85,1.07,1.17,1.76,2,2.45,2.18,1.09.32,2.21-.83,2.82-1.71" transform="translate(-0.39 -0.86)"/><path class="cls-5" d="M36.57,7.89c2.17,3.36.8,8-3.07,10.38" transform="translate(-0.39 -0.86)"/><path class="cls-5" d="M41.62,28.32c-1.75,3.6-6.37,4.7-10.31,2.47" transform="translate(-0.39 -0.86)"/><path class="cls-5" d="M26.91,43.21c-3.93.24-7.17-3.29-7.26-7.9" transform="translate(-0.39 -0.86)"/><path class="cls-5" d="M25.24,22.67a3.61,3.61,0,0,1-1.73,3.17,3.45,3.45,0,0,1-3.56,0,3.78,3.78,0,0,1,0-6.35,3.45,3.45,0,0,1,3.56,0,3.62,3.62,0,0,1,1.73,3.18" transform="translate(-0.39 -0.86)"/><path class="cls-5" d="M16.7,2.09C20.62,1.84,23.87,5.38,24,10" transform="translate(-0.39 -0.86)"/><path class="cls-5" d="M34.26,22.67a12.88,12.88,0,0,1-6.21,11.26,12.3,12.3,0,0,1-12.64,0A12.89,12.89,0,0,1,9.19,22.67,12.89,12.89,0,0,1,15.41,11.4a12.3,12.3,0,0,1,12.64,0,12.88,12.88,0,0,1,6.21,11.27" transform="translate(-0.39 -0.86)"/><path class="cls-5" d="M6.77,37.37C4.6,34,6,29.37,9.84,27" transform="translate(-0.39 -0.86)"/><path class="cls-5" d="M1.77,16.86a6.39,6.39,0,0,1,4.34-3.43,8.31,8.31,0,0,1,6,1" transform="translate(-0.39 -0.86)"/><path class="cls-5" d="M29.46,12.77A5.23,5.23,0,0,0,27,6.22,17.4,17.4,0,0,1,38.45,19a5.16,5.16,0,0,1-4.28,5.57,11.87,11.87,0,0,0,.12-1.68,13,13,0,0,0-4.83-10.11" transform="translate(-0.39 -0.86)"/><path class="cls-5" d="M17,11a5,5,0,0,0-6.76-1.13A16.86,16.86,0,0,1,26.77,6.16a5.2,5.2,0,0,1,2.58,6.58A11.27,11.27,0,0,0,28,11.81,12.28,12.28,0,0,0,17,11,12.78,12.78,0,0,0,9.3,21.14,5.14,5.14,0,0,0,5,26.77,17.77,17.77,0,0,1,10.26,9.89,5,5,0,0,1,17,11" transform="translate(-0.39 -0.86)"/><path class="cls-5" d="M33.57,35.54a5,5,0,0,1-7-.83,12.78,12.78,0,0,0,7.57-10.23,13,13,0,0,0-4.82-11.74,5.2,5.2,0,0,0-2.58-6.58,17.4,17.4,0,0,1,11.62,12.7,17.8,17.8,0,0,1-4.82,16.68,16.86,16.86,0,0,1-16.8,4.13A5.21,5.21,0,0,1,14,33,12.29,12.29,0,0,0,26.6,34.71a5,5,0,0,0,7,.83" transform="translate(-0.39 -0.86)"/><path class="cls-5" d="M5,26.77A5.14,5.14,0,0,1,9.3,21.14,13,13,0,0,0,14,33a5.21,5.21,0,0,0,2.79,6.69A17.37,17.37,0,0,1,5,26.77" transform="translate(-0.39 -0.86)"/><path class="cls-5" d="M42.47,22.67A21,21,0,0,1,21.73,43.88,21,21,0,0,1,1,22.67,21,21,0,0,1,21.73,1.45,21,21,0,0,1,42.47,22.67" transform="translate(-0.39 -0.86)"/></g></g></svg>