<svg id="Layer_5" data-name="Layer 5" xmlns="http://www.w3.org/2000/svg" xmlns:xlink="http://www.w3.org/1999/xlink" viewBox="0 0 57.39 44.97"><defs><style>.cls-1,.cls-10,.cls-11,.cls-4,.cls-5,.cls-6,.cls-7,.cls-8,.cls-9{fill:none;}.cls-2{isolation:isolate;}.cls-3{clip-path:url(#clip-path);}.cls-10,.cls-11,.cls-4,.cls-5,.cls-6,.cls-7,.cls-8,.cls-9{stroke:#003ab5;stroke-linecap:round;stroke-linejoin:round;}.cls-4{stroke-width:1.2px;}.cls-5{stroke-width:1.2px;}.cls-6{stroke-width:1.2px;}.cls-7{stroke-width:1.2px;}.cls-8{stroke-width:1.2px;}.cls-9{stroke-width:1.2px;}.cls-10{stroke-width:1.2px;}.cls-11{stroke-width:0.72px;}</style><clipPath id="clip-path"><rect class="cls-1" width="57.39" height="44.97"/></clipPath></defs><g class="cls-2"><g class="cls-3"><path class="cls-4" d="M42.73,22.5A21.21,21.21,0,0,1,21.66,43.84,21.21,21.21,0,0,1,.59,22.5,21.22,21.22,0,0,1,21.66,1.15,21.21,21.21,0,0,1,42.73,22.5Z"/><path class="cls-4" d="M34.39,22.5A12.73,12.73,0,1,1,21.66,9.6,12.82,12.82,0,0,1,34.39,22.5Z"/><path class="cls-5" d="M19.56,35.22c-.12,4.84,3.17,8.4,7.36,8"/><path class="cls-6" d="M31.39,30.68c4.08,2.53,8.77,1.41,10.49-2.49"/><path class="cls-7" d="M33.63,18.08c4.19-2.31,5.58-7,3.11-10.44"/><path class="cls-8" d="M23.93,9.74c.12-4.83-3.18-8.39-7.37-7.95"/><path class="cls-9" d="M11.89,14.16c-4.08-2.52-8.77-1.4-10.49,2.49"/><path class="cls-10" d="M9.58,26.85c-4.19,2.31-5.58,7-3.11,10.44"/><path class="cls-4" d="M25.23,22.5a3.57,3.57,0,1,1-3.57-3.62A3.59,3.59,0,0,1,25.23,22.5Z"/><path class="cls-11" d="M47.21,13.67a4.22,4.22,0,0,1,1.64-1.33c1.45-.63,2.21.17,2.84.85,1.08,1.18,1.78,2,2.48,2.2,1.11.32,2.25-.83,2.86-1.72"/><path class="cls-11" d="M47.21,16.18a4.38,4.38,0,0,1,1.64-1.34c1.45-.62,2.21.18,2.84.86,1.08,1.17,1.78,2,2.48,2.2,1.11.32,2.25-.83,2.86-1.72"/><path class="cls-11" d="M47.21,18.69a4.22,4.22,0,0,1,1.64-1.33c1.45-.63,2.21.17,2.84.85,1.08,1.17,1.78,2,2.48,2.19,1.11.34,2.25-.82,2.86-1.71"/><path class="cls-11" d="M47.21,21.19a4.32,4.32,0,0,1,1.64-1.33c1.45-.62,2.21.18,2.84.85,1.08,1.18,1.78,2,2.48,2.2,1.11.33,2.25-.83,2.86-1.72"/><path class="cls-11" d="M47.21,23.6a4.22,4.22,0,0,1,1.64-1.33c1.45-.63,2.21.17,2.84.86,1.08,1.18,1.78,2,2.48,2.19,1.11.33,2.25-.83,2.86-1.72"/><path class="cls-11" d="M47.21,26.11a4.22,4.22,0,0,1,1.64-1.33c1.45-.63,2.21.17,2.84.85,1.08,1.18,1.78,2,2.48,2.2,1.11.33,2.25-.83,2.86-1.72"/><path class="cls-11" d="M47.21,28.62a4.22,4.22,0,0,1,1.64-1.33c1.45-.63,2.21.17,2.84.85,1.08,1.17,1.78,2,2.48,2.2,1.11.33,2.25-.83,2.86-1.72"/><path class="cls-11" d="M47.21,31.12a4.17,4.17,0,0,1,1.64-1.32c1.45-.63,2.21.17,2.84.85,1.08,1.18,1.78,2,2.48,2.19,1.11.34,2.25-.83,2.86-1.72"/></g></g></svg>