<svg xmlns="http://www.w3.org/2000/svg" height="48dp" viewportHeight="44.97" viewportWidth="50.3" width="53.689125dp" xmlns:android="http://schemas.android.com/apk/res/android">
	<group>
		<clip-path d="M-44.68,-3.49h139.4v70.45h-139.4z"/>
		<path fill="#00000000" d="M2.4,23.74h1.46v6.07h-1.46z" stroke="#003ab5" strokeLineCap="round" strokeLineJoin="round" stroke-width="1.22"/>
		<path fill="#00000000" d="M2.4,15.3h1.46v6.02h-1.46z" stroke="#003ab5" strokeLineCap="round" strokeLineJoin="round" stroke-width="1.22"/>
		<path fill="#00000000" d="M6.78,23.74h1.46v7.29h-1.46z" stroke="#003ab5" strokeLineCap="round" strokeLineJoin="round" stroke-width="1.22"/>
		<path fill="#00000000" d="M6.78,14.08h1.46v7.24h-1.46z" stroke="#003ab5" strokeLineCap="round" strokeLineJoin="round" stroke-width="1.22"/>
		<path fill="#00000000" d="M11.17,23.74h1.46v8.5h-1.46z" stroke="#003ab5" strokeLineCap="round" strokeLineJoin="round" stroke-width="1.22"/>
		<path fill="#00000000" d="M11.17,12.87h1.46v8.45h-1.46z" stroke="#003ab5" strokeLineCap="round" strokeLineJoin="round" stroke-width="1.22"/>
		<path fill="#00000000" d="M15.56,23.74h1.46v9.7h-1.46z" stroke="#003ab5" strokeLineCap="round" strokeLineJoin="round" stroke-width="1.22"/>
		<path fill="#00000000" d="M15.56,11.66h1.46v9.66h-1.46z" stroke="#003ab5" strokeLineCap="round" strokeLineJoin="round" stroke-width="1.22"/>
		<path fill="#00000000" d="M19.95,23.74h1.46v10.91h-1.46z" stroke="#003ab5" strokeLineCap="round" strokeLineJoin="round" stroke-width="1.22"/>
		<path fill="#00000000" d="M19.95,10.45h1.46v10.87h-1.46z" stroke="#003ab5" strokeLineCap="round" strokeLineJoin="round" stroke-width="1.22"/>
		<path fill="#00000000" d="M24.34,23.74h1.46v12.12h-1.46z" stroke="#003ab5" strokeLineCap="round" strokeLineJoin="round" stroke-width="1.22"/>
		<path fill="#00000000" d="M24.34,9.25h1.46v12.07h-1.46z" stroke="#003ab5" strokeLineCap="round" strokeLineJoin="round" stroke-width="1.22"/>
		<path fill="#00000000" d="M28.73,23.74h1.46v13.33h-1.46z" stroke="#003ab5" strokeLineCap="round" strokeLineJoin="round" stroke-width="1.22"/>
		<path fill="#00000000" d="M28.73,8.03h1.46v13.29h-1.46z" stroke="#003ab5" strokeLineCap="round" strokeLineJoin="round" stroke-width="1.22"/>
		<path fill="#00000000" d="M33.12,23.74h1.46v14.54h-1.46z" stroke="#003ab5" strokeLineCap="round" strokeLineJoin="round" stroke-width="1.22"/>
		<path fill="#00000000" d="M33.12,6.83h1.46v14.49h-1.46z" stroke="#003ab5" strokeLineCap="round" strokeLineJoin="round" stroke-width="1.22"/>
		<path fill="#00000000" d="M37.51,23.74h1.46v15.75h-1.46z" stroke="#003ab5" strokeLineCap="round" strokeLineJoin="round" stroke-width="1.22"/>
		<path fill="#00000000" d="M37.51,5.62h1.46v15.7h-1.46z" stroke="#003ab5" strokeLineCap="round" strokeLineJoin="round" stroke-width="1.22"/>
		<path fill="#00000000" d="M41.89,23.74h1.46v16.96h-1.46z" stroke="#003ab5" strokeLineCap="round" strokeLineJoin="round" stroke-width="1.22"/>
		<path fill="#00000000" d="M41.89,4.41h1.46v16.91h-1.46z" stroke="#003ab5" strokeLineCap="round" strokeLineJoin="round" stroke-width="1.22"/>
		<path fill="#00000000" d="M46.28,23.74h1.46v18.17h-1.46z" stroke="#003ab5" strokeLineCap="round" strokeLineJoin="round" stroke-width="1.22"/>
		<path fill="#00000000" d="M46.28,3.2h1.46v18.12h-1.46z" stroke="#003ab5" strokeLineCap="round" strokeLineJoin="round" stroke-width="1.22"/>
		<path fill="#00000000" d="M0.98,21.32h48.27v2.37h-48.27z" stroke="#003ab5" strokeLineCap="round" strokeLineJoin="round" stroke-width="1.22"/>
		<path fill="#00000000" d="M3.86,21.92L2.44,23.1" stroke="#003ab5" strokeLineCap="round" strokeLineJoin="round" stroke-width="1.22"/>
		<path fill="#00000000" d="M8.25,21.92L6.79,23.13" stroke="#003ab5" strokeLineCap="round" strokeLineJoin="round" stroke-width="1.22"/>
		<path fill="#00000000" d="M12.64,21.92L11.19,23.12" stroke="#003ab5" strokeLineCap="round" strokeLineJoin="round" stroke-width="1.22"/>
		<path fill="#00000000" d="M17.03,21.92L15.63,23.08" stroke="#003ab5" strokeLineCap="round" strokeLineJoin="round" stroke-width="1.22"/>
		<path fill="#00000000" d="M21.42,21.92L19.99,23.1" stroke="#003ab5" strokeLineCap="round" strokeLineJoin="round" stroke-width="1.22"/>
		<path fill="#00000000" d="M25.8,21.92L24.34,23.13" stroke="#003ab5" strokeLineCap="round" strokeLineJoin="round" stroke-width="1.22"/>
		<path fill="#00000000" d="M30.19,21.92L28.73,23.13" stroke="#003ab5" strokeLineCap="round" strokeLineJoin="round" stroke-width="1.22"/>
		<path fill="#00000000" d="M34.58,21.92L33.09,23.15" stroke="#003ab5" strokeLineCap="round" strokeLineJoin="round" stroke-width="1.22"/>
		<path fill="#00000000" d="M38.97,21.92L37.51,23.13" stroke="#003ab5" strokeLineCap="round" strokeLineJoin="round" stroke-width="1.22"/>
		<path fill="#00000000" d="M43.36,21.92L41.9,23.13" stroke="#003ab5" strokeLineCap="round" strokeLineJoin="round" stroke-width="1.22"/>
		<path fill="#00000000" d="M47.74,21.92L46.31,23.11" stroke="#003ab5" strokeLineCap="round" strokeLineJoin="round" stroke-width="1.22"/>
		<path fill="#00000000" d="M3.86,17.9L2.4,18.01" stroke="#003ab5" strokeLineCap="round" strokeLineJoin="round" stroke-width="1.22"/>
		<path fill="#00000000" d="M8.25,17.58L6.79,17.68" stroke="#003ab5" strokeLineCap="round" strokeLineJoin="round" stroke-width="1.22"/>
		<path fill="#00000000" d="M12.64,17.26L11.18,17.37" stroke="#003ab5" strokeLineCap="round" strokeLineJoin="round" stroke-width="1.22"/>
		<path fill="#00000000" d="M17.03,16.94L15.57,17.05" stroke="#003ab5" strokeLineCap="round" strokeLineJoin="round" stroke-width="1.22"/>
		<path fill="#00000000" d="M21.42,16.62L19.96,16.73" stroke="#003ab5" strokeLineCap="round" strokeLineJoin="round" stroke-width="1.22"/>
		<path fill="#00000000" d="M25.8,16.3L24.34,16.41" stroke="#003ab5" strokeLineCap="round" strokeLineJoin="round" stroke-width="1.22"/>
		<path fill="#00000000" d="M30.19,15.98L28.73,16.09" stroke="#003ab5" strokeLineCap="round" strokeLineJoin="round" stroke-width="1.22"/>
		<path fill="#00000000" d="M34.58,15.66L33.12,15.77" stroke="#003ab5" strokeLineCap="round" strokeLineJoin="round" stroke-width="1.22"/>
		<path fill="#00000000" d="M38.97,15.34L37.51,15.45" stroke="#003ab5" strokeLineCap="round" strokeLineJoin="round" stroke-width="1.22"/>
		<path fill="#00000000" d="M43.36,15.02L41.9,15.13" stroke="#003ab5" strokeLineCap="round" strokeLineJoin="round" stroke-width="1.22"/>
		<path fill="#00000000" d="M47.74,14.7L46.29,14.81" stroke="#003ab5" strokeLineCap="round" strokeLineJoin="round" stroke-width="1.22"/>
		<path fill="#00000000" d="M3.86,27.2L2.4,27.1" stroke="#003ab5" strokeLineCap="round" strokeLineJoin="round" stroke-width="1.22"/>
		<path fill="#00000000" d="M8.25,27.52L6.79,27.42" stroke="#003ab5" strokeLineCap="round" strokeLineJoin="round" stroke-width="1.22"/>
		<path fill="#00000000" d="M12.64,27.84L11.18,27.73" stroke="#003ab5" strokeLineCap="round" strokeLineJoin="round" stroke-width="1.22"/>
		<path fill="#00000000" d="M17.03,28.16L15.57,28.06" stroke="#003ab5" strokeLineCap="round" strokeLineJoin="round" stroke-width="1.22"/>
		<path fill="#00000000" d="M21.42,28.48L19.96,28.37" stroke="#003ab5" strokeLineCap="round" strokeLineJoin="round" stroke-width="1.22"/>
		<path fill="#00000000" d="M25.8,28.8L24.34,28.69" stroke="#003ab5" strokeLineCap="round" strokeLineJoin="round" stroke-width="1.22"/>
		<path fill="#00000000" d="M30.19,29.12L28.73,29.01" stroke="#003ab5" strokeLineCap="round" strokeLineJoin="round" stroke-width="1.22"/>
		<path fill="#00000000" d="M34.58,29.44L33.12,29.33" stroke="#003ab5" strokeLineCap="round" strokeLineJoin="round" stroke-width="1.22"/>
		<path fill="#00000000" d="M38.97,29.76L37.51,29.65" stroke="#003ab5" strokeLineCap="round" strokeLineJoin="round" stroke-width="1.22"/>
		<path fill="#00000000" d="M43.36,30.08L41.9,29.97" stroke="#003ab5" strokeLineCap="round" strokeLineJoin="round" stroke-width="1.22"/>
		<path fill="#00000000" d="M47.74,30.4L46.29,30.29" stroke="#003ab5" strokeLineCap="round" strokeLineJoin="round" stroke-width="1.22"/>
		<path fill="#00000000" d="M48.47,0.91L0.79,13.7" stroke="#003ab5" strokeLineCap="round" strokeLineJoin="round" stroke-width="0.73"/>
		<path fill="#00000000" d="M48.47,44.19L0.79,31.4" stroke="#003ab5" strokeLineCap="round" strokeLineJoin="round" stroke-width="0.73"/>
	</group>
</svg>
