<svg id="Layer_9" data-name="Layer 9" xmlns="http://www.w3.org/2000/svg" xmlns:xlink="http://www.w3.org/1999/xlink" viewBox="0 0 50.3 44.97"><defs><style>.cls-1,.cls-4,.cls-5,.cls-6,.cls-7,.cls-8,.cls-9{fill:none;}.cls-2{isolation:isolate;}.cls-3{clip-path:url(#clip-path);}.cls-4,.cls-5,.cls-6,.cls-7,.cls-8,.cls-9{stroke:#003ab5;stroke-linecap:round;stroke-linejoin:round;}.cls-4{stroke-width:1.22px;}.cls-5{stroke-width:1.22px;}.cls-6{stroke-width:1.22px;}.cls-7{stroke-width:1.22px;}.cls-8{stroke-width:0.73px;}.cls-9{stroke-width:0.73px;}</style><clipPath id="clip-path"><rect class="cls-1" x="-44.68" y="-3.49" width="139.4" height="70.45"/></clipPath></defs><g class="cls-2"><g class="cls-3"><rect class="cls-4" x="2.4" y="23.74" width="1.46" height="6.07"/><rect class="cls-4" x="2.4" y="15.3" width="1.46" height="6.02"/><rect class="cls-4" x="6.78" y="23.74" width="1.46" height="7.29"/><rect class="cls-4" x="6.78" y="14.08" width="1.46" height="7.24"/><rect class="cls-4" x="11.17" y="23.74" width="1.46" height="8.5"/><rect class="cls-4" x="11.17" y="12.87" width="1.46" height="8.45"/><rect class="cls-4" x="15.56" y="23.74" width="1.46" height="9.7"/><rect class="cls-4" x="15.56" y="11.66" width="1.46" height="9.66"/><rect class="cls-4" x="19.95" y="23.74" width="1.46" height="10.91"/><rect class="cls-4" x="19.95" y="10.45" width="1.46" height="10.87"/><rect class="cls-4" x="24.34" y="23.74" width="1.46" height="12.12"/><rect class="cls-4" x="24.34" y="9.25" width="1.46" height="12.07"/><rect class="cls-4" x="28.73" y="23.74" width="1.46" height="13.33"/><rect class="cls-4" x="28.73" y="8.03" width="1.46" height="13.29"/><rect class="cls-4" x="33.12" y="23.74" width="1.46" height="14.54"/><rect class="cls-4" x="33.12" y="6.83" width="1.46" height="14.49"/><rect class="cls-4" x="37.51" y="23.74" width="1.46" height="15.75"/><rect class="cls-4" x="37.51" y="5.62" width="1.46" height="15.7"/><rect class="cls-4" x="41.89" y="23.74" width="1.46" height="16.96"/><rect class="cls-4" x="41.89" y="4.41" width="1.46" height="16.91"/><rect class="cls-4" x="46.28" y="23.74" width="1.46" height="18.17"/><rect class="cls-4" x="46.28" y="3.2" width="1.46" height="18.12"/><rect class="cls-4" x="0.98" y="21.32" width="48.27" height="2.37"/><line class="cls-5" x1="3.86" y1="21.92" x2="2.44" y2="23.1"/><line class="cls-5" x1="8.25" y1="21.92" x2="6.79" y2="23.13"/><line class="cls-5" x1="12.64" y1="21.92" x2="11.19" y2="23.12"/><line class="cls-5" x1="17.03" y1="21.92" x2="15.63" y2="23.08"/><line class="cls-5" x1="21.42" y1="21.92" x2="19.99" y2="23.1"/><line class="cls-5" x1="25.8" y1="21.92" x2="24.34" y2="23.13"/><line class="cls-5" x1="30.19" y1="21.92" x2="28.73" y2="23.13"/><line class="cls-5" x1="34.58" y1="21.92" x2="33.09" y2="23.15"/><line class="cls-5" x1="38.97" y1="21.92" x2="37.51" y2="23.13"/><line class="cls-5" x1="43.36" y1="21.92" x2="41.9" y2="23.13"/><line class="cls-5" x1="47.74" y1="21.92" x2="46.31" y2="23.11"/><line class="cls-6" x1="3.86" y1="17.9" x2="2.4" y2="18.01"/><line class="cls-6" x1="8.25" y1="17.58" x2="6.79" y2="17.68"/><line class="cls-6" x1="12.64" y1="17.26" x2="11.18" y2="17.37"/><line class="cls-6" x1="17.03" y1="16.94" x2="15.57" y2="17.05"/><line class="cls-6" x1="21.42" y1="16.62" x2="19.96" y2="16.73"/><line class="cls-6" x1="25.8" y1="16.3" x2="24.34" y2="16.41"/><line class="cls-6" x1="30.19" y1="15.98" x2="28.73" y2="16.09"/><line class="cls-6" x1="34.58" y1="15.66" x2="33.12" y2="15.77"/><line class="cls-6" x1="38.97" y1="15.34" x2="37.51" y2="15.45"/><line class="cls-6" x1="43.36" y1="15.02" x2="41.9" y2="15.13"/><line class="cls-6" x1="47.74" y1="14.7" x2="46.29" y2="14.81"/><line class="cls-7" x1="3.86" y1="27.2" x2="2.4" y2="27.1"/><line class="cls-7" x1="8.25" y1="27.52" x2="6.79" y2="27.42"/><line class="cls-7" x1="12.64" y1="27.84" x2="11.18" y2="27.73"/><line class="cls-7" x1="17.03" y1="28.16" x2="15.57" y2="28.06"/><line class="cls-7" x1="21.42" y1="28.48" x2="19.96" y2="28.37"/><line class="cls-7" x1="25.8" y1="28.8" x2="24.34" y2="28.69"/><line class="cls-7" x1="30.19" y1="29.12" x2="28.73" y2="29.01"/><line class="cls-7" x1="34.58" y1="29.44" x2="33.12" y2="29.33"/><line class="cls-7" x1="38.97" y1="29.76" x2="37.51" y2="29.65"/><line class="cls-7" x1="43.36" y1="30.08" x2="41.9" y2="29.97"/><line class="cls-7" x1="47.74" y1="30.4" x2="46.29" y2="30.29"/><line class="cls-8" x1="48.47" y1="0.91" x2="0.79" y2="13.7"/><line class="cls-9" x1="48.47" y1="44.19" x2="0.79" y2="31.4"/></g></g></svg>