<svg xmlns="http://www.w3.org/2000/svg" height="100dp" viewportHeight="200" viewportWidth="200" width="100dp" xmlns:android="http://schemas.android.com/apk/res/android">
	<group>
		<clip-path d="M0,0h200v200h-200z"/>
		<path fill="#fff" d="M198.24,0.72h1.04v1.04h-1.04z"/>
		<path fill="#00000000" d="M198.24,0.72h1.04v1.04h-1.04z" stroke="#fff" strokeLineCap="round" strokeLineJoin="round" stroke-width="1.39"/>
		<path fill="#fff" d="M0.7,198.21h1.04v1.04h-1.04z"/>
		<path fill="#00000000" d="M0.7,198.21h1.04v1.04h-1.04z" stroke="#fff" strokeLineCap="round" strokeLineJoin="round" stroke-width="1.39"/>
		<path fill="#fff" fill-rule="evenOdd" d="M94.76,18.18c-16.86,8 -28.68,50.18 -27.21,97.05s15.72,82.87 32.83,82.87 31.37,-36 32.83,-82.87S122.85,26.2 106,18.18V4.5c0,-2.28 -0.67,-4.12 -1.5,-4.12H96.26c-0.83,0 -1.5,1.85 -1.5,4.12Z"/>
		<path fill="#fec010" fill-rule="evenOdd" d="M94.87,26.47C79.73,34.41 69.28,72.71 70.72,114.9s14.34,74.42 29.75,74.42 28.29,-32.23 29.74,-74.42 -9,-80.49 -24.14,-88.43V40.32c12.36,7.83 20.61,39.93 19.18,74.6s-12.1,60.84 -24.78,60.84 -23.35,-26.18 -24.79,-60.84 6.83,-66.77 19.19,-74.6Z"/>
		<path fill="#26499f" d="M97.3,8.33h5.69v51.35h-5.69z"/>
		<path fill="#FF000000" fill-rule="evenOdd" d="M92.48,107.89a8.24,8.24 0,1 1,8.24 8.24A8.24,8.24 0,0 1,92.48 107.89Z"/>
		<path fill="#00000000" d="M92.48,107.89a8.24,8.24 0,1 1,8.24 8.24A8.24,8.24 0,0 1,92.48 107.89Z" stroke="#000" strokeLineCap="round" strokeLineJoin="round" stroke-width="1.39"/>
		<path fill="#FF000000" d="M100,74.88h1.68v65.91h-1.68z"/>
		<path fill="#00000000" d="M100,74.88h1.68v65.91h-1.68z" stroke="#000" strokeLineCap="round" strokeLineJoin="round" stroke-width="1.39"/>
	</group>
</svg>
