<svg id="Layer_6" data-name="Layer 6" xmlns="http://www.w3.org/2000/svg" xmlns:xlink="http://www.w3.org/1999/xlink" viewBox="0 0 56.24 44.11"><defs><style>.cls-1,.cls-4,.cls-5,.cls-6{fill:none;}.cls-2{isolation:isolate;}.cls-3{clip-path:url(#clip-path);}.cls-4,.cls-5,.cls-6{stroke:#003ab5;stroke-linecap:round;stroke-linejoin:round;}.cls-4{stroke-width:1.68px;}.cls-5{stroke-width:0.72px;}.cls-6{stroke-width:0.24px;}.cls-7,.cls-8,.cls-9{fill:#003ab5;}.cls-7{fill-rule:evenodd;}.cls-8{font-size:5.76px;}.cls-8,.cls-9{font-family:Carlito;}.cls-9{font-size:3.84px;}</style><clipPath id="clip-path" transform="translate(-0.48 -0.43)"><rect class="cls-1" x="-40.47" y="-4.13" width="138.13" height="69.06"/></clipPath></defs><g class="cls-2"><g class="cls-3"><path class="cls-4" d="M12.59,6.58h-7a4.32,4.32,0,0,0-4.32,4.31V34.08a4.32,4.32,0,0,0,4.32,4.31h7a4.26,4.26,0,0,1,2.63.91,21.23,21.23,0,0,0,25.89,0,4.34,4.34,0,0,1,2.63-.91h7.82a4.31,4.31,0,0,0,4.31-4.31V10.89a4.31,4.31,0,0,0-4.31-4.31H43.74a4.34,4.34,0,0,1-2.63-.91,21.23,21.23,0,0,0-25.89,0A4.32,4.32,0,0,1,12.59,6.58Z" transform="translate(-0.48 -0.43)"/><path class="cls-4" d="M49.81,22.48A21.22,21.22,0,1,1,28.6,1.27,21.22,21.22,0,0,1,49.81,22.48Z" transform="translate(-0.48 -0.43)"/><path class="cls-5" d="M46.5,21.63A17.69,17.69,0,1,1,28.82,4,17.68,17.68,0,0,1,46.5,21.63Z" transform="translate(-0.48 -0.43)"/><path class="cls-6" d="M39.52,20.94h1.87a12.59,12.59,0,0,1-3.74,9l-1.32-1.31a10.67,10.67,0,0,0,3.19-7.64" transform="translate(-0.48 -0.43)"/><path class="cls-6" d="M36.33,13.31,37.65,12a12.57,12.57,0,0,1,3.74,9H39.52a10.73,10.73,0,0,0-3.19-7.63" transform="translate(-0.48 -0.43)"/><path class="cls-6" d="M28.69,10.23V8.36a12.62,12.62,0,0,1,9,3.63l-1.32,1.32a10.72,10.72,0,0,0-7.64-3.08" transform="translate(-0.48 -0.43)"/><path class="cls-6" d="M21.19,13.43l-1.32-1.31a12.54,12.54,0,0,0-3.62,8.82h1.86a10.67,10.67,0,0,1,3.08-7.51l-1.32-1.31a12.58,12.58,0,0,1,8.82-3.76v1.87a10.71,10.71,0,0,0-7.5,3.2" transform="translate(-0.48 -0.43)"/><line class="cls-6" x1="18.44" y1="16.45" x2="16.71" y2="15.74"/><path class="cls-6" d="M18.11,20.94a10.67,10.67,0,0,0,3.08,7.51l-1.32,1.33a12.6,12.6,0,0,1-3.62-8.84h1.86" transform="translate(-0.48 -0.43)"/><path class="cls-7" d="M29.68,21.79a1.06,1.06,0,0,1-.51.91,1,1,0,0,1-1.56-.91,1,1,0,0,1,.51-.91,1,1,0,0,1,1.56.91Zm-.45-.95a1.12,1.12,0,0,0-1.16,0,1.11,1.11,0,0,0-.51,1l-11.18,7,11.69-6.18a1.1,1.1,0,0,0,1.11,0,1.08,1.08,0,0,0,.58-.94l2.07-1.1h0c1.75-.44,3-.32,3.35.34l-2.6-4.5c.39.66-.11,1.79-1.37,3.08l0,0Z" transform="translate(-0.48 -0.43)"/><path class="cls-5" d="M29.68,21.79a1.06,1.06,0,0,1-.51.91,1,1,0,0,1-1.56-.91,1,1,0,0,1,.51-.91,1,1,0,0,1,1.56.91Zm-.45-.95a1.12,1.12,0,0,0-1.16,0,1.11,1.11,0,0,0-.51,1l-11.18,7,11.69-6.18a1.1,1.1,0,0,0,1.11,0,1.08,1.08,0,0,0,.58-.94l2.07-1.1h0c1.75-.44,3-.32,3.35.34l-2.6-4.5c.39.66-.11,1.79-1.37,3.08l0,0Z" transform="translate(-0.48 -0.43)"/><text class="cls-8" transform="translate(12.53 24.41)">-</text><text class="cls-8" transform="translate(41.67 24.4)">+</text><path class="cls-5" d="M25.6,30.47A1.49,1.49,0,1,1,24.12,29,1.5,1.5,0,0,1,25.6,30.47Z" transform="translate(-0.48 -0.43)"/><path class="cls-5" d="M34.83,30.47A1.49,1.49,0,1,1,33.34,29,1.51,1.51,0,0,1,34.83,30.47Z" transform="translate(-0.48 -0.43)"/><text class="cls-9" transform="translate(13.99 16.42)">0</text></g></g></svg>