<svg id="Layer_6" data-name="Layer 6" xmlns="http://www.w3.org/2000/svg" xmlns:xlink="http://www.w3.org/1999/xlink" viewBox="0 0 75.83 44.97"><defs><style>.cls-1,.cls-4,.cls-5,.cls-6,.cls-7,.cls-8{fill:none;}.cls-2{isolation:isolate;}.cls-3{clip-path:url(#clip-path);}.cls-4,.cls-5,.cls-6,.cls-7,.cls-8{stroke:#003ab5;stroke-linecap:round;stroke-linejoin:round;}.cls-4{stroke-width:0.98px;}.cls-5{stroke-width:0.49px;}.cls-6{stroke-width:0.1px;}.cls-7{stroke-width:0.1px;}.cls-8{stroke-width:1.23px;}</style><clipPath id="clip-path"><rect class="cls-1" x="0.01" width="75.73" height="44.97"/></clipPath></defs><g class="cls-2"><g class="cls-3"><rect class="cls-4" x="21.03" y="0.71" width="35.86" height="38.41"/><path class="cls-4" d="M21,.71H6.9A6.41,6.41,0,0,0,.5,7.11V35.29a6.4,6.4,0,0,0,6.4,6.4H18.43A2.56,2.56,0,0,1,21,39.13Z"/><path class="cls-4" d="M59.4,41.69h1.29a3.83,3.83,0,0,0,3.83-3.84V4.55A3.83,3.83,0,0,0,60.69.71H56.84V39.13A2.56,2.56,0,0,1,59.4,41.69Z"/><path class="cls-4" d="M59.4,41.69a2.56,2.56,0,0,0-2.56-2.56H21a2.56,2.56,0,0,0-2.55,2.56v2.56H28.67v-.58a.6.6,0,0,1,.18-.42.58.58,0,0,1,.41-.17l12.22,0h6.58l.21,0h.38a.52.52,0,0,1,.51.51v.3a1.1,1.1,0,0,1,0,.31H59.4Z"/><path class="cls-5" d="M74.17,22.49v0c0-.71.29-1.27.64-1.27s.64-.58.64-1.28-.29-1.28-.64-1.28H64.54v5.12H74.81C74.46,23.76,74.17,23.19,74.17,22.49Z"/><path class="cls-6" d="M74.41,22.49c0,.7.29,1.28.64,1.28s.64-.58.64-1.28-.29-1.28-.64-1.28-.64.56-.64,1.27Z"/><line class="cls-7" x1="75.17" y1="21.23" x2="74.47" y2="21.93"/><line class="cls-7" x1="75.36" y1="21.36" x2="74.42" y2="22.3"/><line class="cls-7" x1="75.48" y1="21.54" x2="74.42" y2="22.61"/><line class="cls-7" x1="75.58" y1="21.77" x2="74.45" y2="22.9"/><line class="cls-7" x1="75.64" y1="22.02" x2="74.52" y2="23.14"/><line class="cls-7" x1="75.68" y1="22.32" x2="74.6" y2="23.4"/><line class="cls-7" x1="75.68" y1="22.63" x2="74.73" y2="23.58"/><line class="cls-7" x1="75.62" y1="23.01" x2="74.91" y2="23.72"/><line class="cls-8" x1="21.03" y1="4.1" x2="56.89" y2="4.1"/><line class="cls-8" x1="21.03" y1="6.63" x2="56.89" y2="6.63"/><line class="cls-8" x1="21.03" y1="9.17" x2="56.89" y2="9.17"/><line class="cls-8" x1="21.03" y1="11.71" x2="56.89" y2="11.71"/><line class="cls-8" x1="20.99" y1="37.92" x2="56.85" y2="37.92"/><line class="cls-8" x1="20.99" y1="35.38" x2="56.85" y2="35.38"/><line class="cls-8" x1="21.03" y1="32.85" x2="56.89" y2="32.85"/><line class="cls-8" x1="20.99" y1="30.31" x2="56.85" y2="30.31"/><line class="cls-8" x1="23.5" y1="19.51" x2="23.5" y2="22.9"/><line class="cls-8" x1="25.69" y1="17.82" x2="25.69" y2="24.59"/><line class="cls-8" x1="27.88" y1="16.13" x2="27.88" y2="26.28"/><line class="cls-8" x1="30.07" y1="14.44" x2="30.07" y2="27.97"/><line class="cls-8" x1="36.65" y1="22.89" x2="36.65" y2="19.51"/><line class="cls-8" x1="34.46" y1="24.58" x2="34.46" y2="17.82"/><line class="cls-8" x1="32.27" y1="26.28" x2="32.27" y2="16.13"/><line class="cls-8" x1="41.02" y1="19.51" x2="41.02" y2="22.9"/><line class="cls-8" x1="43.21" y1="17.82" x2="43.21" y2="24.59"/><line class="cls-8" x1="45.4" y1="16.13" x2="45.4" y2="26.28"/><line class="cls-8" x1="47.59" y1="14.44" x2="47.59" y2="27.97"/><line class="cls-8" x1="54.17" y1="22.89" x2="54.17" y2="19.51"/><line class="cls-8" x1="51.98" y1="24.58" x2="51.98" y2="17.82"/><line class="cls-8" x1="49.79" y1="26.28" x2="49.79" y2="16.13"/></g></g></svg>