<svg id="Layer_2" data-name="Layer 2" xmlns="http://www.w3.org/2000/svg" xmlns:xlink="http://www.w3.org/1999/xlink" viewBox="0 0 58.47 44.97"><defs><style>.cls-1,.cls-10,.cls-11,.cls-4,.cls-5,.cls-6,.cls-7,.cls-8,.cls-9{fill:none;}.cls-2{isolation:isolate;}.cls-3{clip-path:url(#clip-path);}.cls-10,.cls-11,.cls-4,.cls-5,.cls-6,.cls-7,.cls-8,.cls-9{stroke:#003ab5;stroke-linecap:round;stroke-linejoin:round;}.cls-4{stroke-width:1.21px;}.cls-5{stroke-width:1.21px;}.cls-6{stroke-width:1.21px;}.cls-7{stroke-width:1.21px;}.cls-8{stroke-width:1.21px;}.cls-9{stroke-width:1.21px;}.cls-10{stroke-width:1.21px;}.cls-11{stroke-width:0.73px;}</style><clipPath id="clip-path"><rect class="cls-1" y="-0.13" width="58.47" height="45.22"/></clipPath></defs><g class="cls-2"><g class="cls-3"><path class="cls-4" d="M43.53,22.5A21.46,21.46,0,1,1,22.07,1,21.46,21.46,0,0,1,43.53,22.5Z"/><path class="cls-4" d="M35,22.5a13,13,0,1,1-13-13A13,13,0,0,1,35,22.5Z"/><path class="cls-5" d="M19.92,35.29c-.12,4.86,3.24,8.45,7.51,8"/><path class="cls-6" d="M32,30.73c4.15,2.54,8.94,1.42,10.68-2.5"/><path class="cls-7" d="M34.26,18.06c4.27-2.33,5.69-7,3.17-10.51"/><path class="cls-8" d="M24.38,9.67c.12-4.86-3.24-8.44-7.51-8"/><path class="cls-9" d="M12.11,14.12C8,11.58,3.18,12.7,1.43,16.62"/><path class="cls-10" d="M9.76,26.87c-4.27,2.33-5.69,7-3.17,10.5"/><path class="cls-4" d="M25.7,22.5a3.63,3.63,0,1,1-3.63-3.64A3.63,3.63,0,0,1,25.7,22.5Z"/><path class="cls-11" d="M48.09,13.62a4.35,4.35,0,0,1,1.67-1.34,2.27,2.27,0,0,1,2.89.86c1.11,1.19,1.82,2,2.54,2.21,1.12.33,2.29-.84,2.91-1.73"/><path class="cls-11" d="M48.09,16.14a4.56,4.56,0,0,1,1.67-1.34,2.29,2.29,0,0,1,2.89.86c1.11,1.18,1.82,2,2.54,2.21,1.12.33,2.29-.84,2.91-1.73"/><path class="cls-11" d="M48.09,18.67a4.35,4.35,0,0,1,1.67-1.34,2.28,2.28,0,0,1,2.89.85c1.11,1.18,1.82,2,2.54,2.21,1.12.34,2.29-.83,2.91-1.72"/><path class="cls-11" d="M48.09,21.18a4.56,4.56,0,0,1,1.67-1.34,2.31,2.31,0,0,1,2.89.86c1.11,1.19,1.82,2,2.54,2.21,1.12.34,2.29-.84,2.91-1.73"/><path class="cls-11" d="M48.09,23.61a4.35,4.35,0,0,1,1.67-1.34,2.27,2.27,0,0,1,2.89.86c1.11,1.19,1.82,2,2.54,2.21,1.12.32,2.29-.84,2.91-1.73"/><path class="cls-11" d="M48.09,26.13a4.56,4.56,0,0,1,1.67-1.34,2.29,2.29,0,0,1,2.89.86c1.11,1.18,1.82,2,2.54,2.21,1.12.33,2.29-.84,2.91-1.73"/><path class="cls-11" d="M48.09,28.66a4.35,4.35,0,0,1,1.67-1.34,2.28,2.28,0,0,1,2.89.85c1.11,1.18,1.82,2,2.54,2.21,1.12.33,2.29-.83,2.91-1.72"/><path class="cls-11" d="M48.09,31.17a4.3,4.3,0,0,1,1.67-1.33,2.28,2.28,0,0,1,2.89.85c1.11,1.19,1.82,2,2.54,2.21,1.12.34,2.29-.84,2.91-1.73"/></g></g></svg>